<?xml version="1.0" encoding="UTF-8" standalone="no"?>
<!DOCTYPE svg PUBLIC "-//W3C//DTD SVG 1.1//EN"
 "http://www.w3.org/Graphics/SVG/1.1/DTD/svg11.dtd">
<!-- Generated by graphviz version 14.1.1 (0)
 -->
<!-- Title: BezierMover.h Pages: 1 -->
<svg width="222pt" height="196pt"
 viewBox="0.00 0.00 222.00 196.00" xmlns="http://www.w3.org/2000/svg" xmlns:xlink="http://www.w3.org/1999/xlink">
<g id="graph0" class="graph" transform="scale(1 1) rotate(0) translate(4 192)">
<title>BezierMover.h</title>
<!-- Node1 -->
<g id="Node000001" class="node">
<title>Node1</title>
<g id="a_Node000001"><a xlink:title=" ">
<polygon fill="#999999" stroke="#666666" points="135.25,-188 56.25,-188 56.25,-168 135.25,-168 135.25,-188"/>
<text xml:space="preserve" text-anchor="middle" x="95.75" y="-174.5" font-family="Helvetica,sans-Serif" font-size="10.00">BezierMover.h</text>
</a>
</g>
</g>
<!-- Node2 -->
<g id="Node000002" class="node">
<title>Node2</title>
<g id="a_Node000002"><a xlink:href="_bezier_mover_8cpp.html" target="_top" xlink:title=" ">
<polygon fill="white" stroke="#666666" points="89.5,-132 0,-132 0,-112 89.5,-112 89.5,-132"/>
<text xml:space="preserve" text-anchor="middle" x="44.75" y="-118.5" font-family="Helvetica,sans-Serif" font-size="10.00">BezierMover.cpp</text>
</a>
</g>
</g>
<!-- Node1&#45;&gt;Node2 -->
<g id="edge1_Node000001_Node000002" class="edge">
<title>Node1&#45;&gt;Node2</title>
<g id="a_edge1_Node000001_Node000002"><a xlink:title=" ">
<path fill="none" stroke="#63b8ff" d="M79.02,-159.29C70.51,-150.28 60.52,-139.7 53.53,-132.3"/>
<polygon fill="#63b8ff" stroke="#63b8ff" points="76.42,-161.63 85.83,-166.49 81.51,-156.82 76.42,-161.63"/>
</a>
</g>
</g>
<!-- Node3 -->
<g id="Node000003" class="node">
<title>Node3</title>
<g id="a_Node000003"><a xlink:href="enemy_bezier_8h.html" target="_top" xlink:title=" ">
<polygon fill="white" stroke="#666666" points="188.38,-132 107.12,-132 107.12,-112 188.38,-112 188.38,-132"/>
<text xml:space="preserve" text-anchor="middle" x="147.75" y="-118.5" font-family="Helvetica,sans-Serif" font-size="10.00">enemyBezier.h</text>
</a>
</g>
</g>
<!-- Node1&#45;&gt;Node3 -->
<g id="edge2_Node000001_Node000003" class="edge">
<title>Node1&#45;&gt;Node3</title>
<g id="a_edge2_Node000001_Node000003"><a xlink:title=" ">
<path fill="none" stroke="#63b8ff" d="M112.54,-159.57C121.27,-150.5 131.59,-139.78 138.8,-132.3"/>
<polygon fill="#63b8ff" stroke="#63b8ff" points="110.27,-156.87 105.86,-166.5 115.32,-161.73 110.27,-156.87"/>
</a>
</g>
</g>
<!-- Node4 -->
<g id="Node000004" class="node">
<title>Node4</title>
<g id="a_Node000004"><a xlink:href="_game_8h.html" target="_top" xlink:title=" ">
<polygon fill="white" stroke="#666666" points="173,-76 122.5,-76 122.5,-56 173,-56 173,-76"/>
<text xml:space="preserve" text-anchor="middle" x="147.75" y="-62.5" font-family="Helvetica,sans-Serif" font-size="10.00">Game.h</text>
</a>
</g>
</g>
<!-- Node3&#45;&gt;Node4 -->
<g id="edge3_Node000003_Node000004" class="edge">
<title>Node3&#45;&gt;Node4</title>
<g id="a_edge3_Node000003_Node000004"><a xlink:title=" ">
<path fill="none" stroke="#63b8ff" d="M147.75,-100.13C147.75,-91.9 147.75,-82.85 147.75,-76.3"/>
<polygon fill="#63b8ff" stroke="#63b8ff" points="144.25,-100.08 147.75,-110.08 151.25,-100.08 144.25,-100.08"/>
</a>
</g>
</g>
<!-- Node5 -->
<g id="Node000005" class="node">
<title>Node5</title>
<g id="a_Node000005"><a xlink:href="_game_8cpp.html" target="_top" xlink:title=" ">
<polygon fill="white" stroke="#666666" points="140.25,-20 79.25,-20 79.25,0 140.25,0 140.25,-20"/>
<text xml:space="preserve" text-anchor="middle" x="109.75" y="-6.5" font-family="Helvetica,sans-Serif" font-size="10.00">Game.cpp</text>
</a>
</g>
</g>
<!-- Node4&#45;&gt;Node5 -->
<g id="edge4_Node000004_Node000005" class="edge">
<title>Node4&#45;&gt;Node5</title>
<g id="a_edge4_Node000004_Node000005"><a xlink:title=" ">
<path fill="none" stroke="#63b8ff" d="M134.69,-46.44C128.48,-37.62 121.34,-27.47 116.29,-20.3"/>
<polygon fill="#63b8ff" stroke="#63b8ff" points="131.64,-48.19 140.26,-54.36 137.37,-44.16 131.64,-48.19"/>
</a>
</g>
</g>
<!-- Node6 -->
<g id="Node000006" class="node">
<title>Node6</title>
<g id="a_Node000006"><a xlink:href="main_8cpp.html" target="_top" xlink:title=" ">
<polygon fill="white" stroke="#666666" points="213.62,-20 157.88,-20 157.88,0 213.62,0 213.62,-20"/>
<text xml:space="preserve" text-anchor="middle" x="185.75" y="-6.5" font-family="Helvetica,sans-Serif" font-size="10.00">main.cpp</text>
</a>
</g>
</g>
<!-- Node4&#45;&gt;Node6 -->
<g id="edge5_Node000004_Node000006" class="edge">
<title>Node4&#45;&gt;Node6</title>
<g id="a_edge5_Node000004_Node000006"><a xlink:title=" ">
<path fill="none" stroke="#63b8ff" d="M160.81,-46.44C167.02,-37.62 174.16,-27.47 179.21,-20.3"/>
<polygon fill="#63b8ff" stroke="#63b8ff" points="158.13,-44.16 155.24,-54.36 163.86,-48.19 158.13,-44.16"/>
</a>
</g>
</g>
</g>
</svg>
