<?xml version="1.0" encoding="UTF-8" standalone="no"?>
<!DOCTYPE svg PUBLIC "-//W3C//DTD SVG 1.1//EN"
 "http://www.w3.org/Graphics/SVG/1.1/DTD/svg11.dtd">
<!-- Generated by graphviz version 14.1.1 (0)
 -->
<!-- Title: ParamTable.h Pages: 1 -->
<svg width="691pt" height="364pt"
 viewBox="0.00 0.00 691.00 364.00" xmlns="http://www.w3.org/2000/svg" xmlns:xlink="http://www.w3.org/1999/xlink">
<g id="graph0" class="graph" transform="scale(1 1) rotate(0) translate(4 360)">
<title>ParamTable.h</title>
<!-- Node1 -->
<g id="Node000001" class="node">
<title>Node1</title>
<g id="a_Node000001"><a xlink:title=" ">
<polygon fill="#999999" stroke="#666666" points="165.25,-356 89.25,-356 89.25,-336 165.25,-336 165.25,-356"/>
<text xml:space="preserve" text-anchor="middle" x="127.25" y="-342.5" font-family="Helvetica,sans-Serif" font-size="10.00">ParamTable.h</text>
</a>
</g>
</g>
<!-- Node2 -->
<g id="Node000002" class="node">
<title>Node2</title>
<g id="a_Node000002"><a xlink:href="_param_table_8cpp.html" target="_top" xlink:title=" ">
<polygon fill="white" stroke="#666666" points="86.5,-300 0,-300 0,-280 86.5,-280 86.5,-300"/>
<text xml:space="preserve" text-anchor="middle" x="43.25" y="-286.5" font-family="Helvetica,sans-Serif" font-size="10.00">ParamTable.cpp</text>
</a>
</g>
</g>
<!-- Node1&#45;&gt;Node2 -->
<g id="edge1_Node000001_Node000002" class="edge">
<title>Node1&#45;&gt;Node2</title>
<g id="a_edge1_Node000001_Node000002"><a xlink:title=" ">
<path fill="none" stroke="#63b8ff" d="M103.2,-329.54C88.62,-320.17 70.48,-308.51 58,-300.48"/>
<polygon fill="#63b8ff" stroke="#63b8ff" points="101.04,-332.31 111.35,-334.78 104.83,-326.42 101.04,-332.31"/>
</a>
</g>
</g>
<!-- Node3 -->
<g id="Node000003" class="node">
<title>Node3</title>
<g id="a_Node000003"><a xlink:href="all_8cpp.html" target="_top" xlink:title=" ">
<polygon fill="white" stroke="#666666" points="149.5,-300 105,-300 105,-280 149.5,-280 149.5,-300"/>
<text xml:space="preserve" text-anchor="middle" x="127.25" y="-286.5" font-family="Helvetica,sans-Serif" font-size="10.00">all.cpp</text>
</a>
</g>
</g>
<!-- Node1&#45;&gt;Node3 -->
<g id="edge2_Node000001_Node000003" class="edge">
<title>Node1&#45;&gt;Node3</title>
<g id="a_edge2_Node000001_Node000003"><a xlink:title=" ">
<path fill="none" stroke="#63b8ff" d="M127.25,-324.13C127.25,-315.9 127.25,-306.85 127.25,-300.3"/>
<polygon fill="#63b8ff" stroke="#63b8ff" points="123.75,-324.08 127.25,-334.08 130.75,-324.08 123.75,-324.08"/>
</a>
</g>
</g>
<!-- Node4 -->
<g id="Node000004" class="node">
<title>Node4</title>
<g id="a_Node000004"><a xlink:href="all_8h.html" target="_top" xlink:title=" ">
<polygon fill="white" stroke="#666666" points="201.25,-300 167.25,-300 167.25,-280 201.25,-280 201.25,-300"/>
<text xml:space="preserve" text-anchor="middle" x="184.25" y="-286.5" font-family="Helvetica,sans-Serif" font-size="10.00">all.h</text>
</a>
</g>
</g>
<!-- Node1&#45;&gt;Node4 -->
<g id="edge3_Node000001_Node000004" class="edge">
<title>Node1&#45;&gt;Node4</title>
<g id="a_edge3_Node000001_Node000004"><a xlink:title=" ">
<path fill="none" stroke="#63b8ff" d="M145.36,-327.85C154.99,-318.72 166.46,-307.86 174.44,-300.3"/>
<polygon fill="#63b8ff" stroke="#63b8ff" points="143.13,-325.13 138.28,-334.55 147.94,-330.22 143.13,-325.13"/>
</a>
</g>
</g>
<!-- Node5 -->
<g id="Node000005" class="node">
<title>Node5</title>
<g id="a_Node000005"><a xlink:href="_v_m_8cpp.html" target="_top" xlink:title=" ">
<polygon fill="white" stroke="#666666" points="118.12,-244 68.38,-244 68.38,-224 118.12,-224 118.12,-244"/>
<text xml:space="preserve" text-anchor="middle" x="93.25" y="-230.5" font-family="Helvetica,sans-Serif" font-size="10.00">VM.cpp</text>
</a>
</g>
</g>
<!-- Node4&#45;&gt;Node5 -->
<g id="edge4_Node000004_Node000005" class="edge">
<title>Node4&#45;&gt;Node5</title>
<g id="a_edge4_Node000004_Node000005"><a xlink:title=" ">
<path fill="none" stroke="#63b8ff" d="M158.65,-273.81C142.78,-264.39 122.88,-252.58 109.22,-244.48"/>
<polygon fill="#63b8ff" stroke="#63b8ff" points="156.71,-276.73 167.1,-278.82 160.28,-270.71 156.71,-276.73"/>
</a>
</g>
</g>
<!-- Node6 -->
<g id="Node000006" class="node">
<title>Node6</title>
<g id="a_Node000006"><a xlink:href="enemy_bezier_8h.html" target="_top" xlink:title=" ">
<polygon fill="white" stroke="#666666" points="193.88,-132 112.62,-132 112.62,-112 193.88,-112 193.88,-132"/>
<text xml:space="preserve" text-anchor="middle" x="153.25" y="-118.5" font-family="Helvetica,sans-Serif" font-size="10.00">enemyBezier.h</text>
</a>
</g>
</g>
<!-- Node4&#45;&gt;Node6 -->
<g id="edge5_Node000004_Node000006" class="edge">
<title>Node4&#45;&gt;Node6</title>
<g id="a_edge5_Node000004_Node000006"><a xlink:title=" ">
<path fill="none" stroke="#63b8ff" d="M180.42,-268.5C173.66,-232.27 159.84,-158.31 154.99,-132.3"/>
<polygon fill="#63b8ff" stroke="#63b8ff" points="176.94,-268.92 182.22,-278.11 183.82,-267.64 176.94,-268.92"/>
</a>
</g>
</g>
<!-- Node10 -->
<g id="Node000010" class="node">
<title>Node10</title>
<g id="a_Node000010"><a xlink:href="gfx_8h.html" target="_top" xlink:title=" ">
<polygon fill="white" stroke="#666666" points="267.12,-244 229.38,-244 229.38,-224 267.12,-224 267.12,-244"/>
<text xml:space="preserve" text-anchor="middle" x="248.25" y="-230.5" font-family="Helvetica,sans-Serif" font-size="10.00">gfx.h</text>
</a>
</g>
</g>
<!-- Node4&#45;&gt;Node10 -->
<g id="edge9_Node000004_Node000010" class="edge">
<title>Node4&#45;&gt;Node10</title>
<g id="a_edge9_Node000004_Node000010"><a xlink:title=" ">
<path fill="none" stroke="#63b8ff" d="M203.92,-272.4C214.87,-263.17 228.09,-252.01 237.23,-244.3"/>
<polygon fill="#63b8ff" stroke="#63b8ff" points="201.94,-269.49 196.55,-278.62 206.45,-274.84 201.94,-269.49"/>
</a>
</g>
</g>
<!-- Node14 -->
<g id="Node000014" class="node">
<title>Node14</title>
<g id="a_Node000014"><a xlink:href="player_8cpp.html" target="_top" xlink:title=" ">
<polygon fill="white" stroke="#666666" points="682.75,-76 621.75,-76 621.75,-56 682.75,-56 682.75,-76"/>
<text xml:space="preserve" text-anchor="middle" x="652.25" y="-62.5" font-family="Helvetica,sans-Serif" font-size="10.00">player.cpp</text>
</a>
</g>
</g>
<!-- Node4&#45;&gt;Node14 -->
<g id="edge26_Node000004_Node000014" class="edge">
<title>Node4&#45;&gt;Node14</title>
<g id="a_edge26_Node000004_Node000014"><a xlink:title=" ">
<path fill="none" stroke="#63b8ff" d="M212.83,-284C306.82,-266.93 603.4,-207.75 657.25,-132 669.05,-115.4 661.79,-90.01 656.43,-76.39"/>
<polygon fill="#63b8ff" stroke="#63b8ff" points="212.39,-280.53 203.17,-285.74 213.63,-287.42 212.39,-280.53"/>
</a>
</g>
</g>
<!-- Node7 -->
<g id="Node000007" class="node">
<title>Node7</title>
<g id="a_Node000007"><a xlink:href="_game_8h.html" target="_top" xlink:title=" ">
<polygon fill="white" stroke="#666666" points="490.5,-76 440,-76 440,-56 490.5,-56 490.5,-76"/>
<text xml:space="preserve" text-anchor="middle" x="465.25" y="-62.5" font-family="Helvetica,sans-Serif" font-size="10.00">Game.h</text>
</a>
</g>
</g>
<!-- Node6&#45;&gt;Node7 -->
<g id="edge6_Node000006_Node000007" class="edge">
<title>Node6&#45;&gt;Node7</title>
<g id="a_edge6_Node000006_Node000007"><a xlink:title=" ">
<path fill="none" stroke="#63b8ff" d="M205.6,-111.94C273.26,-100.23 388.42,-80.3 439.52,-71.45"/>
<polygon fill="#63b8ff" stroke="#63b8ff" points="205.11,-108.47 195.85,-113.63 206.3,-115.37 205.11,-108.47"/>
</a>
</g>
</g>
<!-- Node8 -->
<g id="Node000008" class="node">
<title>Node8</title>
<g id="a_Node000008"><a xlink:href="_game_8cpp.html" target="_top" xlink:title=" ">
<polygon fill="white" stroke="#666666" points="586.75,-20 525.75,-20 525.75,0 586.75,0 586.75,-20"/>
<text xml:space="preserve" text-anchor="middle" x="556.25" y="-6.5" font-family="Helvetica,sans-Serif" font-size="10.00">Game.cpp</text>
</a>
</g>
</g>
<!-- Node7&#45;&gt;Node8 -->
<g id="edge7_Node000007_Node000008" class="edge">
<title>Node7&#45;&gt;Node8</title>
<g id="a_edge7_Node000007_Node000008"><a xlink:title=" ">
<path fill="none" stroke="#63b8ff" d="M490.85,-49.81C506.72,-40.39 526.62,-28.58 540.28,-20.48"/>
<polygon fill="#63b8ff" stroke="#63b8ff" points="489.22,-46.71 482.4,-54.82 492.79,-52.73 489.22,-46.71"/>
</a>
</g>
</g>
<!-- Node9 -->
<g id="Node000009" class="node">
<title>Node9</title>
<g id="a_Node000009"><a xlink:href="main_8cpp.html" target="_top" xlink:title=" ">
<polygon fill="white" stroke="#666666" points="493.12,-20 437.38,-20 437.38,0 493.12,0 493.12,-20"/>
<text xml:space="preserve" text-anchor="middle" x="465.25" y="-6.5" font-family="Helvetica,sans-Serif" font-size="10.00">main.cpp</text>
</a>
</g>
</g>
<!-- Node7&#45;&gt;Node9 -->
<g id="edge8_Node000007_Node000009" class="edge">
<title>Node7&#45;&gt;Node9</title>
<g id="a_edge8_Node000007_Node000009"><a xlink:title=" ">
<path fill="none" stroke="#63b8ff" d="M465.25,-44.13C465.25,-35.9 465.25,-26.85 465.25,-20.3"/>
<polygon fill="#63b8ff" stroke="#63b8ff" points="461.75,-44.08 465.25,-54.08 468.75,-44.08 461.75,-44.08"/>
</a>
</g>
</g>
<!-- Node10&#45;&gt;Node6 -->
<g id="edge23_Node000010_Node000006" class="edge">
<title>Node10&#45;&gt;Node6</title>
<g id="a_edge23_Node000010_Node000006"><a xlink:title=" ">
<path fill="none" stroke="#63b8ff" d="M232.34,-215.3C224.97,-207.05 216.11,-197.07 208.25,-188 191.2,-168.35 171.6,-144.99 161.01,-132.32"/>
<polygon fill="#63b8ff" stroke="#63b8ff" points="229.62,-217.51 238.9,-222.62 234.83,-212.84 229.62,-217.51"/>
</a>
</g>
</g>
<!-- Node10&#45;&gt;Node7 -->
<g id="edge10_Node000010_Node000007" class="edge">
<title>Node10&#45;&gt;Node7</title>
<g id="a_edge10_Node000010_Node000007"><a xlink:title=" ">
<path fill="none" stroke="#63b8ff" d="M239.61,-212.96C229.78,-186.66 217.89,-140.52 241.25,-112 266.13,-81.62 386.52,-71.32 439.8,-68.2"/>
<polygon fill="#63b8ff" stroke="#63b8ff" points="236.31,-214.13 243.29,-222.1 242.81,-211.52 236.31,-214.13"/>
</a>
</g>
</g>
<!-- Node11 -->
<g id="Node000011" class="node">
<title>Node11</title>
<g id="a_Node000011"><a xlink:href="collider_8h.html" target="_top" xlink:title=" ">
<polygon fill="white" stroke="#666666" points="445.75,-188 390.75,-188 390.75,-168 445.75,-168 445.75,-188"/>
<text xml:space="preserve" text-anchor="middle" x="418.25" y="-174.5" font-family="Helvetica,sans-Serif" font-size="10.00">collider.h</text>
</a>
</g>
</g>
<!-- Node10&#45;&gt;Node11 -->
<g id="edge11_Node000010_Node000011" class="edge">
<title>Node10&#45;&gt;Node11</title>
<g id="a_edge11_Node000010_Node000011"><a xlink:title=" ">
<path fill="none" stroke="#63b8ff" d="M278.23,-223.48C309.94,-213.4 359.57,-197.64 390.44,-187.83"/>
<polygon fill="#63b8ff" stroke="#63b8ff" points="277.33,-220.09 268.86,-226.45 279.45,-226.76 277.33,-220.09"/>
</a>
</g>
</g>
<!-- Node13 -->
<g id="Node000013" class="node">
<title>Node13</title>
<g id="a_Node000013"><a xlink:href="player_8h.html" target="_top" xlink:title=" ">
<polygon fill="white" stroke="#666666" points="648.5,-132 598,-132 598,-112 648.5,-112 648.5,-132"/>
<text xml:space="preserve" text-anchor="middle" x="623.25" y="-118.5" font-family="Helvetica,sans-Serif" font-size="10.00">player.h</text>
</a>
</g>
</g>
<!-- Node10&#45;&gt;Node13 -->
<g id="edge25_Node000010_Node000013" class="edge">
<title>Node10&#45;&gt;Node13</title>
<g id="a_edge25_Node000010_Node000013"><a xlink:title=" ">
<path fill="none" stroke="#63b8ff" d="M278.76,-227.84C319.3,-220.64 392.94,-206.37 454.25,-188 508.45,-171.76 569.98,-146.22 601.74,-132.49"/>
<polygon fill="#63b8ff" stroke="#63b8ff" points="278.26,-224.37 269.02,-229.54 279.47,-231.27 278.26,-224.37"/>
</a>
</g>
</g>
<!-- Node17 -->
<g id="Node000017" class="node">
<title>Node17</title>
<g id="a_Node000017"><a xlink:href="gfx_8cpp.html" target="_top" xlink:title=" ">
<polygon fill="white" stroke="#666666" points="298.38,-188 250.12,-188 250.12,-168 298.38,-168 298.38,-188"/>
<text xml:space="preserve" text-anchor="middle" x="274.25" y="-174.5" font-family="Helvetica,sans-Serif" font-size="10.00">gfx.cpp</text>
</a>
</g>
</g>
<!-- Node10&#45;&gt;Node17 -->
<g id="edge24_Node000010_Node000017" class="edge">
<title>Node10&#45;&gt;Node17</title>
<g id="a_edge24_Node000010_Node000017"><a xlink:title=" ">
<path fill="none" stroke="#63b8ff" d="M257.74,-213.29C261.85,-204.75 266.47,-195.16 269.77,-188.3"/>
<polygon fill="#63b8ff" stroke="#63b8ff" points="254.62,-211.7 253.44,-222.23 260.93,-214.74 254.62,-211.7"/>
</a>
</g>
</g>
<!-- Node11&#45;&gt;Node6 -->
<g id="edge15_Node000011_Node000006" class="edge">
<title>Node11&#45;&gt;Node6</title>
<g id="a_edge15_Node000011_Node000006"><a xlink:title=" ">
<path fill="none" stroke="#63b8ff" d="M379.19,-169.04C329.61,-158.94 244.49,-141.59 194.08,-131.32"/>
<polygon fill="#63b8ff" stroke="#63b8ff" points="378.41,-172.45 388.91,-171.02 379.81,-165.59 378.41,-172.45"/>
</a>
</g>
</g>
<!-- Node11&#45;&gt;Node7 -->
<g id="edge13_Node000011_Node000007" class="edge">
<title>Node11&#45;&gt;Node7</title>
<g id="a_edge13_Node000011_Node000007"><a xlink:title=" ">
<path fill="none" stroke="#63b8ff" d="M457.08,-169.09C477.54,-162.74 500.9,-151.52 513.25,-132 526.3,-111.37 499.44,-88.76 480.89,-76.39"/>
<polygon fill="#63b8ff" stroke="#63b8ff" points="456.25,-165.69 447.55,-171.74 458.13,-172.43 456.25,-165.69"/>
</a>
</g>
</g>
<!-- Node11&#45;&gt;Node8 -->
<g id="edge12_Node000011_Node000008" class="edge">
<title>Node11&#45;&gt;Node8</title>
<g id="a_edge12_Node000011_Node000008"><a xlink:title=" ">
<path fill="none" stroke="#63b8ff" d="M456.88,-165.57C484.88,-156.53 519.46,-143.56 529.25,-132 557.35,-98.82 557.91,-42.66 556.9,-20.45"/>
<polygon fill="#63b8ff" stroke="#63b8ff" points="456.08,-162.15 447.6,-168.49 458.19,-168.83 456.08,-162.15"/>
</a>
</g>
</g>
<!-- Node12 -->
<g id="Node000012" class="node">
<title>Node12</title>
<g id="a_Node000012"><a xlink:href="collider_8cpp.html" target="_top" xlink:title=" ">
<polygon fill="white" stroke="#666666" points="316,-132 250.5,-132 250.5,-112 316,-112 316,-132"/>
<text xml:space="preserve" text-anchor="middle" x="283.25" y="-118.5" font-family="Helvetica,sans-Serif" font-size="10.00">collider.cpp</text>
</a>
</g>
</g>
<!-- Node11&#45;&gt;Node12 -->
<g id="edge14_Node000011_Node000012" class="edge">
<title>Node11&#45;&gt;Node12</title>
<g id="a_edge14_Node000011_Node000012"><a xlink:title=" ">
<path fill="none" stroke="#63b8ff" d="M384.25,-163.4C360.13,-153.75 328.36,-141.05 306.95,-132.48"/>
<polygon fill="#63b8ff" stroke="#63b8ff" points="382.74,-166.57 393.33,-167.03 385.34,-160.07 382.74,-166.57"/>
</a>
</g>
</g>
<!-- Node11&#45;&gt;Node13 -->
<g id="edge16_Node000011_Node000013" class="edge">
<title>Node11&#45;&gt;Node13</title>
<g id="a_edge16_Node000011_Node000013"><a xlink:title=" ">
<path fill="none" stroke="#63b8ff" d="M456.88,-166.83C498.11,-155.96 562.26,-139.06 597.65,-129.74"/>
<polygon fill="#63b8ff" stroke="#63b8ff" points="456.14,-163.4 447.36,-169.33 457.92,-170.17 456.14,-163.4"/>
</a>
</g>
</g>
<!-- Node15 -->
<g id="Node000015" class="node">
<title>Node15</title>
<g id="a_Node000015"><a xlink:href="player_bullet_8h.html" target="_top" xlink:title=" ">
<polygon fill="white" stroke="#666666" points="408.88,-132 333.62,-132 333.62,-112 408.88,-112 408.88,-132"/>
<text xml:space="preserve" text-anchor="middle" x="371.25" y="-118.5" font-family="Helvetica,sans-Serif" font-size="10.00">playerBullet.h</text>
</a>
</g>
</g>
<!-- Node11&#45;&gt;Node15 -->
<g id="edge19_Node000011_Node000015" class="edge">
<title>Node11&#45;&gt;Node15</title>
<g id="a_edge19_Node000011_Node000015"><a xlink:title=" ">
<path fill="none" stroke="#63b8ff" d="M402.59,-159C394.8,-150.06 385.72,-139.62 379.34,-132.3"/>
<polygon fill="#63b8ff" stroke="#63b8ff" points="399.86,-161.21 409.07,-166.45 405.14,-156.61 399.86,-161.21"/>
</a>
</g>
</g>
<!-- Node16 -->
<g id="Node000016" class="node">
<title>Node16</title>
<g id="a_Node000016"><a xlink:href="simple_bullet_8h.html" target="_top" xlink:title=" ">
<polygon fill="white" stroke="#666666" points="504,-132 426.5,-132 426.5,-112 504,-112 504,-132"/>
<text xml:space="preserve" text-anchor="middle" x="465.25" y="-118.5" font-family="Helvetica,sans-Serif" font-size="10.00">simpleBullet.h</text>
</a>
</g>
</g>
<!-- Node11&#45;&gt;Node16 -->
<g id="edge21_Node000011_Node000016" class="edge">
<title>Node11&#45;&gt;Node16</title>
<g id="a_edge21_Node000011_Node000016"><a xlink:title=" ">
<path fill="none" stroke="#63b8ff" d="M433.91,-159C441.7,-150.06 450.78,-139.62 457.16,-132.3"/>
<polygon fill="#63b8ff" stroke="#63b8ff" points="431.36,-156.61 427.43,-166.45 436.64,-161.21 431.36,-156.61"/>
</a>
</g>
</g>
<!-- Node13&#45;&gt;Node7 -->
<g id="edge17_Node000013_Node000007" class="edge">
<title>Node13&#45;&gt;Node7</title>
<g id="a_edge17_Node000013_Node000007"><a xlink:title=" ">
<path fill="none" stroke="#63b8ff" d="M586.87,-108.57C557.54,-98.54 517.02,-84.7 490.98,-75.79"/>
<polygon fill="#63b8ff" stroke="#63b8ff" points="585.49,-111.79 596.08,-111.71 587.75,-105.17 585.49,-111.79"/>
</a>
</g>
</g>
<!-- Node13&#45;&gt;Node14 -->
<g id="edge18_Node000013_Node000014" class="edge">
<title>Node13&#45;&gt;Node14</title>
<g id="a_edge18_Node000013_Node000014"><a xlink:title=" ">
<path fill="none" stroke="#63b8ff" d="M633.68,-101.58C638.3,-92.97 643.53,-83.24 647.26,-76.3"/>
<polygon fill="#63b8ff" stroke="#63b8ff" points="630.67,-99.79 629.02,-110.26 636.83,-103.11 630.67,-99.79"/>
</a>
</g>
</g>
<!-- Node15&#45;&gt;Node7 -->
<g id="edge20_Node000015_Node000007" class="edge">
<title>Node15&#45;&gt;Node7</title>
<g id="a_edge20_Node000015_Node000007"><a xlink:title=" ">
<path fill="none" stroke="#63b8ff" d="M397.22,-106.08C413.69,-96.62 434.51,-84.66 448.75,-76.48"/>
<polygon fill="#63b8ff" stroke="#63b8ff" points="395.86,-102.82 388.94,-110.84 399.35,-108.89 395.86,-102.82"/>
</a>
</g>
</g>
<!-- Node16&#45;&gt;Node7 -->
<g id="edge22_Node000016_Node000007" class="edge">
<title>Node16&#45;&gt;Node7</title>
<g id="a_edge22_Node000016_Node000007"><a xlink:title=" ">
<path fill="none" stroke="#63b8ff" d="M465.25,-100.13C465.25,-91.9 465.25,-82.85 465.25,-76.3"/>
<polygon fill="#63b8ff" stroke="#63b8ff" points="461.75,-100.08 465.25,-110.08 468.75,-100.08 461.75,-100.08"/>
</a>
</g>
</g>
</g>
</svg>
