<?xml version="1.0" encoding="UTF-8" standalone="no"?>
<!DOCTYPE svg PUBLIC "-//W3C//DTD SVG 1.1//EN"
 "http://www.w3.org/Graphics/SVG/1.1/DTD/svg11.dtd">
<!-- Generated by graphviz version 14.1.1 (0)
 -->
<!-- Title: ParamTable.cpp Pages: 1 -->
<svg width="778pt" height="196pt"
 viewBox="0.00 0.00 778.00 196.00" xmlns="http://www.w3.org/2000/svg" xmlns:xlink="http://www.w3.org/1999/xlink">
<g id="graph0" class="graph" transform="scale(1 1) rotate(0) translate(4 192)">
<title>ParamTable.cpp</title>
<!-- Node1 -->
<g id="Node000001" class="node">
<title>Node1</title>
<g id="a_Node000001"><a xlink:title=" ">
<polygon fill="#999999" stroke="#666666" points="478.72,-188 392.22,-188 392.22,-168 478.72,-168 478.72,-188"/>
<text xml:space="preserve" text-anchor="middle" x="435.47" y="-174.5" font-family="Helvetica,sans-Serif" font-size="10.00">ParamTable.cpp</text>
</a>
</g>
</g>
<!-- Node2 -->
<g id="Node000002" class="node">
<title>Node2</title>
<g id="a_Node000002"><a xlink:href="_param_table_8h.html" target="_top" xlink:title=" ">
<polygon fill="white" stroke="#666666" points="372.47,-132 296.47,-132 296.47,-112 372.47,-112 372.47,-132"/>
<text xml:space="preserve" text-anchor="middle" x="334.47" y="-118.5" font-family="Helvetica,sans-Serif" font-size="10.00">ParamTable.h</text>
</a>
</g>
</g>
<!-- Node1&#45;&gt;Node2 -->
<g id="edge1_Node000001_Node000002" class="edge">
<title>Node1&#45;&gt;Node2</title>
<g id="a_edge1_Node000001_Node000002"><a xlink:title=" ">
<path fill="none" stroke="#63b8ff" d="M417.88,-167.59C402.55,-159.4 380.05,-147.37 362.28,-137.87"/>
<polygon fill="#63b8ff" stroke="#63b8ff" points="364,-134.82 353.53,-133.19 360.7,-140.99 364,-134.82"/>
</a>
</g>
</g>
<!-- Node16 -->
<g id="Node000016" class="node">
<title>Node16</title>
<g id="a_Node000016"><a xlink:href="fsutil_8h.html" target="_top" xlink:title=" ">
<polygon fill="white" stroke="#666666" points="626.47,-132 550.47,-132 550.47,-112 626.47,-112 626.47,-132"/>
<text xml:space="preserve" text-anchor="middle" x="588.47" y="-118.5" font-family="Helvetica,sans-Serif" font-size="10.00">../core/fsutil.h</text>
</a>
</g>
</g>
<!-- Node1&#45;&gt;Node16 -->
<g id="edge17_Node000001_Node000016" class="edge">
<title>Node1&#45;&gt;Node16</title>
<g id="a_edge17_Node000001_Node000016"><a xlink:title=" ">
<path fill="none" stroke="#63b8ff" d="M462.12,-167.59C486.65,-158.94 523.29,-146 550.81,-136.29"/>
<polygon fill="#63b8ff" stroke="#63b8ff" points="551.92,-139.61 560.18,-132.98 549.59,-133.01 551.92,-139.61"/>
</a>
</g>
</g>
<!-- Node3 -->
<g id="Node000003" class="node">
<title>Node3</title>
<g id="a_Node000003"><a xlink:title=" ">
<polygon fill="#e0e0e0" stroke="#999999" points="469.09,-20 423.84,-20 423.84,0 469.09,0 469.09,-20"/>
<text xml:space="preserve" text-anchor="middle" x="446.47" y="-6.5" font-family="Helvetica,sans-Serif" font-size="10.00">cstdint</text>
</a>
</g>
</g>
<!-- Node2&#45;&gt;Node3 -->
<g id="edge2_Node000002_Node000003" class="edge">
<title>Node2&#45;&gt;Node3</title>
<g id="a_edge2_Node000002_Node000003"><a xlink:title=" ">
<path fill="none" stroke="#63b8ff" d="M370.78,-111.66C390.47,-104.83 413.72,-93.62 428.47,-76 438.95,-63.49 443.35,-45.34 445.19,-31.4"/>
<polygon fill="#63b8ff" stroke="#63b8ff" points="448.66,-31.85 446.12,-21.57 441.69,-31.19 448.66,-31.85"/>
</a>
</g>
</g>
<!-- Node4 -->
<g id="Node000004" class="node">
<title>Node4</title>
<g id="a_Node000004"><a xlink:title=" ">
<polygon fill="#e0e0e0" stroke="#999999" points="533.84,-76 475.09,-76 475.09,-56 533.84,-56 533.84,-76"/>
<text xml:space="preserve" text-anchor="middle" x="504.47" y="-62.5" font-family="Helvetica,sans-Serif" font-size="10.00">stdexcept</text>
</a>
</g>
</g>
<!-- Node2&#45;&gt;Node4 -->
<g id="edge3_Node000002_Node000004" class="edge">
<title>Node2&#45;&gt;Node4</title>
<g id="a_edge3_Node000002_Node000004"><a xlink:title=" ">
<path fill="none" stroke="#63b8ff" d="M364.08,-111.59C391.7,-102.82 433.14,-89.66 463.85,-79.9"/>
<polygon fill="#63b8ff" stroke="#63b8ff" points="464.71,-83.3 473.18,-76.94 462.59,-76.63 464.71,-83.3"/>
</a>
</g>
</g>
<!-- Node5 -->
<g id="Node000005" class="node">
<title>Node5</title>
<g id="a_Node000005"><a xlink:title=" ">
<polygon fill="#e0e0e0" stroke="#999999" points="152.22,-20 86.72,-20 86.72,0 152.22,0 152.22,-20"/>
<text xml:space="preserve" text-anchor="middle" x="119.47" y="-6.5" font-family="Helvetica,sans-Serif" font-size="10.00">string_view</text>
</a>
</g>
</g>
<!-- Node2&#45;&gt;Node5 -->
<g id="edge4_Node000002_Node000005" class="edge">
<title>Node2&#45;&gt;Node5</title>
<g id="a_edge4_Node000002_Node000005"><a xlink:title=" ">
<path fill="none" stroke="#63b8ff" d="M296.16,-121.73C217.86,-122.32 43.68,-118.67 6.47,-76 -17.65,-48.35 34.11,-29.65 75.31,-19.65"/>
<polygon fill="#63b8ff" stroke="#63b8ff" points="75.87,-23.12 84.83,-17.46 74.3,-16.29 75.87,-23.12"/>
</a>
</g>
</g>
<!-- Node6 -->
<g id="Node000006" class="node">
<title>Node6</title>
<g id="a_Node000006"><a xlink:title=" ">
<polygon fill="#e0e0e0" stroke="#999999" points="97.84,-76 15.09,-76 15.09,-56 97.84,-56 97.84,-76"/>
<text xml:space="preserve" text-anchor="middle" x="56.47" y="-62.5" font-family="Helvetica,sans-Serif" font-size="10.00">unordered_map</text>
</a>
</g>
</g>
<!-- Node2&#45;&gt;Node6 -->
<g id="edge5_Node000002_Node000006" class="edge">
<title>Node2&#45;&gt;Node6</title>
<g id="a_edge5_Node000002_Node000006"><a xlink:title=" ">
<path fill="none" stroke="#63b8ff" d="M296.11,-113.55C247.57,-104.12 163.77,-87.84 109.23,-77.25"/>
<polygon fill="#63b8ff" stroke="#63b8ff" points="110.03,-73.84 99.55,-75.37 108.7,-80.71 110.03,-73.84"/>
</a>
</g>
</g>
<!-- Node7 -->
<g id="Node000007" class="node">
<title>Node7</title>
<g id="a_Node000007"><a xlink:title=" ">
<polygon fill="#e0e0e0" stroke="#999999" points="158.97,-76 115.97,-76 115.97,-56 158.97,-56 158.97,-76"/>
<text xml:space="preserve" text-anchor="middle" x="137.47" y="-62.5" font-family="Helvetica,sans-Serif" font-size="10.00">vector</text>
</a>
</g>
</g>
<!-- Node2&#45;&gt;Node7 -->
<g id="edge6_Node000002_Node000007" class="edge">
<title>Node2&#45;&gt;Node7</title>
<g id="a_edge6_Node000002_Node000007"><a xlink:title=" ">
<path fill="none" stroke="#63b8ff" d="M298.23,-111.55C266.66,-103.25 219.4,-90.66 170.25,-76.74"/>
<polygon fill="#63b8ff" stroke="#63b8ff" points="171.44,-73.44 160.86,-74.07 169.52,-80.17 171.44,-73.44"/>
</a>
</g>
</g>
<!-- Node8 -->
<g id="Node000008" class="node">
<title>Node8</title>
<g id="a_Node000008"><a xlink:title=" ">
<polygon fill="#e0e0e0" stroke="#999999" points="213.97,-76 176.97,-76 176.97,-56 213.97,-56 213.97,-76"/>
<text xml:space="preserve" text-anchor="middle" x="195.47" y="-62.5" font-family="Helvetica,sans-Serif" font-size="10.00">span</text>
</a>
</g>
</g>
<!-- Node2&#45;&gt;Node8 -->
<g id="edge7_Node000002_Node000008" class="edge">
<title>Node2&#45;&gt;Node8</title>
<g id="a_edge7_Node000002_Node000008"><a xlink:title=" ">
<path fill="none" stroke="#63b8ff" d="M310.26,-111.59C286.41,-102.33 249.95,-88.17 224.55,-78.3"/>
<polygon fill="#63b8ff" stroke="#63b8ff" points="226.07,-75.13 215.48,-74.77 223.54,-81.66 226.07,-75.13"/>
</a>
</g>
</g>
<!-- Node9 -->
<g id="Node000009" class="node">
<title>Node9</title>
<g id="a_Node000009"><a xlink:href="def_8h.html" target="_top" xlink:title=" ">
<polygon fill="white" stroke="#666666" points="419.72,-76 351.22,-76 351.22,-56 419.72,-56 419.72,-76"/>
<text xml:space="preserve" text-anchor="middle" x="385.47" y="-62.5" font-family="Helvetica,sans-Serif" font-size="10.00">../core/def.h</text>
</a>
</g>
</g>
<!-- Node2&#45;&gt;Node9 -->
<g id="edge8_Node000002_Node000009" class="edge">
<title>Node2&#45;&gt;Node9</title>
<g id="a_edge8_Node000002_Node000009"><a xlink:title=" ">
<path fill="none" stroke="#63b8ff" d="M343.35,-111.59C350.37,-104.16 360.37,-93.58 368.86,-84.58"/>
<polygon fill="#63b8ff" stroke="#63b8ff" points="371.33,-87.07 375.65,-77.4 366.24,-82.27 371.33,-87.07"/>
</a>
</g>
</g>
<!-- Node12 -->
<g id="Node000012" class="node">
<title>Node12</title>
<g id="a_Node000012"><a xlink:href="json_8h.html" target="_top" xlink:title=" ">
<polygon fill="white" stroke="#666666" points="624.97,-76 551.97,-76 551.97,-56 624.97,-56 624.97,-76"/>
<text xml:space="preserve" text-anchor="middle" x="588.47" y="-62.5" font-family="Helvetica,sans-Serif" font-size="10.00">../core/json.h</text>
</a>
</g>
</g>
<!-- Node2&#45;&gt;Node12 -->
<g id="edge12_Node000002_Node000012" class="edge">
<title>Node2&#45;&gt;Node12</title>
<g id="a_edge12_Node000002_Node000012"><a xlink:title=" ">
<path fill="none" stroke="#63b8ff" d="M372.77,-112.86C417.55,-103.34 491.71,-87.57 540.34,-77.23"/>
<polygon fill="#63b8ff" stroke="#63b8ff" points="540.98,-80.68 550.03,-75.17 539.52,-73.83 540.98,-80.68"/>
</a>
</g>
</g>
<!-- Node15 -->
<g id="Node000015" class="node">
<title>Node15</title>
<g id="a_Node000015"><a xlink:href="rapid_string_8h.html" target="_top" xlink:title=" ">
<polygon fill="white" stroke="#666666" points="333.22,-76 231.72,-76 231.72,-56 333.22,-56 333.22,-76"/>
<text xml:space="preserve" text-anchor="middle" x="282.47" y="-62.5" font-family="Helvetica,sans-Serif" font-size="10.00">../core/rapidString.h</text>
</a>
</g>
</g>
<!-- Node2&#45;&gt;Node15 -->
<g id="edge15_Node000002_Node000015" class="edge">
<title>Node2&#45;&gt;Node15</title>
<g id="a_edge15_Node000002_Node000015"><a xlink:title=" ">
<path fill="none" stroke="#63b8ff" d="M325.41,-111.59C318.25,-104.16 308.06,-93.58 299.4,-84.58"/>
<polygon fill="#63b8ff" stroke="#63b8ff" points="301.93,-82.16 292.47,-77.39 296.89,-87.02 301.93,-82.16"/>
</a>
</g>
</g>
<!-- Node9&#45;&gt;Node3 -->
<g id="edge9_Node000009_Node000003" class="edge">
<title>Node9&#45;&gt;Node3</title>
<g id="a_edge9_Node000009_Node000003"><a xlink:title=" ">
<path fill="none" stroke="#63b8ff" d="M396.09,-55.59C404.75,-47.93 417.2,-36.91 427.55,-27.75"/>
<polygon fill="#63b8ff" stroke="#63b8ff" points="429.66,-30.55 434.83,-21.3 425.02,-25.31 429.66,-30.55"/>
</a>
</g>
</g>
<!-- Node10 -->
<g id="Node000010" class="node">
<title>Node10</title>
<g id="a_Node000010"><a xlink:title=" ">
<polygon fill="#e0e0e0" stroke="#999999" points="405.47,-20 365.47,-20 365.47,0 405.47,0 405.47,-20"/>
<text xml:space="preserve" text-anchor="middle" x="385.47" y="-6.5" font-family="Helvetica,sans-Serif" font-size="10.00">string</text>
</a>
</g>
</g>
<!-- Node9&#45;&gt;Node10 -->
<g id="edge10_Node000009_Node000010" class="edge">
<title>Node9&#45;&gt;Node10</title>
<g id="a_edge10_Node000009_Node000010"><a xlink:title=" ">
<path fill="none" stroke="#63b8ff" d="M385.47,-55.59C385.47,-49.01 385.47,-39.96 385.47,-31.73"/>
<polygon fill="#63b8ff" stroke="#63b8ff" points="388.97,-31.81 385.47,-21.81 381.97,-31.81 388.97,-31.81"/>
</a>
</g>
</g>
<!-- Node11 -->
<g id="Node000011" class="node">
<title>Node11</title>
<g id="a_Node000011"><a xlink:href="vec2_8h.html" target="_top" xlink:title=" ">
<polygon fill="white" stroke="#666666" points="347.09,-20 301.84,-20 301.84,0 347.09,0 347.09,-20"/>
<text xml:space="preserve" text-anchor="middle" x="324.47" y="-6.5" font-family="Helvetica,sans-Serif" font-size="10.00">vec2.h</text>
</a>
</g>
</g>
<!-- Node9&#45;&gt;Node11 -->
<g id="edge11_Node000009_Node000011" class="edge">
<title>Node9&#45;&gt;Node11</title>
<g id="a_edge11_Node000009_Node000011"><a xlink:title=" ">
<path fill="none" stroke="#63b8ff" d="M374.84,-55.59C366.18,-47.93 353.74,-36.91 343.39,-27.75"/>
<polygon fill="#63b8ff" stroke="#63b8ff" points="345.91,-25.31 336.11,-21.3 341.27,-30.55 345.91,-25.31"/>
</a>
</g>
</g>
<!-- Node13 -->
<g id="Node000013" class="node">
<title>Node13</title>
<g id="a_Node000013"><a xlink:title=" ">
<polygon fill="#e0e0e0" stroke="#999999" points="618.97,-20 509.97,-20 509.97,0 618.97,0 618.97,-20"/>
<text xml:space="preserve" text-anchor="middle" x="564.47" y="-6.5" font-family="Helvetica,sans-Serif" font-size="10.00">rapidjson/document.h</text>
</a>
</g>
</g>
<!-- Node12&#45;&gt;Node13 -->
<g id="edge13_Node000012_Node000013" class="edge">
<title>Node12&#45;&gt;Node13</title>
<g id="a_edge13_Node000012_Node000013"><a xlink:title=" ">
<path fill="none" stroke="#63b8ff" d="M584.29,-55.59C581.23,-48.7 576.96,-39.1 573.17,-30.57"/>
<polygon fill="#63b8ff" stroke="#63b8ff" points="576.48,-29.4 569.22,-21.68 570.08,-32.24 576.48,-29.4"/>
</a>
</g>
</g>
<!-- Node14 -->
<g id="Node000014" class="node">
<title>Node14</title>
<g id="a_Node000014"><a xlink:title=" ">
<polygon fill="#e0e0e0" stroke="#999999" points="769.97,-20 636.97,-20 636.97,0 769.97,0 769.97,-20"/>
<text xml:space="preserve" text-anchor="middle" x="703.47" y="-6.5" font-family="Helvetica,sans-Serif" font-size="10.00">rapidjson/istreamwrapper.h</text>
</a>
</g>
</g>
<!-- Node12&#45;&gt;Node14 -->
<g id="edge14_Node000012_Node000014" class="edge">
<title>Node12&#45;&gt;Node14</title>
<g id="a_edge14_Node000012_Node000014"><a xlink:title=" ">
<path fill="none" stroke="#63b8ff" d="M608.5,-55.59C626.28,-47.24 652.53,-34.92 672.93,-25.34"/>
<polygon fill="#63b8ff" stroke="#63b8ff" points="674.35,-28.54 681.91,-21.12 671.37,-22.21 674.35,-28.54"/>
</a>
</g>
</g>
<!-- Node15&#45;&gt;Node5 -->
<g id="edge16_Node000015_Node000005" class="edge">
<title>Node15&#45;&gt;Node5</title>
<g id="a_edge16_Node000015_Node000005"><a xlink:title=" ">
<path fill="none" stroke="#63b8ff" d="M254.08,-55.59C227.71,-46.86 188.21,-33.77 158.81,-24.03"/>
<polygon fill="#63b8ff" stroke="#63b8ff" points="160.11,-20.78 149.52,-20.96 157.91,-27.42 160.11,-20.78"/>
</a>
</g>
</g>
<!-- Node16&#45;&gt;Node12 -->
<g id="edge18_Node000016_Node000012" class="edge">
<title>Node16&#45;&gt;Node12</title>
<g id="a_edge18_Node000016_Node000012"><a xlink:title=" ">
<path fill="none" stroke="#63b8ff" d="M588.47,-111.59C588.47,-105.01 588.47,-95.96 588.47,-87.73"/>
<polygon fill="#63b8ff" stroke="#63b8ff" points="591.97,-87.81 588.47,-77.81 584.97,-87.81 591.97,-87.81"/>
</a>
</g>
</g>
<!-- Node17 -->
<g id="Node000017" class="node">
<title>Node17</title>
<g id="a_Node000017"><a xlink:title=" ">
<polygon fill="#e0e0e0" stroke="#999999" points="691.97,-76 642.97,-76 642.97,-56 691.97,-56 691.97,-76"/>
<text xml:space="preserve" text-anchor="middle" x="667.47" y="-62.5" font-family="Helvetica,sans-Serif" font-size="10.00">fstream</text>
</a>
</g>
</g>
<!-- Node16&#45;&gt;Node17 -->
<g id="edge19_Node000016_Node000017" class="edge">
<title>Node16&#45;&gt;Node17</title>
<g id="a_edge19_Node000016_Node000017"><a xlink:title=" ">
<path fill="none" stroke="#63b8ff" d="M602.23,-111.59C613.83,-103.67 630.67,-92.16 644.33,-82.82"/>
<polygon fill="#63b8ff" stroke="#63b8ff" points="646.07,-85.87 652.35,-77.33 642.12,-80.09 646.07,-85.87"/>
</a>
</g>
</g>
</g>
</svg>
