<?xml version="1.0" encoding="UTF-8" standalone="no"?>
<!DOCTYPE svg PUBLIC "-//W3C//DTD SVG 1.1//EN"
 "http://www.w3.org/Graphics/SVG/1.1/DTD/svg11.dtd">
<!-- Generated by graphviz version 14.1.1 (0)
 -->
<!-- Title: SDL_def.h Pages: 1 -->
<svg width="623pt" height="308pt"
 viewBox="0.00 0.00 623.00 308.00" xmlns="http://www.w3.org/2000/svg" xmlns:xlink="http://www.w3.org/1999/xlink">
<g id="graph0" class="graph" transform="scale(1 1) rotate(0) translate(4 304)">
<title>SDL_def.h</title>
<!-- Node1 -->
<g id="Node000001" class="node">
<title>Node1</title>
<g id="a_Node000001"><a xlink:title=" ">
<polygon fill="#999999" stroke="#666666" points="500.75,-300 438.25,-300 438.25,-280 500.75,-280 500.75,-300"/>
<text xml:space="preserve" text-anchor="middle" x="469.5" y="-286.5" font-family="Helvetica,sans-Serif" font-size="10.00">SDL_def.h</text>
</a>
</g>
</g>
<!-- Node2 -->
<g id="Node000002" class="node">
<title>Node2</title>
<g id="a_Node000002"><a xlink:href="gfx_8h.html" target="_top" xlink:title=" ">
<polygon fill="white" stroke="#666666" points="488.38,-244 450.62,-244 450.62,-224 488.38,-224 488.38,-244"/>
<text xml:space="preserve" text-anchor="middle" x="469.5" y="-230.5" font-family="Helvetica,sans-Serif" font-size="10.00">gfx.h</text>
</a>
</g>
</g>
<!-- Node1&#45;&gt;Node2 -->
<g id="edge1_Node000001_Node000002" class="edge">
<title>Node1&#45;&gt;Node2</title>
<g id="a_edge1_Node000001_Node000002"><a xlink:title=" ">
<path fill="none" stroke="#63b8ff" d="M469.5,-268.13C469.5,-259.9 469.5,-250.85 469.5,-244.3"/>
<polygon fill="#63b8ff" stroke="#63b8ff" points="466,-268.08 469.5,-278.08 473,-268.08 466,-268.08"/>
</a>
</g>
</g>
<!-- Node3 -->
<g id="Node000003" class="node">
<title>Node3</title>
<g id="a_Node000003"><a xlink:href="_game_8h.html" target="_top" xlink:title=" ">
<polygon fill="white" stroke="#666666" points="274.75,-76 224.25,-76 224.25,-56 274.75,-56 274.75,-76"/>
<text xml:space="preserve" text-anchor="middle" x="249.5" y="-62.5" font-family="Helvetica,sans-Serif" font-size="10.00">Game.h</text>
</a>
</g>
</g>
<!-- Node2&#45;&gt;Node3 -->
<g id="edge2_Node000002_Node000003" class="edge">
<title>Node2&#45;&gt;Node3</title>
<g id="a_edge2_Node000002_Node000003"><a xlink:title=" ">
<path fill="none" stroke="#63b8ff" d="M487.13,-215.55C510.52,-190.31 545.93,-143.2 519.5,-112 488.25,-75.11 336.07,-68.43 274.97,-67.25"/>
<polygon fill="#63b8ff" stroke="#63b8ff" points="484.66,-213.07 480.25,-222.71 489.7,-217.93 484.66,-213.07"/>
</a>
</g>
</g>
<!-- Node6 -->
<g id="Node000006" class="node">
<title>Node6</title>
<g id="a_Node000006"><a xlink:href="collider_8h.html" target="_top" xlink:title=" ">
<polygon fill="white" stroke="#666666" points="322,-188 267,-188 267,-168 322,-168 322,-188"/>
<text xml:space="preserve" text-anchor="middle" x="294.5" y="-174.5" font-family="Helvetica,sans-Serif" font-size="10.00">collider.h</text>
</a>
</g>
</g>
<!-- Node2&#45;&gt;Node6 -->
<g id="edge5_Node000002_Node000006" class="edge">
<title>Node2&#45;&gt;Node6</title>
<g id="a_edge5_Node000002_Node000006"><a xlink:title=" ">
<path fill="none" stroke="#63b8ff" d="M439.71,-223.81C406.89,-213.68 354.52,-197.52 322.45,-187.62"/>
<polygon fill="#63b8ff" stroke="#63b8ff" points="438.41,-227.07 448.99,-226.67 440.47,-220.38 438.41,-227.07"/>
</a>
</g>
</g>
<!-- Node8 -->
<g id="Node000008" class="node">
<title>Node8</title>
<g id="a_Node000008"><a xlink:href="enemy_bezier_8h.html" target="_top" xlink:title=" ">
<polygon fill="white" stroke="#666666" points="510.12,-132 428.88,-132 428.88,-112 510.12,-112 510.12,-132"/>
<text xml:space="preserve" text-anchor="middle" x="469.5" y="-118.5" font-family="Helvetica,sans-Serif" font-size="10.00">enemyBezier.h</text>
</a>
</g>
</g>
<!-- Node2&#45;&gt;Node8 -->
<g id="edge18_Node000002_Node000008" class="edge">
<title>Node2&#45;&gt;Node8</title>
<g id="a_edge18_Node000002_Node000008"><a xlink:title=" ">
<path fill="none" stroke="#63b8ff" d="M469.5,-212.31C469.5,-188.36 469.5,-149.95 469.5,-132.35"/>
<polygon fill="#63b8ff" stroke="#63b8ff" points="466,-212.11 469.5,-222.11 473,-212.11 466,-212.11"/>
</a>
</g>
</g>
<!-- Node9 -->
<g id="Node000009" class="node">
<title>Node9</title>
<g id="a_Node000009"><a xlink:href="player_8h.html" target="_top" xlink:title=" ">
<polygon fill="white" stroke="#666666" points="61.75,-132 11.25,-132 11.25,-112 61.75,-112 61.75,-132"/>
<text xml:space="preserve" text-anchor="middle" x="36.5" y="-118.5" font-family="Helvetica,sans-Serif" font-size="10.00">player.h</text>
</a>
</g>
</g>
<!-- Node2&#45;&gt;Node9 -->
<g id="edge20_Node000002_Node000009" class="edge">
<title>Node2&#45;&gt;Node9</title>
<g id="a_edge20_Node000002_Node000009"><a xlink:title=" ">
<path fill="none" stroke="#63b8ff" d="M439.05,-227.25C397.88,-219.3 322.29,-204.12 258.5,-188 186.66,-169.85 103.06,-144.1 61.97,-131.13"/>
<polygon fill="#63b8ff" stroke="#63b8ff" points="438.22,-230.65 448.7,-229.1 439.54,-223.78 438.22,-230.65"/>
</a>
</g>
</g>
<!-- Node13 -->
<g id="Node000013" class="node">
<title>Node13</title>
<g id="a_Node000013"><a xlink:href="gfx_8cpp.html" target="_top" xlink:title=" ">
<polygon fill="white" stroke="#666666" points="614.62,-188 566.38,-188 566.38,-168 614.62,-168 614.62,-188"/>
<text xml:space="preserve" text-anchor="middle" x="590.5" y="-174.5" font-family="Helvetica,sans-Serif" font-size="10.00">gfx.cpp</text>
</a>
</g>
</g>
<!-- Node2&#45;&gt;Node13 -->
<g id="edge19_Node000002_Node000013" class="edge">
<title>Node2&#45;&gt;Node13</title>
<g id="a_edge19_Node000002_Node000013"><a xlink:title=" ">
<path fill="none" stroke="#63b8ff" d="M499,-219.83C520.78,-210.12 549.9,-197.12 569.38,-188.42"/>
<polygon fill="#63b8ff" stroke="#63b8ff" points="497.76,-216.56 490.05,-223.83 500.61,-222.95 497.76,-216.56"/>
</a>
</g>
</g>
<!-- Node4 -->
<g id="Node000004" class="node">
<title>Node4</title>
<g id="a_Node000004"><a xlink:href="_game_8cpp.html" target="_top" xlink:title=" ">
<polygon fill="white" stroke="#666666" points="162,-20 101,-20 101,0 162,0 162,-20"/>
<text xml:space="preserve" text-anchor="middle" x="131.5" y="-6.5" font-family="Helvetica,sans-Serif" font-size="10.00">Game.cpp</text>
</a>
</g>
</g>
<!-- Node3&#45;&gt;Node4 -->
<g id="edge3_Node000003_Node000004" class="edge">
<title>Node3&#45;&gt;Node4</title>
<g id="a_edge3_Node000003_Node000004"><a xlink:title=" ">
<path fill="none" stroke="#63b8ff" d="M218.64,-50.88C197.7,-41.3 170.6,-28.89 152.21,-20.48"/>
<polygon fill="#63b8ff" stroke="#63b8ff" points="217.02,-53.99 227.57,-54.96 219.93,-47.62 217.02,-53.99"/>
</a>
</g>
</g>
<!-- Node5 -->
<g id="Node000005" class="node">
<title>Node5</title>
<g id="a_Node000005"><a xlink:href="main_8cpp.html" target="_top" xlink:title=" ">
<polygon fill="white" stroke="#666666" points="277.38,-20 221.62,-20 221.62,0 277.38,0 277.38,-20"/>
<text xml:space="preserve" text-anchor="middle" x="249.5" y="-6.5" font-family="Helvetica,sans-Serif" font-size="10.00">main.cpp</text>
</a>
</g>
</g>
<!-- Node3&#45;&gt;Node5 -->
<g id="edge4_Node000003_Node000005" class="edge">
<title>Node3&#45;&gt;Node5</title>
<g id="a_edge4_Node000003_Node000005"><a xlink:title=" ">
<path fill="none" stroke="#63b8ff" d="M249.5,-44.13C249.5,-35.9 249.5,-26.85 249.5,-20.3"/>
<polygon fill="#63b8ff" stroke="#63b8ff" points="246,-44.08 249.5,-54.08 253,-44.08 246,-44.08"/>
</a>
</g>
</g>
<!-- Node6&#45;&gt;Node3 -->
<g id="edge7_Node000006_Node000003" class="edge">
<title>Node6&#45;&gt;Node3</title>
<g id="a_edge7_Node000006_Node000003"><a xlink:title=" ">
<path fill="none" stroke="#63b8ff" d="M332.79,-165.58C363.34,-154.41 398.43,-135.66 381.5,-112 357.27,-78.13 306.01,-69.46 274.98,-67.42"/>
<polygon fill="#63b8ff" stroke="#63b8ff" points="332.01,-162.14 323.7,-168.71 334.3,-168.76 332.01,-162.14"/>
</a>
</g>
</g>
<!-- Node6&#45;&gt;Node4 -->
<g id="edge6_Node000006_Node000004" class="edge">
<title>Node6&#45;&gt;Node4</title>
<g id="a_edge6_Node000006_Node000004"><a xlink:title=" ">
<path fill="none" stroke="#63b8ff" d="M255.39,-170.18C203.58,-160.75 117.62,-143.59 108.5,-132 81.79,-98.06 111.55,-42.34 125.3,-20.35"/>
<polygon fill="#63b8ff" stroke="#63b8ff" points="254.56,-173.59 265.02,-171.91 255.8,-166.7 254.56,-173.59"/>
</a>
</g>
</g>
<!-- Node7 -->
<g id="Node000007" class="node">
<title>Node7</title>
<g id="a_Node000007"><a xlink:href="collider_8cpp.html" target="_top" xlink:title=" ">
<polygon fill="white" stroke="#666666" points="372.25,-132 306.75,-132 306.75,-112 372.25,-112 372.25,-132"/>
<text xml:space="preserve" text-anchor="middle" x="339.5" y="-118.5" font-family="Helvetica,sans-Serif" font-size="10.00">collider.cpp</text>
</a>
</g>
</g>
<!-- Node6&#45;&gt;Node7 -->
<g id="edge8_Node000006_Node000007" class="edge">
<title>Node6&#45;&gt;Node7</title>
<g id="a_edge8_Node000006_Node000007"><a xlink:title=" ">
<path fill="none" stroke="#63b8ff" d="M309.5,-159C316.95,-150.06 325.65,-139.62 331.75,-132.3"/>
<polygon fill="#63b8ff" stroke="#63b8ff" points="307.02,-156.51 303.31,-166.43 312.4,-160.99 307.02,-156.51"/>
</a>
</g>
</g>
<!-- Node6&#45;&gt;Node8 -->
<g id="edge9_Node000006_Node000008" class="edge">
<title>Node6&#45;&gt;Node8</title>
<g id="a_edge9_Node000006_Node000008"><a xlink:title=" ">
<path fill="none" stroke="#63b8ff" d="M332.92,-165.14C364.79,-155.31 409.49,-141.52 438.96,-132.42"/>
<polygon fill="#63b8ff" stroke="#63b8ff" points="332.2,-161.7 323.68,-168 334.26,-168.39 332.2,-161.7"/>
</a>
</g>
</g>
<!-- Node6&#45;&gt;Node9 -->
<g id="edge11_Node000006_Node000009" class="edge">
<title>Node6&#45;&gt;Node9</title>
<g id="a_edge11_Node000006_Node000009"><a xlink:title=" ">
<path fill="none" stroke="#63b8ff" d="M255.51,-169.28C211.67,-160.54 138.38,-145.71 75.5,-132 71.15,-131.05 66.54,-130.02 62.07,-128.99"/>
<polygon fill="#63b8ff" stroke="#63b8ff" points="254.82,-172.72 265.31,-171.24 256.19,-165.85 254.82,-172.72"/>
</a>
</g>
</g>
<!-- Node11 -->
<g id="Node000011" class="node">
<title>Node11</title>
<g id="a_Node000011"><a xlink:href="player_bullet_8h.html" target="_top" xlink:title=" ">
<polygon fill="white" stroke="#666666" points="193.12,-132 117.88,-132 117.88,-112 193.12,-112 193.12,-132"/>
<text xml:space="preserve" text-anchor="middle" x="155.5" y="-118.5" font-family="Helvetica,sans-Serif" font-size="10.00">playerBullet.h</text>
</a>
</g>
</g>
<!-- Node6&#45;&gt;Node11 -->
<g id="edge14_Node000006_Node000011" class="edge">
<title>Node6&#45;&gt;Node11</title>
<g id="a_edge14_Node000006_Node000011"><a xlink:title=" ">
<path fill="none" stroke="#63b8ff" d="M259.83,-163.53C234.96,-153.87 202.05,-141.08 179.9,-132.48"/>
<polygon fill="#63b8ff" stroke="#63b8ff" points="258.29,-166.69 268.88,-167.05 260.82,-160.16 258.29,-166.69"/>
</a>
</g>
</g>
<!-- Node12 -->
<g id="Node000012" class="node">
<title>Node12</title>
<g id="a_Node000012"><a xlink:href="simple_bullet_8h.html" target="_top" xlink:title=" ">
<polygon fill="white" stroke="#666666" points="288.25,-132 210.75,-132 210.75,-112 288.25,-112 288.25,-132"/>
<text xml:space="preserve" text-anchor="middle" x="249.5" y="-118.5" font-family="Helvetica,sans-Serif" font-size="10.00">simpleBullet.h</text>
</a>
</g>
</g>
<!-- Node6&#45;&gt;Node12 -->
<g id="edge16_Node000006_Node000012" class="edge">
<title>Node6&#45;&gt;Node12</title>
<g id="a_edge16_Node000006_Node000012"><a xlink:title=" ">
<path fill="none" stroke="#63b8ff" d="M279.5,-159C272.05,-150.06 263.35,-139.62 257.25,-132.3"/>
<polygon fill="#63b8ff" stroke="#63b8ff" points="276.6,-160.99 285.69,-166.43 281.98,-156.51 276.6,-160.99"/>
</a>
</g>
</g>
<!-- Node8&#45;&gt;Node3 -->
<g id="edge10_Node000008_Node000003" class="edge">
<title>Node8&#45;&gt;Node3</title>
<g id="a_edge10_Node000008_Node000003"><a xlink:title=" ">
<path fill="none" stroke="#63b8ff" d="M419.93,-108.83C374.91,-97.78 310.3,-81.92 274.97,-73.25"/>
<polygon fill="#63b8ff" stroke="#63b8ff" points="418.91,-112.19 429.46,-111.17 420.58,-105.39 418.91,-112.19"/>
</a>
</g>
</g>
<!-- Node9&#45;&gt;Node3 -->
<g id="edge12_Node000009_Node000003" class="edge">
<title>Node9&#45;&gt;Node3</title>
<g id="a_edge12_Node000009_Node000003"><a xlink:title=" ">
<path fill="none" stroke="#63b8ff" d="M73.31,-111.67C116.39,-100.75 186.58,-82.95 224.05,-73.45"/>
<polygon fill="#63b8ff" stroke="#63b8ff" points="72.49,-108.26 63.66,-114.11 74.21,-115.05 72.49,-108.26"/>
</a>
</g>
</g>
<!-- Node10 -->
<g id="Node000010" class="node">
<title>Node10</title>
<g id="a_Node000010"><a xlink:href="player_8cpp.html" target="_top" xlink:title=" ">
<polygon fill="white" stroke="#666666" points="61,-76 0,-76 0,-56 61,-56 61,-76"/>
<text xml:space="preserve" text-anchor="middle" x="30.5" y="-62.5" font-family="Helvetica,sans-Serif" font-size="10.00">player.cpp</text>
</a>
</g>
</g>
<!-- Node9&#45;&gt;Node10 -->
<g id="edge13_Node000009_Node000010" class="edge">
<title>Node9&#45;&gt;Node10</title>
<g id="a_edge13_Node000009_Node000010"><a xlink:title=" ">
<path fill="none" stroke="#63b8ff" d="M34.21,-100.43C33.29,-92.11 32.27,-82.93 31.53,-76.3"/>
<polygon fill="#63b8ff" stroke="#63b8ff" points="30.7,-100.54 35.29,-110.09 37.66,-99.76 30.7,-100.54"/>
</a>
</g>
</g>
<!-- Node11&#45;&gt;Node3 -->
<g id="edge15_Node000011_Node000003" class="edge">
<title>Node11&#45;&gt;Node3</title>
<g id="a_edge15_Node000011_Node000003"><a xlink:title=" ">
<path fill="none" stroke="#63b8ff" d="M181.47,-106.08C197.94,-96.62 218.76,-84.66 233,-76.48"/>
<polygon fill="#63b8ff" stroke="#63b8ff" points="180.11,-102.82 173.19,-110.84 183.6,-108.89 180.11,-102.82"/>
</a>
</g>
</g>
<!-- Node12&#45;&gt;Node3 -->
<g id="edge17_Node000012_Node000003" class="edge">
<title>Node12&#45;&gt;Node3</title>
<g id="a_edge17_Node000012_Node000003"><a xlink:title=" ">
<path fill="none" stroke="#63b8ff" d="M249.5,-100.13C249.5,-91.9 249.5,-82.85 249.5,-76.3"/>
<polygon fill="#63b8ff" stroke="#63b8ff" points="246,-100.08 249.5,-110.08 253,-100.08 246,-100.08"/>
</a>
</g>
</g>
</g>
</svg>
