<?xml version="1.0" encoding="UTF-8" standalone="no"?>
<!DOCTYPE svg PUBLIC "-//W3C//DTD SVG 1.1//EN"
 "http://www.w3.org/Graphics/SVG/1.1/DTD/svg11.dtd">
<!-- Generated by graphviz version 14.1.1 (0)
 -->
<!-- Title: VM.cpp Pages: 1 -->
<svg width="1107pt" height="308pt"
 viewBox="0.00 0.00 1107.00 308.00" xmlns="http://www.w3.org/2000/svg" xmlns:xlink="http://www.w3.org/1999/xlink">
<g id="graph0" class="graph" transform="scale(1 1) rotate(0) translate(4 304)">
<title>VM.cpp</title>
<!-- Node1 -->
<g id="Node000001" class="node">
<title>Node1</title>
<g id="a_Node000001"><a xlink:title=" ">
<polygon fill="#999999" stroke="#666666" points="520.7,-300 470.95,-300 470.95,-280 520.7,-280 520.7,-300"/>
<text xml:space="preserve" text-anchor="middle" x="495.83" y="-286.5" font-family="Helvetica,sans-Serif" font-size="10.00">VM.cpp</text>
</a>
</g>
</g>
<!-- Node2 -->
<g id="Node000002" class="node">
<title>Node2</title>
<g id="a_Node000002"><a xlink:href="_v_m_8h.html" target="_top" xlink:title=" ">
<polygon fill="white" stroke="#666666" points="284.45,-188 245.2,-188 245.2,-168 284.45,-168 284.45,-188"/>
<text xml:space="preserve" text-anchor="middle" x="264.83" y="-174.5" font-family="Helvetica,sans-Serif" font-size="10.00">VM.h</text>
</a>
</g>
</g>
<!-- Node1&#45;&gt;Node2 -->
<g id="edge1_Node000001_Node000002" class="edge">
<title>Node1&#45;&gt;Node2</title>
<g id="a_edge1_Node000001_Node000002"><a xlink:title=" ">
<path fill="none" stroke="#63b8ff" d="M476.13,-279.62C435.64,-260.34 342.84,-216.15 294.83,-193.29"/>
<polygon fill="#63b8ff" stroke="#63b8ff" points="296.37,-190.14 285.84,-189.01 293.36,-196.46 296.37,-190.14"/>
</a>
</g>
</g>
<!-- Node17 -->
<g id="Node000017" class="node">
<title>Node17</title>
<g id="a_Node000017"><a xlink:href="all_8h.html" target="_top" xlink:title=" ">
<polygon fill="white" stroke="#666666" points="721.95,-244 649.7,-244 649.7,-224 721.95,-224 721.95,-244"/>
<text xml:space="preserve" text-anchor="middle" x="685.83" y="-230.5" font-family="Helvetica,sans-Serif" font-size="10.00">../tables/all.h</text>
</a>
</g>
</g>
<!-- Node1&#45;&gt;Node17 -->
<g id="edge18_Node000001_Node000017" class="edge">
<title>Node1&#45;&gt;Node17</title>
<g id="a_edge18_Node000001_Node000017"><a xlink:title=" ">
<path fill="none" stroke="#63b8ff" d="M521.06,-281.83C551.84,-273.08 604.39,-258.15 641.87,-247.49"/>
<polygon fill="#63b8ff" stroke="#63b8ff" points="642.37,-250.99 651.04,-244.89 640.46,-244.26 642.37,-250.99"/>
</a>
</g>
</g>
<!-- Node3 -->
<g id="Node000003" class="node">
<title>Node3</title>
<g id="a_Node000003"><a xlink:title=" ">
<polygon fill="#e0e0e0" stroke="#999999" points="173.83,-76 133.83,-76 133.83,-56 173.83,-56 173.83,-76"/>
<text xml:space="preserve" text-anchor="middle" x="153.83" y="-62.5" font-family="Helvetica,sans-Serif" font-size="10.00">string</text>
</a>
</g>
</g>
<!-- Node2&#45;&gt;Node3 -->
<g id="edge2_Node000002_Node000003" class="edge">
<title>Node2&#45;&gt;Node3</title>
<g id="a_edge2_Node000002_Node000003"><a xlink:title=" ">
<path fill="none" stroke="#63b8ff" d="M245,-173.96C221.67,-169.27 183.63,-157.94 163.83,-132 154.28,-119.49 152.11,-101.62 152.15,-87.77"/>
<polygon fill="#63b8ff" stroke="#63b8ff" points="155.63,-88.12 152.58,-77.98 148.64,-87.81 155.63,-88.12"/>
</a>
</g>
</g>
<!-- Node4 -->
<g id="Node000004" class="node">
<title>Node4</title>
<g id="a_Node000004"><a xlink:title=" ">
<polygon fill="#e0e0e0" stroke="#999999" points="67.33,-76 18.33,-76 18.33,-56 67.33,-56 67.33,-76"/>
<text xml:space="preserve" text-anchor="middle" x="42.83" y="-62.5" font-family="Helvetica,sans-Serif" font-size="10.00">fstream</text>
</a>
</g>
</g>
<!-- Node2&#45;&gt;Node4 -->
<g id="edge3_Node000002_Node000004" class="edge">
<title>Node2&#45;&gt;Node4</title>
<g id="a_edge3_Node000002_Node000004"><a xlink:title=" ">
<path fill="none" stroke="#63b8ff" d="M244.87,-176.71C189.44,-175.44 35.66,-168.62 4.83,-132 -7.7,-117.12 7.17,-97.58 21.83,-83.82"/>
<polygon fill="#63b8ff" stroke="#63b8ff" points="23.87,-86.69 29.08,-77.47 19.25,-81.42 23.87,-86.69"/>
</a>
</g>
</g>
<!-- Node5 -->
<g id="Node000005" class="node">
<title>Node5</title>
<g id="a_Node000005"><a xlink:title=" ">
<polygon fill="#e0e0e0" stroke="#999999" points="470.33,-132 427.33,-132 427.33,-112 470.33,-112 470.33,-132"/>
<text xml:space="preserve" text-anchor="middle" x="448.83" y="-118.5" font-family="Helvetica,sans-Serif" font-size="10.00">vector</text>
</a>
</g>
</g>
<!-- Node2&#45;&gt;Node5 -->
<g id="edge4_Node000002_Node000005" class="edge">
<title>Node2&#45;&gt;Node5</title>
<g id="a_edge4_Node000002_Node000005"><a xlink:title=" ">
<path fill="none" stroke="#63b8ff" d="M284.87,-171.12C316.44,-161.85 378.06,-143.77 416.11,-132.6"/>
<polygon fill="#63b8ff" stroke="#63b8ff" points="417.04,-135.98 425.65,-129.8 415.07,-129.26 417.04,-135.98"/>
</a>
</g>
</g>
<!-- Node6 -->
<g id="Node000006" class="node">
<title>Node6</title>
<g id="a_Node000006"><a xlink:title=" ">
<polygon fill="#e0e0e0" stroke="#999999" points="646.45,-76 601.2,-76 601.2,-56 646.45,-56 646.45,-76"/>
<text xml:space="preserve" text-anchor="middle" x="623.83" y="-62.5" font-family="Helvetica,sans-Serif" font-size="10.00">cstdint</text>
</a>
</g>
</g>
<!-- Node2&#45;&gt;Node6 -->
<g id="edge5_Node000002_Node000006" class="edge">
<title>Node2&#45;&gt;Node6</title>
<g id="a_edge5_Node000002_Node000006"><a xlink:title=" ">
<path fill="none" stroke="#63b8ff" d="M270.34,-167.61C279.44,-153.02 299.1,-125.23 323.83,-112 369.28,-87.68 520.62,-74.24 589.35,-69.26"/>
<polygon fill="#63b8ff" stroke="#63b8ff" points="589.55,-72.76 599.28,-68.56 589.06,-65.78 589.55,-72.76"/>
</a>
</g>
</g>
<!-- Node7 -->
<g id="Node000007" class="node">
<title>Node7</title>
<g id="a_Node000007"><a xlink:title=" ">
<polygon fill="#e0e0e0" stroke="#999999" points="59.45,-132 14.2,-132 14.2,-112 59.45,-112 59.45,-132"/>
<text xml:space="preserve" text-anchor="middle" x="36.83" y="-118.5" font-family="Helvetica,sans-Serif" font-size="10.00">cstring</text>
</a>
</g>
</g>
<!-- Node2&#45;&gt;Node7 -->
<g id="edge6_Node000002_Node000007" class="edge">
<title>Node2&#45;&gt;Node7</title>
<g id="a_edge6_Node000002_Node000007"><a xlink:title=" ">
<path fill="none" stroke="#63b8ff" d="M244.88,-172.84C211.02,-165.7 139.9,-150.34 70.86,-132.69"/>
<polygon fill="#63b8ff" stroke="#63b8ff" points="71.83,-129.32 61.27,-130.21 70.08,-136.1 71.83,-129.32"/>
</a>
</g>
</g>
<!-- Node8 -->
<g id="Node000008" class="node">
<title>Node8</title>
<g id="a_Node000008"><a xlink:title=" ">
<polygon fill="#e0e0e0" stroke="#999999" points="571.2,-132 488.45,-132 488.45,-112 571.2,-112 571.2,-132"/>
<text xml:space="preserve" text-anchor="middle" x="529.83" y="-118.5" font-family="Helvetica,sans-Serif" font-size="10.00">unordered_map</text>
</a>
</g>
</g>
<!-- Node2&#45;&gt;Node8 -->
<g id="edge7_Node000002_Node000008" class="edge">
<title>Node2&#45;&gt;Node8</title>
<g id="a_edge7_Node000002_Node000008"><a xlink:title=" ">
<path fill="none" stroke="#63b8ff" d="M284.74,-172.94C325.23,-164.69 418.28,-145.73 477.37,-133.69"/>
<polygon fill="#63b8ff" stroke="#63b8ff" points="477.76,-137.18 486.86,-131.76 476.36,-130.32 477.76,-137.18"/>
</a>
</g>
</g>
<!-- Node9 -->
<g id="Node000009" class="node">
<title>Node9</title>
<g id="a_Node000009"><a xlink:title=" ">
<polygon fill="#e0e0e0" stroke="#999999" points="116.45,-132 77.2,-132 77.2,-112 116.45,-112 116.45,-132"/>
<text xml:space="preserve" text-anchor="middle" x="96.83" y="-118.5" font-family="Helvetica,sans-Serif" font-size="10.00">limits</text>
</a>
</g>
</g>
<!-- Node2&#45;&gt;Node9 -->
<g id="edge8_Node000002_Node000009" class="edge">
<title>Node2&#45;&gt;Node9</title>
<g id="a_edge8_Node000002_Node000009"><a xlink:title=" ">
<path fill="none" stroke="#63b8ff" d="M244.9,-170.59C215.85,-161.26 161.63,-143.83 127.48,-132.85"/>
<polygon fill="#63b8ff" stroke="#63b8ff" points="128.76,-129.59 118.17,-129.86 126.62,-136.25 128.76,-129.59"/>
</a>
</g>
</g>
<!-- Node10 -->
<g id="Node000010" class="node">
<title>Node10</title>
<g id="a_Node000010"><a xlink:href="fsutil_8h.html" target="_top" xlink:title=" ">
<polygon fill="white" stroke="#666666" points="408.83,-132 332.83,-132 332.83,-112 408.83,-112 408.83,-132"/>
<text xml:space="preserve" text-anchor="middle" x="370.83" y="-118.5" font-family="Helvetica,sans-Serif" font-size="10.00">../core/fsutil.h</text>
</a>
</g>
</g>
<!-- Node2&#45;&gt;Node10 -->
<g id="edge9_Node000002_Node000010" class="edge">
<title>Node2&#45;&gt;Node10</title>
<g id="a_edge9_Node000002_Node000010"><a xlink:title=" ">
<path fill="none" stroke="#63b8ff" d="M283.29,-167.59C299.53,-159.32 323.43,-147.14 342.16,-137.6"/>
<polygon fill="#63b8ff" stroke="#63b8ff" points="343.55,-140.82 350.87,-133.17 340.37,-134.59 343.55,-140.82"/>
</a>
</g>
</g>
<!-- Node14 -->
<g id="Node000014" class="node">
<title>Node14</title>
<g id="a_Node000014"><a xlink:href="commands_8h.html" target="_top" xlink:title=" ">
<polygon fill="white" stroke="#666666" points="276.33,-132 173.33,-132 173.33,-112 276.33,-112 276.33,-132"/>
<text xml:space="preserve" text-anchor="middle" x="224.83" y="-118.5" font-family="Helvetica,sans-Serif" font-size="10.00">../core/commands.h</text>
</a>
</g>
</g>
<!-- Node2&#45;&gt;Node14 -->
<g id="edge14_Node000002_Node000014" class="edge">
<title>Node2&#45;&gt;Node14</title>
<g id="a_edge14_Node000002_Node000014"><a xlink:title=" ">
<path fill="none" stroke="#63b8ff" d="M257.86,-167.59C252.53,-160.39 245,-150.23 238.48,-141.43"/>
<polygon fill="#63b8ff" stroke="#63b8ff" points="241.38,-139.47 232.62,-133.51 235.76,-143.63 241.38,-139.47"/>
</a>
</g>
</g>
<!-- Node10&#45;&gt;Node4 -->
<g id="edge13_Node000010_Node000004" class="edge">
<title>Node10&#45;&gt;Node4</title>
<g id="a_edge13_Node000010_Node000004"><a xlink:title=" ">
<path fill="none" stroke="#63b8ff" d="M332.56,-114.7C268.74,-104.19 141.43,-83.23 79.02,-72.96"/>
<polygon fill="#63b8ff" stroke="#63b8ff" points="79.72,-69.53 69.29,-71.36 78.59,-76.43 79.72,-69.53"/>
</a>
</g>
</g>
<!-- Node11 -->
<g id="Node000011" class="node">
<title>Node11</title>
<g id="a_Node000011"><a xlink:href="json_8h.html" target="_top" xlink:title=" ">
<polygon fill="white" stroke="#666666" points="801.95,-76 759.7,-76 759.7,-56 801.95,-56 801.95,-76"/>
<text xml:space="preserve" text-anchor="middle" x="780.83" y="-62.5" font-family="Helvetica,sans-Serif" font-size="10.00">json.h</text>
</a>
</g>
</g>
<!-- Node10&#45;&gt;Node11 -->
<g id="edge10_Node000010_Node000011" class="edge">
<title>Node10&#45;&gt;Node11</title>
<g id="a_edge10_Node000010_Node000011"><a xlink:title=" ">
<path fill="none" stroke="#63b8ff" d="M409.26,-113.43C412.16,-112.92 415.04,-112.44 417.83,-112 539.23,-92.87 684.53,-76.95 748.21,-70.31"/>
<polygon fill="#63b8ff" stroke="#63b8ff" points="748.39,-73.82 757.98,-69.31 747.67,-66.85 748.39,-73.82"/>
</a>
</g>
</g>
<!-- Node12 -->
<g id="Node000012" class="node">
<title>Node12</title>
<g id="a_Node000012"><a xlink:title=" ">
<polygon fill="#e0e0e0" stroke="#999999" points="765.33,-20 656.33,-20 656.33,0 765.33,0 765.33,-20"/>
<text xml:space="preserve" text-anchor="middle" x="710.83" y="-6.5" font-family="Helvetica,sans-Serif" font-size="10.00">rapidjson/document.h</text>
</a>
</g>
</g>
<!-- Node11&#45;&gt;Node12 -->
<g id="edge11_Node000011_Node000012" class="edge">
<title>Node11&#45;&gt;Node12</title>
<g id="a_edge11_Node000011_Node000012"><a xlink:title=" ">
<path fill="none" stroke="#63b8ff" d="M768.63,-55.59C758.5,-47.77 743.84,-36.46 731.82,-27.19"/>
<polygon fill="#63b8ff" stroke="#63b8ff" points="734.13,-24.56 724.08,-21.22 729.86,-30.1 734.13,-24.56"/>
</a>
</g>
</g>
<!-- Node13 -->
<g id="Node000013" class="node">
<title>Node13</title>
<g id="a_Node000013"><a xlink:title=" ">
<polygon fill="#e0e0e0" stroke="#999999" points="916.33,-20 783.33,-20 783.33,0 916.33,0 916.33,-20"/>
<text xml:space="preserve" text-anchor="middle" x="849.83" y="-6.5" font-family="Helvetica,sans-Serif" font-size="10.00">rapidjson/istreamwrapper.h</text>
</a>
</g>
</g>
<!-- Node11&#45;&gt;Node13 -->
<g id="edge12_Node000011_Node000013" class="edge">
<title>Node11&#45;&gt;Node13</title>
<g id="a_edge12_Node000011_Node000013"><a xlink:title=" ">
<path fill="none" stroke="#63b8ff" d="M792.85,-55.59C802.84,-47.77 817.29,-36.46 829.14,-27.19"/>
<polygon fill="#63b8ff" stroke="#63b8ff" points="831.04,-30.15 836.75,-21.23 826.72,-24.64 831.04,-30.15"/>
</a>
</g>
</g>
<!-- Node14&#45;&gt;Node6 -->
<g id="edge16_Node000014_Node000006" class="edge">
<title>Node14&#45;&gt;Node6</title>
<g id="a_edge16_Node000014_Node000006"><a xlink:title=" ">
<path fill="none" stroke="#63b8ff" d="M276.71,-113.92C281.48,-113.27 286.24,-112.62 290.83,-112 400.03,-97.18 529.39,-79.73 589.7,-71.6"/>
<polygon fill="#63b8ff" stroke="#63b8ff" points="589.87,-75.11 599.31,-70.3 588.94,-68.17 589.87,-75.11"/>
</a>
</g>
</g>
<!-- Node15 -->
<g id="Node000015" class="node">
<title>Node15</title>
<g id="a_Node000015"><a xlink:href="vec2_8h.html" target="_top" xlink:title=" ">
<polygon fill="white" stroke="#666666" points="447.45,-76 402.2,-76 402.2,-56 447.45,-56 447.45,-76"/>
<text xml:space="preserve" text-anchor="middle" x="424.83" y="-62.5" font-family="Helvetica,sans-Serif" font-size="10.00">vec2.h</text>
</a>
</g>
</g>
<!-- Node14&#45;&gt;Node15 -->
<g id="edge15_Node000014_Node000015" class="edge">
<title>Node14&#45;&gt;Node15</title>
<g id="a_edge15_Node000014_Node000015"><a xlink:title=" ">
<path fill="none" stroke="#63b8ff" d="M259.66,-111.59C296.52,-101.64 354.31,-86.04 390.84,-76.18"/>
<polygon fill="#63b8ff" stroke="#63b8ff" points="391.7,-79.57 400.44,-73.58 389.87,-72.81 391.7,-79.57"/>
</a>
</g>
</g>
<!-- Node16 -->
<g id="Node000016" class="node">
<title>Node16</title>
<g id="a_Node000016"><a xlink:title=" ">
<polygon fill="#e0e0e0" stroke="#999999" points="247.45,-76 202.2,-76 202.2,-56 247.45,-56 247.45,-76"/>
<text xml:space="preserve" text-anchor="middle" x="224.83" y="-62.5" font-family="Helvetica,sans-Serif" font-size="10.00">variant</text>
</a>
</g>
</g>
<!-- Node14&#45;&gt;Node16 -->
<g id="edge17_Node000014_Node000016" class="edge">
<title>Node14&#45;&gt;Node16</title>
<g id="a_edge17_Node000014_Node000016"><a xlink:title=" ">
<path fill="none" stroke="#63b8ff" d="M224.83,-111.59C224.83,-105.01 224.83,-95.96 224.83,-87.73"/>
<polygon fill="#63b8ff" stroke="#63b8ff" points="228.33,-87.81 224.83,-77.81 221.33,-87.81 228.33,-87.81"/>
</a>
</g>
</g>
<!-- Node18 -->
<g id="Node000018" class="node">
<title>Node18</title>
<g id="a_Node000018"><a xlink:href="_entity_table_8h.html" target="_top" xlink:title=" ">
<polygon fill="white" stroke="#666666" points="722.33,-188 649.33,-188 649.33,-168 722.33,-168 722.33,-188"/>
<text xml:space="preserve" text-anchor="middle" x="685.83" y="-174.5" font-family="Helvetica,sans-Serif" font-size="10.00">EntityTable.h</text>
</a>
</g>
</g>
<!-- Node17&#45;&gt;Node18 -->
<g id="edge19_Node000017_Node000018" class="edge">
<title>Node17&#45;&gt;Node18</title>
<g id="a_edge19_Node000017_Node000018"><a xlink:title=" ">
<path fill="none" stroke="#63b8ff" d="M685.83,-223.59C685.83,-217.01 685.83,-207.96 685.83,-199.73"/>
<polygon fill="#63b8ff" stroke="#63b8ff" points="689.33,-199.81 685.83,-189.81 682.33,-199.81 689.33,-199.81"/>
</a>
</g>
</g>
<!-- Node23 -->
<g id="Node000023" class="node">
<title>Node23</title>
<g id="a_Node000023"><a xlink:href="_param_table_8h.html" target="_top" xlink:title=" ">
<polygon fill="white" stroke="#666666" points="846.83,-188 770.83,-188 770.83,-168 846.83,-168 846.83,-188"/>
<text xml:space="preserve" text-anchor="middle" x="808.83" y="-174.5" font-family="Helvetica,sans-Serif" font-size="10.00">ParamTable.h</text>
</a>
</g>
</g>
<!-- Node17&#45;&gt;Node23 -->
<g id="edge31_Node000017_Node000023" class="edge">
<title>Node17&#45;&gt;Node23</title>
<g id="a_edge31_Node000017_Node000023"><a xlink:title=" ">
<path fill="none" stroke="#63b8ff" d="M707.25,-223.59C726.45,-215.17 754.87,-202.69 776.77,-193.07"/>
<polygon fill="#63b8ff" stroke="#63b8ff" points="778.1,-196.31 785.85,-189.09 775.29,-189.9 778.1,-196.31"/>
</a>
</g>
</g>
<!-- Node18&#45;&gt;Node6 -->
<g id="edge20_Node000018_Node000006" class="edge">
<title>Node18&#45;&gt;Node6</title>
<g id="a_edge20_Node000018_Node000006"><a xlink:title=" ">
<path fill="none" stroke="#63b8ff" d="M684.52,-167.62C682.39,-154.47 677.29,-130.12 666.83,-112 660.8,-101.55 651.85,-91.66 643.68,-83.83"/>
<polygon fill="#63b8ff" stroke="#63b8ff" points="646.16,-81.35 636.41,-77.22 641.45,-86.54 646.16,-81.35"/>
</a>
</g>
</g>
<!-- Node18&#45;&gt;Node8 -->
<g id="edge23_Node000018_Node000008" class="edge">
<title>Node18&#45;&gt;Node8</title>
<g id="a_edge23_Node000018_Node000008"><a xlink:title=" ">
<path fill="none" stroke="#63b8ff" d="M658.65,-167.59C633.53,-158.9 595.95,-145.89 567.85,-136.16"/>
<polygon fill="#63b8ff" stroke="#63b8ff" points="569.24,-132.94 558.64,-132.97 566.95,-139.55 569.24,-132.94"/>
</a>
</g>
</g>
<!-- Node18&#45;&gt;Node10 -->
<g id="edge30_Node000018_Node000010" class="edge">
<title>Node18&#45;&gt;Node10</title>
<g id="a_edge30_Node000018_Node000010"><a xlink:title=" ">
<path fill="none" stroke="#63b8ff" d="M648.93,-171.08C599.34,-163.06 508.13,-148.1 420.51,-132.45"/>
<polygon fill="#63b8ff" stroke="#63b8ff" points="421.24,-129.03 410.78,-130.71 420,-135.92 421.24,-129.03"/>
</a>
</g>
</g>
<!-- Node19 -->
<g id="Node000019" class="node">
<title>Node19</title>
<g id="a_Node000019"><a xlink:title=" ">
<polygon fill="#e0e0e0" stroke="#999999" points="810.2,-132 751.45,-132 751.45,-112 810.2,-112 810.2,-132"/>
<text xml:space="preserve" text-anchor="middle" x="780.83" y="-118.5" font-family="Helvetica,sans-Serif" font-size="10.00">stdexcept</text>
</a>
</g>
</g>
<!-- Node18&#45;&gt;Node19 -->
<g id="edge21_Node000018_Node000019" class="edge">
<title>Node18&#45;&gt;Node19</title>
<g id="a_edge21_Node000018_Node000019"><a xlink:title=" ">
<path fill="none" stroke="#63b8ff" d="M702.37,-167.59C716.73,-159.44 737.75,-147.48 754.43,-138"/>
<polygon fill="#63b8ff" stroke="#63b8ff" points="755.87,-141.21 762.83,-133.23 752.41,-135.13 755.87,-141.21"/>
</a>
</g>
</g>
<!-- Node20 -->
<g id="Node000020" class="node">
<title>Node20</title>
<g id="a_Node000020"><a xlink:title=" ">
<polygon fill="#e0e0e0" stroke="#999999" points="987.58,-76 922.08,-76 922.08,-56 987.58,-56 987.58,-76"/>
<text xml:space="preserve" text-anchor="middle" x="954.83" y="-62.5" font-family="Helvetica,sans-Serif" font-size="10.00">string_view</text>
</a>
</g>
</g>
<!-- Node18&#45;&gt;Node20 -->
<g id="edge22_Node000018_Node000020" class="edge">
<title>Node18&#45;&gt;Node20</title>
<g id="a_edge22_Node000018_Node000020"><a xlink:title=" ">
<path fill="none" stroke="#63b8ff" d="M691.16,-167.78C699.98,-153.43 719,-125.96 742.83,-112 794.98,-81.44 865.16,-71.52 910.2,-68.36"/>
<polygon fill="#63b8ff" stroke="#63b8ff" points="910.37,-71.86 920.14,-67.76 909.94,-64.87 910.37,-71.86"/>
</a>
</g>
</g>
<!-- Node21 -->
<g id="Node000021" class="node">
<title>Node21</title>
<g id="a_Node000021"><a xlink:href="rapid_string_8h.html" target="_top" xlink:title=" ">
<polygon fill="white" stroke="#666666" points="1005.58,-132 904.08,-132 904.08,-112 1005.58,-112 1005.58,-132"/>
<text xml:space="preserve" text-anchor="middle" x="954.83" y="-118.5" font-family="Helvetica,sans-Serif" font-size="10.00">../core/rapidString.h</text>
</a>
</g>
</g>
<!-- Node18&#45;&gt;Node21 -->
<g id="edge24_Node000018_Node000021" class="edge">
<title>Node18&#45;&gt;Node21</title>
<g id="a_edge24_Node000018_Node000021"><a xlink:title=" ">
<path fill="none" stroke="#63b8ff" d="M722.67,-169.6C767.44,-160.62 843.54,-145.34 896.36,-134.74"/>
<polygon fill="#63b8ff" stroke="#63b8ff" points="896.98,-138.18 906.1,-132.78 895.61,-131.32 896.98,-138.18"/>
</a>
</g>
</g>
<!-- Node22 -->
<g id="Node000022" class="node">
<title>Node22</title>
<g id="a_Node000022"><a xlink:href="def_8h.html" target="_top" xlink:title=" ">
<polygon fill="white" stroke="#666666" points="658.08,-132 589.58,-132 589.58,-112 658.08,-112 658.08,-132"/>
<text xml:space="preserve" text-anchor="middle" x="623.83" y="-118.5" font-family="Helvetica,sans-Serif" font-size="10.00">../core/def.h</text>
</a>
</g>
</g>
<!-- Node18&#45;&gt;Node22 -->
<g id="edge26_Node000018_Node000022" class="edge">
<title>Node18&#45;&gt;Node22</title>
<g id="a_edge26_Node000018_Node000022"><a xlink:title=" ">
<path fill="none" stroke="#63b8ff" d="M675.03,-167.59C666.23,-159.93 653.58,-148.91 643.05,-139.75"/>
<polygon fill="#63b8ff" stroke="#63b8ff" points="645.48,-137.22 635.64,-133.29 640.89,-142.5 645.48,-137.22"/>
</a>
</g>
</g>
<!-- Node21&#45;&gt;Node20 -->
<g id="edge25_Node000021_Node000020" class="edge">
<title>Node21&#45;&gt;Node20</title>
<g id="a_edge25_Node000021_Node000020"><a xlink:title=" ">
<path fill="none" stroke="#63b8ff" d="M954.83,-111.59C954.83,-105.01 954.83,-95.96 954.83,-87.73"/>
<polygon fill="#63b8ff" stroke="#63b8ff" points="958.33,-87.81 954.83,-77.81 951.33,-87.81 958.33,-87.81"/>
</a>
</g>
</g>
<!-- Node22&#45;&gt;Node3 -->
<g id="edge28_Node000022_Node000003" class="edge">
<title>Node22&#45;&gt;Node3</title>
<g id="a_edge28_Node000022_Node000003"><a xlink:title=" ">
<path fill="none" stroke="#63b8ff" d="M589.3,-113.57C586.11,-112.99 582.91,-112.46 579.83,-112 408.95,-86.65 363.37,-103.48 192.83,-76 190.32,-75.6 187.73,-75.12 185.14,-74.61"/>
<polygon fill="#63b8ff" stroke="#63b8ff" points="185.96,-71.21 175.45,-72.51 184.48,-78.05 185.96,-71.21"/>
</a>
</g>
</g>
<!-- Node22&#45;&gt;Node6 -->
<g id="edge27_Node000022_Node000006" class="edge">
<title>Node22&#45;&gt;Node6</title>
<g id="a_edge27_Node000022_Node000006"><a xlink:title=" ">
<path fill="none" stroke="#63b8ff" d="M623.83,-111.59C623.83,-105.01 623.83,-95.96 623.83,-87.73"/>
<polygon fill="#63b8ff" stroke="#63b8ff" points="627.33,-87.81 623.83,-77.81 620.33,-87.81 627.33,-87.81"/>
</a>
</g>
</g>
<!-- Node22&#45;&gt;Node15 -->
<g id="edge29_Node000022_Node000015" class="edge">
<title>Node22&#45;&gt;Node15</title>
<g id="a_edge29_Node000022_Node000015"><a xlink:title=" ">
<path fill="none" stroke="#63b8ff" d="M589.16,-111.59C552.59,-101.67 495.31,-86.13 458.94,-76.26"/>
<polygon fill="#63b8ff" stroke="#63b8ff" points="459.95,-72.9 449.38,-73.66 458.12,-79.66 459.95,-72.9"/>
</a>
</g>
</g>
<!-- Node23&#45;&gt;Node5 -->
<g id="edge36_Node000023_Node000005" class="edge">
<title>Node23&#45;&gt;Node5</title>
<g id="a_edge36_Node000023_Node000005"><a xlink:title=" ">
<path fill="none" stroke="#63b8ff" d="M770.48,-172.47C700.01,-164.04 551.45,-145.72 481.64,-132.03"/>
<polygon fill="#63b8ff" stroke="#63b8ff" points="482.72,-128.68 472.22,-130.1 481.31,-135.54 482.72,-128.68"/>
</a>
</g>
</g>
<!-- Node23&#45;&gt;Node6 -->
<g id="edge32_Node000023_Node000006" class="edge">
<title>Node23&#45;&gt;Node6</title>
<g id="a_edge32_Node000023_Node000006"><a xlink:title=" ">
<path fill="none" stroke="#63b8ff" d="M814.09,-167.92C821.25,-154.25 831.76,-128.26 818.83,-112 799.1,-87.21 708.51,-74.9 658.04,-69.87"/>
<polygon fill="#63b8ff" stroke="#63b8ff" points="658.52,-66.4 648.24,-68.94 657.86,-73.37 658.52,-66.4"/>
</a>
</g>
</g>
<!-- Node23&#45;&gt;Node8 -->
<g id="edge35_Node000023_Node000008" class="edge">
<title>Node23&#45;&gt;Node8</title>
<g id="a_edge35_Node000023_Node000008"><a xlink:title=" ">
<path fill="none" stroke="#63b8ff" d="M770.62,-169.6C721.99,-160.19 637.74,-143.89 582.9,-133.27"/>
<polygon fill="#63b8ff" stroke="#63b8ff" points="583.63,-129.85 573.15,-131.39 582.3,-136.72 583.63,-129.85"/>
</a>
</g>
</g>
<!-- Node23&#45;&gt;Node11 -->
<g id="edge39_Node000023_Node000011" class="edge">
<title>Node23&#45;&gt;Node11</title>
<g id="a_edge39_Node000023_Node000011"><a xlink:title=" ">
<path fill="none" stroke="#63b8ff" d="M822.73,-167.61C839.23,-155.24 863.17,-132.63 851.83,-112 843.39,-96.67 827.28,-85.83 812.54,-78.63"/>
<polygon fill="#63b8ff" stroke="#63b8ff" points="814.12,-75.5 803.56,-74.64 811.28,-81.9 814.12,-75.5"/>
</a>
</g>
</g>
<!-- Node23&#45;&gt;Node19 -->
<g id="edge33_Node000023_Node000019" class="edge">
<title>Node23&#45;&gt;Node19</title>
<g id="a_edge33_Node000023_Node000019"><a xlink:title=" ">
<path fill="none" stroke="#63b8ff" d="M803.95,-167.59C800.34,-160.63 795.29,-150.89 790.83,-142.29"/>
<polygon fill="#63b8ff" stroke="#63b8ff" points="794.06,-140.91 786.34,-133.64 787.84,-144.13 794.06,-140.91"/>
</a>
</g>
</g>
<!-- Node23&#45;&gt;Node20 -->
<g id="edge34_Node000023_Node000020" class="edge">
<title>Node23&#45;&gt;Node20</title>
<g id="a_edge34_Node000023_Node000020"><a xlink:title=" ">
<path fill="none" stroke="#63b8ff" d="M847.05,-174.24C900.72,-169.48 994.17,-157.66 1014.83,-132 1029.29,-114.03 1006.13,-94.77 984.51,-81.92"/>
<polygon fill="#63b8ff" stroke="#63b8ff" points="986.27,-78.89 975.83,-77.07 982.85,-85 986.27,-78.89"/>
</a>
</g>
</g>
<!-- Node23&#45;&gt;Node21 -->
<g id="edge40_Node000023_Node000021" class="edge">
<title>Node23&#45;&gt;Node21</title>
<g id="a_edge40_Node000023_Node000021"><a xlink:title=" ">
<path fill="none" stroke="#63b8ff" d="M834.26,-167.59C857.56,-158.97 892.32,-146.12 918.54,-136.42"/>
<polygon fill="#63b8ff" stroke="#63b8ff" points="919.61,-139.76 927.78,-133 917.18,-133.19 919.61,-139.76"/>
</a>
</g>
</g>
<!-- Node23&#45;&gt;Node22 -->
<g id="edge38_Node000023_Node000022" class="edge">
<title>Node23&#45;&gt;Node22</title>
<g id="a_edge38_Node000023_Node000022"><a xlink:title=" ">
<path fill="none" stroke="#63b8ff" d="M776.6,-167.59C746.28,-158.74 700.66,-145.43 667.16,-135.65"/>
<polygon fill="#63b8ff" stroke="#63b8ff" points="668.34,-132.35 657.76,-132.9 666.37,-139.07 668.34,-132.35"/>
</a>
</g>
</g>
<!-- Node24 -->
<g id="Node000024" class="node">
<title>Node24</title>
<g id="a_Node000024"><a xlink:title=" ">
<polygon fill="#e0e0e0" stroke="#999999" points="1099.33,-132 1062.33,-132 1062.33,-112 1099.33,-112 1099.33,-132"/>
<text xml:space="preserve" text-anchor="middle" x="1080.83" y="-118.5" font-family="Helvetica,sans-Serif" font-size="10.00">span</text>
</a>
</g>
</g>
<!-- Node23&#45;&gt;Node24 -->
<g id="edge37_Node000023_Node000024" class="edge">
<title>Node23&#45;&gt;Node24</title>
<g id="a_edge37_Node000023_Node000024"><a xlink:title=" ">
<path fill="none" stroke="#63b8ff" d="M847.1,-170.77C894.47,-162.83 977.47,-148.19 1047.83,-132 1048.84,-131.77 1049.87,-131.52 1050.91,-131.27"/>
<polygon fill="#63b8ff" stroke="#63b8ff" points="1051.77,-134.66 1060.58,-128.78 1050.02,-127.89 1051.77,-134.66"/>
</a>
</g>
</g>
</g>
</svg>
