<?xml version="1.0" encoding="UTF-8" standalone="no"?>
<!DOCTYPE svg PUBLIC "-//W3C//DTD SVG 1.1//EN"
 "http://www.w3.org/Graphics/SVG/1.1/DTD/svg11.dtd">
<!-- Generated by graphviz version 14.1.1 (0)
 -->
<!-- Title: VM.h Pages: 1 -->
<svg width="653pt" height="196pt"
 viewBox="0.00 0.00 653.00 196.00" xmlns="http://www.w3.org/2000/svg" xmlns:xlink="http://www.w3.org/1999/xlink">
<g id="graph0" class="graph" transform="scale(1 1) rotate(0) translate(4 192)">
<title>VM.h</title>
<!-- Node1 -->
<g id="Node000001" class="node">
<title>Node1</title>
<g id="a_Node000001"><a xlink:title=" ">
<polygon fill="#999999" stroke="#666666" points="294.62,-188 255.38,-188 255.38,-168 294.62,-168 294.62,-188"/>
<text xml:space="preserve" text-anchor="middle" x="275" y="-174.5" font-family="Helvetica,sans-Serif" font-size="10.00">VM.h</text>
</a>
</g>
</g>
<!-- Node2 -->
<g id="Node000002" class="node">
<title>Node2</title>
<g id="a_Node000002"><a xlink:title=" ">
<polygon fill="#e0e0e0" stroke="#999999" points="40,-132 0,-132 0,-112 40,-112 40,-132"/>
<text xml:space="preserve" text-anchor="middle" x="20" y="-118.5" font-family="Helvetica,sans-Serif" font-size="10.00">string</text>
</a>
</g>
</g>
<!-- Node1&#45;&gt;Node2 -->
<g id="edge1_Node000001_Node000002" class="edge">
<title>Node1&#45;&gt;Node2</title>
<g id="a_edge1_Node000001_Node000002"><a xlink:title=" ">
<path fill="none" stroke="#63b8ff" d="M255.11,-173.35C216.28,-166.14 127.77,-149.26 54,-132 53.18,-131.81 52.34,-131.61 51.5,-131.41"/>
<polygon fill="#63b8ff" stroke="#63b8ff" points="52.47,-128.04 41.92,-128.99 50.76,-134.83 52.47,-128.04"/>
</a>
</g>
</g>
<!-- Node3 -->
<g id="Node000003" class="node">
<title>Node3</title>
<g id="a_Node000003"><a xlink:title=" ">
<polygon fill="#e0e0e0" stroke="#999999" points="124.5,-76 75.5,-76 75.5,-56 124.5,-56 124.5,-76"/>
<text xml:space="preserve" text-anchor="middle" x="100" y="-62.5" font-family="Helvetica,sans-Serif" font-size="10.00">fstream</text>
</a>
</g>
</g>
<!-- Node1&#45;&gt;Node3 -->
<g id="edge2_Node000001_Node000003" class="edge">
<title>Node1&#45;&gt;Node3</title>
<g id="a_edge2_Node000001_Node000003"><a xlink:title=" ">
<path fill="none" stroke="#63b8ff" d="M254.93,-175.26C210.84,-170.99 107.79,-158.35 87,-132 76.88,-119.17 81.99,-100.57 88.55,-86.55"/>
<polygon fill="#63b8ff" stroke="#63b8ff" points="91.58,-88.3 93.14,-77.82 85.38,-85.04 91.58,-88.3"/>
</a>
</g>
</g>
<!-- Node4 -->
<g id="Node000004" class="node">
<title>Node4</title>
<g id="a_Node000004"><a xlink:title=" ">
<polygon fill="#e0e0e0" stroke="#999999" points="139.5,-132 96.5,-132 96.5,-112 139.5,-112 139.5,-132"/>
<text xml:space="preserve" text-anchor="middle" x="118" y="-118.5" font-family="Helvetica,sans-Serif" font-size="10.00">vector</text>
</a>
</g>
</g>
<!-- Node1&#45;&gt;Node4 -->
<g id="edge3_Node000001_Node000004" class="edge">
<title>Node1&#45;&gt;Node4</title>
<g id="a_edge3_Node000001_Node000004"><a xlink:title=" ">
<path fill="none" stroke="#63b8ff" d="M255.12,-170.16C228.88,-161.14 182.35,-145.13 150.85,-134.3"/>
<polygon fill="#63b8ff" stroke="#63b8ff" points="152.02,-131 141.42,-131.06 149.74,-137.62 152.02,-131"/>
</a>
</g>
</g>
<!-- Node5 -->
<g id="Node000005" class="node">
<title>Node5</title>
<g id="a_Node000005"><a xlink:title=" ">
<polygon fill="#e0e0e0" stroke="#999999" points="510.62,-76 465.38,-76 465.38,-56 510.62,-56 510.62,-76"/>
<text xml:space="preserve" text-anchor="middle" x="488" y="-62.5" font-family="Helvetica,sans-Serif" font-size="10.00">cstdint</text>
</a>
</g>
</g>
<!-- Node1&#45;&gt;Node5 -->
<g id="edge4_Node000001_Node000005" class="edge">
<title>Node1&#45;&gt;Node5</title>
<g id="a_edge4_Node000001_Node000005"><a xlink:title=" ">
<path fill="none" stroke="#63b8ff" d="M295,-174.69C338.51,-169.3 439.84,-154.59 465,-132 477.68,-120.62 483.37,-101.8 485.92,-87.34"/>
<polygon fill="#63b8ff" stroke="#63b8ff" points="489.37,-87.92 487.25,-77.54 482.44,-86.98 489.37,-87.92"/>
</a>
</g>
</g>
<!-- Node6 -->
<g id="Node000006" class="node">
<title>Node6</title>
<g id="a_Node000006"><a xlink:title=" ">
<polygon fill="#e0e0e0" stroke="#999999" points="297.62,-132 252.38,-132 252.38,-112 297.62,-112 297.62,-132"/>
<text xml:space="preserve" text-anchor="middle" x="275" y="-118.5" font-family="Helvetica,sans-Serif" font-size="10.00">cstring</text>
</a>
</g>
</g>
<!-- Node1&#45;&gt;Node6 -->
<g id="edge5_Node000001_Node000006" class="edge">
<title>Node1&#45;&gt;Node6</title>
<g id="a_edge5_Node000001_Node000006"><a xlink:title=" ">
<path fill="none" stroke="#63b8ff" d="M275,-167.59C275,-161.01 275,-151.96 275,-143.73"/>
<polygon fill="#63b8ff" stroke="#63b8ff" points="278.5,-143.81 275,-133.81 271.5,-143.81 278.5,-143.81"/>
</a>
</g>
</g>
<!-- Node7 -->
<g id="Node000007" class="node">
<title>Node7</title>
<g id="a_Node000007"><a xlink:title=" ">
<polygon fill="#e0e0e0" stroke="#999999" points="398.38,-132 315.62,-132 315.62,-112 398.38,-112 398.38,-132"/>
<text xml:space="preserve" text-anchor="middle" x="357" y="-118.5" font-family="Helvetica,sans-Serif" font-size="10.00">unordered_map</text>
</a>
</g>
</g>
<!-- Node1&#45;&gt;Node7 -->
<g id="edge6_Node000001_Node000007" class="edge">
<title>Node1&#45;&gt;Node7</title>
<g id="a_edge6_Node000001_Node000007"><a xlink:title=" ">
<path fill="none" stroke="#63b8ff" d="M289.28,-167.59C301.44,-159.59 319.14,-147.93 333.4,-138.54"/>
<polygon fill="#63b8ff" stroke="#63b8ff" points="334.91,-141.73 341.34,-133.31 331.06,-135.89 334.91,-141.73"/>
</a>
</g>
</g>
<!-- Node8 -->
<g id="Node000008" class="node">
<title>Node8</title>
<g id="a_Node000008"><a xlink:title=" ">
<polygon fill="#e0e0e0" stroke="#999999" points="455.62,-132 416.38,-132 416.38,-112 455.62,-112 455.62,-132"/>
<text xml:space="preserve" text-anchor="middle" x="436" y="-118.5" font-family="Helvetica,sans-Serif" font-size="10.00">limits</text>
</a>
</g>
</g>
<!-- Node1&#45;&gt;Node8 -->
<g id="edge7_Node000001_Node000008" class="edge">
<title>Node1&#45;&gt;Node8</title>
<g id="a_edge7_Node000001_Node000008"><a xlink:title=" ">
<path fill="none" stroke="#63b8ff" d="M295.07,-170.27C322.74,-160.99 372.87,-144.18 405.28,-133.3"/>
<polygon fill="#63b8ff" stroke="#63b8ff" points="406.13,-136.71 414.5,-130.21 403.91,-130.07 406.13,-136.71"/>
</a>
</g>
</g>
<!-- Node9 -->
<g id="Node000009" class="node">
<title>Node9</title>
<g id="a_Node000009"><a xlink:href="fsutil_8h.html" target="_top" xlink:title=" ">
<polygon fill="white" stroke="#666666" points="234,-132 158,-132 158,-112 234,-112 234,-132"/>
<text xml:space="preserve" text-anchor="middle" x="196" y="-118.5" font-family="Helvetica,sans-Serif" font-size="10.00">../core/fsutil.h</text>
</a>
</g>
</g>
<!-- Node1&#45;&gt;Node9 -->
<g id="edge8_Node000001_Node000009" class="edge">
<title>Node1&#45;&gt;Node9</title>
<g id="a_edge8_Node000001_Node000009"><a xlink:title=" ">
<path fill="none" stroke="#63b8ff" d="M261.24,-167.59C249.64,-159.67 232.8,-148.16 219.14,-138.82"/>
<polygon fill="#63b8ff" stroke="#63b8ff" points="221.35,-136.09 211.12,-133.33 217.4,-141.87 221.35,-136.09"/>
</a>
</g>
</g>
<!-- Node13 -->
<g id="Node000013" class="node">
<title>Node13</title>
<g id="a_Node000013"><a xlink:href="commands_8h.html" target="_top" xlink:title=" ">
<polygon fill="white" stroke="#666666" points="615.5,-132 512.5,-132 512.5,-112 615.5,-112 615.5,-132"/>
<text xml:space="preserve" text-anchor="middle" x="564" y="-118.5" font-family="Helvetica,sans-Serif" font-size="10.00">../core/commands.h</text>
</a>
</g>
</g>
<!-- Node1&#45;&gt;Node13 -->
<g id="edge13_Node000001_Node000013" class="edge">
<title>Node1&#45;&gt;Node13</title>
<g id="a_edge13_Node000001_Node000013"><a xlink:title=" ">
<path fill="none" stroke="#63b8ff" d="M294.86,-173.29C337,-165.42 436.82,-146.76 502.34,-134.52"/>
<polygon fill="#63b8ff" stroke="#63b8ff" points="502.67,-138.02 511.86,-132.74 501.39,-131.14 502.67,-138.02"/>
</a>
</g>
</g>
<!-- Node9&#45;&gt;Node3 -->
<g id="edge12_Node000009_Node000003" class="edge">
<title>Node9&#45;&gt;Node3</title>
<g id="a_edge12_Node000009_Node000003"><a xlink:title=" ">
<path fill="none" stroke="#63b8ff" d="M179.28,-111.59C164.78,-103.44 143.53,-91.48 126.68,-82"/>
<polygon fill="#63b8ff" stroke="#63b8ff" points="128.6,-79.07 118.17,-77.22 125.17,-85.17 128.6,-79.07"/>
</a>
</g>
</g>
<!-- Node10 -->
<g id="Node000010" class="node">
<title>Node10</title>
<g id="a_Node000010"><a xlink:href="json_8h.html" target="_top" xlink:title=" ">
<polygon fill="white" stroke="#666666" points="217.12,-76 174.88,-76 174.88,-56 217.12,-56 217.12,-76"/>
<text xml:space="preserve" text-anchor="middle" x="196" y="-62.5" font-family="Helvetica,sans-Serif" font-size="10.00">json.h</text>
</a>
</g>
</g>
<!-- Node9&#45;&gt;Node10 -->
<g id="edge9_Node000009_Node000010" class="edge">
<title>Node9&#45;&gt;Node10</title>
<g id="a_edge9_Node000009_Node000010"><a xlink:title=" ">
<path fill="none" stroke="#63b8ff" d="M196,-111.59C196,-105.01 196,-95.96 196,-87.73"/>
<polygon fill="#63b8ff" stroke="#63b8ff" points="199.5,-87.81 196,-77.81 192.5,-87.81 199.5,-87.81"/>
</a>
</g>
</g>
<!-- Node11 -->
<g id="Node000011" class="node">
<title>Node11</title>
<g id="a_Node000011"><a xlink:title=" ">
<polygon fill="#e0e0e0" stroke="#999999" points="181.5,-20 72.5,-20 72.5,0 181.5,0 181.5,-20"/>
<text xml:space="preserve" text-anchor="middle" x="127" y="-6.5" font-family="Helvetica,sans-Serif" font-size="10.00">rapidjson/document.h</text>
</a>
</g>
</g>
<!-- Node10&#45;&gt;Node11 -->
<g id="edge10_Node000010_Node000011" class="edge">
<title>Node10&#45;&gt;Node11</title>
<g id="a_edge10_Node000010_Node000011"><a xlink:title=" ">
<path fill="none" stroke="#63b8ff" d="M183.98,-55.59C173.99,-47.77 159.54,-36.46 147.69,-27.19"/>
<polygon fill="#63b8ff" stroke="#63b8ff" points="150.11,-24.64 140.07,-21.23 145.79,-30.15 150.11,-24.64"/>
</a>
</g>
</g>
<!-- Node12 -->
<g id="Node000012" class="node">
<title>Node12</title>
<g id="a_Node000012"><a xlink:title=" ">
<polygon fill="#e0e0e0" stroke="#999999" points="332.5,-20 199.5,-20 199.5,0 332.5,0 332.5,-20"/>
<text xml:space="preserve" text-anchor="middle" x="266" y="-6.5" font-family="Helvetica,sans-Serif" font-size="10.00">rapidjson/istreamwrapper.h</text>
</a>
</g>
</g>
<!-- Node10&#45;&gt;Node12 -->
<g id="edge11_Node000010_Node000012" class="edge">
<title>Node10&#45;&gt;Node12</title>
<g id="a_edge11_Node000010_Node000012"><a xlink:title=" ">
<path fill="none" stroke="#63b8ff" d="M208.19,-55.59C218.33,-47.77 232.99,-36.46 245.01,-27.19"/>
<polygon fill="#63b8ff" stroke="#63b8ff" points="246.97,-30.1 252.75,-21.22 242.69,-24.56 246.97,-30.1"/>
</a>
</g>
</g>
<!-- Node13&#45;&gt;Node5 -->
<g id="edge15_Node000013_Node000005" class="edge">
<title>Node13&#45;&gt;Node5</title>
<g id="a_edge15_Node000013_Node000005"><a xlink:title=" ">
<path fill="none" stroke="#63b8ff" d="M550.76,-111.59C539.71,-103.74 523.72,-92.38 510.64,-83.09"/>
<polygon fill="#63b8ff" stroke="#63b8ff" points="512.75,-80.3 502.58,-77.36 508.7,-86 512.75,-80.3"/>
</a>
</g>
</g>
<!-- Node14 -->
<g id="Node000014" class="node">
<title>Node14</title>
<g id="a_Node000014"><a xlink:href="vec2_8h.html" target="_top" xlink:title=" ">
<polygon fill="white" stroke="#666666" points="644.62,-76 599.38,-76 599.38,-56 644.62,-56 644.62,-76"/>
<text xml:space="preserve" text-anchor="middle" x="622" y="-62.5" font-family="Helvetica,sans-Serif" font-size="10.00">vec2.h</text>
</a>
</g>
</g>
<!-- Node13&#45;&gt;Node14 -->
<g id="edge14_Node000013_Node000014" class="edge">
<title>Node13&#45;&gt;Node14</title>
<g id="a_edge14_Node000013_Node000014"><a xlink:title=" ">
<path fill="none" stroke="#63b8ff" d="M574.1,-111.59C582.25,-104.01 593.93,-93.13 603.72,-84.02"/>
<polygon fill="#63b8ff" stroke="#63b8ff" points="605.97,-86.71 610.91,-77.33 601.2,-81.58 605.97,-86.71"/>
</a>
</g>
</g>
<!-- Node15 -->
<g id="Node000015" class="node">
<title>Node15</title>
<g id="a_Node000015"><a xlink:title=" ">
<polygon fill="#e0e0e0" stroke="#999999" points="581.62,-76 536.38,-76 536.38,-56 581.62,-56 581.62,-76"/>
<text xml:space="preserve" text-anchor="middle" x="559" y="-62.5" font-family="Helvetica,sans-Serif" font-size="10.00">variant</text>
</a>
</g>
</g>
<!-- Node13&#45;&gt;Node15 -->
<g id="edge16_Node000013_Node000015" class="edge">
<title>Node13&#45;&gt;Node15</title>
<g id="a_edge16_Node000013_Node000015"><a xlink:title=" ">
<path fill="none" stroke="#63b8ff" d="M563.13,-111.59C562.52,-105.01 561.68,-95.96 560.92,-87.73"/>
<polygon fill="#63b8ff" stroke="#63b8ff" points="564.41,-87.44 560,-77.81 557.44,-88.09 564.41,-87.44"/>
</a>
</g>
</g>
</g>
</svg>
