<?xml version="1.0" encoding="UTF-8" standalone="no"?>
<!DOCTYPE svg PUBLIC "-//W3C//DTD SVG 1.1//EN"
 "http://www.w3.org/Graphics/SVG/1.1/DTD/svg11.dtd">
<!-- Generated by graphviz version 14.1.1 (0)
 -->
<!-- Title: all.h Pages: 1 -->
<!--zoomable 252 -->

<svg id="main" version="1.1" xmlns="http://www.w3.org/2000/svg" xmlns:xlink="http://www.w3.org/1999/xlink" xml:space="preserve" onload="init(evt)">

<style type="text/css"><![CDATA[
.node, .edge {opacity: 0.7;}
.node.selected, .edge.selected {opacity: 1;}
.edge:hover path { stroke: red; }
.edge:hover polygon { stroke: red; fill: red; }
]]></style>

<defs>
  <circle id="rim" cx="0" cy="0" r="7"/>
  <circle id="rim2" cx="0" cy="0" r="3.5"/>
  <g id="zoomPlus">
    <use xlink:href="#rim" fill="#404040"><set attributeName="fill" to="#808080" begin="zoomplus.mouseover" end="zoomplus.mouseout"/></use>
    <path d="M-4,0h8M0,-4v8" fill="none" stroke="white" stroke-width="1.5" pointer-events="none"/>
  </g>
  <g id="zoomMin">
    <use xlink:href="#rim" fill="#404040"><set attributeName="fill" to="#808080" begin="zoomminus.mouseover" end="zoomminus.mouseout"/></use>
    <path d="M-4,0h8" fill="none" stroke="white" stroke-width="1.5" pointer-events="none"/>
  </g>
  <g id="arrowUp" transform="translate(30 24)">
    <use xlink:href="#rim"/>
    <path pointer-events="none" fill="none" stroke="white" stroke-width="1.5" d="M0,-3.0v7 M-2.5,-0.5L0,-3.0L2.5,-0.5"/>
  </g>
  <g id="arrowRight" transform="rotate(90) translate(36 -43)">
    <use xlink:href="#rim"/>
    <path pointer-events="none" fill="none" stroke="white" stroke-width="1.5" d="M0,-3.0v7 M-2.5,-0.5L0,-3.0L2.5,-0.5"/>
  </g>
  <g id="arrowDown" transform="rotate(180) translate(-30 -48)">
    <use xlink:href="#rim"/>
    <path pointer-events="none" fill="none" stroke="white" stroke-width="1.5" d="M0,-3.0v7 M-2.5,-0.5L0,-3.0L2.5,-0.5"/>
  </g>
  <g id="arrowLeft" transform="rotate(270) translate(-36 17)">
    <use xlink:href="#rim"/>
    <path pointer-events="none" fill="none" stroke="white" stroke-width="1.5" d="M0,-3.0v7 M-2.5,-0.5L0,-3.0L2.5,-0.5"/>
  </g>
  <g id="resetDef">
    <use xlink:href="#rim2" fill="#404040"><set attributeName="fill" to="#808080" begin="reset.mouseover" end="reset.mouseout"/></use>
  </g>
</defs>
<script type="application/ecmascript">
var viewWidth = 822;
var viewHeight = 252;
var sectionId = 'dynsection-0';
</script>
<script type="application/ecmascript" xlink:href="svg.min.js"/>
<svg id="graph" class="graph">
<g id="viewport">
<title>all.h</title>
<!-- Node1 -->
<g id="Node000001" class="node">
<title>Node1</title>
<g id="a_Node000001"><a xlink:title=" ">
<polygon fill="#999999" stroke="#666666" points="422.5,-244 388.5,-244 388.5,-224 422.5,-224 422.5,-244"/>
<text xml:space="preserve" text-anchor="middle" x="405.5" y="-230.5" font-family="Helvetica,sans-Serif" font-size="10.00">all.h</text>
</a>
</g>
</g>
<!-- Node2 -->
<g id="Node000002" class="node">
<title>Node2</title>
<g id="a_Node000002"><a xlink:href="_entity_table_8h.html" target="_top" xlink:title=" ">
<polygon fill="white" stroke="#666666" points="369,-188 296,-188 296,-168 369,-168 369,-188"/>
<text xml:space="preserve" text-anchor="middle" x="332.5" y="-174.5" font-family="Helvetica,sans-Serif" font-size="10.00">EntityTable.h</text>
</a>
</g>
</g>
<!-- Node1&#45;&gt;Node2 -->
<g id="edge1_Node000001_Node000002" class="edge">
<title>Node1&#45;&gt;Node2</title>
<g id="a_edge1_Node000001_Node000002"><a xlink:title=" ">
<path fill="none" stroke="#63b8ff" d="M392.78,-223.59C382.11,-215.7 366.62,-204.24 354.02,-194.92"/>
<polygon fill="#63b8ff" stroke="#63b8ff" points="356.41,-192.33 346.29,-189.2 352.24,-197.96 356.41,-192.33"/>
</a>
</g>
</g>
<!-- Node16 -->
<g id="Node000016" class="node">
<title>Node16</title>
<g id="a_Node000016"><a xlink:href="_param_table_8h.html" target="_top" xlink:title=" ">
<polygon fill="white" stroke="#666666" points="569.5,-188 493.5,-188 493.5,-168 569.5,-168 569.5,-188"/>
<text xml:space="preserve" text-anchor="middle" x="531.5" y="-174.5" font-family="Helvetica,sans-Serif" font-size="10.00">ParamTable.h</text>
</a>
</g>
</g>
<!-- Node1&#45;&gt;Node16 -->
<g id="edge17_Node000001_Node000016" class="edge">
<title>Node1&#45;&gt;Node16</title>
<g id="a_edge17_Node000001_Node000016"><a xlink:title=" ">
<path fill="none" stroke="#63b8ff" d="M422.76,-225.6C442.28,-217.24 474.51,-203.42 498.83,-193"/>
<polygon fill="#63b8ff" stroke="#63b8ff" points="500.17,-196.24 507.98,-189.08 497.41,-189.8 500.17,-196.24"/>
</a>
</g>
</g>
<!-- Node3 -->
<g id="Node000003" class="node">
<title>Node3</title>
<g id="a_Node000003"><a xlink:title=" ">
<polygon fill="#e0e0e0" stroke="#999999" points="329.12,-76 283.88,-76 283.88,-56 329.12,-56 329.12,-76"/>
<text xml:space="preserve" text-anchor="middle" x="306.5" y="-62.5" font-family="Helvetica,sans-Serif" font-size="10.00">cstdint</text>
</a>
</g>
</g>
<!-- Node2&#45;&gt;Node3 -->
<g id="edge2_Node000002_Node000003" class="edge">
<title>Node2&#45;&gt;Node3</title>
<g id="a_edge2_Node000002_Node000003"><a xlink:title=" ">
<path fill="none" stroke="#63b8ff" d="M316.89,-167.77C305.27,-159.9 290.28,-147.44 283.5,-132 276.81,-116.78 284.15,-98.94 292.26,-85.81"/>
<polygon fill="#63b8ff" stroke="#63b8ff" points="295.07,-87.9 297.83,-77.67 289.29,-83.95 295.07,-87.9"/>
</a>
</g>
</g>
<!-- Node4 -->
<g id="Node000004" class="node">
<title>Node4</title>
<g id="a_Node000004"><a xlink:title=" ">
<polygon fill="#e0e0e0" stroke="#999999" points="484.88,-132 426.12,-132 426.12,-112 484.88,-112 484.88,-132"/>
<text xml:space="preserve" text-anchor="middle" x="455.5" y="-118.5" font-family="Helvetica,sans-Serif" font-size="10.00">stdexcept</text>
</a>
</g>
</g>
<!-- Node2&#45;&gt;Node4 -->
<g id="edge3_Node000002_Node000004" class="edge">
<title>Node2&#45;&gt;Node4</title>
<g id="a_edge3_Node000002_Node000004"><a xlink:title=" ">
<path fill="none" stroke="#63b8ff" d="M353.92,-167.59C373.12,-159.17 401.54,-146.69 423.44,-137.07"/>
<polygon fill="#63b8ff" stroke="#63b8ff" points="424.77,-140.31 432.52,-133.09 421.96,-133.9 424.77,-140.31"/>
</a>
</g>
</g>
<!-- Node5 -->
<g id="Node000005" class="node">
<title>Node5</title>
<g id="a_Node000005"><a xlink:title=" ">
<polygon fill="#e0e0e0" stroke="#999999" points="662.25,-76 596.75,-76 596.75,-56 662.25,-56 662.25,-76"/>
<text xml:space="preserve" text-anchor="middle" x="629.5" y="-62.5" font-family="Helvetica,sans-Serif" font-size="10.00">string_view</text>
</a>
</g>
</g>
<!-- Node2&#45;&gt;Node5 -->
<g id="edge4_Node000002_Node000005" class="edge">
<title>Node2&#45;&gt;Node5</title>
<g id="a_edge4_Node000002_Node000005"><a xlink:title=" ">
<path fill="none" stroke="#63b8ff" d="M325.79,-167.85C316.58,-154.09 302.65,-127.99 316.5,-112 350.7,-72.54 506.91,-66.87 584.91,-66.57"/>
<polygon fill="#63b8ff" stroke="#63b8ff" points="584.77,-70.07 594.77,-66.56 584.76,-63.07 584.77,-70.07"/>
</a>
</g>
</g>
<!-- Node6 -->
<g id="Node000006" class="node">
<title>Node6</title>
<g id="a_Node000006"><a xlink:title=" ">
<polygon fill="#e0e0e0" stroke="#999999" points="407.88,-132 325.12,-132 325.12,-112 407.88,-112 407.88,-132"/>
<text xml:space="preserve" text-anchor="middle" x="366.5" y="-118.5" font-family="Helvetica,sans-Serif" font-size="10.00">unordered_map</text>
</a>
</g>
</g>
<!-- Node2&#45;&gt;Node6 -->
<g id="edge5_Node000002_Node000006" class="edge">
<title>Node2&#45;&gt;Node6</title>
<g id="a_edge5_Node000002_Node000006"><a xlink:title=" ">
<path fill="none" stroke="#63b8ff" d="M338.42,-167.59C342.86,-160.55 349.08,-150.67 354.54,-142"/>
<polygon fill="#63b8ff" stroke="#63b8ff" points="357.47,-143.91 359.84,-133.58 351.55,-140.18 357.47,-143.91"/>
</a>
</g>
</g>
<!-- Node7 -->
<g id="Node000007" class="node">
<title>Node7</title>
<g id="a_Node000007"><a xlink:href="rapid_string_8h.html" target="_top" xlink:title=" ">
<polygon fill="white" stroke="#666666" points="680.25,-132 578.75,-132 578.75,-112 680.25,-112 680.25,-132"/>
<text xml:space="preserve" text-anchor="middle" x="629.5" y="-118.5" font-family="Helvetica,sans-Serif" font-size="10.00">../core/rapidString.h</text>
</a>
</g>
</g>
<!-- Node2&#45;&gt;Node7 -->
<g id="edge6_Node000002_Node000007" class="edge">
<title>Node2&#45;&gt;Node7</title>
<g id="a_edge6_Node000002_Node000007"><a xlink:title=" ">
<path fill="none" stroke="#63b8ff" d="M369.22,-170.32C418.64,-161.34 507.29,-145.22 567.24,-134.32"/>
<polygon fill="#63b8ff" stroke="#63b8ff" points="567.75,-137.78 576.96,-132.55 566.5,-130.9 567.75,-137.78"/>
</a>
</g>
</g>
<!-- Node8 -->
<g id="Node000008" class="node">
<title>Node8</title>
<g id="a_Node000008"><a xlink:href="def_8h.html" target="_top" xlink:title=" ">
<polygon fill="white" stroke="#666666" points="231.75,-132 163.25,-132 163.25,-112 231.75,-112 231.75,-132"/>
<text xml:space="preserve" text-anchor="middle" x="197.5" y="-118.5" font-family="Helvetica,sans-Serif" font-size="10.00">../core/def.h</text>
</a>
</g>
</g>
<!-- Node2&#45;&gt;Node8 -->
<g id="edge8_Node000002_Node000008" class="edge">
<title>Node2&#45;&gt;Node8</title>
<g id="a_edge8_Node000002_Node000008"><a xlink:title=" ">
<path fill="none" stroke="#63b8ff" d="M308.98,-167.59C287.63,-159.05 255.87,-146.35 231.7,-136.68"/>
<polygon fill="#63b8ff" stroke="#63b8ff" points="233.19,-133.51 222.6,-133.04 230.59,-140.01 233.19,-133.51"/>
</a>
</g>
</g>
<!-- Node11 -->
<g id="Node000011" class="node">
<title>Node11</title>
<g id="a_Node000011"><a xlink:href="fsutil_8h.html" target="_top" xlink:title=" ">
<polygon fill="white" stroke="#666666" points="145.5,-132 69.5,-132 69.5,-112 145.5,-112 145.5,-132"/>
<text xml:space="preserve" text-anchor="middle" x="107.5" y="-118.5" font-family="Helvetica,sans-Serif" font-size="10.00">../core/fsutil.h</text>
</a>
</g>
</g>
<!-- Node2&#45;&gt;Node11 -->
<g id="edge12_Node000002_Node000011" class="edge">
<title>Node2&#45;&gt;Node11</title>
<g id="a_edge12_Node000002_Node000011"><a xlink:title=" ">
<path fill="none" stroke="#63b8ff" d="M295.6,-168.14C257.8,-159.07 198.8,-144.91 156.97,-134.87"/>
<polygon fill="#63b8ff" stroke="#63b8ff" points="157.94,-131.51 147.4,-132.58 156.31,-138.31 157.94,-131.51"/>
</a>
</g>
</g>
<!-- Node7&#45;&gt;Node5 -->
<g id="edge7_Node000007_Node000005" class="edge">
<title>Node7&#45;&gt;Node5</title>
<g id="a_edge7_Node000007_Node000005"><a xlink:title=" ">
<path fill="none" stroke="#63b8ff" d="M629.5,-111.59C629.5,-105.01 629.5,-95.96 629.5,-87.73"/>
<polygon fill="#63b8ff" stroke="#63b8ff" points="633,-87.81 629.5,-77.81 626,-87.81 633,-87.81"/>
</a>
</g>
</g>
<!-- Node8&#45;&gt;Node3 -->
<g id="edge9_Node000008_Node000003" class="edge">
<title>Node8&#45;&gt;Node3</title>
<g id="a_edge9_Node000008_Node000003"><a xlink:title=" ">
<path fill="none" stroke="#63b8ff" d="M216.49,-111.59C233.26,-103.28 257.99,-91.03 277.29,-81.47"/>
<polygon fill="#63b8ff" stroke="#63b8ff" points="278.6,-84.73 286.01,-77.15 275.49,-78.45 278.6,-84.73"/>
</a>
</g>
</g>
<!-- Node9 -->
<g id="Node000009" class="node">
<title>Node9</title>
<g id="a_Node000009"><a xlink:title=" ">
<polygon fill="#e0e0e0" stroke="#999999" points="202.5,-76 162.5,-76 162.5,-56 202.5,-56 202.5,-76"/>
<text xml:space="preserve" text-anchor="middle" x="182.5" y="-62.5" font-family="Helvetica,sans-Serif" font-size="10.00">string</text>
</a>
</g>
</g>
<!-- Node8&#45;&gt;Node9 -->
<g id="edge10_Node000008_Node000009" class="edge">
<title>Node8&#45;&gt;Node9</title>
<g id="a_edge10_Node000008_Node000009"><a xlink:title=" ">
<path fill="none" stroke="#63b8ff" d="M194.89,-111.59C193.02,-104.86 190.43,-95.53 188.1,-87.15"/>
<polygon fill="#63b8ff" stroke="#63b8ff" points="191.54,-86.46 185.49,-77.76 184.79,-88.33 191.54,-86.46"/>
</a>
</g>
</g>
<!-- Node10 -->
<g id="Node000010" class="node">
<title>Node10</title>
<g id="a_Node000010"><a xlink:href="vec2_8h.html" target="_top" xlink:title=" ">
<polygon fill="white" stroke="#666666" points="266.12,-76 220.88,-76 220.88,-56 266.12,-56 266.12,-76"/>
<text xml:space="preserve" text-anchor="middle" x="243.5" y="-62.5" font-family="Helvetica,sans-Serif" font-size="10.00">vec2.h</text>
</a>
</g>
</g>
<!-- Node8&#45;&gt;Node10 -->
<g id="edge11_Node000008_Node000010" class="edge">
<title>Node8&#45;&gt;Node10</title>
<g id="a_edge11_Node000008_Node000010"><a xlink:title=" ">
<path fill="none" stroke="#63b8ff" d="M205.51,-111.59C211.78,-104.24 220.67,-93.8 228.28,-84.87"/>
<polygon fill="#63b8ff" stroke="#63b8ff" points="230.78,-87.33 234.6,-77.45 225.45,-82.79 230.78,-87.33"/>
</a>
</g>
</g>
<!-- Node12 -->
<g id="Node000012" class="node">
<title>Node12</title>
<g id="a_Node000012"><a xlink:href="json_8h.html" target="_top" xlink:title=" ">
<polygon fill="white" stroke="#666666" points="144.62,-76 102.38,-76 102.38,-56 144.62,-56 144.62,-76"/>
<text xml:space="preserve" text-anchor="middle" x="123.5" y="-62.5" font-family="Helvetica,sans-Serif" font-size="10.00">json.h</text>
</a>
</g>
</g>
<!-- Node11&#45;&gt;Node12 -->
<g id="edge13_Node000011_Node000012" class="edge">
<title>Node11&#45;&gt;Node12</title>
<g id="a_edge13_Node000011_Node000012"><a xlink:title=" ">
<path fill="none" stroke="#63b8ff" d="M110.29,-111.59C112.28,-104.86 115.05,-95.53 117.53,-87.15"/>
<polygon fill="#63b8ff" stroke="#63b8ff" points="120.83,-88.33 120.31,-77.75 114.12,-86.34 120.83,-88.33"/>
</a>
</g>
</g>
<!-- Node15 -->
<g id="Node000015" class="node">
<title>Node15</title>
<g id="a_Node000015"><a xlink:title=" ">
<polygon fill="#e0e0e0" stroke="#999999" points="84,-76 35,-76 35,-56 84,-56 84,-76"/>
<text xml:space="preserve" text-anchor="middle" x="59.5" y="-62.5" font-family="Helvetica,sans-Serif" font-size="10.00">fstream</text>
</a>
</g>
</g>
<!-- Node11&#45;&gt;Node15 -->
<g id="edge16_Node000011_Node000015" class="edge">
<title>Node11&#45;&gt;Node15</title>
<g id="a_edge16_Node000011_Node000015"><a xlink:title=" ">
<path fill="none" stroke="#63b8ff" d="M99.14,-111.59C92.6,-104.24 83.32,-93.8 75.38,-84.87"/>
<polygon fill="#63b8ff" stroke="#63b8ff" points="78.03,-82.58 68.77,-77.43 72.8,-87.23 78.03,-82.58"/>
</a>
</g>
</g>
<!-- Node13 -->
<g id="Node000013" class="node">
<title>Node13</title>
<g id="a_Node000013"><a xlink:title=" ">
<polygon fill="#e0e0e0" stroke="#999999" points="109,-20 0,-20 0,0 109,0 109,-20"/>
<text xml:space="preserve" text-anchor="middle" x="54.5" y="-6.5" font-family="Helvetica,sans-Serif" font-size="10.00">rapidjson/document.h</text>
</a>
</g>
</g>
<!-- Node12&#45;&gt;Node13 -->
<g id="edge14_Node000012_Node000013" class="edge">
<title>Node12&#45;&gt;Node13</title>
<g id="a_edge14_Node000012_Node000013"><a xlink:title=" ">
<path fill="none" stroke="#63b8ff" d="M111.48,-55.59C101.49,-47.77 87.04,-36.46 75.19,-27.19"/>
<polygon fill="#63b8ff" stroke="#63b8ff" points="77.61,-24.64 67.57,-21.23 73.29,-30.15 77.61,-24.64"/>
</a>
</g>
</g>
<!-- Node14 -->
<g id="Node000014" class="node">
<title>Node14</title>
<g id="a_Node000014"><a xlink:title=" ">
<polygon fill="#e0e0e0" stroke="#999999" points="260,-20 127,-20 127,0 260,0 260,-20"/>
<text xml:space="preserve" text-anchor="middle" x="193.5" y="-6.5" font-family="Helvetica,sans-Serif" font-size="10.00">rapidjson/istreamwrapper.h</text>
</a>
</g>
</g>
<!-- Node12&#45;&gt;Node14 -->
<g id="edge15_Node000012_Node000014" class="edge">
<title>Node12&#45;&gt;Node14</title>
<g id="a_edge15_Node000012_Node000014"><a xlink:title=" ">
<path fill="none" stroke="#63b8ff" d="M135.69,-55.59C145.83,-47.77 160.49,-36.46 172.51,-27.19"/>
<polygon fill="#63b8ff" stroke="#63b8ff" points="174.47,-30.1 180.25,-21.22 170.19,-24.56 174.47,-30.1"/>
</a>
</g>
</g>
<!-- Node16&#45;&gt;Node3 -->
<g id="edge18_Node000016_Node000003" class="edge">
<title>Node16&#45;&gt;Node3</title>
<g id="a_edge18_Node000016_Node000003"><a xlink:title=" ">
<path fill="none" stroke="#63b8ff" d="M533.9,-167.72C536.91,-153.78 540.13,-127.45 526.5,-112 502.41,-84.7 396.35,-73.28 340.76,-69.1"/>
<polygon fill="#63b8ff" stroke="#63b8ff" points="341.12,-65.62 330.9,-68.4 340.63,-72.6 341.12,-65.62"/>
</a>
</g>
</g>
<!-- Node16&#45;&gt;Node4 -->
<g id="edge19_Node000016_Node000004" class="edge">
<title>Node16&#45;&gt;Node4</title>
<g id="a_edge19_Node000016_Node000004"><a xlink:title=" ">
<path fill="none" stroke="#63b8ff" d="M518.26,-167.59C507.21,-159.74 491.22,-148.38 478.14,-139.09"/>
<polygon fill="#63b8ff" stroke="#63b8ff" points="480.25,-136.3 470.08,-133.36 476.2,-142 480.25,-136.3"/>
</a>
</g>
</g>
<!-- Node16&#45;&gt;Node5 -->
<g id="edge20_Node000016_Node000005" class="edge">
<title>Node16&#45;&gt;Node5</title>
<g id="a_edge20_Node000016_Node000005"><a xlink:title=" ">
<path fill="none" stroke="#63b8ff" d="M569.76,-176.56C637.84,-174.87 775.7,-167.09 805.5,-132 844.01,-86.65 737.99,-72.93 674.07,-68.78"/>
<polygon fill="#63b8ff" stroke="#63b8ff" points="674.37,-65.29 664.18,-68.2 673.96,-72.28 674.37,-65.29"/>
</a>
</g>
</g>
<!-- Node16&#45;&gt;Node6 -->
<g id="edge21_Node000016_Node000006" class="edge">
<title>Node16&#45;&gt;Node6</title>
<g id="a_edge21_Node000016_Node000006"><a xlink:title=" ">
<path fill="none" stroke="#63b8ff" d="M502.76,-167.59C476.07,-158.86 436.08,-145.77 406.32,-136.03"/>
<polygon fill="#63b8ff" stroke="#63b8ff" points="407.5,-132.73 396.9,-132.95 405.32,-139.39 407.5,-132.73"/>
</a>
</g>
</g>
<!-- Node16&#45;&gt;Node7 -->
<g id="edge26_Node000016_Node000007" class="edge">
<title>Node16&#45;&gt;Node7</title>
<g id="a_edge26_Node000016_Node000007"><a xlink:title=" ">
<path fill="none" stroke="#63b8ff" d="M548.57,-167.59C563.38,-159.44 585.07,-147.48 602.27,-138"/>
<polygon fill="#63b8ff" stroke="#63b8ff" points="603.9,-141.1 610.97,-133.21 600.52,-134.97 603.9,-141.1"/>
</a>
</g>
</g>
<!-- Node16&#45;&gt;Node8 -->
<g id="edge24_Node000016_Node000008" class="edge">
<title>Node16&#45;&gt;Node8</title>
<g id="a_edge24_Node000016_Node000008"><a xlink:title=" ">
<path fill="none" stroke="#63b8ff" d="M493.19,-170.81C431.28,-160.8 309.5,-141.11 243.18,-130.38"/>
<polygon fill="#63b8ff" stroke="#63b8ff" points="243.78,-126.94 233.35,-128.8 242.66,-133.85 243.78,-126.94"/>
</a>
</g>
</g>
<!-- Node16&#45;&gt;Node12 -->
<g id="edge25_Node000016_Node000012" class="edge">
<title>Node16&#45;&gt;Node12</title>
<g id="a_edge25_Node000016_Node000012"><a xlink:title=" ">
<path fill="none" stroke="#63b8ff" d="M528.97,-167.56C524.49,-152.92 513.7,-125.05 493.5,-112 432.43,-72.54 245.07,-89.36 156.34,-75.97"/>
<polygon fill="#63b8ff" stroke="#63b8ff" points="156.95,-72.52 146.5,-74.24 155.74,-79.42 156.95,-72.52"/>
</a>
</g>
</g>
<!-- Node17 -->
<g id="Node000017" class="node">
<title>Node17</title>
<g id="a_Node000017"><a xlink:title=" ">
<polygon fill="#e0e0e0" stroke="#999999" points="741,-132 698,-132 698,-112 741,-112 741,-132"/>
<text xml:space="preserve" text-anchor="middle" x="719.5" y="-118.5" font-family="Helvetica,sans-Serif" font-size="10.00">vector</text>
</a>
</g>
</g>
<!-- Node16&#45;&gt;Node17 -->
<g id="edge22_Node000016_Node000017" class="edge">
<title>Node16&#45;&gt;Node17</title>
<g id="a_edge22_Node000016_Node000017"><a xlink:title=" ">
<path fill="none" stroke="#63b8ff" d="M565.14,-167.57C594.84,-159.21 639.59,-146.53 686.55,-132.84"/>
<polygon fill="#63b8ff" stroke="#63b8ff" points="687.49,-136.21 696.1,-130.05 685.52,-129.49 687.49,-136.21"/>
</a>
</g>
</g>
<!-- Node18 -->
<g id="Node000018" class="node">
<title>Node18</title>
<g id="a_Node000018"><a xlink:title=" ">
<polygon fill="#e0e0e0" stroke="#999999" points="796,-132 759,-132 759,-112 796,-112 796,-132"/>
<text xml:space="preserve" text-anchor="middle" x="777.5" y="-118.5" font-family="Helvetica,sans-Serif" font-size="10.00">span</text>
</a>
</g>
</g>
<!-- Node16&#45;&gt;Node18 -->
<g id="edge23_Node000016_Node000018" class="edge">
<title>Node16&#45;&gt;Node18</title>
<g id="a_edge23_Node000016_Node000018"><a xlink:title=" ">
<path fill="none" stroke="#63b8ff" d="M569.8,-170.56C611.54,-163.23 680.44,-150.21 747.9,-132.47"/>
<polygon fill="#63b8ff" stroke="#63b8ff" points="748.48,-135.94 757.24,-129.97 746.68,-129.17 748.48,-135.94"/>
</a>
</g>
</g>
</g>
</svg>

<g id="navigator" transform="translate(0 0)" fill="#404254">
  <rect fill="#f2f5e9" fill-opacity="0.5" stroke="#606060" stroke-width=".5" x="0" y="0" width="60" height="60"/>
  <use id="zoomplus" xlink:href="#zoomPlus" x="17" y="9" onmousedown="handleZoom(evt,'in')"/>
  <use id="zoomminus" xlink:href="#zoomMin" x="42" y="9" onmousedown="handleZoom(evt,'out')"/>
  <use id="reset" xlink:href="#resetDef" x="30" y="36" onmousedown="handleReset()"/>
   <use id="arrowup" xlink:href="#arrowUp" x="0" y="0" onmousedown="handlePan(0,-1)"/>
  <use id="arrowright" xlink:href="#arrowRight" x="0" y="0" onmousedown="handlePan(1,0)"/>
  <use id="arrowdown" xlink:href="#arrowDown" x="0" y="0" onmousedown="handlePan(0,1)"/>
  <use id="arrowleft" xlink:href="#arrowLeft" x="0" y="0" onmousedown="handlePan(-1,0)"/>
</g>
<svg viewBox="0 0 15 15" width="100%" height="30px" preserveAspectRatio="xMaxYMin meet">
 <g id="arrow_out" transform="scale(0.3 0.3)">
  <a xlink:href="all_8h__incl_org.svg" target="_base">
   <rect id="button" ry="5" rx="5" y="6" x="6" height="38" width="38"
        fill="#f2f5e9" fill-opacity="0.5" stroke="#606060" stroke-width="1.0"/>
   <path id="arrow"
     d="M 11.500037,31.436501 C 11.940474,20.09759 22.043105,11.32322 32.158766,21.979434 L 37.068811,17.246167 C 37.068811,17.246167 37.088388,32 37.088388,32 L 22.160133,31.978069 C 22.160133,31.978069 26.997745,27.140456 26.997745,27.140456 C 18.528582,18.264221 13.291696,25.230495 11.500037,31.436501 z"
     style="fill:#404040;"/>
  </a>
 </g>
</svg>

<style type='text/css'>
<![CDATA[
[data-mouse-over-selected='false'] { opacity: 0.7; }
[data-mouse-over-selected='true']  { opacity: 1.0; }
]]>
</style>
<script type="application/ecmascript"><![CDATA[
document.addEventListener('DOMContentLoaded', (event) => {
  highlightEdges();
  highlightAdjacentNodes();
});
]]></script>
</svg>
