<?xml version="1.0" encoding="UTF-8" standalone="no"?>
<!DOCTYPE svg PUBLIC "-//W3C//DTD SVG 1.1//EN"
 "http://www.w3.org/Graphics/SVG/1.1/DTD/svg11.dtd">
<!-- Generated by graphviz version 14.1.1 (0)
 -->
<!-- Title: Renderer::drawSprite Pages: 1 -->
<svg width="261pt" height="142pt"
 viewBox="0.00 0.00 261.00 142.00" xmlns="http://www.w3.org/2000/svg" xmlns:xlink="http://www.w3.org/1999/xlink">
<g id="graph0" class="graph" transform="scale(1 1) rotate(0) translate(4 138)">
<title>Renderer::drawSprite</title>
<!-- Node1 -->
<g id="Node000001" class="node">
<title>Node1</title>
<g id="a_Node000001"><a xlink:title=" ">
<polygon fill="#999999" stroke="#666666" points="252.5,-77 144.25,-77 144.25,-57 252.5,-57 252.5,-77"/>
<text xml:space="preserve" text-anchor="middle" x="198.38" y="-63.5" font-family="Helvetica,sans-Serif" font-size="10.00">Renderer::drawSprite</text>
</a>
</g>
</g>
<!-- Node2 -->
<g id="Node000002" class="node">
<title>Node2</title>
<g id="a_Node000002"><a xlink:href="struct_enemy_bezier.html#a8c4184a8a356a1b6cf27e8d407e3e3ad" target="_top" xlink:title=" ">
<polygon fill="white" stroke="#666666" points="104.88,-134 3.38,-134 3.38,-114 104.88,-114 104.88,-134"/>
<text xml:space="preserve" text-anchor="middle" x="54.12" y="-120.5" font-family="Helvetica,sans-Serif" font-size="10.00">EnemyBezier::draw</text>
</a>
</g>
</g>
<!-- Node1&#45;&gt;Node2 -->
<g id="edge1_Node000001_Node000002" class="edge">
<title>Node1&#45;&gt;Node2</title>
<g id="a_edge1_Node000001_Node000002"><a xlink:title=" ">
<path fill="none" stroke="#63b8ff" d="M163.77,-81.89C147.15,-89.11 126.75,-97.75 108.25,-105 100.86,-107.89 92.83,-110.86 85.3,-113.56"/>
<polygon fill="#63b8ff" stroke="#63b8ff" points="164.93,-85.2 172.69,-77.99 162.12,-78.79 164.93,-85.2"/>
</a>
</g>
</g>
<!-- Node3 -->
<g id="Node000003" class="node">
<title>Node3</title>
<g id="a_Node000003"><a xlink:href="class_player.html#a1f69d3828257528972cc0ed8c4950ff7" target="_top" xlink:title=" ">
<polygon fill="white" stroke="#666666" points="89.5,-96 18.75,-96 18.75,-76 89.5,-76 89.5,-96"/>
<text xml:space="preserve" text-anchor="middle" x="54.12" y="-82.5" font-family="Helvetica,sans-Serif" font-size="10.00">Player::draw</text>
</a>
</g>
</g>
<!-- Node1&#45;&gt;Node3 -->
<g id="edge2_Node000001_Node000003" class="edge">
<title>Node1&#45;&gt;Node3</title>
<g id="a_edge2_Node000001_Node000003"><a xlink:title=" ">
<path fill="none" stroke="#63b8ff" d="M132.79,-75.63C117.98,-77.6 102.78,-79.63 89.81,-81.37"/>
<polygon fill="#63b8ff" stroke="#63b8ff" points="133.05,-79.12 142.5,-74.33 132.13,-72.18 133.05,-79.12"/>
</a>
</g>
</g>
<!-- Node4 -->
<g id="Node000004" class="node">
<title>Node4</title>
<g id="a_Node000004"><a xlink:href="struct_simple_bullet.html#a26796a2ddcebbf8a532110f9c363d434" target="_top" xlink:title=" ">
<polygon fill="white" stroke="#666666" points="103,-58 5.25,-58 5.25,-38 103,-38 103,-58"/>
<text xml:space="preserve" text-anchor="middle" x="54.12" y="-44.5" font-family="Helvetica,sans-Serif" font-size="10.00">SimpleBullet::draw</text>
</a>
</g>
</g>
<!-- Node1&#45;&gt;Node4 -->
<g id="edge3_Node000001_Node000004" class="edge">
<title>Node1&#45;&gt;Node4</title>
<g id="a_edge3_Node000001_Node000004"><a xlink:title=" ">
<path fill="none" stroke="#63b8ff" d="M132.85,-58.38C122.87,-57.05 112.71,-55.69 103.17,-54.42"/>
<polygon fill="#63b8ff" stroke="#63b8ff" points="132.13,-61.82 142.5,-59.67 133.05,-54.88 132.13,-61.82"/>
</a>
</g>
</g>
<!-- Node5 -->
<g id="Node000005" class="node">
<title>Node5</title>
<g id="a_Node000005"><a xlink:href="class_renderer.html#a5824b94cd6552ff3da87457b0dfce99d" target="_top" xlink:title=" ">
<polygon fill="white" stroke="#666666" points="108.25,-20 0,-20 0,0 108.25,0 108.25,-20"/>
<text xml:space="preserve" text-anchor="middle" x="54.12" y="-6.5" font-family="Helvetica,sans-Serif" font-size="10.00">Renderer::drawSprite</text>
</a>
</g>
</g>
<!-- Node1&#45;&gt;Node5 -->
<g id="edge4_Node000001_Node000005" class="edge">
<title>Node1&#45;&gt;Node5</title>
<g id="a_edge4_Node000001_Node000005"><a xlink:title=" ">
<path fill="none" stroke="#63b8ff" d="M163.77,-52.11C147.15,-44.89 126.75,-36.25 108.25,-29 100.86,-26.11 92.83,-23.14 85.3,-20.44"/>
<polygon fill="#63b8ff" stroke="#63b8ff" points="162.12,-55.21 172.69,-56.01 164.93,-48.8 162.12,-55.21"/>
</a>
</g>
</g>
</g>
</svg>
