<?xml version="1.0" encoding="UTF-8" standalone="no"?>
<!DOCTYPE svg PUBLIC "-//W3C//DTD SVG 1.1//EN"
 "http://www.w3.org/Graphics/SVG/1.1/DTD/svg11.dtd">
<!-- Generated by graphviz version 14.1.1 (0)
 -->
<!-- Title: PlayerBullet Pages: 1 -->
<svg width="350pt" height="118pt"
 viewBox="0.00 0.00 350.00 118.00" xmlns="http://www.w3.org/2000/svg" xmlns:xlink="http://www.w3.org/1999/xlink">
<g id="graph0" class="graph" transform="scale(1 1) rotate(0) translate(4 114)">
<title>PlayerBullet</title>
<!-- Node1 -->
<g id="Node000001" class="node">
<title>Node1</title>
<g id="a_Node000001"><a xlink:title=" ">
<polygon fill="#999999" stroke="#666666" points="196.12,-20 127.62,-20 127.62,0 196.12,0 196.12,-20"/>
<text xml:space="preserve" text-anchor="middle" x="161.88" y="-6.5" font-family="Helvetica,sans-Serif" font-size="10.00">PlayerBullet</text>
</a>
</g>
</g>
<!-- Node2 -->
<g id="Node000002" class="node">
<title>Node2</title>
<g id="a_Node000002"><a xlink:href="struct_i_collidable.html" target="_top" xlink:title=" ">
<polygon fill="white" stroke="#666666" points="61.75,-110 0,-110 0,-90 61.75,-90 61.75,-110"/>
<text xml:space="preserve" text-anchor="middle" x="30.88" y="-96.5" font-family="Helvetica,sans-Serif" font-size="10.00">ICollidable</text>
</a>
</g>
</g>
<!-- Node2&#45;&gt;Node1 -->
<g id="edge1_Node000001_Node000002" class="edge">
<title>Node2&#45;&gt;Node1</title>
<g id="a_edge1_Node000001_Node000002"><a xlink:title=" ">
<path fill="none" stroke="#63b8ff" d="M53.69,-83.09C71.6,-70.67 97.2,-53.05 119.88,-38 128.83,-32.05 138.96,-25.53 147.03,-20.39"/>
<polygon fill="#63b8ff" stroke="#63b8ff" points="51.82,-80.13 45.6,-88.71 55.81,-85.88 51.82,-80.13"/>
</a>
</g>
</g>
<!-- Node3 -->
<g id="Node000003" class="node">
<title>Node3</title>
<g id="a_Node000003"><a xlink:href="struct_vec2.html" target="_top" xlink:title=" ">
<polygon fill="white" stroke="#666666" points="154.12,-110 79.62,-110 79.62,-90 154.12,-90 154.12,-110"/>
<text xml:space="preserve" text-anchor="middle" x="116.88" y="-96.5" font-family="Helvetica,sans-Serif" font-size="10.00">Vec2&lt; float &gt;</text>
</a>
</g>
</g>
<!-- Node3&#45;&gt;Node1 -->
<g id="edge2_Node000001_Node000003" class="edge">
<title>Node3&#45;&gt;Node1</title>
<g id="a_edge2_Node000001_Node000003"><a xlink:title=" ">
<path fill="none" stroke="#9a32cd" stroke-dasharray="5,2" d="M121.63,-78.91C125.06,-66.58 130.41,-50.76 137.88,-38 141.67,-31.5 147.18,-25.16 151.97,-20.26"/>
<polygon fill="#9a32cd" stroke="#9a32cd" points="118.3,-77.82 119.21,-88.37 125.08,-79.55 118.3,-77.82"/>
</a>
</g>
<text xml:space="preserve" text-anchor="start" x="140.88" y="-59.5" font-family="Helvetica,sans-Serif" font-size="10.00" fill="grey">pos</text>
<text xml:space="preserve" text-anchor="start" x="140.88" y="-43.5" font-family="Helvetica,sans-Serif" font-size="10.00" fill="grey">spriteHalf</text>
</g>
<!-- Node4 -->
<g id="Node000004" class="node">
<title>Node4</title>
<g id="a_Node000004"><a xlink:href="struct_entity_handle.html" target="_top" xlink:title=" ">
<polygon fill="white" stroke="#666666" points="244,-110 171.75,-110 171.75,-90 244,-90 244,-110"/>
<text xml:space="preserve" text-anchor="middle" x="207.88" y="-96.5" font-family="Helvetica,sans-Serif" font-size="10.00">EntityHandle</text>
</a>
</g>
</g>
<!-- Node4&#45;&gt;Node1 -->
<g id="edge3_Node000001_Node000004" class="edge">
<title>Node4&#45;&gt;Node1</title>
<g id="a_edge3_Node000001_Node000004"><a xlink:title=" ">
<path fill="none" stroke="#9a32cd" stroke-dasharray="5,2" d="M202.74,-78.92C199.08,-66.59 193.47,-50.77 185.88,-38 182.03,-31.53 176.52,-25.19 171.74,-20.29"/>
<polygon fill="#9a32cd" stroke="#9a32cd" points="199.31,-79.67 205.34,-88.38 206.06,-77.81 199.31,-79.67"/>
</a>
</g>
<text xml:space="preserve" text-anchor="start" x="203.5" y="-51.5" font-family="Helvetica,sans-Serif" font-size="10.00" fill="grey">ent_h</text>
</g>
<!-- Node5 -->
<g id="Node000005" class="node">
<title>Node5</title>
<g id="a_Node000005"><a xlink:href="struct_collider_handle.html" target="_top" xlink:title=" ">
<polygon fill="white" stroke="#666666" points="341.75,-110 262,-110 262,-90 341.75,-90 341.75,-110"/>
<text xml:space="preserve" text-anchor="middle" x="301.88" y="-96.5" font-family="Helvetica,sans-Serif" font-size="10.00">ColliderHandle</text>
</a>
</g>
</g>
<!-- Node5&#45;&gt;Node1 -->
<g id="edge4_Node000001_Node000005" class="edge">
<title>Node5&#45;&gt;Node1</title>
<g id="a_edge4_Node000001_Node000005"><a xlink:title=" ">
<path fill="none" stroke="#9a32cd" stroke-dasharray="5,2" d="M285.9,-81.12C273.17,-67.75 254.31,-49.82 234.88,-38 222.75,-30.63 208.29,-24.76 195.45,-20.4"/>
<polygon fill="#9a32cd" stroke="#9a32cd" points="283.28,-83.44 292.64,-88.4 288.42,-78.69 283.28,-83.44"/>
</a>
</g>
<text xml:space="preserve" text-anchor="start" x="279.62" y="-51.5" font-family="Helvetica,sans-Serif" font-size="10.00" fill="grey">col_h</text>
</g>
</g>
</svg>
