<?xml version="1.0" encoding="UTF-8" standalone="no"?>
<!DOCTYPE svg PUBLIC "-//W3C//DTD SVG 1.1//EN"
 "http://www.w3.org/Graphics/SVG/1.1/DTD/svg11.dtd">
<!-- Generated by graphviz version 14.1.1 (0)
 -->
<!-- Title: collider.h Pages: 1 -->
<!--zoomable 364 -->

<svg id="main" version="1.1" xmlns="http://www.w3.org/2000/svg" xmlns:xlink="http://www.w3.org/1999/xlink" xml:space="preserve" onload="init(evt)">

<style type="text/css"><![CDATA[
.node, .edge {opacity: 0.7;}
.node.selected, .edge.selected {opacity: 1;}
.edge:hover path { stroke: red; }
.edge:hover polygon { stroke: red; fill: red; }
]]></style>

<defs>
  <circle id="rim" cx="0" cy="0" r="7"/>
  <circle id="rim2" cx="0" cy="0" r="3.5"/>
  <g id="zoomPlus">
    <use xlink:href="#rim" fill="#404040"><set attributeName="fill" to="#808080" begin="zoomplus.mouseover" end="zoomplus.mouseout"/></use>
    <path d="M-4,0h8M0,-4v8" fill="none" stroke="white" stroke-width="1.5" pointer-events="none"/>
  </g>
  <g id="zoomMin">
    <use xlink:href="#rim" fill="#404040"><set attributeName="fill" to="#808080" begin="zoomminus.mouseover" end="zoomminus.mouseout"/></use>
    <path d="M-4,0h8" fill="none" stroke="white" stroke-width="1.5" pointer-events="none"/>
  </g>
  <g id="arrowUp" transform="translate(30 24)">
    <use xlink:href="#rim"/>
    <path pointer-events="none" fill="none" stroke="white" stroke-width="1.5" d="M0,-3.0v7 M-2.5,-0.5L0,-3.0L2.5,-0.5"/>
  </g>
  <g id="arrowRight" transform="rotate(90) translate(36 -43)">
    <use xlink:href="#rim"/>
    <path pointer-events="none" fill="none" stroke="white" stroke-width="1.5" d="M0,-3.0v7 M-2.5,-0.5L0,-3.0L2.5,-0.5"/>
  </g>
  <g id="arrowDown" transform="rotate(180) translate(-30 -48)">
    <use xlink:href="#rim"/>
    <path pointer-events="none" fill="none" stroke="white" stroke-width="1.5" d="M0,-3.0v7 M-2.5,-0.5L0,-3.0L2.5,-0.5"/>
  </g>
  <g id="arrowLeft" transform="rotate(270) translate(-36 17)">
    <use xlink:href="#rim"/>
    <path pointer-events="none" fill="none" stroke="white" stroke-width="1.5" d="M0,-3.0v7 M-2.5,-0.5L0,-3.0L2.5,-0.5"/>
  </g>
  <g id="resetDef">
    <use xlink:href="#rim2" fill="#404040"><set attributeName="fill" to="#808080" begin="reset.mouseover" end="reset.mouseout"/></use>
  </g>
</defs>
<script type="application/ecmascript">
var viewWidth = 820;
var viewHeight = 364;
var sectionId = 'dynsection-0';
</script>
<script type="application/ecmascript" xlink:href="svg.min.js"/>
<svg id="graph" class="graph">
<g id="viewport">
<title>collider.h</title>
<!-- Node1 -->
<g id="Node000001" class="node">
<title>Node1</title>
<g id="a_Node000001"><a xlink:title=" ">
<polygon fill="#999999" stroke="#666666" points="724.5,-356 669.5,-356 669.5,-336 724.5,-336 724.5,-356"/>
<text xml:space="preserve" text-anchor="middle" x="697" y="-342.5" font-family="Helvetica,sans-Serif" font-size="10.00">collider.h</text>
</a>
</g>
</g>
<!-- Node2 -->
<g id="Node000002" class="node">
<title>Node2</title>
<g id="a_Node000002"><a xlink:href="def_8h.html" target="_top" xlink:title=" ">
<polygon fill="white" stroke="#666666" points="711.88,-132 674.12,-132 674.12,-112 711.88,-112 711.88,-132"/>
<text xml:space="preserve" text-anchor="middle" x="693" y="-118.5" font-family="Helvetica,sans-Serif" font-size="10.00">def.h</text>
</a>
</g>
</g>
<!-- Node1&#45;&gt;Node2 -->
<g id="edge1_Node000001_Node000002" class="edge">
<title>Node1&#45;&gt;Node2</title>
<g id="a_edge1_Node000001_Node000002"><a xlink:title=" ">
<path fill="none" stroke="#63b8ff" d="M696.83,-335.74C696.24,-302.74 694.21,-190.31 693.37,-143.61"/>
<polygon fill="#63b8ff" stroke="#63b8ff" points="696.87,-143.74 693.19,-133.81 689.88,-143.87 696.87,-143.74"/>
</a>
</g>
</g>
<!-- Node6 -->
<g id="Node000006" class="node">
<title>Node6</title>
<g id="a_Node000006"><a xlink:href="gfx_8h.html" target="_top" xlink:title=" ">
<polygon fill="white" stroke="#666666" points="669.25,-300 582.75,-300 582.75,-280 669.25,-280 669.25,-300"/>
<text xml:space="preserve" text-anchor="middle" x="626" y="-286.5" font-family="Helvetica,sans-Serif" font-size="10.00">../graphics/gfx.h</text>
</a>
</g>
</g>
<!-- Node1&#45;&gt;Node6 -->
<g id="edge5_Node000001_Node000006" class="edge">
<title>Node1&#45;&gt;Node6</title>
<g id="a_edge5_Node000001_Node000006"><a xlink:title=" ">
<path fill="none" stroke="#63b8ff" d="M684.63,-335.59C674.35,-327.77 659.48,-316.46 647.29,-307.19"/>
<polygon fill="#63b8ff" stroke="#63b8ff" points="649.51,-304.48 639.43,-301.21 645.27,-310.05 649.51,-304.48"/>
</a>
</g>
</g>
<!-- Node8 -->
<g id="Node000008" class="node">
<title>Node8</title>
<g id="a_Node000008"><a xlink:title=" ">
<polygon fill="#e0e0e0" stroke="#999999" points="811.5,-132 768.5,-132 768.5,-112 811.5,-112 811.5,-132"/>
<text xml:space="preserve" text-anchor="middle" x="790" y="-118.5" font-family="Helvetica,sans-Serif" font-size="10.00">vector</text>
</a>
</g>
</g>
<!-- Node1&#45;&gt;Node8 -->
<g id="edge35_Node000001_Node000008" class="edge">
<title>Node1&#45;&gt;Node8</title>
<g id="a_edge35_Node000001_Node000008"><a xlink:title=" ">
<path fill="none" stroke="#63b8ff" d="M706.94,-335.58C729.92,-312.89 785.8,-252.32 799,-188 802.06,-173.12 799.48,-156.1 796.32,-143.21"/>
<polygon fill="#63b8ff" stroke="#63b8ff" points="799.75,-142.46 793.68,-133.78 793.01,-144.35 799.75,-142.46"/>
</a>
</g>
</g>
<!-- Node3 -->
<g id="Node000003" class="node">
<title>Node3</title>
<g id="a_Node000003"><a xlink:title=" ">
<polygon fill="#e0e0e0" stroke="#999999" points="634.62,-76 589.38,-76 589.38,-56 634.62,-56 634.62,-76"/>
<text xml:space="preserve" text-anchor="middle" x="612" y="-62.5" font-family="Helvetica,sans-Serif" font-size="10.00">cstdint</text>
</a>
</g>
</g>
<!-- Node2&#45;&gt;Node3 -->
<g id="edge2_Node000002_Node000003" class="edge">
<title>Node2&#45;&gt;Node3</title>
<g id="a_edge2_Node000002_Node000003"><a xlink:title=" ">
<path fill="none" stroke="#63b8ff" d="M678.89,-111.59C667,-103.67 649.73,-92.16 635.72,-82.82"/>
<polygon fill="#63b8ff" stroke="#63b8ff" points="637.74,-79.95 627.48,-77.32 633.86,-85.78 637.74,-79.95"/>
</a>
</g>
</g>
<!-- Node4 -->
<g id="Node000004" class="node">
<title>Node4</title>
<g id="a_Node000004"><a xlink:title=" ">
<polygon fill="#e0e0e0" stroke="#999999" points="760,-76 720,-76 720,-56 760,-56 760,-76"/>
<text xml:space="preserve" text-anchor="middle" x="740" y="-62.5" font-family="Helvetica,sans-Serif" font-size="10.00">string</text>
</a>
</g>
</g>
<!-- Node2&#45;&gt;Node4 -->
<g id="edge3_Node000002_Node000004" class="edge">
<title>Node2&#45;&gt;Node4</title>
<g id="a_edge3_Node000002_Node000004"><a xlink:title=" ">
<path fill="none" stroke="#63b8ff" d="M701.19,-111.59C707.59,-104.24 716.68,-93.8 724.45,-84.87"/>
<polygon fill="#63b8ff" stroke="#63b8ff" points="726.99,-87.28 730.91,-77.44 721.71,-82.69 726.99,-87.28"/>
</a>
</g>
</g>
<!-- Node5 -->
<g id="Node000005" class="node">
<title>Node5</title>
<g id="a_Node000005"><a xlink:href="vec2_8h.html" target="_top" xlink:title=" ">
<polygon fill="white" stroke="#666666" points="701.62,-76 656.38,-76 656.38,-56 701.62,-56 701.62,-76"/>
<text xml:space="preserve" text-anchor="middle" x="679" y="-62.5" font-family="Helvetica,sans-Serif" font-size="10.00">vec2.h</text>
</a>
</g>
</g>
<!-- Node2&#45;&gt;Node5 -->
<g id="edge4_Node000002_Node000005" class="edge">
<title>Node2&#45;&gt;Node5</title>
<g id="a_edge4_Node000002_Node000005"><a xlink:title=" ">
<path fill="none" stroke="#63b8ff" d="M690.56,-111.59C688.83,-104.93 686.45,-95.75 684.3,-87.44"/>
<polygon fill="#63b8ff" stroke="#63b8ff" points="687.69,-86.56 681.79,-77.76 680.91,-88.32 687.69,-86.56"/>
</a>
</g>
</g>
<!-- Node6&#45;&gt;Node3 -->
<g id="edge6_Node000006_Node000003" class="edge">
<title>Node6&#45;&gt;Node3</title>
<g id="a_edge6_Node000006_Node000003"><a xlink:title=" ">
<path fill="none" stroke="#63b8ff" d="M625.42,-279.74C623.33,-246.74 616.25,-134.31 613.3,-87.61"/>
<polygon fill="#63b8ff" stroke="#63b8ff" points="616.8,-87.57 612.68,-77.81 609.82,-88.01 616.8,-87.57"/>
</a>
</g>
</g>
<!-- Node6&#45;&gt;Node4 -->
<g id="edge7_Node000006_Node000004" class="edge">
<title>Node6&#45;&gt;Node4</title>
<g id="a_edge7_Node000006_Node000004"><a xlink:title=" ">
<path fill="none" stroke="#63b8ff" d="M632.93,-279.56C650.05,-255.87 694.84,-191.49 721,-132 727.38,-117.48 732.32,-100.22 735.55,-87.13"/>
<polygon fill="#63b8ff" stroke="#63b8ff" points="738.92,-88.1 737.79,-77.56 732.1,-86.51 738.92,-88.1"/>
</a>
</g>
</g>
<!-- Node7 -->
<g id="Node000007" class="node">
<title>Node7</title>
<g id="a_Node000007"><a xlink:title=" ">
<polygon fill="#e0e0e0" stroke="#999999" points="176.38,-132 93.62,-132 93.62,-112 176.38,-112 176.38,-132"/>
<text xml:space="preserve" text-anchor="middle" x="135" y="-118.5" font-family="Helvetica,sans-Serif" font-size="10.00">unordered_map</text>
</a>
</g>
</g>
<!-- Node6&#45;&gt;Node7 -->
<g id="edge8_Node000006_Node000007" class="edge">
<title>Node6&#45;&gt;Node7</title>
<g id="a_edge8_Node000006_Node000007"><a xlink:title=" ">
<path fill="none" stroke="#63b8ff" d="M590.57,-279.56C558.62,-270.87 510.42,-257.36 469,-244 358.48,-208.37 229.86,-159.7 169.55,-136.44"/>
<polygon fill="#63b8ff" stroke="#63b8ff" points="171.1,-133.29 160.51,-132.95 168.58,-139.82 171.1,-133.29"/>
</a>
</g>
</g>
<!-- Node6&#45;&gt;Node8 -->
<g id="edge9_Node000006_Node000008" class="edge">
<title>Node6&#45;&gt;Node8</title>
<g id="a_edge9_Node000006_Node000008"><a xlink:title=" ">
<path fill="none" stroke="#63b8ff" d="M669.45,-283.9C697.16,-278.45 731.91,-267.2 754,-244 780.37,-216.31 787.52,-170.17 789.39,-143.58"/>
<polygon fill="#63b8ff" stroke="#63b8ff" points="792.88,-143.94 789.88,-133.78 785.89,-143.59 792.88,-143.94"/>
</a>
</g>
</g>
<!-- Node9 -->
<g id="Node000009" class="node">
<title>Node9</title>
<g id="a_Node000009"><a xlink:href="all_8h.html" target="_top" xlink:title=" ">
<polygon fill="white" stroke="#666666" points="550.12,-244 477.88,-244 477.88,-224 550.12,-224 550.12,-244"/>
<text xml:space="preserve" text-anchor="middle" x="514" y="-230.5" font-family="Helvetica,sans-Serif" font-size="10.00">../tables/all.h</text>
</a>
</g>
</g>
<!-- Node6&#45;&gt;Node9 -->
<g id="edge10_Node000006_Node000009" class="edge">
<title>Node6&#45;&gt;Node9</title>
<g id="a_edge10_Node000006_Node000009"><a xlink:title=" ">
<path fill="none" stroke="#63b8ff" d="M606.49,-279.59C589.25,-271.28 563.84,-259.03 544.01,-249.47"/>
<polygon fill="#63b8ff" stroke="#63b8ff" points="545.55,-246.33 535.02,-245.14 542.51,-252.63 545.55,-246.33"/>
</a>
</g>
</g>
<!-- Node21 -->
<g id="Node000021" class="node">
<title>Node21</title>
<g id="a_Node000021"><a xlink:href="_s_d_l__def_8h.html" target="_top" xlink:title=" ">
<polygon fill="white" stroke="#666666" points="265.62,-244 172.38,-244 172.38,-224 265.62,-224 265.62,-244"/>
<text xml:space="preserve" text-anchor="middle" x="219" y="-230.5" font-family="Helvetica,sans-Serif" font-size="10.00">../core/SDL_def.h</text>
</a>
</g>
</g>
<!-- Node6&#45;&gt;Node21 -->
<g id="edge34_Node000006_Node000021" class="edge">
<title>Node6&#45;&gt;Node21</title>
<g id="a_edge34_Node000006_Node000021"><a xlink:title=" ">
<path fill="none" stroke="#63b8ff" d="M582.27,-283.56C516.6,-275.33 388.6,-259.07 280,-244 279,-243.86 278,-243.72 276.98,-243.58"/>
<polygon fill="#63b8ff" stroke="#63b8ff" points="277.84,-240.17 267.44,-242.22 276.85,-247.1 277.84,-240.17"/>
</a>
</g>
</g>
<!-- Node10 -->
<g id="Node000010" class="node">
<title>Node10</title>
<g id="a_Node000010"><a xlink:href="_entity_table_8h.html" target="_top" xlink:title=" ">
<polygon fill="white" stroke="#666666" points="395.5,-188 322.5,-188 322.5,-168 395.5,-168 395.5,-188"/>
<text xml:space="preserve" text-anchor="middle" x="359" y="-174.5" font-family="Helvetica,sans-Serif" font-size="10.00">EntityTable.h</text>
</a>
</g>
</g>
<!-- Node9&#45;&gt;Node10 -->
<g id="edge11_Node000009_Node000010" class="edge">
<title>Node9&#45;&gt;Node10</title>
<g id="a_edge11_Node000009_Node000010"><a xlink:title=" ">
<path fill="none" stroke="#63b8ff" d="M487,-223.59C462.04,-214.9 424.7,-201.89 396.78,-192.16"/>
<polygon fill="#63b8ff" stroke="#63b8ff" points="398.23,-188.96 387.64,-188.98 395.93,-195.57 398.23,-188.96"/>
</a>
</g>
</g>
<!-- Node19 -->
<g id="Node000019" class="node">
<title>Node19</title>
<g id="a_Node000019"><a xlink:href="_param_table_8h.html" target="_top" xlink:title=" ">
<polygon fill="white" stroke="#666666" points="552,-188 476,-188 476,-168 552,-168 552,-188"/>
<text xml:space="preserve" text-anchor="middle" x="514" y="-174.5" font-family="Helvetica,sans-Serif" font-size="10.00">ParamTable.h</text>
</a>
</g>
</g>
<!-- Node9&#45;&gt;Node19 -->
<g id="edge24_Node000009_Node000019" class="edge">
<title>Node9&#45;&gt;Node19</title>
<g id="a_edge24_Node000009_Node000019"><a xlink:title=" ">
<path fill="none" stroke="#63b8ff" d="M514,-223.59C514,-217.01 514,-207.96 514,-199.73"/>
<polygon fill="#63b8ff" stroke="#63b8ff" points="517.5,-199.81 514,-189.81 510.5,-199.81 517.5,-199.81"/>
</a>
</g>
</g>
<!-- Node10&#45;&gt;Node2 -->
<g id="edge18_Node000010_Node000002" class="edge">
<title>Node10&#45;&gt;Node2</title>
<g id="a_edge18_Node000010_Node000002"><a xlink:title=" ">
<path fill="none" stroke="#63b8ff" d="M395.7,-171.07C462.11,-160.33 601.02,-137.87 662.55,-127.92"/>
<polygon fill="#63b8ff" stroke="#63b8ff" points="662.97,-131.4 672.29,-126.35 661.85,-124.49 662.97,-131.4"/>
</a>
</g>
</g>
<!-- Node10&#45;&gt;Node3 -->
<g id="edge12_Node000010_Node000003" class="edge">
<title>Node10&#45;&gt;Node3</title>
<g id="a_edge12_Node000010_Node000003"><a xlink:title=" ">
<path fill="none" stroke="#63b8ff" d="M380.57,-167.62C425.2,-148.22 527.84,-103.59 580.13,-80.86"/>
<polygon fill="#63b8ff" stroke="#63b8ff" points="581.32,-84.16 589.1,-76.96 578.53,-77.74 581.32,-84.16"/>
</a>
</g>
</g>
<!-- Node10&#45;&gt;Node7 -->
<g id="edge15_Node000010_Node000007" class="edge">
<title>Node10&#45;&gt;Node7</title>
<g id="a_edge15_Node000010_Node000007"><a xlink:title=" ">
<path fill="none" stroke="#63b8ff" d="M322.01,-168.08C284.68,-159.08 226.76,-145.12 185.27,-135.12"/>
<polygon fill="#63b8ff" stroke="#63b8ff" points="186.32,-131.77 175.78,-132.83 184.68,-138.58 186.32,-131.77"/>
</a>
</g>
</g>
<!-- Node11 -->
<g id="Node000011" class="node">
<title>Node11</title>
<g id="a_Node000011"><a xlink:title=" ">
<polygon fill="#e0e0e0" stroke="#999999" points="290.38,-132 231.62,-132 231.62,-112 290.38,-112 290.38,-132"/>
<text xml:space="preserve" text-anchor="middle" x="261" y="-118.5" font-family="Helvetica,sans-Serif" font-size="10.00">stdexcept</text>
</a>
</g>
</g>
<!-- Node10&#45;&gt;Node11 -->
<g id="edge13_Node000010_Node000011" class="edge">
<title>Node10&#45;&gt;Node11</title>
<g id="a_edge13_Node000010_Node000011"><a xlink:title=" ">
<path fill="none" stroke="#63b8ff" d="M341.93,-167.59C327.12,-159.44 305.43,-147.48 288.23,-138"/>
<polygon fill="#63b8ff" stroke="#63b8ff" points="289.98,-134.97 279.53,-133.21 286.6,-141.1 289.98,-134.97"/>
</a>
</g>
</g>
<!-- Node12 -->
<g id="Node000012" class="node">
<title>Node12</title>
<g id="a_Node000012"><a xlink:title=" ">
<polygon fill="#e0e0e0" stroke="#999999" points="391.75,-76 326.25,-76 326.25,-56 391.75,-56 391.75,-76"/>
<text xml:space="preserve" text-anchor="middle" x="359" y="-62.5" font-family="Helvetica,sans-Serif" font-size="10.00">string_view</text>
</a>
</g>
</g>
<!-- Node10&#45;&gt;Node12 -->
<g id="edge14_Node000010_Node000012" class="edge">
<title>Node10&#45;&gt;Node12</title>
<g id="a_edge14_Node000010_Node000012"><a xlink:title=" ">
<path fill="none" stroke="#63b8ff" d="M322.23,-169.86C286.12,-162.01 234.8,-148.33 223,-132 196.9,-95.87 265.75,-79.04 314.74,-71.83"/>
<polygon fill="#63b8ff" stroke="#63b8ff" points="315.15,-75.3 324.59,-70.48 314.2,-68.37 315.15,-75.3"/>
</a>
</g>
</g>
<!-- Node13 -->
<g id="Node000013" class="node">
<title>Node13</title>
<g id="a_Node000013"><a xlink:href="rapid_string_8h.html" target="_top" xlink:title=" ">
<polygon fill="white" stroke="#666666" points="409.75,-132 308.25,-132 308.25,-112 409.75,-112 409.75,-132"/>
<text xml:space="preserve" text-anchor="middle" x="359" y="-118.5" font-family="Helvetica,sans-Serif" font-size="10.00">../core/rapidString.h</text>
</a>
</g>
</g>
<!-- Node10&#45;&gt;Node13 -->
<g id="edge16_Node000010_Node000013" class="edge">
<title>Node10&#45;&gt;Node13</title>
<g id="a_edge16_Node000010_Node000013"><a xlink:title=" ">
<path fill="none" stroke="#63b8ff" d="M359,-167.59C359,-161.01 359,-151.96 359,-143.73"/>
<polygon fill="#63b8ff" stroke="#63b8ff" points="362.5,-143.81 359,-133.81 355.5,-143.81 362.5,-143.81"/>
</a>
</g>
</g>
<!-- Node14 -->
<g id="Node000014" class="node">
<title>Node14</title>
<g id="a_Node000014"><a xlink:href="fsutil_8h.html" target="_top" xlink:title=" ">
<polygon fill="white" stroke="#666666" points="76,-132 0,-132 0,-112 76,-112 76,-132"/>
<text xml:space="preserve" text-anchor="middle" x="38" y="-118.5" font-family="Helvetica,sans-Serif" font-size="10.00">../core/fsutil.h</text>
</a>
</g>
</g>
<!-- Node10&#45;&gt;Node14 -->
<g id="edge19_Node000010_Node000014" class="edge">
<title>Node10&#45;&gt;Node14</title>
<g id="a_edge19_Node000010_Node000014"><a xlink:title=" ">
<path fill="none" stroke="#63b8ff" d="M322.16,-171.27C271.62,-163.33 177.64,-148.33 87.69,-132.44"/>
<polygon fill="#63b8ff" stroke="#63b8ff" points="88.41,-129.02 77.95,-130.71 87.18,-135.91 88.41,-129.02"/>
</a>
</g>
</g>
<!-- Node13&#45;&gt;Node12 -->
<g id="edge17_Node000013_Node000012" class="edge">
<title>Node13&#45;&gt;Node12</title>
<g id="a_edge17_Node000013_Node000012"><a xlink:title=" ">
<path fill="none" stroke="#63b8ff" d="M359,-111.59C359,-105.01 359,-95.96 359,-87.73"/>
<polygon fill="#63b8ff" stroke="#63b8ff" points="362.5,-87.81 359,-77.81 355.5,-87.81 362.5,-87.81"/>
</a>
</g>
</g>
<!-- Node15 -->
<g id="Node000015" class="node">
<title>Node15</title>
<g id="a_Node000015"><a xlink:href="json_8h.html" target="_top" xlink:title=" ">
<polygon fill="white" stroke="#666666" points="216.12,-76 173.88,-76 173.88,-56 216.12,-56 216.12,-76"/>
<text xml:space="preserve" text-anchor="middle" x="195" y="-62.5" font-family="Helvetica,sans-Serif" font-size="10.00">json.h</text>
</a>
</g>
</g>
<!-- Node14&#45;&gt;Node15 -->
<g id="edge20_Node000014_Node000015" class="edge">
<title>Node14&#45;&gt;Node15</title>
<g id="a_edge20_Node000014_Node000015"><a xlink:title=" ">
<path fill="none" stroke="#63b8ff" d="M65.35,-111.59C92.49,-102.26 134.09,-87.95 162.82,-78.07"/>
<polygon fill="#63b8ff" stroke="#63b8ff" points="163.76,-81.45 172.08,-74.88 161.48,-74.83 163.76,-81.45"/>
</a>
</g>
</g>
<!-- Node18 -->
<g id="Node000018" class="node">
<title>Node18</title>
<g id="a_Node000018"><a xlink:title=" ">
<polygon fill="#e0e0e0" stroke="#999999" points="62.5,-76 13.5,-76 13.5,-56 62.5,-56 62.5,-76"/>
<text xml:space="preserve" text-anchor="middle" x="38" y="-62.5" font-family="Helvetica,sans-Serif" font-size="10.00">fstream</text>
</a>
</g>
</g>
<!-- Node14&#45;&gt;Node18 -->
<g id="edge23_Node000014_Node000018" class="edge">
<title>Node14&#45;&gt;Node18</title>
<g id="a_edge23_Node000014_Node000018"><a xlink:title=" ">
<path fill="none" stroke="#63b8ff" d="M38,-111.59C38,-105.01 38,-95.96 38,-87.73"/>
<polygon fill="#63b8ff" stroke="#63b8ff" points="41.5,-87.81 38,-77.81 34.5,-87.81 41.5,-87.81"/>
</a>
</g>
</g>
<!-- Node16 -->
<g id="Node000016" class="node">
<title>Node16</title>
<g id="a_Node000016"><a xlink:title=" ">
<polygon fill="#e0e0e0" stroke="#999999" points="180.5,-20 71.5,-20 71.5,0 180.5,0 180.5,-20"/>
<text xml:space="preserve" text-anchor="middle" x="126" y="-6.5" font-family="Helvetica,sans-Serif" font-size="10.00">rapidjson/document.h</text>
</a>
</g>
</g>
<!-- Node15&#45;&gt;Node16 -->
<g id="edge21_Node000015_Node000016" class="edge">
<title>Node15&#45;&gt;Node16</title>
<g id="a_edge21_Node000015_Node000016"><a xlink:title=" ">
<path fill="none" stroke="#63b8ff" d="M182.98,-55.59C172.99,-47.77 158.54,-36.46 146.69,-27.19"/>
<polygon fill="#63b8ff" stroke="#63b8ff" points="149.11,-24.64 139.07,-21.23 144.79,-30.15 149.11,-24.64"/>
</a>
</g>
</g>
<!-- Node17 -->
<g id="Node000017" class="node">
<title>Node17</title>
<g id="a_Node000017"><a xlink:title=" ">
<polygon fill="#e0e0e0" stroke="#999999" points="331.5,-20 198.5,-20 198.5,0 331.5,0 331.5,-20"/>
<text xml:space="preserve" text-anchor="middle" x="265" y="-6.5" font-family="Helvetica,sans-Serif" font-size="10.00">rapidjson/istreamwrapper.h</text>
</a>
</g>
</g>
<!-- Node15&#45;&gt;Node17 -->
<g id="edge22_Node000015_Node000017" class="edge">
<title>Node15&#45;&gt;Node17</title>
<g id="a_edge22_Node000015_Node000017"><a xlink:title=" ">
<path fill="none" stroke="#63b8ff" d="M207.19,-55.59C217.33,-47.77 231.99,-36.46 244.01,-27.19"/>
<polygon fill="#63b8ff" stroke="#63b8ff" points="245.97,-30.1 251.75,-21.22 241.69,-24.56 245.97,-30.1"/>
</a>
</g>
</g>
<!-- Node19&#45;&gt;Node2 -->
<g id="edge31_Node000019_Node000002" class="edge">
<title>Node19&#45;&gt;Node2</title>
<g id="a_edge31_Node000019_Node000002"><a xlink:title=" ">
<path fill="none" stroke="#63b8ff" d="M545.18,-167.59C578.33,-157.59 630.39,-141.89 663.06,-132.03"/>
<polygon fill="#63b8ff" stroke="#63b8ff" points="663.74,-135.48 672.3,-129.24 661.71,-128.78 663.74,-135.48"/>
</a>
</g>
</g>
<!-- Node19&#45;&gt;Node3 -->
<g id="edge25_Node000019_Node000003" class="edge">
<title>Node19&#45;&gt;Node3</title>
<g id="a_edge25_Node000019_Node000003"><a xlink:title=" ">
<path fill="none" stroke="#63b8ff" d="M538.31,-167.63C554.68,-160.2 575.64,-148.34 589,-132 599.44,-119.23 605.31,-101.37 608.5,-87.6"/>
<polygon fill="#63b8ff" stroke="#63b8ff" points="611.92,-88.35 610.43,-77.86 605.05,-86.98 611.92,-88.35"/>
</a>
</g>
</g>
<!-- Node19&#45;&gt;Node7 -->
<g id="edge28_Node000019_Node000007" class="edge">
<title>Node19&#45;&gt;Node7</title>
<g id="a_edge28_Node000019_Node000007"><a xlink:title=" ">
<path fill="none" stroke="#63b8ff" d="M475.57,-171.53C407.46,-161.82 265.47,-141.59 188.08,-130.56"/>
<polygon fill="#63b8ff" stroke="#63b8ff" points="188.58,-127.1 178.19,-129.15 187.59,-134.03 188.58,-127.1"/>
</a>
</g>
</g>
<!-- Node19&#45;&gt;Node8 -->
<g id="edge29_Node000019_Node000008" class="edge">
<title>Node19&#45;&gt;Node8</title>
<g id="a_edge29_Node000019_Node000008"><a xlink:title=" ">
<path fill="none" stroke="#63b8ff" d="M552.38,-169.49C606.93,-158.82 705.96,-139.44 757.25,-129.41"/>
<polygon fill="#63b8ff" stroke="#63b8ff" points="757.69,-132.89 766.84,-127.53 756.35,-126.02 757.69,-132.89"/>
</a>
</g>
</g>
<!-- Node19&#45;&gt;Node11 -->
<g id="edge26_Node000019_Node000011" class="edge">
<title>Node19&#45;&gt;Node11</title>
<g id="a_edge26_Node000019_Node000011"><a xlink:title=" ">
<path fill="none" stroke="#63b8ff" d="M475.87,-169.33C435.11,-161.07 368.31,-147.33 301.93,-132.61"/>
<polygon fill="#63b8ff" stroke="#63b8ff" points="302.85,-129.23 292.33,-130.48 301.33,-136.07 302.85,-129.23"/>
</a>
</g>
</g>
<!-- Node19&#45;&gt;Node12 -->
<g id="edge27_Node000019_Node000012" class="edge">
<title>Node19&#45;&gt;Node12</title>
<g id="a_edge27_Node000019_Node000012"><a xlink:title=" ">
<path fill="none" stroke="#63b8ff" d="M513.07,-167.68C511.18,-153.7 505.66,-127.3 490,-112 466.72,-89.25 431.44,-77.98 403.35,-72.4"/>
<polygon fill="#63b8ff" stroke="#63b8ff" points="404.15,-68.99 393.69,-70.68 402.92,-75.88 404.15,-68.99"/>
</a>
</g>
</g>
<!-- Node19&#45;&gt;Node13 -->
<g id="edge33_Node000019_Node000013" class="edge">
<title>Node19&#45;&gt;Node13</title>
<g id="a_edge33_Node000019_Node000013"><a xlink:title=" ">
<path fill="none" stroke="#63b8ff" d="M487,-167.59C462.04,-158.9 424.7,-145.89 396.78,-136.16"/>
<polygon fill="#63b8ff" stroke="#63b8ff" points="398.23,-132.96 387.64,-132.98 395.93,-139.57 398.23,-132.96"/>
</a>
</g>
</g>
<!-- Node19&#45;&gt;Node15 -->
<g id="edge32_Node000019_Node000015" class="edge">
<title>Node19&#45;&gt;Node15</title>
<g id="a_edge32_Node000019_Node000015"><a xlink:title=" ">
<path fill="none" stroke="#63b8ff" d="M503.45,-167.63C486.76,-153.32 452.7,-126.21 419,-112 354.55,-84.82 272.61,-73.73 227.85,-69.46"/>
<polygon fill="#63b8ff" stroke="#63b8ff" points="228.3,-65.99 218.03,-68.59 227.68,-72.96 228.3,-65.99"/>
</a>
</g>
</g>
<!-- Node20 -->
<g id="Node000020" class="node">
<title>Node20</title>
<g id="a_Node000020"><a xlink:title=" ">
<polygon fill="#e0e0e0" stroke="#999999" points="579.5,-132 542.5,-132 542.5,-112 579.5,-112 579.5,-132"/>
<text xml:space="preserve" text-anchor="middle" x="561" y="-118.5" font-family="Helvetica,sans-Serif" font-size="10.00">span</text>
</a>
</g>
</g>
<!-- Node19&#45;&gt;Node20 -->
<g id="edge30_Node000019_Node000020" class="edge">
<title>Node19&#45;&gt;Node20</title>
<g id="a_edge30_Node000019_Node000020"><a xlink:title=" ">
<path fill="none" stroke="#63b8ff" d="M522.19,-167.59C528.59,-160.24 537.68,-149.8 545.45,-140.87"/>
<polygon fill="#63b8ff" stroke="#63b8ff" points="547.99,-143.28 551.91,-133.44 542.71,-138.69 547.99,-143.28"/>
</a>
</g>
</g>
</g>
</svg>

<g id="navigator" transform="translate(0 0)" fill="#404254">
  <rect fill="#f2f5e9" fill-opacity="0.5" stroke="#606060" stroke-width=".5" x="0" y="0" width="60" height="60"/>
  <use id="zoomplus" xlink:href="#zoomPlus" x="17" y="9" onmousedown="handleZoom(evt,'in')"/>
  <use id="zoomminus" xlink:href="#zoomMin" x="42" y="9" onmousedown="handleZoom(evt,'out')"/>
  <use id="reset" xlink:href="#resetDef" x="30" y="36" onmousedown="handleReset()"/>
   <use id="arrowup" xlink:href="#arrowUp" x="0" y="0" onmousedown="handlePan(0,-1)"/>
  <use id="arrowright" xlink:href="#arrowRight" x="0" y="0" onmousedown="handlePan(1,0)"/>
  <use id="arrowdown" xlink:href="#arrowDown" x="0" y="0" onmousedown="handlePan(0,1)"/>
  <use id="arrowleft" xlink:href="#arrowLeft" x="0" y="0" onmousedown="handlePan(-1,0)"/>
</g>
<svg viewBox="0 0 15 15" width="100%" height="30px" preserveAspectRatio="xMaxYMin meet">
 <g id="arrow_out" transform="scale(0.3 0.3)">
  <a xlink:href="collider_8h__incl_org.svg" target="_base">
   <rect id="button" ry="5" rx="5" y="6" x="6" height="38" width="38"
        fill="#f2f5e9" fill-opacity="0.5" stroke="#606060" stroke-width="1.0"/>
   <path id="arrow"
     d="M 11.500037,31.436501 C 11.940474,20.09759 22.043105,11.32322 32.158766,21.979434 L 37.068811,17.246167 C 37.068811,17.246167 37.088388,32 37.088388,32 L 22.160133,31.978069 C 22.160133,31.978069 26.997745,27.140456 26.997745,27.140456 C 18.528582,18.264221 13.291696,25.230495 11.500037,31.436501 z"
     style="fill:#404040;"/>
  </a>
 </g>
</svg>

<style type='text/css'>
<![CDATA[
[data-mouse-over-selected='false'] { opacity: 0.7; }
[data-mouse-over-selected='true']  { opacity: 1.0; }
]]>
</style>
<script type="application/ecmascript"><![CDATA[
document.addEventListener('DOMContentLoaded', (event) => {
  highlightEdges();
  highlightAdjacentNodes();
});
]]></script>
</svg>
