<?xml version="1.0" encoding="UTF-8" standalone="no"?>
<!DOCTYPE svg PUBLIC "-//W3C//DTD SVG 1.1//EN"
 "http://www.w3.org/Graphics/SVG/1.1/DTD/svg11.dtd">
<!-- Generated by graphviz version 14.1.1 (0)
 -->
<!-- Title: collider.cpp Pages: 1 -->
<svg width="970pt" height="420pt"
 viewBox="0.00 0.00 970.00 420.00" xmlns="http://www.w3.org/2000/svg" xmlns:xlink="http://www.w3.org/1999/xlink">
<g id="graph0" class="graph" transform="scale(1 1) rotate(0) translate(4 416)">
<title>collider.cpp</title>
<!-- Node1 -->
<g id="Node000001" class="node">
<title>Node1</title>
<g id="a_Node000001"><a xlink:title=" ">
<polygon fill="#999999" stroke="#666666" points="854.04,-412 788.54,-412 788.54,-392 854.04,-392 854.04,-412"/>
<text xml:space="preserve" text-anchor="middle" x="821.29" y="-398.5" font-family="Helvetica,sans-Serif" font-size="10.00">collider.cpp</text>
</a>
</g>
</g>
<!-- Node2 -->
<g id="Node000002" class="node">
<title>Node2</title>
<g id="a_Node000002"><a xlink:href="collider_8h.html" target="_top" xlink:title=" ">
<polygon fill="white" stroke="#666666" points="763.79,-356 708.79,-356 708.79,-336 763.79,-336 763.79,-356"/>
<text xml:space="preserve" text-anchor="middle" x="736.29" y="-342.5" font-family="Helvetica,sans-Serif" font-size="10.00">collider.h</text>
</a>
</g>
</g>
<!-- Node1&#45;&gt;Node2 -->
<g id="edge1_Node000001_Node000002" class="edge">
<title>Node1&#45;&gt;Node2</title>
<g id="a_edge1_Node000001_Node000002"><a xlink:title=" ">
<path fill="none" stroke="#63b8ff" d="M806.49,-391.59C793.89,-383.59 775.54,-371.93 760.76,-362.54"/>
<polygon fill="#63b8ff" stroke="#63b8ff" points="762.81,-359.7 752.49,-357.29 759.06,-365.61 762.81,-359.7"/>
</a>
</g>
</g>
<!-- Node8 -->
<g id="Node000008" class="node">
<title>Node8</title>
<g id="a_Node000008"><a xlink:title=" ">
<polygon fill="#e0e0e0" stroke="#999999" points="95.67,-132 12.92,-132 12.92,-112 95.67,-112 95.67,-132"/>
<text xml:space="preserve" text-anchor="middle" x="54.29" y="-118.5" font-family="Helvetica,sans-Serif" font-size="10.00">unordered_map</text>
</a>
</g>
</g>
<!-- Node1&#45;&gt;Node8 -->
<g id="edge38_Node000001_Node000008" class="edge">
<title>Node1&#45;&gt;Node8</title>
<g id="a_edge38_Node000001_Node000008"><a xlink:title=" ">
<path fill="none" stroke="#63b8ff" d="M788.27,-399.99C637.68,-394.94 23.29,-369.54 23.29,-291 23.29,-291 23.29,-291 23.29,-233 23.29,-200.52 35.97,-164.61 45.11,-142.93"/>
<polygon fill="#63b8ff" stroke="#63b8ff" points="48.28,-144.41 49.11,-133.84 41.88,-141.58 48.28,-144.41"/>
</a>
</g>
</g>
<!-- Node21 -->
<g id="Node000021" class="node">
<title>Node21</title>
<g id="a_Node000021"><a xlink:title=" ">
<polygon fill="#e0e0e0" stroke="#999999" points="724.79,-132 687.79,-132 687.79,-112 724.79,-112 724.79,-132"/>
<text xml:space="preserve" text-anchor="middle" x="706.29" y="-118.5" font-family="Helvetica,sans-Serif" font-size="10.00">span</text>
</a>
</g>
</g>
<!-- Node1&#45;&gt;Node21 -->
<g id="edge37_Node000001_Node000021" class="edge">
<title>Node1&#45;&gt;Node21</title>
<g id="a_edge37_Node000001_Node000021"><a xlink:title=" ">
<path fill="none" stroke="#63b8ff" d="M817.47,-391.75C801.17,-352.34 737.29,-197.94 714.46,-142.75"/>
<polygon fill="#63b8ff" stroke="#63b8ff" points="717.77,-141.59 710.71,-133.68 711.3,-144.26 717.77,-141.59"/>
</a>
</g>
</g>
<!-- Node23 -->
<g id="Node000023" class="node">
<title>Node23</title>
<g id="a_Node000023"><a xlink:title=" ">
<polygon fill="#e0e0e0" stroke="#999999" points="962.17,-356 906.42,-356 906.42,-336 962.17,-336 962.17,-356"/>
<text xml:space="preserve" text-anchor="middle" x="934.29" y="-342.5" font-family="Helvetica,sans-Serif" font-size="10.00">algorithm</text>
</a>
</g>
</g>
<!-- Node1&#45;&gt;Node23 -->
<g id="edge39_Node000001_Node000023" class="edge">
<title>Node1&#45;&gt;Node23</title>
<g id="a_edge39_Node000001_Node000023"><a xlink:title=" ">
<path fill="none" stroke="#63b8ff" d="M840.98,-391.59C858.45,-383.24 884.25,-370.92 904.29,-361.34"/>
<polygon fill="#63b8ff" stroke="#63b8ff" points="905.58,-364.6 913.09,-357.13 902.56,-358.29 905.58,-364.6"/>
</a>
</g>
</g>
<!-- Node24 -->
<g id="Node000024" class="node">
<title>Node24</title>
<g id="a_Node000024"><a xlink:href="math_util_8h.html" target="_top" xlink:title=" ">
<polygon fill="white" stroke="#666666" points="935.79,-300 874.79,-300 874.79,-280 935.79,-280 935.79,-300"/>
<text xml:space="preserve" text-anchor="middle" x="905.29" y="-286.5" font-family="Helvetica,sans-Serif" font-size="10.00">mathUtil.h</text>
</a>
</g>
</g>
<!-- Node1&#45;&gt;Node24 -->
<g id="edge40_Node000001_Node000024" class="edge">
<title>Node1&#45;&gt;Node24</title>
<g id="a_edge40_Node000001_Node000024"><a xlink:title=" ">
<path fill="none" stroke="#63b8ff" d="M828.46,-391.62C842.34,-373.44 873.15,-333.09 891.26,-309.38"/>
<polygon fill="#63b8ff" stroke="#63b8ff" points="893.94,-311.63 897.23,-301.56 888.38,-307.38 893.94,-311.63"/>
</a>
</g>
</g>
<!-- Node25 -->
<g id="Node000025" class="node">
<title>Node25</title>
<g id="a_Node000025"><a xlink:href="entity_manager_8h.html" target="_top" xlink:title=" ">
<polygon fill="white" stroke="#666666" points="878.17,-188 792.42,-188 792.42,-168 878.17,-168 878.17,-188"/>
<text xml:space="preserve" text-anchor="middle" x="835.29" y="-174.5" font-family="Helvetica,sans-Serif" font-size="10.00">entityManager.h</text>
</a>
</g>
</g>
<!-- Node1&#45;&gt;Node25 -->
<g id="edge42_Node000001_Node000025" class="edge">
<title>Node1&#45;&gt;Node25</title>
<g id="a_edge42_Node000001_Node000025"><a xlink:title=" ">
<path fill="none" stroke="#63b8ff" d="M821.88,-391.74C823.96,-358.74 831.05,-246.31 833.99,-199.61"/>
<polygon fill="#63b8ff" stroke="#63b8ff" points="837.48,-200.01 834.61,-189.81 830.49,-199.57 837.48,-200.01"/>
</a>
</g>
</g>
<!-- Node3 -->
<g id="Node000003" class="node">
<title>Node3</title>
<g id="a_Node000003"><a xlink:href="def_8h.html" target="_top" xlink:title=" ">
<polygon fill="white" stroke="#666666" points="631.17,-132 593.42,-132 593.42,-112 631.17,-112 631.17,-132"/>
<text xml:space="preserve" text-anchor="middle" x="612.29" y="-118.5" font-family="Helvetica,sans-Serif" font-size="10.00">def.h</text>
</a>
</g>
</g>
<!-- Node2&#45;&gt;Node3 -->
<g id="edge2_Node000002_Node000003" class="edge">
<title>Node2&#45;&gt;Node3</title>
<g id="a_edge2_Node000002_Node000003"><a xlink:title=" ">
<path fill="none" stroke="#63b8ff" d="M731.11,-335.57C719.89,-315.19 692.49,-265.5 669.29,-224 653.38,-195.53 634.78,-162.65 623.27,-142.34"/>
<polygon fill="#63b8ff" stroke="#63b8ff" points="626.39,-140.74 618.41,-133.77 620.3,-144.2 626.39,-140.74"/>
</a>
</g>
</g>
<!-- Node7 -->
<g id="Node000007" class="node">
<title>Node7</title>
<g id="a_Node000007"><a xlink:href="gfx_8h.html" target="_top" xlink:title=" ">
<polygon fill="white" stroke="#666666" points="581.54,-300 495.04,-300 495.04,-280 581.54,-280 581.54,-300"/>
<text xml:space="preserve" text-anchor="middle" x="538.29" y="-286.5" font-family="Helvetica,sans-Serif" font-size="10.00">../graphics/gfx.h</text>
</a>
</g>
</g>
<!-- Node2&#45;&gt;Node7 -->
<g id="edge6_Node000002_Node000007" class="edge">
<title>Node2&#45;&gt;Node7</title>
<g id="a_edge6_Node000002_Node000007"><a xlink:title=" ">
<path fill="none" stroke="#63b8ff" d="M708.35,-337.38C676.04,-328.57 622.39,-313.94 583.99,-303.46"/>
<polygon fill="#63b8ff" stroke="#63b8ff" points="585.13,-300.15 574.56,-300.89 583.29,-306.9 585.13,-300.15"/>
</a>
</g>
</g>
<!-- Node9 -->
<g id="Node000009" class="node">
<title>Node9</title>
<g id="a_Node000009"><a xlink:title=" ">
<polygon fill="#e0e0e0" stroke="#999999" points="785.79,-132 742.79,-132 742.79,-112 785.79,-112 785.79,-132"/>
<text xml:space="preserve" text-anchor="middle" x="764.29" y="-118.5" font-family="Helvetica,sans-Serif" font-size="10.00">vector</text>
</a>
</g>
</g>
<!-- Node2&#45;&gt;Node9 -->
<g id="edge36_Node000002_Node000009" class="edge">
<title>Node2&#45;&gt;Node9</title>
<g id="a_edge36_Node000002_Node000009"><a xlink:title=" ">
<path fill="none" stroke="#63b8ff" d="M737.46,-335.74C741.62,-302.74 755.8,-190.31 761.7,-143.61"/>
<polygon fill="#63b8ff" stroke="#63b8ff" points="765.15,-144.16 762.93,-133.8 758.21,-143.28 765.15,-144.16"/>
</a>
</g>
</g>
<!-- Node4 -->
<g id="Node000004" class="node">
<title>Node4</title>
<g id="a_Node000004"><a xlink:title=" ">
<polygon fill="#e0e0e0" stroke="#999999" points="634.92,-76 589.67,-76 589.67,-56 634.92,-56 634.92,-76"/>
<text xml:space="preserve" text-anchor="middle" x="612.29" y="-62.5" font-family="Helvetica,sans-Serif" font-size="10.00">cstdint</text>
</a>
</g>
</g>
<!-- Node3&#45;&gt;Node4 -->
<g id="edge3_Node000003_Node000004" class="edge">
<title>Node3&#45;&gt;Node4</title>
<g id="a_edge3_Node000003_Node000004"><a xlink:title=" ">
<path fill="none" stroke="#63b8ff" d="M612.29,-111.59C612.29,-105.01 612.29,-95.96 612.29,-87.73"/>
<polygon fill="#63b8ff" stroke="#63b8ff" points="615.79,-87.81 612.29,-77.81 608.79,-87.81 615.79,-87.81"/>
</a>
</g>
</g>
<!-- Node5 -->
<g id="Node000005" class="node">
<title>Node5</title>
<g id="a_Node000005"><a xlink:title=" ">
<polygon fill="#e0e0e0" stroke="#999999" points="479.29,-76 439.29,-76 439.29,-56 479.29,-56 479.29,-76"/>
<text xml:space="preserve" text-anchor="middle" x="459.29" y="-62.5" font-family="Helvetica,sans-Serif" font-size="10.00">string</text>
</a>
</g>
</g>
<!-- Node3&#45;&gt;Node5 -->
<g id="edge4_Node000003_Node000005" class="edge">
<title>Node3&#45;&gt;Node5</title>
<g id="a_edge4_Node000003_Node000005"><a xlink:title=" ">
<path fill="none" stroke="#63b8ff" d="M593.23,-114.27C567.4,-105.15 520.99,-88.78 490.16,-77.9"/>
<polygon fill="#63b8ff" stroke="#63b8ff" points="491.6,-74.69 481.01,-74.66 489.27,-81.29 491.6,-74.69"/>
</a>
</g>
</g>
<!-- Node6 -->
<g id="Node000006" class="node">
<title>Node6</title>
<g id="a_Node000006"><a xlink:href="vec2_8h.html" target="_top" xlink:title=" ">
<polygon fill="white" stroke="#666666" points="814.92,-76 769.67,-76 769.67,-56 814.92,-56 814.92,-76"/>
<text xml:space="preserve" text-anchor="middle" x="792.29" y="-62.5" font-family="Helvetica,sans-Serif" font-size="10.00">vec2.h</text>
</a>
</g>
</g>
<!-- Node3&#45;&gt;Node6 -->
<g id="edge5_Node000003_Node000006" class="edge">
<title>Node3&#45;&gt;Node6</title>
<g id="a_edge5_Node000003_Node000006"><a xlink:title=" ">
<path fill="none" stroke="#63b8ff" d="M631.56,-115.22C661.8,-106.15 720.84,-88.43 758.34,-77.19"/>
<polygon fill="#63b8ff" stroke="#63b8ff" points="759.2,-80.58 767.77,-74.36 757.19,-73.88 759.2,-80.58"/>
</a>
</g>
</g>
<!-- Node7&#45;&gt;Node4 -->
<g id="edge7_Node000007_Node000004" class="edge">
<title>Node7&#45;&gt;Node4</title>
<g id="a_edge7_Node000007_Node000004"><a xlink:title=" ">
<path fill="none" stroke="#63b8ff" d="M539.67,-279.66C541.89,-266.56 547.09,-242.27 557.29,-224 584.14,-175.92 620.53,-183.4 640.29,-132 646.48,-115.91 637.48,-97.95 628.08,-84.98"/>
<polygon fill="#63b8ff" stroke="#63b8ff" points="630.97,-82.99 622,-77.35 625.49,-87.35 630.97,-82.99"/>
</a>
</g>
</g>
<!-- Node7&#45;&gt;Node5 -->
<g id="edge8_Node000007_Node000005" class="edge">
<title>Node7&#45;&gt;Node5</title>
<g id="a_edge8_Node000007_Node000005"><a xlink:title=" ">
<path fill="none" stroke="#63b8ff" d="M494.84,-283.01C378.28,-265.96 63.47,-213.07 4.29,-132 -0.95,-124.82 -1.67,-118.59 4.29,-112 11.43,-104.12 325.43,-77.9 427.56,-69.57"/>
<polygon fill="#63b8ff" stroke="#63b8ff" points="427.74,-73.06 437.42,-68.76 427.17,-66.09 427.74,-73.06"/>
</a>
</g>
</g>
<!-- Node7&#45;&gt;Node8 -->
<g id="edge9_Node000007_Node000008" class="edge">
<title>Node7&#45;&gt;Node8</title>
<g id="a_edge9_Node000007_Node000008"><a xlink:title=" ">
<path fill="none" stroke="#63b8ff" d="M510.89,-279.6C429.12,-251.56 186.76,-168.43 92.45,-136.09"/>
<polygon fill="#63b8ff" stroke="#63b8ff" points="93.73,-132.82 83.13,-132.89 91.46,-139.45 93.73,-132.82"/>
</a>
</g>
</g>
<!-- Node7&#45;&gt;Node9 -->
<g id="edge10_Node000007_Node000009" class="edge">
<title>Node7&#45;&gt;Node9</title>
<g id="a_edge10_Node000007_Node000009"><a xlink:title=" ">
<path fill="none" stroke="#63b8ff" d="M581.91,-280.65C608.89,-273.95 643.23,-262.53 669.29,-244 707.96,-216.51 738.7,-168.92 753.91,-142.35"/>
<polygon fill="#63b8ff" stroke="#63b8ff" points="756.92,-144.14 758.71,-133.7 750.8,-140.74 756.92,-144.14"/>
</a>
</g>
</g>
<!-- Node10 -->
<g id="Node000010" class="node">
<title>Node10</title>
<g id="a_Node000010"><a xlink:href="all_8h.html" target="_top" xlink:title=" ">
<polygon fill="white" stroke="#666666" points="510.42,-244 438.17,-244 438.17,-224 510.42,-224 510.42,-244"/>
<text xml:space="preserve" text-anchor="middle" x="474.29" y="-230.5" font-family="Helvetica,sans-Serif" font-size="10.00">../tables/all.h</text>
</a>
</g>
</g>
<!-- Node7&#45;&gt;Node10 -->
<g id="edge11_Node000007_Node000010" class="edge">
<title>Node7&#45;&gt;Node10</title>
<g id="a_edge11_Node000007_Node000010"><a xlink:title=" ">
<path fill="none" stroke="#63b8ff" d="M527.15,-279.59C517.97,-271.85 504.74,-260.69 493.81,-251.47"/>
<polygon fill="#63b8ff" stroke="#63b8ff" points="496.37,-249.05 486.47,-245.27 491.86,-254.4 496.37,-249.05"/>
</a>
</g>
</g>
<!-- Node22 -->
<g id="Node000022" class="node">
<title>Node22</title>
<g id="a_Node000022"><a xlink:href="_s_d_l__def_8h.html" target="_top" xlink:title=" ">
<polygon fill="white" stroke="#666666" points="659.92,-244 566.67,-244 566.67,-224 659.92,-224 659.92,-244"/>
<text xml:space="preserve" text-anchor="middle" x="613.29" y="-230.5" font-family="Helvetica,sans-Serif" font-size="10.00">../core/SDL_def.h</text>
</a>
</g>
</g>
<!-- Node7&#45;&gt;Node22 -->
<g id="edge35_Node000007_Node000022" class="edge">
<title>Node7&#45;&gt;Node22</title>
<g id="a_edge35_Node000007_Node000022"><a xlink:title=" ">
<path fill="none" stroke="#63b8ff" d="M551.36,-279.59C562.26,-271.74 578.04,-260.38 590.95,-251.09"/>
<polygon fill="#63b8ff" stroke="#63b8ff" points="592.83,-254.05 598.9,-245.36 588.74,-248.37 592.83,-254.05"/>
</a>
</g>
</g>
<!-- Node11 -->
<g id="Node000011" class="node">
<title>Node11</title>
<g id="a_Node000011"><a xlink:href="_entity_table_8h.html" target="_top" xlink:title=" ">
<polygon fill="white" stroke="#666666" points="372.79,-188 299.79,-188 299.79,-168 372.79,-168 372.79,-188"/>
<text xml:space="preserve" text-anchor="middle" x="336.29" y="-174.5" font-family="Helvetica,sans-Serif" font-size="10.00">EntityTable.h</text>
</a>
</g>
</g>
<!-- Node10&#45;&gt;Node11 -->
<g id="edge12_Node000010_Node000011" class="edge">
<title>Node10&#45;&gt;Node11</title>
<g id="a_edge12_Node000010_Node000011"><a xlink:title=" ">
<path fill="none" stroke="#63b8ff" d="M450.26,-223.59C428.33,-215.01 395.67,-202.23 370.92,-192.55"/>
<polygon fill="#63b8ff" stroke="#63b8ff" points="372.52,-189.42 361.93,-189.03 369.97,-195.93 372.52,-189.42"/>
</a>
</g>
</g>
<!-- Node20 -->
<g id="Node000020" class="node">
<title>Node20</title>
<g id="a_Node000020"><a xlink:href="_param_table_8h.html" target="_top" xlink:title=" ">
<polygon fill="white" stroke="#666666" points="546.29,-188 470.29,-188 470.29,-168 546.29,-168 546.29,-188"/>
<text xml:space="preserve" text-anchor="middle" x="508.29" y="-174.5" font-family="Helvetica,sans-Serif" font-size="10.00">ParamTable.h</text>
</a>
</g>
</g>
<!-- Node10&#45;&gt;Node20 -->
<g id="edge25_Node000010_Node000020" class="edge">
<title>Node10&#45;&gt;Node20</title>
<g id="a_edge25_Node000010_Node000020"><a xlink:title=" ">
<path fill="none" stroke="#63b8ff" d="M480.22,-223.59C484.65,-216.55 490.87,-206.67 496.33,-198"/>
<polygon fill="#63b8ff" stroke="#63b8ff" points="499.27,-199.91 501.63,-189.58 493.34,-196.18 499.27,-199.91"/>
</a>
</g>
</g>
<!-- Node11&#45;&gt;Node3 -->
<g id="edge19_Node000011_Node000003" class="edge">
<title>Node11&#45;&gt;Node3</title>
<g id="a_edge19_Node000011_Node000003"><a xlink:title=" ">
<path fill="none" stroke="#63b8ff" d="M373.23,-169.77C428.31,-159 530.92,-138.92 581.91,-128.94"/>
<polygon fill="#63b8ff" stroke="#63b8ff" points="582.5,-132.4 591.64,-127.04 581.16,-125.53 582.5,-132.4"/>
</a>
</g>
</g>
<!-- Node11&#45;&gt;Node4 -->
<g id="edge13_Node000011_Node000004" class="edge">
<title>Node11&#45;&gt;Node4</title>
<g id="a_edge13_Node000011_Node000004"><a xlink:title=" ">
<path fill="none" stroke="#63b8ff" d="M341.76,-167.77C350.77,-153.4 370.18,-125.9 394.29,-112 452.72,-78.32 532.79,-69.65 577.84,-67.54"/>
<polygon fill="#63b8ff" stroke="#63b8ff" points="577.94,-71.04 587.8,-67.17 577.67,-64.04 577.94,-71.04"/>
</a>
</g>
</g>
<!-- Node11&#45;&gt;Node8 -->
<g id="edge16_Node000011_Node000008" class="edge">
<title>Node11&#45;&gt;Node8</title>
<g id="a_edge16_Node000011_Node000008"><a xlink:title=" ">
<path fill="none" stroke="#63b8ff" d="M299.43,-169.94C250.26,-160.53 162.93,-143.8 106.87,-133.07"/>
<polygon fill="#63b8ff" stroke="#63b8ff" points="107.72,-129.67 97.24,-131.22 106.4,-136.54 107.72,-129.67"/>
</a>
</g>
</g>
<!-- Node12 -->
<g id="Node000012" class="node">
<title>Node12</title>
<g id="a_Node000012"><a xlink:title=" ">
<polygon fill="#e0e0e0" stroke="#999999" points="461.67,-132 402.92,-132 402.92,-112 461.67,-112 461.67,-132"/>
<text xml:space="preserve" text-anchor="middle" x="432.29" y="-118.5" font-family="Helvetica,sans-Serif" font-size="10.00">stdexcept</text>
</a>
</g>
</g>
<!-- Node11&#45;&gt;Node12 -->
<g id="edge14_Node000011_Node000012" class="edge">
<title>Node11&#45;&gt;Node12</title>
<g id="a_edge14_Node000011_Node000012"><a xlink:title=" ">
<path fill="none" stroke="#63b8ff" d="M353.02,-167.59C367.52,-159.44 388.77,-147.48 405.62,-138"/>
<polygon fill="#63b8ff" stroke="#63b8ff" points="407.12,-141.17 414.12,-133.22 403.69,-135.07 407.12,-141.17"/>
</a>
</g>
</g>
<!-- Node13 -->
<g id="Node000013" class="node">
<title>Node13</title>
<g id="a_Node000013"><a xlink:title=" ">
<polygon fill="#e0e0e0" stroke="#999999" points="329.04,-76 263.54,-76 263.54,-56 329.04,-56 329.04,-76"/>
<text xml:space="preserve" text-anchor="middle" x="296.29" y="-62.5" font-family="Helvetica,sans-Serif" font-size="10.00">string_view</text>
</a>
</g>
</g>
<!-- Node11&#45;&gt;Node13 -->
<g id="edge15_Node000011_Node000013" class="edge">
<title>Node11&#45;&gt;Node13</title>
<g id="a_edge15_Node000011_Node000013"><a xlink:title=" ">
<path fill="none" stroke="#63b8ff" d="M299.74,-170.81C277.3,-164.92 250.25,-153.58 236.29,-132 224.04,-113.05 245.63,-94.44 266.24,-82.02"/>
<polygon fill="#63b8ff" stroke="#63b8ff" points="267.81,-85.15 274.81,-77.19 264.38,-79.05 267.81,-85.15"/>
</a>
</g>
</g>
<!-- Node14 -->
<g id="Node000014" class="node">
<title>Node14</title>
<g id="a_Node000014"><a xlink:href="rapid_string_8h.html" target="_top" xlink:title=" ">
<polygon fill="white" stroke="#666666" points="347.04,-132 245.54,-132 245.54,-112 347.04,-112 347.04,-132"/>
<text xml:space="preserve" text-anchor="middle" x="296.29" y="-118.5" font-family="Helvetica,sans-Serif" font-size="10.00">../core/rapidString.h</text>
</a>
</g>
</g>
<!-- Node11&#45;&gt;Node14 -->
<g id="edge17_Node000011_Node000014" class="edge">
<title>Node11&#45;&gt;Node14</title>
<g id="a_edge17_Node000011_Node000014"><a xlink:title=" ">
<path fill="none" stroke="#63b8ff" d="M329.33,-167.59C323.99,-160.39 316.47,-150.23 309.95,-141.43"/>
<polygon fill="#63b8ff" stroke="#63b8ff" points="312.85,-139.47 304.08,-133.51 307.22,-143.63 312.85,-139.47"/>
</a>
</g>
</g>
<!-- Node15 -->
<g id="Node000015" class="node">
<title>Node15</title>
<g id="a_Node000015"><a xlink:href="fsutil_8h.html" target="_top" xlink:title=" ">
<polygon fill="white" stroke="#666666" points="189.29,-132 113.29,-132 113.29,-112 189.29,-112 189.29,-132"/>
<text xml:space="preserve" text-anchor="middle" x="151.29" y="-118.5" font-family="Helvetica,sans-Serif" font-size="10.00">../core/fsutil.h</text>
</a>
</g>
</g>
<!-- Node11&#45;&gt;Node15 -->
<g id="edge20_Node000011_Node000015" class="edge">
<title>Node11&#45;&gt;Node15</title>
<g id="a_edge20_Node000011_Node000015"><a xlink:title=" ">
<path fill="none" stroke="#63b8ff" d="M304.07,-167.59C273.75,-158.74 228.12,-145.43 194.63,-135.65"/>
<polygon fill="#63b8ff" stroke="#63b8ff" points="195.8,-132.35 185.22,-132.9 193.84,-139.07 195.8,-132.35"/>
</a>
</g>
</g>
<!-- Node14&#45;&gt;Node13 -->
<g id="edge18_Node000014_Node000013" class="edge">
<title>Node14&#45;&gt;Node13</title>
<g id="a_edge18_Node000014_Node000013"><a xlink:title=" ">
<path fill="none" stroke="#63b8ff" d="M296.29,-111.59C296.29,-105.01 296.29,-95.96 296.29,-87.73"/>
<polygon fill="#63b8ff" stroke="#63b8ff" points="299.79,-87.81 296.29,-77.81 292.79,-87.81 299.79,-87.81"/>
</a>
</g>
</g>
<!-- Node16 -->
<g id="Node000016" class="node">
<title>Node16</title>
<g id="a_Node000016"><a xlink:href="json_8h.html" target="_top" xlink:title=" ">
<polygon fill="white" stroke="#666666" points="241.42,-76 199.17,-76 199.17,-56 241.42,-56 241.42,-76"/>
<text xml:space="preserve" text-anchor="middle" x="220.29" y="-62.5" font-family="Helvetica,sans-Serif" font-size="10.00">json.h</text>
</a>
</g>
</g>
<!-- Node15&#45;&gt;Node16 -->
<g id="edge21_Node000015_Node000016" class="edge">
<title>Node15&#45;&gt;Node16</title>
<g id="a_edge21_Node000015_Node000016"><a xlink:title=" ">
<path fill="none" stroke="#63b8ff" d="M163.31,-111.59C173.31,-103.77 187.76,-92.46 199.6,-83.19"/>
<polygon fill="#63b8ff" stroke="#63b8ff" points="201.5,-86.15 207.22,-77.23 197.19,-80.64 201.5,-86.15"/>
</a>
</g>
</g>
<!-- Node19 -->
<g id="Node000019" class="node">
<title>Node19</title>
<g id="a_Node000019"><a xlink:title=" ">
<polygon fill="#e0e0e0" stroke="#999999" points="175.79,-76 126.79,-76 126.79,-56 175.79,-56 175.79,-76"/>
<text xml:space="preserve" text-anchor="middle" x="151.29" y="-62.5" font-family="Helvetica,sans-Serif" font-size="10.00">fstream</text>
</a>
</g>
</g>
<!-- Node15&#45;&gt;Node19 -->
<g id="edge24_Node000015_Node000019" class="edge">
<title>Node15&#45;&gt;Node19</title>
<g id="a_edge24_Node000015_Node000019"><a xlink:title=" ">
<path fill="none" stroke="#63b8ff" d="M151.29,-111.59C151.29,-105.01 151.29,-95.96 151.29,-87.73"/>
<polygon fill="#63b8ff" stroke="#63b8ff" points="154.79,-87.81 151.29,-77.81 147.79,-87.81 154.79,-87.81"/>
</a>
</g>
</g>
<!-- Node17 -->
<g id="Node000017" class="node">
<title>Node17</title>
<g id="a_Node000017"><a xlink:title=" ">
<polygon fill="#e0e0e0" stroke="#999999" points="205.79,-20 96.79,-20 96.79,0 205.79,0 205.79,-20"/>
<text xml:space="preserve" text-anchor="middle" x="151.29" y="-6.5" font-family="Helvetica,sans-Serif" font-size="10.00">rapidjson/document.h</text>
</a>
</g>
</g>
<!-- Node16&#45;&gt;Node17 -->
<g id="edge22_Node000016_Node000017" class="edge">
<title>Node16&#45;&gt;Node17</title>
<g id="a_edge22_Node000016_Node000017"><a xlink:title=" ">
<path fill="none" stroke="#63b8ff" d="M208.28,-55.59C198.28,-47.77 183.83,-36.46 171.98,-27.19"/>
<polygon fill="#63b8ff" stroke="#63b8ff" points="174.4,-24.64 164.37,-21.23 170.09,-30.15 174.4,-24.64"/>
</a>
</g>
</g>
<!-- Node18 -->
<g id="Node000018" class="node">
<title>Node18</title>
<g id="a_Node000018"><a xlink:title=" ">
<polygon fill="#e0e0e0" stroke="#999999" points="356.79,-20 223.79,-20 223.79,0 356.79,0 356.79,-20"/>
<text xml:space="preserve" text-anchor="middle" x="290.29" y="-6.5" font-family="Helvetica,sans-Serif" font-size="10.00">rapidjson/istreamwrapper.h</text>
</a>
</g>
</g>
<!-- Node16&#45;&gt;Node18 -->
<g id="edge23_Node000016_Node000018" class="edge">
<title>Node16&#45;&gt;Node18</title>
<g id="a_edge23_Node000016_Node000018"><a xlink:title=" ">
<path fill="none" stroke="#63b8ff" d="M232.49,-55.59C242.63,-47.77 257.28,-36.46 269.3,-27.19"/>
<polygon fill="#63b8ff" stroke="#63b8ff" points="271.26,-30.1 277.04,-21.22 266.99,-24.56 271.26,-30.1"/>
</a>
</g>
</g>
<!-- Node20&#45;&gt;Node3 -->
<g id="edge32_Node000020_Node000003" class="edge">
<title>Node20&#45;&gt;Node3</title>
<g id="a_edge32_Node000020_Node000003"><a xlink:title=" ">
<path fill="none" stroke="#63b8ff" d="M526.41,-167.59C542.27,-159.36 565.58,-147.26 583.91,-137.74"/>
<polygon fill="#63b8ff" stroke="#63b8ff" points="585.43,-140.89 592.69,-133.18 582.21,-134.68 585.43,-140.89"/>
</a>
</g>
</g>
<!-- Node20&#45;&gt;Node4 -->
<g id="edge26_Node000020_Node000004" class="edge">
<title>Node20&#45;&gt;Node4</title>
<g id="a_edge26_Node000020_Node000004"><a xlink:title=" ">
<path fill="none" stroke="#63b8ff" d="M517.16,-167.62C534.58,-149.19 573.52,-108.01 595.8,-84.44"/>
<polygon fill="#63b8ff" stroke="#63b8ff" points="598.08,-87.13 602.41,-77.45 593,-82.32 598.08,-87.13"/>
</a>
</g>
</g>
<!-- Node20&#45;&gt;Node8 -->
<g id="edge29_Node000020_Node000008" class="edge">
<title>Node20&#45;&gt;Node8</title>
<g id="a_edge29_Node000020_Node000008"><a xlink:title=" ">
<path fill="none" stroke="#63b8ff" d="M470.03,-173.6C400.07,-167.2 246.58,-152.3 107.29,-132.36"/>
<polygon fill="#63b8ff" stroke="#63b8ff" points="107.9,-128.91 97.5,-130.94 106.9,-135.84 107.9,-128.91"/>
</a>
</g>
</g>
<!-- Node20&#45;&gt;Node9 -->
<g id="edge30_Node000020_Node000009" class="edge">
<title>Node20&#45;&gt;Node9</title>
<g id="a_edge30_Node000020_Node000009"><a xlink:title=" ">
<path fill="none" stroke="#63b8ff" d="M546.53,-170.53C589.46,-163.01 661.42,-149.67 731.61,-132.5"/>
<polygon fill="#63b8ff" stroke="#63b8ff" points="732.07,-135.99 740.94,-130.19 730.39,-129.2 732.07,-135.99"/>
</a>
</g>
</g>
<!-- Node20&#45;&gt;Node12 -->
<g id="edge27_Node000020_Node000012" class="edge">
<title>Node20&#45;&gt;Node12</title>
<g id="a_edge27_Node000020_Node000012"><a xlink:title=" ">
<path fill="none" stroke="#63b8ff" d="M495.06,-167.59C484.01,-159.74 468.01,-148.38 454.94,-139.09"/>
<polygon fill="#63b8ff" stroke="#63b8ff" points="457.05,-136.3 446.87,-133.36 452.99,-142 457.05,-136.3"/>
</a>
</g>
</g>
<!-- Node20&#45;&gt;Node13 -->
<g id="edge28_Node000020_Node000013" class="edge">
<title>Node20&#45;&gt;Node13</title>
<g id="a_edge28_Node000020_Node000013"><a xlink:title=" ">
<path fill="none" stroke="#63b8ff" d="M510.67,-167.74C513.64,-153.83 516.83,-127.53 503.29,-112 482.36,-87.98 394.92,-75.86 340.6,-70.53"/>
<polygon fill="#63b8ff" stroke="#63b8ff" points="341.01,-67.06 330.73,-69.61 340.36,-74.03 341.01,-67.06"/>
</a>
</g>
</g>
<!-- Node20&#45;&gt;Node14 -->
<g id="edge34_Node000020_Node000014" class="edge">
<title>Node20&#45;&gt;Node14</title>
<g id="a_edge34_Node000020_Node000014"><a xlink:title=" ">
<path fill="none" stroke="#63b8ff" d="M471.37,-167.59C436.17,-158.63 382.97,-145.08 344.45,-135.27"/>
<polygon fill="#63b8ff" stroke="#63b8ff" points="345.53,-131.93 334.98,-132.85 343.8,-138.71 345.53,-131.93"/>
</a>
</g>
</g>
<!-- Node20&#45;&gt;Node16 -->
<g id="edge33_Node000020_Node000016" class="edge">
<title>Node20&#45;&gt;Node16</title>
<g id="a_edge33_Node000020_Node000016"><a xlink:title=" ">
<path fill="none" stroke="#63b8ff" d="M505.67,-167.71C501.06,-153.26 490.1,-125.65 470.29,-112 390.16,-56.77 349.44,-96.47 254.29,-76 253.79,-75.89 253.28,-75.78 252.76,-75.66"/>
<polygon fill="#63b8ff" stroke="#63b8ff" points="253.82,-72.32 243.28,-73.37 252.17,-79.12 253.82,-72.32"/>
</a>
</g>
</g>
<!-- Node20&#45;&gt;Node21 -->
<g id="edge31_Node000020_Node000021" class="edge">
<title>Node20&#45;&gt;Node21</title>
<g id="a_edge31_Node000020_Node000021"><a xlink:title=" ">
<path fill="none" stroke="#63b8ff" d="M542.78,-167.59C580.67,-157.26 640.9,-140.84 676.71,-131.07"/>
<polygon fill="#63b8ff" stroke="#63b8ff" points="677.24,-134.55 685.97,-128.54 675.4,-127.8 677.24,-134.55"/>
</a>
</g>
</g>
<!-- Node24&#45;&gt;Node6 -->
<g id="edge41_Node000024_Node000006" class="edge">
<title>Node24&#45;&gt;Node6</title>
<g id="a_edge41_Node000024_Node000006"><a xlink:title=" ">
<path fill="none" stroke="#63b8ff" d="M907.52,-279.85C913.79,-251.78 928.81,-165.51 891.29,-112 876.25,-90.54 848.41,-79.13 826.08,-73.17"/>
<polygon fill="#63b8ff" stroke="#63b8ff" points="827.01,-69.79 816.47,-70.88 825.39,-76.6 827.01,-69.79"/>
</a>
</g>
</g>
<!-- Node25&#45;&gt;Node3 -->
<g id="edge46_Node000025_Node000003" class="edge">
<title>Node25&#45;&gt;Node3</title>
<g id="a_edge46_Node000025_Node000003"><a xlink:title=" ">
<path fill="none" stroke="#63b8ff" d="M796.2,-167.53C752.41,-156.93 682.37,-139.97 642.55,-130.33"/>
<polygon fill="#63b8ff" stroke="#63b8ff" points="643.48,-126.95 632.94,-128 641.83,-133.75 643.48,-126.95"/>
</a>
</g>
</g>
<!-- Node25&#45;&gt;Node4 -->
<g id="edge44_Node000025_Node000004" class="edge">
<title>Node25&#45;&gt;Node4</title>
<g id="a_edge44_Node000025_Node000004"><a xlink:title=" ">
<path fill="none" stroke="#63b8ff" d="M832.26,-167.88C827.04,-153.66 814.99,-126.37 795.29,-112 750.86,-79.59 685.87,-70.34 646.48,-67.81"/>
<polygon fill="#63b8ff" stroke="#63b8ff" points="646.81,-64.32 636.64,-67.3 646.45,-71.31 646.81,-64.32"/>
</a>
</g>
</g>
<!-- Node25&#45;&gt;Node9 -->
<g id="edge43_Node000025_Node000009" class="edge">
<title>Node25&#45;&gt;Node9</title>
<g id="a_edge43_Node000025_Node000009"><a xlink:title=" ">
<path fill="none" stroke="#63b8ff" d="M822.93,-167.59C812.64,-159.77 797.78,-148.46 785.58,-139.19"/>
<polygon fill="#63b8ff" stroke="#63b8ff" points="787.8,-136.48 777.72,-133.21 783.57,-142.05 787.8,-136.48"/>
</a>
</g>
</g>
<!-- Node26 -->
<g id="Node000026" class="node">
<title>Node26</title>
<g id="a_Node000026"><a xlink:title=" ">
<polygon fill="#e0e0e0" stroke="#999999" points="881.92,-132 842.67,-132 842.67,-112 881.92,-112 881.92,-132"/>
<text xml:space="preserve" text-anchor="middle" x="862.29" y="-118.5" font-family="Helvetica,sans-Serif" font-size="10.00">limits</text>
</a>
</g>
</g>
<!-- Node25&#45;&gt;Node26 -->
<g id="edge45_Node000025_Node000026" class="edge">
<title>Node25&#45;&gt;Node26</title>
<g id="a_edge45_Node000025_Node000026"><a xlink:title=" ">
<path fill="none" stroke="#63b8ff" d="M840,-167.59C843.44,-160.7 848.24,-151.1 852.51,-142.57"/>
<polygon fill="#63b8ff" stroke="#63b8ff" points="855.63,-144.16 856.97,-133.65 849.37,-141.03 855.63,-144.16"/>
</a>
</g>
</g>
</g>
</svg>
