<?xml version="1.0" encoding="UTF-8" standalone="no"?>
<!DOCTYPE svg PUBLIC "-//W3C//DTD SVG 1.1//EN"
 "http://www.w3.org/Graphics/SVG/1.1/DTD/svg11.dtd">
<!-- Generated by graphviz version 14.1.1 (0)
 -->
<!-- Title: collider.h Pages: 1 -->
<svg width="462pt" height="196pt"
 viewBox="0.00 0.00 462.00 196.00" xmlns="http://www.w3.org/2000/svg" xmlns:xlink="http://www.w3.org/1999/xlink">

<svg id="main" version="1.1" xmlns="http://www.w3.org/2000/svg" xmlns:xlink="http://www.w3.org/1999/xlink" xml:space="preserve">

<style type="text/css"><![CDATA[
.node, .edge {opacity: 0.7;}
.node.selected, .edge.selected {opacity: 1;}
.edge:hover path { stroke: red; }
.edge:hover polygon { stroke: red; fill: red; }
]]></style>
<script type="application/ecmascript" xlink:href="svg.min.js"/>
<svg id="graph" class="graph">
<g id="graph0" class="graph" transform="scale(1 1) rotate(0) translate(4 192)">
<title>collider.h</title>
<!-- Node1 -->
<g id="Node000001" class="node">
<title>Node1</title>
<g id="a_Node000001"><a xlink:title=" ">
<polygon fill="#999999" stroke="#666666" points="178.74,-188 123.74,-188 123.74,-168 178.74,-168 178.74,-188"/>
<text xml:space="preserve" text-anchor="middle" x="151.24" y="-174.5" font-family="Helvetica,sans-Serif" font-size="10.00">collider.h</text>
</a>
</g>
</g>
<!-- Node2 -->
<g id="Node000002" class="node">
<title>Node2</title>
<g id="a_Node000002"><a xlink:href="_game_8cpp.html" target="_top" xlink:title=" ">
<polygon fill="white" stroke="#666666" points="96.74,-20 35.74,-20 35.74,0 96.74,0 96.74,-20"/>
<text xml:space="preserve" text-anchor="middle" x="66.24" y="-6.5" font-family="Helvetica,sans-Serif" font-size="10.00">Game.cpp</text>
</a>
</g>
</g>
<!-- Node1&#45;&gt;Node2 -->
<g id="edge1_Node000001_Node000002" class="edge">
<title>Node1&#45;&gt;Node2</title>
<g id="a_edge1_Node000001_Node000002"><a xlink:title=" ">
<path fill="none" stroke="#63b8ff" d="M112.14,-176.62C78.53,-173.96 31.86,-164.19 8.24,-132 -19.32,-94.43 31.59,-41.71 55.18,-20.44"/>
<polygon fill="#63b8ff" stroke="#63b8ff" points="111.72,-180.1 121.91,-177.2 112.13,-173.12 111.72,-180.1"/>
</a>
</g>
</g>
<!-- Node3 -->
<g id="Node000003" class="node">
<title>Node3</title>
<g id="a_Node000003"><a xlink:href="_game_8h.html" target="_top" xlink:title=" ">
<polygon fill="white" stroke="#666666" points="224.49,-76 173.99,-76 173.99,-56 224.49,-56 224.49,-76"/>
<text xml:space="preserve" text-anchor="middle" x="199.24" y="-62.5" font-family="Helvetica,sans-Serif" font-size="10.00">Game.h</text>
</a>
</g>
</g>
<!-- Node1&#45;&gt;Node3 -->
<g id="edge2_Node000001_Node000003" class="edge">
<title>Node1&#45;&gt;Node3</title>
<g id="a_edge2_Node000001_Node000003"><a xlink:title=" ">
<path fill="none" stroke="#63b8ff" d="M112.15,-172.35C63.61,-164.97 -9.6,-147.61 18.24,-112 37.29,-87.64 128.67,-74.58 173.85,-69.52"/>
<polygon fill="#63b8ff" stroke="#63b8ff" points="111.39,-175.78 121.79,-173.72 112.38,-168.85 111.39,-175.78"/>
</a>
</g>
</g>
<!-- Node5 -->
<g id="Node000005" class="node">
<title>Node5</title>
<g id="a_Node000005"><a xlink:href="collider_8cpp.html" target="_top" xlink:title=" ">
<polygon fill="white" stroke="#666666" points="92.99,-132 27.49,-132 27.49,-112 92.99,-112 92.99,-132"/>
<text xml:space="preserve" text-anchor="middle" x="60.24" y="-118.5" font-family="Helvetica,sans-Serif" font-size="10.00">collider.cpp</text>
</a>
</g>
</g>
<!-- Node1&#45;&gt;Node5 -->
<g id="edge5_Node000001_Node000005" class="edge">
<title>Node1&#45;&gt;Node5</title>
<g id="a_edge5_Node000001_Node000005"><a xlink:title=" ">
<path fill="none" stroke="#63b8ff" d="M125.65,-161.81C109.77,-152.39 89.87,-140.58 76.22,-132.48"/>
<polygon fill="#63b8ff" stroke="#63b8ff" points="123.71,-164.73 134.09,-166.82 127.28,-158.71 123.71,-164.73"/>
</a>
</g>
</g>
<!-- Node6 -->
<g id="Node000006" class="node">
<title>Node6</title>
<g id="a_Node000006"><a xlink:href="enemy_bezier_8h.html" target="_top" xlink:title=" ">
<polygon fill="white" stroke="#666666" points="191.87,-132 110.62,-132 110.62,-112 191.87,-112 191.87,-132"/>
<text xml:space="preserve" text-anchor="middle" x="151.24" y="-118.5" font-family="Helvetica,sans-Serif" font-size="10.00">enemyBezier.h</text>
</a>
</g>
</g>
<!-- Node1&#45;&gt;Node6 -->
<g id="edge6_Node000001_Node000006" class="edge">
<title>Node1&#45;&gt;Node6</title>
<g id="a_edge6_Node000001_Node000006"><a xlink:title=" ">
<path fill="none" stroke="#63b8ff" d="M151.24,-156.13C151.24,-147.9 151.24,-138.85 151.24,-132.3"/>
<polygon fill="#63b8ff" stroke="#63b8ff" points="147.74,-156.08 151.24,-166.08 154.74,-156.08 147.74,-156.08"/>
</a>
</g>
</g>
<!-- Node7 -->
<g id="Node000007" class="node">
<title>Node7</title>
<g id="a_Node000007"><a xlink:href="player_8h.html" target="_top" xlink:title=" ">
<polygon fill="white" stroke="#666666" points="448.49,-132 397.99,-132 397.99,-112 448.49,-112 448.49,-132"/>
<text xml:space="preserve" text-anchor="middle" x="423.24" y="-118.5" font-family="Helvetica,sans-Serif" font-size="10.00">player.h</text>
</a>
</g>
</g>
<!-- Node1&#45;&gt;Node7 -->
<g id="edge8_Node000001_Node000007" class="edge">
<title>Node1&#45;&gt;Node7</title>
<g id="a_edge8_Node000001_Node000007"><a xlink:title=" ">
<path fill="none" stroke="#63b8ff" d="M190.48,-170.47C237.81,-162.39 319.68,-147.76 389.24,-132 391.98,-131.38 394.84,-130.69 397.67,-129.98"/>
<polygon fill="#63b8ff" stroke="#63b8ff" points="189.99,-167.01 180.72,-172.13 191.16,-173.91 189.99,-167.01"/>
</a>
</g>
</g>
<!-- Node9 -->
<g id="Node000009" class="node">
<title>Node9</title>
<g id="a_Node000009"><a xlink:href="player_bullet_8h.html" target="_top" xlink:title=" ">
<polygon fill="white" stroke="#666666" points="284.87,-132 209.62,-132 209.62,-112 284.87,-112 284.87,-132"/>
<text xml:space="preserve" text-anchor="middle" x="247.24" y="-118.5" font-family="Helvetica,sans-Serif" font-size="10.00">playerBullet.h</text>
</a>
</g>
</g>
<!-- Node1&#45;&gt;Node9 -->
<g id="edge11_Node000001_Node000009" class="edge">
<title>Node1&#45;&gt;Node9</title>
<g id="a_edge11_Node000001_Node000009"><a xlink:title=" ">
<path fill="none" stroke="#63b8ff" d="M177.77,-162.08C194.59,-152.62 215.85,-140.66 230.39,-132.48"/>
<polygon fill="#63b8ff" stroke="#63b8ff" points="176.28,-158.9 169.28,-166.85 179.72,-165 176.28,-158.9"/>
</a>
</g>
</g>
<!-- Node10 -->
<g id="Node000010" class="node">
<title>Node10</title>
<g id="a_Node000010"><a xlink:href="simple_bullet_8h.html" target="_top" xlink:title=" ">
<polygon fill="white" stroke="#666666" points="379.99,-132 302.49,-132 302.49,-112 379.99,-112 379.99,-132"/>
<text xml:space="preserve" text-anchor="middle" x="341.24" y="-118.5" font-family="Helvetica,sans-Serif" font-size="10.00">simpleBullet.h</text>
</a>
</g>
</g>
<!-- Node1&#45;&gt;Node10 -->
<g id="edge13_Node000001_Node000010" class="edge">
<title>Node1&#45;&gt;Node10</title>
<g id="a_edge13_Node000001_Node000010"><a xlink:title=" ">
<path fill="none" stroke="#63b8ff" d="M189.53,-166.12C224.19,-156.27 274.75,-141.9 307.82,-132.5"/>
<polygon fill="#63b8ff" stroke="#63b8ff" points="188.99,-162.63 180.33,-168.73 190.9,-169.37 188.99,-162.63"/>
</a>
</g>
</g>
<!-- Node3&#45;&gt;Node2 -->
<g id="edge3_Node000003_Node000002" class="edge">
<title>Node3&#45;&gt;Node2</title>
<g id="a_edge3_Node000003_Node000002"><a xlink:title=" ">
<path fill="none" stroke="#63b8ff" d="M165.43,-51.27C141.71,-41.64 110.59,-29.01 89.59,-20.48"/>
<polygon fill="#63b8ff" stroke="#63b8ff" points="164.09,-54.51 174.67,-55.02 166.73,-48.02 164.09,-54.51"/>
</a>
</g>
</g>
<!-- Node4 -->
<g id="Node000004" class="node">
<title>Node4</title>
<g id="a_Node000004"><a xlink:href="main_8cpp.html" target="_top" xlink:title=" ">
<polygon fill="white" stroke="#666666" points="227.12,-20 171.37,-20 171.37,0 227.12,0 227.12,-20"/>
<text xml:space="preserve" text-anchor="middle" x="199.24" y="-6.5" font-family="Helvetica,sans-Serif" font-size="10.00">main.cpp</text>
</a>
</g>
</g>
<!-- Node3&#45;&gt;Node4 -->
<g id="edge4_Node000003_Node000004" class="edge">
<title>Node3&#45;&gt;Node4</title>
<g id="a_edge4_Node000003_Node000004"><a xlink:title=" ">
<path fill="none" stroke="#63b8ff" d="M199.24,-44.13C199.24,-35.9 199.24,-26.85 199.24,-20.3"/>
<polygon fill="#63b8ff" stroke="#63b8ff" points="195.74,-44.08 199.24,-54.08 202.74,-44.08 195.74,-44.08"/>
</a>
</g>
</g>
<!-- Node6&#45;&gt;Node3 -->
<g id="edge7_Node000006_Node000003" class="edge">
<title>Node6&#45;&gt;Node3</title>
<g id="a_edge7_Node000006_Node000003"><a xlink:title=" ">
<path fill="none" stroke="#63b8ff" d="M167.24,-103C175.19,-94.06 184.47,-83.62 190.98,-76.3"/>
<polygon fill="#63b8ff" stroke="#63b8ff" points="164.64,-100.66 160.61,-110.46 169.87,-105.31 164.64,-100.66"/>
</a>
</g>
</g>
<!-- Node7&#45;&gt;Node3 -->
<g id="edge9_Node000007_Node000003" class="edge">
<title>Node7&#45;&gt;Node3</title>
<g id="a_edge9_Node000007_Node000003"><a xlink:title=" ">
<path fill="none" stroke="#63b8ff" d="M386.62,-111.39C323.08,-95.55 259.34,-80.75 224.8,-72.83"/>
<polygon fill="#63b8ff" stroke="#63b8ff" points="385.62,-114.75 396.17,-113.78 387.32,-107.96 385.62,-114.75"/>
</a>
</g>
</g>
<!-- Node8 -->
<g id="Node000008" class="node">
<title>Node8</title>
<g id="a_Node000008"><a xlink:href="player_8cpp.html" target="_top" xlink:title=" ">
<polygon fill="white" stroke="#666666" points="453.74,-76 392.74,-76 392.74,-56 453.74,-56 453.74,-76"/>
<text xml:space="preserve" text-anchor="middle" x="423.24" y="-62.5" font-family="Helvetica,sans-Serif" font-size="10.00">player.cpp</text>
</a>
</g>
</g>
<!-- Node7&#45;&gt;Node8 -->
<g id="edge10_Node000007_Node000008" class="edge">
<title>Node7&#45;&gt;Node8</title>
<g id="a_edge10_Node000007_Node000008"><a xlink:title=" ">
<path fill="none" stroke="#63b8ff" d="M423.24,-100.13C423.24,-91.9 423.24,-82.85 423.24,-76.3"/>
<polygon fill="#63b8ff" stroke="#63b8ff" points="419.74,-100.08 423.24,-110.08 426.74,-100.08 419.74,-100.08"/>
</a>
</g>
</g>
<!-- Node9&#45;&gt;Node3 -->
<g id="edge12_Node000009_Node000003" class="edge">
<title>Node9&#45;&gt;Node3</title>
<g id="a_edge12_Node000009_Node000003"><a xlink:title=" ">
<path fill="none" stroke="#63b8ff" d="M231.25,-103C223.3,-94.06 214.02,-83.62 207.51,-76.3"/>
<polygon fill="#63b8ff" stroke="#63b8ff" points="228.62,-105.31 237.88,-110.46 233.85,-100.66 228.62,-105.31"/>
</a>
</g>
</g>
<!-- Node10&#45;&gt;Node3 -->
<g id="edge14_Node000010_Node000003" class="edge">
<title>Node10&#45;&gt;Node3</title>
<g id="a_edge14_Node000010_Node000003"><a xlink:title=" ">
<path fill="none" stroke="#63b8ff" d="M305.83,-107.53C280.42,-97.87 246.8,-85.08 224.17,-76.48"/>
<polygon fill="#63b8ff" stroke="#63b8ff" points="304.5,-110.77 315.09,-111.06 306.99,-104.23 304.5,-110.77"/>
</a>
</g>
</g>
</g>
</svg>
</svg>

<style type='text/css'>
<![CDATA[
[data-mouse-over-selected='false'] { opacity: 0.7; }
[data-mouse-over-selected='true']  { opacity: 1.0; }
]]>
</style>
<script type="application/ecmascript"><![CDATA[
document.addEventListener('DOMContentLoaded', (event) => {
  highlightEdges();
  highlightAdjacentNodes();
});
]]></script>
</svg>
