<?xml version="1.0" encoding="UTF-8" standalone="no"?>
<!DOCTYPE svg PUBLIC "-//W3C//DTD SVG 1.1//EN"
 "http://www.w3.org/Graphics/SVG/1.1/DTD/svg11.dtd">
<!-- Generated by graphviz version 14.1.1 (0)
 -->
<!-- Title: commands.h Pages: 1 -->
<svg width="184pt" height="196pt"
 viewBox="0.00 0.00 184.00 196.00" xmlns="http://www.w3.org/2000/svg" xmlns:xlink="http://www.w3.org/1999/xlink">
<g id="graph0" class="graph" transform="scale(1 1) rotate(0) translate(4 192)">
<title>commands.h</title>
<!-- Node1 -->
<g id="Node000001" class="node">
<title>Node1</title>
<g id="a_Node000001"><a xlink:title=" ">
<polygon fill="#999999" stroke="#666666" points="92.62,-188 20.38,-188 20.38,-168 92.62,-168 92.62,-188"/>
<text xml:space="preserve" text-anchor="middle" x="56.5" y="-174.5" font-family="Helvetica,sans-Serif" font-size="10.00">commands.h</text>
</a>
</g>
</g>
<!-- Node2 -->
<g id="Node000002" class="node">
<title>Node2</title>
<g id="a_Node000002"><a xlink:href="_game_8cpp.html" target="_top" xlink:title=" ">
<polygon fill="white" stroke="#666666" points="61,-20 0,-20 0,0 61,0 61,-20"/>
<text xml:space="preserve" text-anchor="middle" x="30.5" y="-6.5" font-family="Helvetica,sans-Serif" font-size="10.00">Game.cpp</text>
</a>
</g>
</g>
<!-- Node1&#45;&gt;Node2 -->
<g id="edge1_Node000001_Node000002" class="edge">
<title>Node1&#45;&gt;Node2</title>
<g id="a_edge1_Node000001_Node000002"><a xlink:title=" ">
<path fill="none" stroke="#63b8ff" d="M53.29,-156.5C47.62,-120.27 36.03,-46.31 31.96,-20.3"/>
<polygon fill="#63b8ff" stroke="#63b8ff" points="49.79,-156.77 54.79,-166.1 56.7,-155.68 49.79,-156.77"/>
</a>
</g>
</g>
<!-- Node3 -->
<g id="Node000003" class="node">
<title>Node3</title>
<g id="a_Node000003"><a xlink:href="_v_m_8h.html" target="_top" xlink:title=" ">
<polygon fill="white" stroke="#666666" points="103.12,-132 63.88,-132 63.88,-112 103.12,-112 103.12,-132"/>
<text xml:space="preserve" text-anchor="middle" x="83.5" y="-118.5" font-family="Helvetica,sans-Serif" font-size="10.00">VM.h</text>
</a>
</g>
</g>
<!-- Node1&#45;&gt;Node3 -->
<g id="edge2_Node000001_Node000003" class="edge">
<title>Node1&#45;&gt;Node3</title>
<g id="a_edge2_Node000001_Node000003"><a xlink:title=" ">
<path fill="none" stroke="#63b8ff" d="M66.21,-157.58C70.52,-148.97 75.38,-139.24 78.85,-132.3"/>
<polygon fill="#63b8ff" stroke="#63b8ff" points="63.22,-155.73 61.88,-166.24 69.48,-158.86 63.22,-155.73"/>
</a>
</g>
</g>
<!-- Node4 -->
<g id="Node000004" class="node">
<title>Node4</title>
<g id="a_Node000004"><a xlink:href="_game_8h.html" target="_top" xlink:title=" ">
<polygon fill="white" stroke="#666666" points="108.75,-76 58.25,-76 58.25,-56 108.75,-56 108.75,-76"/>
<text xml:space="preserve" text-anchor="middle" x="83.5" y="-62.5" font-family="Helvetica,sans-Serif" font-size="10.00">Game.h</text>
</a>
</g>
</g>
<!-- Node3&#45;&gt;Node4 -->
<g id="edge3_Node000003_Node000004" class="edge">
<title>Node3&#45;&gt;Node4</title>
<g id="a_edge3_Node000003_Node000004"><a xlink:title=" ">
<path fill="none" stroke="#63b8ff" d="M83.5,-100.13C83.5,-91.9 83.5,-82.85 83.5,-76.3"/>
<polygon fill="#63b8ff" stroke="#63b8ff" points="80,-100.08 83.5,-110.08 87,-100.08 80,-100.08"/>
</a>
</g>
</g>
<!-- Node6 -->
<g id="Node000006" class="node">
<title>Node6</title>
<g id="a_Node000006"><a xlink:href="_v_m_8cpp.html" target="_top" xlink:title=" ">
<polygon fill="white" stroke="#666666" points="176.38,-76 126.62,-76 126.62,-56 176.38,-56 176.38,-76"/>
<text xml:space="preserve" text-anchor="middle" x="151.5" y="-62.5" font-family="Helvetica,sans-Serif" font-size="10.00">VM.cpp</text>
</a>
</g>
</g>
<!-- Node3&#45;&gt;Node6 -->
<g id="edge6_Node000003_Node000006" class="edge">
<title>Node3&#45;&gt;Node6</title>
<g id="a_edge6_Node000003_Node000006"><a xlink:title=" ">
<path fill="none" stroke="#63b8ff" d="M104.05,-104.68C115.75,-95.39 129.98,-84.09 139.79,-76.3"/>
<polygon fill="#63b8ff" stroke="#63b8ff" points="102.18,-101.69 96.53,-110.65 106.54,-107.17 102.18,-101.69"/>
</a>
</g>
</g>
<!-- Node4&#45;&gt;Node2 -->
<g id="edge4_Node000004_Node000002" class="edge">
<title>Node4&#45;&gt;Node2</title>
<g id="a_edge4_Node000004_Node000002"><a xlink:title=" ">
<path fill="none" stroke="#63b8ff" d="M66.39,-47.57C57.49,-38.5 46.97,-27.78 39.63,-20.3"/>
<polygon fill="#63b8ff" stroke="#63b8ff" points="63.71,-49.83 73.21,-54.51 68.7,-44.93 63.71,-49.83"/>
</a>
</g>
</g>
<!-- Node5 -->
<g id="Node000005" class="node">
<title>Node5</title>
<g id="a_Node000005"><a xlink:href="main_8cpp.html" target="_top" xlink:title=" ">
<polygon fill="white" stroke="#666666" points="134.38,-20 78.62,-20 78.62,0 134.38,0 134.38,-20"/>
<text xml:space="preserve" text-anchor="middle" x="106.5" y="-6.5" font-family="Helvetica,sans-Serif" font-size="10.00">main.cpp</text>
</a>
</g>
</g>
<!-- Node4&#45;&gt;Node5 -->
<g id="edge5_Node000004_Node000005" class="edge">
<title>Node4&#45;&gt;Node5</title>
<g id="a_edge5_Node000004_Node000005"><a xlink:title=" ">
<path fill="none" stroke="#63b8ff" d="M92.02,-45C95.62,-36.54 99.65,-27.08 102.54,-20.3"/>
<polygon fill="#63b8ff" stroke="#63b8ff" points="88.8,-43.63 88.1,-54.2 95.24,-46.37 88.8,-43.63"/>
</a>
</g>
</g>
</g>
</svg>
