<?xml version="1.0" encoding="UTF-8" standalone="no"?>
<!DOCTYPE svg PUBLIC "-//W3C//DTD SVG 1.1//EN"
 "http://www.w3.org/Graphics/SVG/1.1/DTD/svg11.dtd">
<!-- Generated by graphviz version 14.1.1 (0)
 -->
<!-- Title: def.h Pages: 1 -->
<!--zoomable 420 -->

<svg id="main" version="1.1" xmlns="http://www.w3.org/2000/svg" xmlns:xlink="http://www.w3.org/1999/xlink" xml:space="preserve" onload="init(evt)">

<style type="text/css"><![CDATA[
.node, .edge {opacity: 0.7;}
.node.selected, .edge.selected {opacity: 1;}
.edge:hover path { stroke: red; }
.edge:hover polygon { stroke: red; fill: red; }
]]></style>

<defs>
  <circle id="rim" cx="0" cy="0" r="7"/>
  <circle id="rim2" cx="0" cy="0" r="3.5"/>
  <g id="zoomPlus">
    <use xlink:href="#rim" fill="#404040"><set attributeName="fill" to="#808080" begin="zoomplus.mouseover" end="zoomplus.mouseout"/></use>
    <path d="M-4,0h8M0,-4v8" fill="none" stroke="white" stroke-width="1.5" pointer-events="none"/>
  </g>
  <g id="zoomMin">
    <use xlink:href="#rim" fill="#404040"><set attributeName="fill" to="#808080" begin="zoomminus.mouseover" end="zoomminus.mouseout"/></use>
    <path d="M-4,0h8" fill="none" stroke="white" stroke-width="1.5" pointer-events="none"/>
  </g>
  <g id="arrowUp" transform="translate(30 24)">
    <use xlink:href="#rim"/>
    <path pointer-events="none" fill="none" stroke="white" stroke-width="1.5" d="M0,-3.0v7 M-2.5,-0.5L0,-3.0L2.5,-0.5"/>
  </g>
  <g id="arrowRight" transform="rotate(90) translate(36 -43)">
    <use xlink:href="#rim"/>
    <path pointer-events="none" fill="none" stroke="white" stroke-width="1.5" d="M0,-3.0v7 M-2.5,-0.5L0,-3.0L2.5,-0.5"/>
  </g>
  <g id="arrowDown" transform="rotate(180) translate(-30 -48)">
    <use xlink:href="#rim"/>
    <path pointer-events="none" fill="none" stroke="white" stroke-width="1.5" d="M0,-3.0v7 M-2.5,-0.5L0,-3.0L2.5,-0.5"/>
  </g>
  <g id="arrowLeft" transform="rotate(270) translate(-36 17)">
    <use xlink:href="#rim"/>
    <path pointer-events="none" fill="none" stroke="white" stroke-width="1.5" d="M0,-3.0v7 M-2.5,-0.5L0,-3.0L2.5,-0.5"/>
  </g>
  <g id="resetDef">
    <use xlink:href="#rim2" fill="#404040"><set attributeName="fill" to="#808080" begin="reset.mouseover" end="reset.mouseout"/></use>
  </g>
</defs>
<script type="application/ecmascript">
var viewWidth = 746;
var viewHeight = 420;
var sectionId = 'dynsection-1';
</script>
<script type="application/ecmascript" xlink:href="svg.min.js"/>
<svg id="graph" class="graph">
<g id="viewport">
<title>def.h</title>
<!-- Node1 -->
<g id="Node000001" class="node">
<title>Node1</title>
<g id="a_Node000001"><a xlink:title=" ">
<polygon fill="#999999" stroke="#666666" points="390.5,-412 352.75,-412 352.75,-392 390.5,-392 390.5,-412"/>
<text xml:space="preserve" text-anchor="middle" x="371.62" y="-398.5" font-family="Helvetica,sans-Serif" font-size="10.00">def.h</text>
</a>
</g>
</g>
<!-- Node2 -->
<g id="Node000002" class="node">
<title>Node2</title>
<g id="a_Node000002"><a xlink:href="_bezier_mover_8h.html" target="_top" xlink:title=" ">
<polygon fill="white" stroke="#666666" points="411.12,-356 332.12,-356 332.12,-336 411.12,-336 411.12,-356"/>
<text xml:space="preserve" text-anchor="middle" x="371.62" y="-342.5" font-family="Helvetica,sans-Serif" font-size="10.00">BezierMover.h</text>
</a>
</g>
</g>
<!-- Node1&#45;&gt;Node2 -->
<g id="edge1_Node000001_Node000002" class="edge">
<title>Node1&#45;&gt;Node2</title>
<g id="a_edge1_Node000001_Node000002"><a xlink:title=" ">
<path fill="none" stroke="#63b8ff" d="M371.62,-380.13C371.62,-371.9 371.62,-362.85 371.62,-356.3"/>
<polygon fill="#63b8ff" stroke="#63b8ff" points="368.13,-380.08 371.63,-390.08 375.13,-380.08 368.13,-380.08"/>
</a>
</g>
</g>
<!-- Node4 -->
<g id="Node000004" class="node">
<title>Node4</title>
<g id="a_Node000004"><a xlink:href="enemy_bezier_8h.html" target="_top" xlink:title=" ">
<polygon fill="white" stroke="#666666" points="583.25,-132 502,-132 502,-112 583.25,-112 583.25,-132"/>
<text xml:space="preserve" text-anchor="middle" x="542.62" y="-118.5" font-family="Helvetica,sans-Serif" font-size="10.00">enemyBezier.h</text>
</a>
</g>
</g>
<!-- Node1&#45;&gt;Node4 -->
<g id="edge35_Node000001_Node000004" class="edge">
<title>Node1&#45;&gt;Node4</title>
<g id="a_edge35_Node000001_Node000004"><a xlink:title=" ">
<path fill="none" stroke="#63b8ff" d="M392.77,-384.5C402.07,-376.55 412.66,-366.48 420.62,-356 477.4,-281.31 471.81,-250.42 516.62,-168 523.43,-155.48 531.74,-141.27 537.11,-132.23"/>
<polygon fill="#63b8ff" stroke="#63b8ff" points="390.72,-381.65 385.22,-390.71 395.17,-387.06 390.72,-381.65"/>
</a>
</g>
</g>
<!-- Node8 -->
<g id="Node000008" class="node">
<title>Node8</title>
<g id="a_Node000008"><a xlink:href="_entity_table_8h.html" target="_top" xlink:title=" ">
<polygon fill="white" stroke="#666666" points="562.12,-356 489.12,-356 489.12,-336 562.12,-336 562.12,-356"/>
<text xml:space="preserve" text-anchor="middle" x="525.62" y="-342.5" font-family="Helvetica,sans-Serif" font-size="10.00">EntityTable.h</text>
</a>
</g>
</g>
<!-- Node1&#45;&gt;Node8 -->
<g id="edge7_Node000001_Node000008" class="edge">
<title>Node1&#45;&gt;Node8</title>
<g id="a_edge7_Node000001_Node000008"><a xlink:title=" ">
<path fill="none" stroke="#63b8ff" d="M401.61,-390.49C429.77,-380.61 471.53,-365.97 498.67,-356.45"/>
<polygon fill="#63b8ff" stroke="#63b8ff" points="400.52,-387.16 392.25,-393.77 402.84,-393.76 400.52,-387.16"/>
</a>
</g>
</g>
<!-- Node13 -->
<g id="Node000013" class="node">
<title>Node13</title>
<g id="a_Node000013"><a xlink:href="collider_8h.html" target="_top" xlink:title=" ">
<polygon fill="white" stroke="#666666" points="402.12,-188 347.12,-188 347.12,-168 402.12,-168 402.12,-188"/>
<text xml:space="preserve" text-anchor="middle" x="374.62" y="-174.5" font-family="Helvetica,sans-Serif" font-size="10.00">collider.h</text>
</a>
</g>
</g>
<!-- Node1&#45;&gt;Node13 -->
<g id="edge34_Node000001_Node000013" class="edge">
<title>Node1&#45;&gt;Node13</title>
<g id="a_edge34_Node000001_Node000013"><a xlink:title=" ">
<path fill="none" stroke="#63b8ff" d="M349.93,-384.56C340.79,-376.74 330.67,-366.75 323.62,-356 304.47,-326.79 293.09,-313.3 303.62,-280 315.78,-241.58 348.37,-205.12 364.83,-188.46"/>
<polygon fill="#63b8ff" stroke="#63b8ff" points="347.45,-387.06 357.41,-390.66 351.87,-381.63 347.45,-387.06"/>
</a>
</g>
</g>
<!-- Node15 -->
<g id="Node000015" class="node">
<title>Node15</title>
<g id="a_Node000015"><a xlink:href="player_8h.html" target="_top" xlink:title=" ">
<polygon fill="white" stroke="#666666" points="726.88,-132 676.38,-132 676.38,-112 726.88,-112 726.88,-132"/>
<text xml:space="preserve" text-anchor="middle" x="701.62" y="-118.5" font-family="Helvetica,sans-Serif" font-size="10.00">player.h</text>
</a>
</g>
</g>
<!-- Node1&#45;&gt;Node15 -->
<g id="edge43_Node000001_Node000015" class="edge">
<title>Node1&#45;&gt;Node15</title>
<g id="a_edge43_Node000001_Node000015"><a xlink:title=" ">
<path fill="none" stroke="#63b8ff" d="M402.02,-398.92C467.65,-394.03 620.34,-380.32 665.62,-356 700,-337.54 724.62,-330.02 724.62,-291 724.62,-291 724.62,-291 724.62,-233 724.62,-194.96 711.28,-151.05 704.92,-132.28"/>
<polygon fill="#63b8ff" stroke="#63b8ff" points="402.06,-395.41 392.34,-399.63 402.56,-402.39 402.06,-395.41"/>
</a>
</g>
</g>
<!-- Node17 -->
<g id="Node000017" class="node">
<title>Node17</title>
<g id="a_Node000017"><a xlink:href="player_bullet_8h.html" target="_top" xlink:title=" ">
<polygon fill="white" stroke="#666666" points="75.25,-132 0,-132 0,-112 75.25,-112 75.25,-132"/>
<text xml:space="preserve" text-anchor="middle" x="37.62" y="-118.5" font-family="Helvetica,sans-Serif" font-size="10.00">playerBullet.h</text>
</a>
</g>
</g>
<!-- Node1&#45;&gt;Node17 -->
<g id="edge44_Node000001_Node000017" class="edge">
<title>Node1&#45;&gt;Node17</title>
<g id="a_edge44_Node000001_Node000017"><a xlink:title=" ">
<path fill="none" stroke="#63b8ff" d="M341.31,-401.9C271.35,-402.24 104.62,-392.42 104.62,-291 104.62,-291 104.62,-291 104.62,-233 104.62,-190.29 67.33,-150.08 48.39,-132.41"/>
<polygon fill="#63b8ff" stroke="#63b8ff" points="340.96,-405.4 350.91,-401.77 340.86,-398.4 340.96,-405.4"/>
</a>
</g>
</g>
<!-- Node18 -->
<g id="Node000018" class="node">
<title>Node18</title>
<g id="a_Node000018"><a xlink:href="simple_bullet_8h.html" target="_top" xlink:title=" ">
<polygon fill="white" stroke="#666666" points="285.38,-132 207.88,-132 207.88,-112 285.38,-112 285.38,-132"/>
<text xml:space="preserve" text-anchor="middle" x="246.62" y="-118.5" font-family="Helvetica,sans-Serif" font-size="10.00">simpleBullet.h</text>
</a>
</g>
</g>
<!-- Node1&#45;&gt;Node18 -->
<g id="edge45_Node000001_Node000018" class="edge">
<title>Node1&#45;&gt;Node18</title>
<g id="a_edge45_Node000001_Node000018"><a xlink:title=" ">
<path fill="none" stroke="#63b8ff" d="M341.19,-394.94C294.02,-383.57 208.62,-354.26 208.62,-291 208.62,-291 208.62,-291 208.62,-233 208.62,-193.8 230.45,-150.84 241.02,-132.33"/>
<polygon fill="#63b8ff" stroke="#63b8ff" points="340.28,-398.32 350.81,-397.12 341.83,-391.49 340.28,-398.32"/>
</a>
</g>
</g>
<!-- Node20 -->
<g id="Node000020" class="node">
<title>Node20</title>
<g id="a_Node000020"><a xlink:href="_param_table_8h.html" target="_top" xlink:title=" ">
<polygon fill="white" stroke="#666666" points="656.62,-356 580.62,-356 580.62,-336 656.62,-336 656.62,-356"/>
<text xml:space="preserve" text-anchor="middle" x="618.62" y="-342.5" font-family="Helvetica,sans-Serif" font-size="10.00">ParamTable.h</text>
</a>
</g>
</g>
<!-- Node1&#45;&gt;Node20 -->
<g id="edge30_Node000001_Node000020" class="edge">
<title>Node1&#45;&gt;Node20</title>
<g id="a_edge30_Node000001_Node000020"><a xlink:title=" ">
<path fill="none" stroke="#63b8ff" d="M401.64,-394.44C446.58,-384.61 531.34,-366.08 580.57,-355.32"/>
<polygon fill="#63b8ff" stroke="#63b8ff" points="401.1,-390.97 392.08,-396.53 402.59,-397.81 401.1,-390.97"/>
</a>
</g>
</g>
<!-- Node22 -->
<g id="Node000022" class="node">
<title>Node22</title>
<g id="a_Node000022"><a xlink:href="entity_manager_8h.html" target="_top" xlink:title=" ">
<polygon fill="white" stroke="#666666" points="322.5,-188 236.75,-188 236.75,-168 322.5,-168 322.5,-188"/>
<text xml:space="preserve" text-anchor="middle" x="279.62" y="-174.5" font-family="Helvetica,sans-Serif" font-size="10.00">entityManager.h</text>
</a>
</g>
</g>
<!-- Node1&#45;&gt;Node22 -->
<g id="edge36_Node000001_Node000022" class="edge">
<title>Node1&#45;&gt;Node22</title>
<g id="a_edge36_Node000001_Node000022"><a xlink:title=" ">
<path fill="none" stroke="#63b8ff" d="M342.39,-387.3C329.51,-379.81 315.34,-369.32 306.62,-356 270.7,-301.12 275.65,-216.46 278.5,-188.4"/>
<polygon fill="#63b8ff" stroke="#63b8ff" points="340.52,-390.27 350.99,-391.94 343.85,-384.11 340.52,-390.27"/>
</a>
</g>
</g>
<!-- Node3 -->
<g id="Node000003" class="node">
<title>Node3</title>
<g id="a_Node000003"><a xlink:href="_bezier_mover_8cpp.html" target="_top" xlink:title=" ">
<polygon fill="white" stroke="#666666" points="402.38,-300 312.88,-300 312.88,-280 402.38,-280 402.38,-300"/>
<text xml:space="preserve" text-anchor="middle" x="357.62" y="-286.5" font-family="Helvetica,sans-Serif" font-size="10.00">BezierMover.cpp</text>
</a>
</g>
</g>
<!-- Node2&#45;&gt;Node3 -->
<g id="edge2_Node000002_Node000003" class="edge">
<title>Node2&#45;&gt;Node3</title>
<g id="a_edge2_Node000002_Node000003"><a xlink:title=" ">
<path fill="none" stroke="#63b8ff" d="M366.37,-324.71C364.19,-316.32 361.77,-307.01 360.04,-300.3"/>
<polygon fill="#63b8ff" stroke="#63b8ff" points="362.91,-325.33 368.81,-334.13 369.68,-323.57 362.91,-325.33"/>
</a>
</g>
</g>
<!-- Node2&#45;&gt;Node4 -->
<g id="edge3_Node000002_Node000004" class="edge">
<title>Node2&#45;&gt;Node4</title>
<g id="a_edge3_Node000002_Node000004"><a xlink:title=" ">
<path fill="none" stroke="#63b8ff" d="M390.14,-327.61C397.65,-319.76 405.88,-310.01 411.62,-300 442.32,-246.48 414.57,-214.93 454.62,-168 469.22,-150.9 491.92,-139.52 510.61,-132.48"/>
<polygon fill="#63b8ff" stroke="#63b8ff" points="387.84,-324.97 383.22,-334.51 392.78,-329.93 387.84,-324.97"/>
</a>
</g>
</g>
<!-- Node5 -->
<g id="Node000005" class="node">
<title>Node5</title>
<g id="a_Node000005"><a xlink:href="_game_8h.html" target="_top" xlink:title=" ">
<polygon fill="white" stroke="#666666" points="525.88,-76 475.38,-76 475.38,-56 525.88,-56 525.88,-76"/>
<text xml:space="preserve" text-anchor="middle" x="500.62" y="-62.5" font-family="Helvetica,sans-Serif" font-size="10.00">Game.h</text>
</a>
</g>
</g>
<!-- Node4&#45;&gt;Node5 -->
<g id="edge4_Node000004_Node000005" class="edge">
<title>Node4&#45;&gt;Node5</title>
<g id="a_edge4_Node000004_Node000005"><a xlink:title=" ">
<path fill="none" stroke="#63b8ff" d="M528.41,-102.72C521.5,-93.84 513.49,-83.55 507.86,-76.3"/>
<polygon fill="#63b8ff" stroke="#63b8ff" points="525.48,-104.65 534.38,-110.4 531,-100.36 525.48,-104.65"/>
</a>
</g>
</g>
<!-- Node6 -->
<g id="Node000006" class="node">
<title>Node6</title>
<g id="a_Node000006"><a xlink:href="_game_8cpp.html" target="_top" xlink:title=" ">
<polygon fill="white" stroke="#666666" points="466.12,-20 405.12,-20 405.12,0 466.12,0 466.12,-20"/>
<text xml:space="preserve" text-anchor="middle" x="435.62" y="-6.5" font-family="Helvetica,sans-Serif" font-size="10.00">Game.cpp</text>
</a>
</g>
</g>
<!-- Node5&#45;&gt;Node6 -->
<g id="edge5_Node000005_Node000006" class="edge">
<title>Node5&#45;&gt;Node6</title>
<g id="a_edge5_Node000005_Node000006"><a xlink:title=" ">
<path fill="none" stroke="#63b8ff" d="M480.65,-48.4C469.53,-39.17 456.1,-28.01 446.82,-20.3"/>
<polygon fill="#63b8ff" stroke="#63b8ff" points="478.21,-50.93 488.14,-54.63 482.68,-45.54 478.21,-50.93"/>
</a>
</g>
</g>
<!-- Node7 -->
<g id="Node000007" class="node">
<title>Node7</title>
<g id="a_Node000007"><a xlink:href="main_8cpp.html" target="_top" xlink:title=" ">
<polygon fill="white" stroke="#666666" points="539.5,-20 483.75,-20 483.75,0 539.5,0 539.5,-20"/>
<text xml:space="preserve" text-anchor="middle" x="511.62" y="-6.5" font-family="Helvetica,sans-Serif" font-size="10.00">main.cpp</text>
</a>
</g>
</g>
<!-- Node5&#45;&gt;Node7 -->
<g id="edge6_Node000005_Node000007" class="edge">
<title>Node5&#45;&gt;Node7</title>
<g id="a_edge6_Node000005_Node000007"><a xlink:title=" ">
<path fill="none" stroke="#63b8ff" d="M504.82,-44.43C506.51,-36.11 508.38,-26.93 509.73,-20.3"/>
<polygon fill="#63b8ff" stroke="#63b8ff" points="501.41,-43.61 502.84,-54.11 508.27,-45.01 501.41,-43.61"/>
</a>
</g>
</g>
<!-- Node9 -->
<g id="Node000009" class="node">
<title>Node9</title>
<g id="a_Node000009"><a xlink:href="all_8cpp.html" target="_top" xlink:title=" ">
<polygon fill="white" stroke="#666666" points="540.88,-300 496.38,-300 496.38,-280 540.88,-280 540.88,-300"/>
<text xml:space="preserve" text-anchor="middle" x="518.62" y="-286.5" font-family="Helvetica,sans-Serif" font-size="10.00">all.cpp</text>
</a>
</g>
</g>
<!-- Node8&#45;&gt;Node9 -->
<g id="edge8_Node000008_Node000009" class="edge">
<title>Node8&#45;&gt;Node9</title>
<g id="a_edge8_Node000008_Node000009"><a xlink:title=" ">
<path fill="none" stroke="#63b8ff" d="M522.96,-324.43C521.88,-316.11 520.69,-306.93 519.83,-300.3"/>
<polygon fill="#63b8ff" stroke="#63b8ff" points="519.45,-324.63 524.21,-334.09 526.4,-323.73 519.45,-324.63"/>
</a>
</g>
</g>
<!-- Node10 -->
<g id="Node000010" class="node">
<title>Node10</title>
<g id="a_Node000010"><a xlink:href="all_8h.html" target="_top" xlink:title=" ">
<polygon fill="white" stroke="#666666" points="592.62,-300 558.62,-300 558.62,-280 592.62,-280 592.62,-300"/>
<text xml:space="preserve" text-anchor="middle" x="575.62" y="-286.5" font-family="Helvetica,sans-Serif" font-size="10.00">all.h</text>
</a>
</g>
</g>
<!-- Node8&#45;&gt;Node10 -->
<g id="edge9_Node000008_Node000010" class="edge">
<title>Node8&#45;&gt;Node10</title>
<g id="a_edge9_Node000008_Node000010"><a xlink:title=" ">
<path fill="none" stroke="#63b8ff" d="M542.03,-327.29C550.37,-318.28 560.16,-307.7 567.02,-300.3"/>
<polygon fill="#63b8ff" stroke="#63b8ff" points="539.59,-324.77 535.36,-334.48 544.72,-329.52 539.59,-324.77"/>
</a>
</g>
</g>
<!-- Node10&#45;&gt;Node4 -->
<g id="edge11_Node000010_Node000004" class="edge">
<title>Node10&#45;&gt;Node4</title>
<g id="a_edge11_Node000010_Node000004"><a xlink:title=" ">
<path fill="none" stroke="#63b8ff" d="M549.96,-272.82C540.46,-265.33 530.76,-255.52 525.62,-244 508.36,-205.24 528.45,-153.19 538.06,-132.27"/>
<polygon fill="#63b8ff" stroke="#63b8ff" points="547.84,-275.61 557.99,-278.63 551.94,-269.93 547.84,-275.61"/>
</a>
</g>
</g>
<!-- Node11 -->
<g id="Node000011" class="node">
<title>Node11</title>
<g id="a_Node000011"><a xlink:href="_v_m_8cpp.html" target="_top" xlink:title=" ">
<polygon fill="white" stroke="#666666" points="584.5,-244 534.75,-244 534.75,-224 584.5,-224 584.5,-244"/>
<text xml:space="preserve" text-anchor="middle" x="559.62" y="-230.5" font-family="Helvetica,sans-Serif" font-size="10.00">VM.cpp</text>
</a>
</g>
</g>
<!-- Node10&#45;&gt;Node11 -->
<g id="edge10_Node000010_Node000011" class="edge">
<title>Node10&#45;&gt;Node11</title>
<g id="a_edge10_Node000010_Node000011"><a xlink:title=" ">
<path fill="none" stroke="#63b8ff" d="M569.61,-268.71C567.13,-260.32 564.37,-251.01 562.38,-244.3"/>
<polygon fill="#63b8ff" stroke="#63b8ff" points="566.21,-269.55 572.41,-278.14 572.92,-267.56 566.21,-269.55"/>
</a>
</g>
</g>
<!-- Node12 -->
<g id="Node000012" class="node">
<title>Node12</title>
<g id="a_Node000012"><a xlink:href="gfx_8h.html" target="_top" xlink:title=" ">
<polygon fill="white" stroke="#666666" points="640.5,-244 602.75,-244 602.75,-224 640.5,-224 640.5,-244"/>
<text xml:space="preserve" text-anchor="middle" x="621.62" y="-230.5" font-family="Helvetica,sans-Serif" font-size="10.00">gfx.h</text>
</a>
</g>
</g>
<!-- Node10&#45;&gt;Node12 -->
<g id="edge12_Node000010_Node000012" class="edge">
<title>Node10&#45;&gt;Node12</title>
<g id="a_edge12_Node000010_Node000012"><a xlink:title=" ">
<path fill="none" stroke="#63b8ff" d="M590.96,-271C598.58,-262.06 607.46,-251.62 613.7,-244.3"/>
<polygon fill="#63b8ff" stroke="#63b8ff" points="588.44,-268.56 584.62,-278.44 593.77,-273.1 588.44,-268.56"/>
</a>
</g>
</g>
<!-- Node16 -->
<g id="Node000016" class="node">
<title>Node16</title>
<g id="a_Node000016"><a xlink:href="player_8cpp.html" target="_top" xlink:title=" ">
<polygon fill="white" stroke="#666666" points="732.12,-76 671.12,-76 671.12,-56 732.12,-56 732.12,-76"/>
<text xml:space="preserve" text-anchor="middle" x="701.62" y="-62.5" font-family="Helvetica,sans-Serif" font-size="10.00">player.cpp</text>
</a>
</g>
</g>
<!-- Node10&#45;&gt;Node16 -->
<g id="edge29_Node000010_Node000016" class="edge">
<title>Node10&#45;&gt;Node16</title>
<g id="a_edge29_Node000010_Node000016"><a xlink:title=" ">
<path fill="none" stroke="#63b8ff" d="M603.03,-275.52C617.74,-267.52 635.66,-256.52 649.62,-244 696.34,-202.09 715.44,-191.43 735.62,-132 742.75,-111.02 724.48,-88.53 712.05,-76.28"/>
<polygon fill="#63b8ff" stroke="#63b8ff" points="601.56,-272.33 594.33,-280.08 604.81,-278.53 601.56,-272.33"/>
</a>
</g>
</g>
<!-- Node12&#45;&gt;Node4 -->
<g id="edge26_Node000012_Node000004" class="edge">
<title>Node12&#45;&gt;Node4</title>
<g id="a_edge26_Node000012_Node000004"><a xlink:title=" ">
<path fill="none" stroke="#63b8ff" d="M595.27,-217.58C584.15,-209.93 571.89,-199.78 563.62,-188 551.37,-170.52 545.96,-145.49 543.84,-132.16"/>
<polygon fill="#63b8ff" stroke="#63b8ff" points="593.06,-220.32 603.35,-222.83 596.87,-214.45 593.06,-220.32"/>
</a>
</g>
</g>
<!-- Node12&#45;&gt;Node5 -->
<g id="edge13_Node000012_Node000005" class="edge">
<title>Node12&#45;&gt;Node5</title>
<g id="a_edge13_Node000012_Node000005"><a xlink:title=" ">
<path fill="none" stroke="#63b8ff" d="M628.38,-212.54C631.63,-199.56 633.99,-182.52 629.62,-168 621.04,-139.43 615.03,-131.69 592.62,-112 573.12,-94.86 545.94,-82.64 526.18,-75.29"/>
<polygon fill="#63b8ff" stroke="#63b8ff" points="625.03,-211.51 625.59,-222.09 631.75,-213.47 625.03,-211.51"/>
</a>
</g>
</g>
<!-- Node12&#45;&gt;Node13 -->
<g id="edge14_Node000012_Node000013" class="edge">
<title>Node12&#45;&gt;Node13</title>
<g id="a_edge14_Node000012_Node000013"><a xlink:title=" ">
<path fill="none" stroke="#63b8ff" d="M591.61,-223.7C518.13,-204.76 442.37,-190.71 402.51,-183.73"/>
<polygon fill="#63b8ff" stroke="#63b8ff" points="590.4,-227 600.96,-226.14 592.17,-220.23 590.4,-227"/>
</a>
</g>
</g>
<!-- Node12&#45;&gt;Node15 -->
<g id="edge28_Node000012_Node000015" class="edge">
<title>Node12&#45;&gt;Node15</title>
<g id="a_edge28_Node000012_Node000015"><a xlink:title=" ">
<path fill="none" stroke="#63b8ff" d="M638.97,-215.61C646.62,-207.53 655.47,-197.61 662.62,-188 676.61,-169.21 690,-145.12 696.86,-132.19"/>
<polygon fill="#63b8ff" stroke="#63b8ff" points="636.5,-213.12 632.05,-222.73 641.53,-217.99 636.5,-213.12"/>
</a>
</g>
</g>
<!-- Node19 -->
<g id="Node000019" class="node">
<title>Node19</title>
<g id="a_Node000019"><a xlink:href="gfx_8cpp.html" target="_top" xlink:title=" ">
<polygon fill="white" stroke="#666666" points="620.75,-188 572.5,-188 572.5,-168 620.75,-168 620.75,-188"/>
<text xml:space="preserve" text-anchor="middle" x="596.62" y="-174.5" font-family="Helvetica,sans-Serif" font-size="10.00">gfx.cpp</text>
</a>
</g>
</g>
<!-- Node12&#45;&gt;Node19 -->
<g id="edge27_Node000012_Node000019" class="edge">
<title>Node12&#45;&gt;Node19</title>
<g id="a_edge27_Node000012_Node000019"><a xlink:title=" ">
<path fill="none" stroke="#63b8ff" d="M612.5,-213.29C608.55,-204.75 604.11,-195.16 600.93,-188.3"/>
<polygon fill="#63b8ff" stroke="#63b8ff" points="609.26,-214.62 616.63,-222.22 615.61,-211.68 609.26,-214.62"/>
</a>
</g>
</g>
<!-- Node13&#45;&gt;Node4 -->
<g id="edge18_Node000013_Node000004" class="edge">
<title>Node13&#45;&gt;Node4</title>
<g id="a_edge18_Node000013_Node000004"><a xlink:title=" ">
<path fill="none" stroke="#63b8ff" d="M413.01,-164.66C443.43,-154.88 485.32,-141.42 513.15,-132.48"/>
<polygon fill="#63b8ff" stroke="#63b8ff" points="412.26,-161.23 403.81,-167.62 414.4,-167.89 412.26,-161.23"/>
</a>
</g>
</g>
<!-- Node13&#45;&gt;Node5 -->
<g id="edge16_Node000013_Node000005" class="edge">
<title>Node13&#45;&gt;Node5</title>
<g id="a_edge16_Node000013_Node000005"><a xlink:title=" ">
<path fill="none" stroke="#63b8ff" d="M404.69,-162.26C419.12,-154.39 436.16,-143.88 449.62,-132 468.99,-114.92 486.33,-89.72 494.93,-76.27"/>
<polygon fill="#63b8ff" stroke="#63b8ff" points="403.29,-159.04 396.07,-166.8 406.55,-165.24 403.29,-159.04"/>
</a>
</g>
</g>
<!-- Node13&#45;&gt;Node6 -->
<g id="edge15_Node000013_Node000006" class="edge">
<title>Node13&#45;&gt;Node6</title>
<g id="a_edge15_Node000013_Node000006"><a xlink:title=" ">
<path fill="none" stroke="#63b8ff" d="M394.97,-160.13C402.97,-152.39 411.47,-142.58 416.62,-132 435.25,-93.77 436.37,-41.42 435.97,-20.35"/>
<polygon fill="#63b8ff" stroke="#63b8ff" points="392.84,-157.33 387.78,-166.64 397.54,-162.52 392.84,-157.33"/>
</a>
</g>
</g>
<!-- Node14 -->
<g id="Node000014" class="node">
<title>Node14</title>
<g id="a_Node000014"><a xlink:href="collider_8cpp.html" target="_top" xlink:title=" ">
<polygon fill="white" stroke="#666666" points="407.38,-132 341.88,-132 341.88,-112 407.38,-112 407.38,-132"/>
<text xml:space="preserve" text-anchor="middle" x="374.62" y="-118.5" font-family="Helvetica,sans-Serif" font-size="10.00">collider.cpp</text>
</a>
</g>
</g>
<!-- Node13&#45;&gt;Node14 -->
<g id="edge17_Node000013_Node000014" class="edge">
<title>Node13&#45;&gt;Node14</title>
<g id="a_edge17_Node000013_Node000014"><a xlink:title=" ">
<path fill="none" stroke="#63b8ff" d="M374.62,-156.13C374.62,-147.9 374.62,-138.85 374.62,-132.3"/>
<polygon fill="#63b8ff" stroke="#63b8ff" points="371.13,-156.08 374.63,-166.08 378.13,-156.08 371.13,-156.08"/>
</a>
</g>
</g>
<!-- Node13&#45;&gt;Node15 -->
<g id="edge19_Node000013_Node000015" class="edge">
<title>Node13&#45;&gt;Node15</title>
<g id="a_edge19_Node000013_Node000015"><a xlink:title=" ">
<path fill="none" stroke="#63b8ff" d="M413.53,-170.58C481.27,-159.39 619.11,-136.63 676.09,-127.22"/>
<polygon fill="#63b8ff" stroke="#63b8ff" points="413.29,-167.07 404,-172.15 414.43,-173.97 413.29,-167.07"/>
</a>
</g>
</g>
<!-- Node13&#45;&gt;Node17 -->
<g id="edge22_Node000013_Node000017" class="edge">
<title>Node13&#45;&gt;Node17</title>
<g id="a_edge22_Node000013_Node000017"><a xlink:title=" ">
<path fill="none" stroke="#63b8ff" d="M335.87,-168.77C334.44,-168.51 333.02,-168.25 331.62,-168 222.39,-148.63 194.02,-150.44 84.62,-132 81.68,-131.5 78.63,-130.97 75.56,-130.41"/>
<polygon fill="#63b8ff" stroke="#63b8ff" points="334.94,-172.16 345.43,-170.65 336.29,-165.29 334.94,-172.16"/>
</a>
</g>
</g>
<!-- Node13&#45;&gt;Node18 -->
<g id="edge24_Node000013_Node000018" class="edge">
<title>Node13&#45;&gt;Node18</title>
<g id="a_edge24_Node000013_Node000018"><a xlink:title=" ">
<path fill="none" stroke="#63b8ff" d="M341.77,-163.14C318.98,-153.52 289.22,-140.97 269.09,-132.48"/>
<polygon fill="#63b8ff" stroke="#63b8ff" points="340.36,-166.34 350.93,-167.01 343.08,-159.89 340.36,-166.34"/>
</a>
</g>
</g>
<!-- Node15&#45;&gt;Node5 -->
<g id="edge20_Node000015_Node000005" class="edge">
<title>Node15&#45;&gt;Node5</title>
<g id="a_edge20_Node000015_Node000005"><a xlink:title=" ">
<path fill="none" stroke="#63b8ff" d="M665.25,-111.23C625.08,-100.44 561.42,-83.33 526.19,-73.87"/>
<polygon fill="#63b8ff" stroke="#63b8ff" points="664.14,-114.55 674.71,-113.77 665.96,-107.79 664.14,-114.55"/>
</a>
</g>
</g>
<!-- Node15&#45;&gt;Node16 -->
<g id="edge21_Node000015_Node000016" class="edge">
<title>Node15&#45;&gt;Node16</title>
<g id="a_edge21_Node000015_Node000016"><a xlink:title=" ">
<path fill="none" stroke="#63b8ff" d="M701.62,-100.13C701.62,-91.9 701.62,-82.85 701.62,-76.3"/>
<polygon fill="#63b8ff" stroke="#63b8ff" points="698.13,-100.08 701.63,-110.08 705.13,-100.08 698.13,-100.08"/>
</a>
</g>
</g>
<!-- Node17&#45;&gt;Node5 -->
<g id="edge23_Node000017_Node000005" class="edge">
<title>Node17&#45;&gt;Node5</title>
<g id="a_edge23_Node000017_Node000005"><a xlink:title=" ">
<path fill="none" stroke="#63b8ff" d="M86.57,-111.83C240.2,-89.24 411.59,-74.24 475.21,-69.02"/>
<polygon fill="#63b8ff" stroke="#63b8ff" points="86.42,-108.31 77.04,-113.24 87.45,-115.23 86.42,-108.31"/>
</a>
</g>
</g>
<!-- Node18&#45;&gt;Node5 -->
<g id="edge25_Node000018_Node000005" class="edge">
<title>Node18&#45;&gt;Node5</title>
<g id="a_edge25_Node000018_Node000005"><a xlink:title=" ">
<path fill="none" stroke="#63b8ff" d="M296.73,-110.35C350.37,-98.94 433.37,-81.3 474.98,-72.45"/>
<polygon fill="#63b8ff" stroke="#63b8ff" points="296.29,-106.86 287.24,-112.37 297.75,-113.71 296.29,-106.86"/>
</a>
</g>
</g>
<!-- Node20&#45;&gt;Node9 -->
<g id="edge32_Node000020_Node000009" class="edge">
<title>Node20&#45;&gt;Node9</title>
<g id="a_edge32_Node000020_Node000009"><a xlink:title=" ">
<path fill="none" stroke="#63b8ff" d="M591.49,-330.35C573.89,-320.84 551.47,-308.74 536.18,-300.48"/>
<polygon fill="#63b8ff" stroke="#63b8ff" points="589.41,-333.2 599.87,-334.87 592.74,-327.04 589.41,-333.2"/>
</a>
</g>
</g>
<!-- Node20&#45;&gt;Node10 -->
<g id="edge33_Node000020_Node000010" class="edge">
<title>Node20&#45;&gt;Node10</title>
<g id="a_edge33_Node000020_Node000010"><a xlink:title=" ">
<path fill="none" stroke="#63b8ff" d="M604.07,-326.72C597,-317.84 588.8,-307.55 583.03,-300.3"/>
<polygon fill="#63b8ff" stroke="#63b8ff" points="601.22,-328.77 610.19,-334.41 606.7,-324.41 601.22,-328.77"/>
</a>
</g>
</g>
<!-- Node21 -->
<g id="Node000021" class="node">
<title>Node21</title>
<g id="a_Node000021"><a xlink:href="_param_table_8cpp.html" target="_top" xlink:title=" ">
<polygon fill="white" stroke="#666666" points="696.88,-300 610.38,-300 610.38,-280 696.88,-280 696.88,-300"/>
<text xml:space="preserve" text-anchor="middle" x="653.62" y="-286.5" font-family="Helvetica,sans-Serif" font-size="10.00">ParamTable.cpp</text>
</a>
</g>
</g>
<!-- Node20&#45;&gt;Node21 -->
<g id="edge31_Node000020_Node000021" class="edge">
<title>Node20&#45;&gt;Node21</title>
<g id="a_edge31_Node000020_Node000021"><a xlink:title=" ">
<path fill="none" stroke="#63b8ff" d="M630.84,-326.15C636.51,-317.4 643,-307.39 647.6,-300.3"/>
<polygon fill="#63b8ff" stroke="#63b8ff" points="628.05,-324.03 625.54,-334.32 633.92,-327.84 628.05,-324.03"/>
</a>
</g>
</g>
<!-- Node22&#45;&gt;Node4 -->
<g id="edge38_Node000022_Node000004" class="edge">
<title>Node22&#45;&gt;Node4</title>
<g id="a_edge38_Node000022_Node000004"><a xlink:title=" ">
<path fill="none" stroke="#63b8ff" d="M333.97,-165.84C383.8,-155.61 456.52,-140.68 501.63,-131.42"/>
<polygon fill="#63b8ff" stroke="#63b8ff" points="333.33,-162.4 324.24,-167.84 334.74,-169.26 333.33,-162.4"/>
</a>
</g>
</g>
<!-- Node22&#45;&gt;Node14 -->
<g id="edge37_Node000022_Node000014" class="edge">
<title>Node22&#45;&gt;Node14</title>
<g id="a_edge37_Node000022_Node000014"><a xlink:title=" ">
<path fill="none" stroke="#63b8ff" d="M305.87,-162.08C322.52,-152.62 343.56,-140.66 357.95,-132.48"/>
<polygon fill="#63b8ff" stroke="#63b8ff" points="304.45,-158.86 297.49,-166.85 307.91,-164.95 304.45,-158.86"/>
</a>
</g>
</g>
<!-- Node22&#45;&gt;Node16 -->
<g id="edge40_Node000022_Node000016" class="edge">
<title>Node22&#45;&gt;Node16</title>
<g id="a_edge40_Node000022_Node000016"><a xlink:title=" ">
<path fill="none" stroke="#63b8ff" d="M289.88,-157.63C298.98,-142.52 313.75,-122.41 332.62,-112 362.01,-95.79 587.24,-76.21 670.67,-69.44"/>
<polygon fill="#63b8ff" stroke="#63b8ff" points="286.9,-155.79 285.02,-166.22 292.99,-159.24 286.9,-155.79"/>
</a>
</g>
</g>
<!-- Node22&#45;&gt;Node17 -->
<g id="edge41_Node000022_Node000017" class="edge">
<title>Node22&#45;&gt;Node17</title>
<g id="a_edge41_Node000022_Node000017"><a xlink:title=" ">
<path fill="none" stroke="#63b8ff" d="M226.03,-165.04C180.43,-154.87 116.08,-140.51 75.62,-131.48"/>
<polygon fill="#63b8ff" stroke="#63b8ff" points="225.2,-168.44 235.72,-167.2 226.72,-161.61 225.2,-168.44"/>
</a>
</g>
</g>
<!-- Node22&#45;&gt;Node18 -->
<g id="edge42_Node000022_Node000018" class="edge">
<title>Node22&#45;&gt;Node18</title>
<g id="a_edge42_Node000022_Node000018"><a xlink:title=" ">
<path fill="none" stroke="#63b8ff" d="M267.93,-157.87C262.63,-149.19 256.6,-139.32 252.31,-132.3"/>
<polygon fill="#63b8ff" stroke="#63b8ff" points="264.89,-159.59 273.09,-166.3 270.86,-155.94 264.89,-159.59"/>
</a>
</g>
</g>
<!-- Node23 -->
<g id="Node000023" class="node">
<title>Node23</title>
<g id="a_Node000023"><a xlink:href="entity_manager_8cpp.html" target="_top" xlink:title=" ">
<polygon fill="white" stroke="#666666" points="189.75,-132 93.5,-132 93.5,-112 189.75,-112 189.75,-132"/>
<text xml:space="preserve" text-anchor="middle" x="141.62" y="-118.5" font-family="Helvetica,sans-Serif" font-size="10.00">entityManager.cpp</text>
</a>
</g>
</g>
<!-- Node22&#45;&gt;Node23 -->
<g id="edge39_Node000022_Node000023" class="edge">
<title>Node22&#45;&gt;Node23</title>
<g id="a_edge39_Node000022_Node000023"><a xlink:title=" ">
<path fill="none" stroke="#63b8ff" d="M244.87,-163.4C220.22,-153.75 187.74,-141.05 165.85,-132.48"/>
<polygon fill="#63b8ff" stroke="#63b8ff" points="243.59,-166.66 254.18,-167.04 246.14,-160.14 243.59,-166.66"/>
</a>
</g>
</g>
</g>
</svg>

<g id="navigator" transform="translate(0 0)" fill="#404254">
  <rect fill="#f2f5e9" fill-opacity="0.5" stroke="#606060" stroke-width=".5" x="0" y="0" width="60" height="60"/>
  <use id="zoomplus" xlink:href="#zoomPlus" x="17" y="9" onmousedown="handleZoom(evt,'in')"/>
  <use id="zoomminus" xlink:href="#zoomMin" x="42" y="9" onmousedown="handleZoom(evt,'out')"/>
  <use id="reset" xlink:href="#resetDef" x="30" y="36" onmousedown="handleReset()"/>
   <use id="arrowup" xlink:href="#arrowUp" x="0" y="0" onmousedown="handlePan(0,-1)"/>
  <use id="arrowright" xlink:href="#arrowRight" x="0" y="0" onmousedown="handlePan(1,0)"/>
  <use id="arrowdown" xlink:href="#arrowDown" x="0" y="0" onmousedown="handlePan(0,1)"/>
  <use id="arrowleft" xlink:href="#arrowLeft" x="0" y="0" onmousedown="handlePan(-1,0)"/>
</g>
<svg viewBox="0 0 15 15" width="100%" height="30px" preserveAspectRatio="xMaxYMin meet">
 <g id="arrow_out" transform="scale(0.3 0.3)">
  <a xlink:href="def_8h__dep__incl_org.svg" target="_base">
   <rect id="button" ry="5" rx="5" y="6" x="6" height="38" width="38"
        fill="#f2f5e9" fill-opacity="0.5" stroke="#606060" stroke-width="1.0"/>
   <path id="arrow"
     d="M 11.500037,31.436501 C 11.940474,20.09759 22.043105,11.32322 32.158766,21.979434 L 37.068811,17.246167 C 37.068811,17.246167 37.088388,32 37.088388,32 L 22.160133,31.978069 C 22.160133,31.978069 26.997745,27.140456 26.997745,27.140456 C 18.528582,18.264221 13.291696,25.230495 11.500037,31.436501 z"
     style="fill:#404040;"/>
  </a>
 </g>
</svg>

<style type='text/css'>
<![CDATA[
[data-mouse-over-selected='false'] { opacity: 0.7; }
[data-mouse-over-selected='true']  { opacity: 1.0; }
]]>
</style>
<script type="application/ecmascript"><![CDATA[
document.addEventListener('DOMContentLoaded', (event) => {
  highlightEdges();
  highlightAdjacentNodes();
});
]]></script>
</svg>
