<?xml version="1.0" encoding="UTF-8" standalone="no"?>
<!DOCTYPE svg PUBLIC "-//W3C//DTD SVG 1.1//EN"
 "http://www.w3.org/Graphics/SVG/1.1/DTD/svg11.dtd">
<!-- Generated by graphviz version 14.1.1 (0)
 -->
<!-- Title: def.cpp Pages: 1 -->
<svg width="212pt" height="84pt"
 viewBox="0.00 0.00 212.00 84.00" xmlns="http://www.w3.org/2000/svg" xmlns:xlink="http://www.w3.org/1999/xlink">
<g id="graph0" class="graph" transform="scale(1 1) rotate(0) translate(4 80)">
<title>def.cpp</title>
<!-- Node1 -->
<g id="Node000001" class="node">
<title>Node1</title>
<g id="a_Node000001"><a xlink:title=" ">
<polygon fill="#999999" stroke="#666666" points="144.5,-76 96.25,-76 96.25,-56 144.5,-56 144.5,-76"/>
<text xml:space="preserve" text-anchor="middle" x="120.38" y="-62.5" font-family="Helvetica,sans-Serif" font-size="10.00">def.cpp</text>
</a>
</g>
</g>
<!-- Node2 -->
<g id="Node000002" class="node">
<title>Node2</title>
<g id="a_Node000002"><a xlink:title=" ">
<polygon fill="#e0e0e0" stroke="#999999" points="82.75,-20 0,-20 0,0 82.75,0 82.75,-20"/>
<text xml:space="preserve" text-anchor="middle" x="41.38" y="-6.5" font-family="Helvetica,sans-Serif" font-size="10.00">unordered_map</text>
</a>
</g>
</g>
<!-- Node1&#45;&gt;Node2 -->
<g id="edge1_Node000001_Node000002" class="edge">
<title>Node1&#45;&gt;Node2</title>
<g id="a_edge1_Node000001_Node000002"><a xlink:title=" ">
<path fill="none" stroke="#63b8ff" d="M106.61,-55.59C95.02,-47.67 78.18,-36.16 64.51,-26.82"/>
<polygon fill="#63b8ff" stroke="#63b8ff" points="66.72,-24.09 56.49,-21.33 62.77,-29.87 66.72,-24.09"/>
</a>
</g>
</g>
<!-- Node3 -->
<g id="Node000003" class="node">
<title>Node3</title>
<g id="a_Node000003"><a xlink:title=" ">
<polygon fill="#e0e0e0" stroke="#999999" points="140.38,-20 100.38,-20 100.38,0 140.38,0 140.38,-20"/>
<text xml:space="preserve" text-anchor="middle" x="120.38" y="-6.5" font-family="Helvetica,sans-Serif" font-size="10.00">string</text>
</a>
</g>
</g>
<!-- Node1&#45;&gt;Node3 -->
<g id="edge2_Node000001_Node000003" class="edge">
<title>Node1&#45;&gt;Node3</title>
<g id="a_edge2_Node000001_Node000003"><a xlink:title=" ">
<path fill="none" stroke="#63b8ff" d="M120.38,-55.59C120.38,-49.01 120.38,-39.96 120.38,-31.73"/>
<polygon fill="#63b8ff" stroke="#63b8ff" points="123.88,-31.81 120.38,-21.81 116.88,-31.81 123.88,-31.81"/>
</a>
</g>
</g>
<!-- Node4 -->
<g id="Node000004" class="node">
<title>Node4</title>
<g id="a_Node000004"><a xlink:title=" ">
<polygon fill="#e0e0e0" stroke="#999999" points="204,-20 158.75,-20 158.75,0 204,0 204,-20"/>
<text xml:space="preserve" text-anchor="middle" x="181.38" y="-6.5" font-family="Helvetica,sans-Serif" font-size="10.00">cstdint</text>
</a>
</g>
</g>
<!-- Node1&#45;&gt;Node4 -->
<g id="edge3_Node000001_Node000004" class="edge">
<title>Node1&#45;&gt;Node4</title>
<g id="a_edge3_Node000001_Node000004"><a xlink:title=" ">
<path fill="none" stroke="#63b8ff" d="M131,-55.59C139.66,-47.93 152.11,-36.91 162.46,-27.75"/>
<polygon fill="#63b8ff" stroke="#63b8ff" points="164.57,-30.55 169.74,-21.3 159.93,-25.31 164.57,-30.55"/>
</a>
</g>
</g>
</g>
</svg>
