<?xml version="1.0" encoding="UTF-8" standalone="no"?>
<!DOCTYPE svg PUBLIC "-//W3C//DTD SVG 1.1//EN"
 "http://www.w3.org/Graphics/SVG/1.1/DTD/svg11.dtd">
<!-- Generated by graphviz version 14.1.1 (0)
 -->
<!-- Title: enemyBezier.h Pages: 1 -->
<svg width="1031pt" height="420pt"
 viewBox="0.00 0.00 1031.00 420.00" xmlns="http://www.w3.org/2000/svg" xmlns:xlink="http://www.w3.org/1999/xlink">
<g id="graph0" class="graph" transform="scale(1 1) rotate(0) translate(4 416)">
<title>enemyBezier.h</title>
<!-- Node1 -->
<g id="Node000001" class="node">
<title>Node1</title>
<g id="a_Node000001"><a xlink:title=" ">
<polygon fill="#999999" stroke="#666666" points="309.88,-412 228.62,-412 228.62,-392 309.88,-392 309.88,-412"/>
<text xml:space="preserve" text-anchor="middle" x="269.25" y="-398.5" font-family="Helvetica,sans-Serif" font-size="10.00">enemyBezier.h</text>
</a>
</g>
</g>
<!-- Node2 -->
<g id="Node000002" class="node">
<title>Node2</title>
<g id="a_Node000002"><a xlink:href="def_8h.html" target="_top" xlink:title=" ">
<polygon fill="white" stroke="#666666" points="248.5,-132 180,-132 180,-112 248.5,-112 248.5,-132"/>
<text xml:space="preserve" text-anchor="middle" x="214.25" y="-118.5" font-family="Helvetica,sans-Serif" font-size="10.00">../core/def.h</text>
</a>
</g>
</g>
<!-- Node1&#45;&gt;Node2 -->
<g id="edge1_Node000001_Node000002" class="edge">
<title>Node1&#45;&gt;Node2</title>
<g id="a_edge1_Node000001_Node000002"><a xlink:title=" ">
<path fill="none" stroke="#63b8ff" d="M243.05,-391.56C206.39,-376.46 144.25,-343.18 144.25,-291 144.25,-291 144.25,-291 144.25,-233 144.25,-195.17 174.08,-159.85 194.8,-139.89"/>
<polygon fill="#63b8ff" stroke="#63b8ff" points="196.92,-142.69 201.89,-133.34 192.17,-137.55 196.92,-142.69"/>
</a>
</g>
</g>
<!-- Node6 -->
<g id="Node000006" class="node">
<title>Node6</title>
<g id="a_Node000006"><a xlink:href="collider_8h.html" target="_top" xlink:title=" ">
<polygon fill="white" stroke="#666666" points="348.12,-356 262.38,-356 262.38,-336 348.12,-336 348.12,-356"/>
<text xml:space="preserve" text-anchor="middle" x="305.25" y="-342.5" font-family="Helvetica,sans-Serif" font-size="10.00">../core/collider.h</text>
</a>
</g>
</g>
<!-- Node1&#45;&gt;Node6 -->
<g id="edge5_Node000001_Node000006" class="edge">
<title>Node1&#45;&gt;Node6</title>
<g id="a_edge5_Node000001_Node000006"><a xlink:title=" ">
<path fill="none" stroke="#63b8ff" d="M275.52,-391.59C280.27,-384.47 286.95,-374.45 292.77,-365.72"/>
<polygon fill="#63b8ff" stroke="#63b8ff" points="295.58,-367.82 298.21,-357.56 289.75,-363.94 295.58,-367.82"/>
</a>
</g>
</g>
<!-- Node7 -->
<g id="Node000007" class="node">
<title>Node7</title>
<g id="a_Node000007"><a xlink:href="gfx_8h.html" target="_top" xlink:title=" ">
<polygon fill="white" stroke="#666666" points="456.5,-300 370,-300 370,-280 456.5,-280 456.5,-300"/>
<text xml:space="preserve" text-anchor="middle" x="413.25" y="-286.5" font-family="Helvetica,sans-Serif" font-size="10.00">../graphics/gfx.h</text>
</a>
</g>
</g>
<!-- Node1&#45;&gt;Node7 -->
<g id="edge43_Node000001_Node000007" class="edge">
<title>Node1&#45;&gt;Node7</title>
<g id="a_edge43_Node000001_Node000007"><a xlink:title=" ">
<path fill="none" stroke="#63b8ff" d="M293.5,-391.63C312.05,-383.77 337.69,-371.38 357.25,-356 374.21,-342.67 389.91,-323.61 400.34,-309.58"/>
<polygon fill="#63b8ff" stroke="#63b8ff" points="403.06,-311.79 406.06,-301.63 397.38,-307.7 403.06,-311.79"/>
</a>
</g>
</g>
<!-- Node10 -->
<g id="Node000010" class="node">
<title>Node10</title>
<g id="a_Node000010"><a xlink:href="all_8h.html" target="_top" xlink:title=" ">
<polygon fill="white" stroke="#666666" points="644.38,-244 572.12,-244 572.12,-224 644.38,-224 644.38,-244"/>
<text xml:space="preserve" text-anchor="middle" x="608.25" y="-230.5" font-family="Helvetica,sans-Serif" font-size="10.00">../tables/all.h</text>
</a>
</g>
</g>
<!-- Node1&#45;&gt;Node10 -->
<g id="edge48_Node000001_Node000010" class="edge">
<title>Node1&#45;&gt;Node10</title>
<g id="a_edge48_Node000001_Node000010"><a xlink:title=" ">
<path fill="none" stroke="#63b8ff" d="M294.94,-391.58C317.86,-382.97 352.19,-369.54 381.25,-356 455.73,-321.31 540.4,-273.98 582.15,-250.1"/>
<polygon fill="#63b8ff" stroke="#63b8ff" points="583.8,-253.19 590.73,-245.18 580.31,-247.12 583.8,-253.19"/>
</a>
</g>
</g>
<!-- Node23 -->
<g id="Node000023" class="node">
<title>Node23</title>
<g id="a_Node000023"><a xlink:href="entity_manager_8h.html" target="_top" xlink:title=" ">
<polygon fill="white" stroke="#666666" points="116.5,-188 0,-188 0,-168 116.5,-168 116.5,-188"/>
<text xml:space="preserve" text-anchor="middle" x="58.25" y="-174.5" font-family="Helvetica,sans-Serif" font-size="10.00">../core/entityManager.h</text>
</a>
</g>
</g>
<!-- Node1&#45;&gt;Node23 -->
<g id="edge38_Node000001_Node000023" class="edge">
<title>Node1&#45;&gt;Node23</title>
<g id="a_edge38_Node000001_Node000023"><a xlink:title=" ">
<path fill="none" stroke="#63b8ff" d="M260.45,-391.74C228.35,-357.96 117.16,-240.99 74.81,-196.42"/>
<polygon fill="#63b8ff" stroke="#63b8ff" points="77.55,-194.23 68.13,-189.39 72.48,-199.05 77.55,-194.23"/>
</a>
</g>
</g>
<!-- Node25 -->
<g id="Node000025" class="node">
<title>Node25</title>
<g id="a_Node000025"><a xlink:href="_bezier_mover_8h.html" target="_top" xlink:title=" ">
<polygon fill="white" stroke="#666666" points="289.75,-188 210.75,-188 210.75,-168 289.75,-168 289.75,-188"/>
<text xml:space="preserve" text-anchor="middle" x="250.25" y="-174.5" font-family="Helvetica,sans-Serif" font-size="10.00">BezierMover.h</text>
</a>
</g>
</g>
<!-- Node1&#45;&gt;Node25 -->
<g id="edge44_Node000001_Node000025" class="edge">
<title>Node1&#45;&gt;Node25</title>
<g id="a_edge44_Node000001_Node000025"><a xlink:title=" ">
<path fill="none" stroke="#63b8ff" d="M264.89,-391.59C260.99,-382.65 255.56,-368.73 253.25,-356 243.14,-300.2 246.04,-232.89 248.46,-199.65"/>
<polygon fill="#63b8ff" stroke="#63b8ff" points="251.93,-200.07 249.24,-189.83 244.95,-199.52 251.93,-200.07"/>
</a>
</g>
</g>
<!-- Node3 -->
<g id="Node000003" class="node">
<title>Node3</title>
<g id="a_Node000003"><a xlink:title=" ">
<polygon fill="#e0e0e0" stroke="#999999" points="454.88,-76 409.62,-76 409.62,-56 454.88,-56 454.88,-76"/>
<text xml:space="preserve" text-anchor="middle" x="432.25" y="-62.5" font-family="Helvetica,sans-Serif" font-size="10.00">cstdint</text>
</a>
</g>
</g>
<!-- Node2&#45;&gt;Node3 -->
<g id="edge2_Node000002_Node000003" class="edge">
<title>Node2&#45;&gt;Node3</title>
<g id="a_edge2_Node000002_Node000003"><a xlink:title=" ">
<path fill="none" stroke="#63b8ff" d="M248.79,-112.44C289.75,-102.3 357.57,-85.5 398.27,-75.42"/>
<polygon fill="#63b8ff" stroke="#63b8ff" points="398.9,-78.87 407.77,-73.06 397.22,-72.07 398.9,-78.87"/>
</a>
</g>
</g>
<!-- Node4 -->
<g id="Node000004" class="node">
<title>Node4</title>
<g id="a_Node000004"><a xlink:title=" ">
<polygon fill="#e0e0e0" stroke="#999999" points="327.25,-76 287.25,-76 287.25,-56 327.25,-56 327.25,-76"/>
<text xml:space="preserve" text-anchor="middle" x="307.25" y="-62.5" font-family="Helvetica,sans-Serif" font-size="10.00">string</text>
</a>
</g>
</g>
<!-- Node2&#45;&gt;Node4 -->
<g id="edge3_Node000002_Node000004" class="edge">
<title>Node2&#45;&gt;Node4</title>
<g id="a_edge3_Node000002_Node000004"><a xlink:title=" ">
<path fill="none" stroke="#63b8ff" d="M230.45,-111.59C244.5,-103.44 265.08,-91.48 281.41,-82"/>
<polygon fill="#63b8ff" stroke="#63b8ff" points="282.72,-85.29 289.62,-77.24 279.21,-79.23 282.72,-85.29"/>
</a>
</g>
</g>
<!-- Node5 -->
<g id="Node000005" class="node">
<title>Node5</title>
<g id="a_Node000005"><a xlink:href="vec2_8h.html" target="_top" xlink:title=" ">
<polygon fill="white" stroke="#666666" points="236.88,-76 191.62,-76 191.62,-56 236.88,-56 236.88,-76"/>
<text xml:space="preserve" text-anchor="middle" x="214.25" y="-62.5" font-family="Helvetica,sans-Serif" font-size="10.00">vec2.h</text>
</a>
</g>
</g>
<!-- Node2&#45;&gt;Node5 -->
<g id="edge4_Node000002_Node000005" class="edge">
<title>Node2&#45;&gt;Node5</title>
<g id="a_edge4_Node000002_Node000005"><a xlink:title=" ">
<path fill="none" stroke="#63b8ff" d="M214.25,-111.59C214.25,-105.01 214.25,-95.96 214.25,-87.73"/>
<polygon fill="#63b8ff" stroke="#63b8ff" points="217.75,-87.81 214.25,-77.81 210.75,-87.81 217.75,-87.81"/>
</a>
</g>
</g>
<!-- Node6&#45;&gt;Node2 -->
<g id="edge6_Node000006_Node000002" class="edge">
<title>Node6&#45;&gt;Node2</title>
<g id="a_edge6_Node000006_Node000002"><a xlink:title=" ">
<path fill="none" stroke="#63b8ff" d="M296.27,-335.75C274.86,-312.98 221.19,-251.41 202.25,-188 197.82,-173.18 201.38,-155.96 205.75,-142.96"/>
<polygon fill="#63b8ff" stroke="#63b8ff" points="208.94,-144.41 209.23,-133.82 202.4,-141.92 208.94,-144.41"/>
</a>
</g>
</g>
<!-- Node6&#45;&gt;Node7 -->
<g id="edge7_Node000006_Node000007" class="edge">
<title>Node6&#45;&gt;Node7</title>
<g id="a_edge7_Node000006_Node000007"><a xlink:title=" ">
<path fill="none" stroke="#63b8ff" d="M324.06,-335.59C340.61,-327.32 364.96,-315.14 384.04,-305.6"/>
<polygon fill="#63b8ff" stroke="#63b8ff" points="385.56,-308.76 392.94,-301.16 382.43,-302.5 385.56,-308.76"/>
</a>
</g>
</g>
<!-- Node9 -->
<g id="Node000009" class="node">
<title>Node9</title>
<g id="a_Node000009"><a xlink:title=" ">
<polygon fill="#e0e0e0" stroke="#999999" points="309.75,-132 266.75,-132 266.75,-112 309.75,-112 309.75,-132"/>
<text xml:space="preserve" text-anchor="middle" x="288.25" y="-118.5" font-family="Helvetica,sans-Serif" font-size="10.00">vector</text>
</a>
</g>
</g>
<!-- Node6&#45;&gt;Node9 -->
<g id="edge37_Node000006_Node000009" class="edge">
<title>Node6&#45;&gt;Node9</title>
<g id="a_edge37_Node000006_Node000009"><a xlink:title=" ">
<path fill="none" stroke="#63b8ff" d="M305.6,-335.73C306.47,-309.35 308.01,-231.66 299.25,-168 298.11,-159.74 296.09,-150.79 294.09,-143.06"/>
<polygon fill="#63b8ff" stroke="#63b8ff" points="297.53,-142.37 291.49,-133.66 290.78,-144.23 297.53,-142.37"/>
</a>
</g>
</g>
<!-- Node7&#45;&gt;Node3 -->
<g id="edge8_Node000007_Node000003" class="edge">
<title>Node7&#45;&gt;Node3</title>
<g id="a_edge8_Node000007_Node000003"><a xlink:title=" ">
<path fill="none" stroke="#63b8ff" d="M414.04,-279.74C416.87,-246.74 426.49,-134.31 430.49,-87.61"/>
<polygon fill="#63b8ff" stroke="#63b8ff" points="433.96,-88.07 431.33,-77.8 426.99,-87.47 433.96,-88.07"/>
</a>
</g>
</g>
<!-- Node7&#45;&gt;Node4 -->
<g id="edge9_Node000007_Node000004" class="edge">
<title>Node7&#45;&gt;Node4</title>
<g id="a_edge9_Node000007_Node000004"><a xlink:title=" ">
<path fill="none" stroke="#63b8ff" d="M408.83,-279.74C392.94,-246.46 338.47,-132.39 316.52,-86.42"/>
<polygon fill="#63b8ff" stroke="#63b8ff" points="319.81,-85.18 312.34,-77.66 313.49,-88.19 319.81,-85.18"/>
</a>
</g>
</g>
<!-- Node8 -->
<g id="Node000008" class="node">
<title>Node8</title>
<g id="a_Node000008"><a xlink:title=" ">
<polygon fill="#e0e0e0" stroke="#999999" points="1022.62,-132 939.88,-132 939.88,-112 1022.62,-112 1022.62,-132"/>
<text xml:space="preserve" text-anchor="middle" x="981.25" y="-118.5" font-family="Helvetica,sans-Serif" font-size="10.00">unordered_map</text>
</a>
</g>
</g>
<!-- Node7&#45;&gt;Node8 -->
<g id="edge10_Node000007_Node000008" class="edge">
<title>Node7&#45;&gt;Node8</title>
<g id="a_edge10_Node000007_Node000008"><a xlink:title=" ">
<path fill="none" stroke="#63b8ff" d="M456.67,-283.11C505.13,-276.01 585.62,-262.67 653.25,-244 764.55,-213.27 891.56,-161.39 949.47,-136.77"/>
<polygon fill="#63b8ff" stroke="#63b8ff" points="950.57,-140.1 958.39,-132.95 947.82,-133.67 950.57,-140.1"/>
</a>
</g>
</g>
<!-- Node7&#45;&gt;Node9 -->
<g id="edge11_Node000007_Node000009" class="edge">
<title>Node7&#45;&gt;Node9</title>
<g id="a_edge11_Node000007_Node000009"><a xlink:title=" ">
<path fill="none" stroke="#63b8ff" d="M406.23,-279.83C399.42,-270.83 388.87,-256.65 380.25,-244 357.76,-210.98 357.02,-199.35 332.25,-168 324.59,-158.3 315.11,-148.39 306.91,-140.35"/>
<polygon fill="#63b8ff" stroke="#63b8ff" points="309.41,-137.89 299.76,-133.5 304.56,-142.94 309.41,-137.89"/>
</a>
</g>
</g>
<!-- Node7&#45;&gt;Node10 -->
<g id="edge12_Node000007_Node000010" class="edge">
<title>Node7&#45;&gt;Node10</title>
<g id="a_edge12_Node000007_Node000010"><a xlink:title=" ">
<path fill="none" stroke="#63b8ff" d="M447.22,-279.59C479.32,-270.71 527.69,-257.31 563.04,-247.52"/>
<polygon fill="#63b8ff" stroke="#63b8ff" points="563.86,-250.93 572.56,-244.88 561.99,-244.18 563.86,-250.93"/>
</a>
</g>
</g>
<!-- Node22 -->
<g id="Node000022" class="node">
<title>Node22</title>
<g id="a_Node000022"><a xlink:href="_s_d_l__def_8h.html" target="_top" xlink:title=" ">
<polygon fill="white" stroke="#666666" points="553.88,-244 460.62,-244 460.62,-224 553.88,-224 553.88,-244"/>
<text xml:space="preserve" text-anchor="middle" x="507.25" y="-230.5" font-family="Helvetica,sans-Serif" font-size="10.00">../core/SDL_def.h</text>
</a>
</g>
</g>
<!-- Node7&#45;&gt;Node22 -->
<g id="edge36_Node000007_Node000022" class="edge">
<title>Node7&#45;&gt;Node22</title>
<g id="a_edge36_Node000007_Node000022"><a xlink:title=" ">
<path fill="none" stroke="#63b8ff" d="M429.62,-279.59C443.82,-271.44 464.63,-259.48 481.13,-250"/>
<polygon fill="#63b8ff" stroke="#63b8ff" points="482.51,-253.25 489.44,-245.23 479.02,-247.18 482.51,-253.25"/>
</a>
</g>
</g>
<!-- Node11 -->
<g id="Node000011" class="node">
<title>Node11</title>
<g id="a_Node000011"><a xlink:href="_entity_table_8h.html" target="_top" xlink:title=" ">
<polygon fill="white" stroke="#666666" points="787.75,-188 714.75,-188 714.75,-168 787.75,-168 787.75,-188"/>
<text xml:space="preserve" text-anchor="middle" x="751.25" y="-174.5" font-family="Helvetica,sans-Serif" font-size="10.00">EntityTable.h</text>
</a>
</g>
</g>
<!-- Node10&#45;&gt;Node11 -->
<g id="edge13_Node000010_Node000011" class="edge">
<title>Node10&#45;&gt;Node11</title>
<g id="a_edge13_Node000010_Node000011"><a xlink:title=" ">
<path fill="none" stroke="#63b8ff" d="M633.16,-223.59C655.98,-214.97 690.03,-202.12 715.71,-192.42"/>
<polygon fill="#63b8ff" stroke="#63b8ff" points="716.61,-195.82 724.73,-189.01 714.14,-189.27 716.61,-195.82"/>
</a>
</g>
</g>
<!-- Node20 -->
<g id="Node000020" class="node">
<title>Node20</title>
<g id="a_Node000020"><a xlink:href="_param_table_8h.html" target="_top" xlink:title=" ">
<polygon fill="white" stroke="#666666" points="565.25,-188 489.25,-188 489.25,-168 565.25,-168 565.25,-188"/>
<text xml:space="preserve" text-anchor="middle" x="527.25" y="-174.5" font-family="Helvetica,sans-Serif" font-size="10.00">ParamTable.h</text>
</a>
</g>
</g>
<!-- Node10&#45;&gt;Node20 -->
<g id="edge26_Node000010_Node000020" class="edge">
<title>Node10&#45;&gt;Node20</title>
<g id="a_edge26_Node000010_Node000020"><a xlink:title=" ">
<path fill="none" stroke="#63b8ff" d="M594.14,-223.59C582.25,-215.67 564.98,-204.16 550.97,-194.82"/>
<polygon fill="#63b8ff" stroke="#63b8ff" points="552.99,-191.95 542.73,-189.32 549.11,-197.78 552.99,-191.95"/>
</a>
</g>
</g>
<!-- Node11&#45;&gt;Node2 -->
<g id="edge20_Node000011_Node000002" class="edge">
<title>Node11&#45;&gt;Node2</title>
<g id="a_edge20_Node000011_Node000002"><a xlink:title=" ">
<path fill="none" stroke="#63b8ff" d="M714.29,-175.03C633.74,-170.43 436.19,-157.54 260.07,-132.09"/>
<polygon fill="#63b8ff" stroke="#63b8ff" points="260.67,-128.64 250.27,-130.66 259.66,-135.57 260.67,-128.64"/>
</a>
</g>
</g>
<!-- Node11&#45;&gt;Node3 -->
<g id="edge14_Node000011_Node000003" class="edge">
<title>Node11&#45;&gt;Node3</title>
<g id="a_edge14_Node000011_Node000003"><a xlink:title=" ">
<path fill="none" stroke="#63b8ff" d="M756.7,-167.77C764.09,-153.91 774.91,-127.66 761.25,-112 742.05,-90 547.18,-74.64 466.72,-69.19"/>
<polygon fill="#63b8ff" stroke="#63b8ff" points="466.99,-65.7 456.78,-68.52 466.53,-72.68 466.99,-65.7"/>
</a>
</g>
</g>
<!-- Node11&#45;&gt;Node8 -->
<g id="edge17_Node000011_Node000008" class="edge">
<title>Node11&#45;&gt;Node8</title>
<g id="a_edge17_Node000011_Node000008"><a xlink:title=" ">
<path fill="none" stroke="#63b8ff" d="M788.2,-168.32C826.55,-159.32 886.83,-145.17 929.82,-135.07"/>
<polygon fill="#63b8ff" stroke="#63b8ff" points="930.5,-138.51 939.43,-132.82 928.9,-131.7 930.5,-138.51"/>
</a>
</g>
</g>
<!-- Node12 -->
<g id="Node000012" class="node">
<title>Node12</title>
<g id="a_Node000012"><a xlink:title=" ">
<polygon fill="#e0e0e0" stroke="#999999" points="752.62,-132 693.88,-132 693.88,-112 752.62,-112 752.62,-132"/>
<text xml:space="preserve" text-anchor="middle" x="723.25" y="-118.5" font-family="Helvetica,sans-Serif" font-size="10.00">stdexcept</text>
</a>
</g>
</g>
<!-- Node11&#45;&gt;Node12 -->
<g id="edge15_Node000011_Node000012" class="edge">
<title>Node11&#45;&gt;Node12</title>
<g id="a_edge15_Node000011_Node000012"><a xlink:title=" ">
<path fill="none" stroke="#63b8ff" d="M746.37,-167.59C742.76,-160.63 737.71,-150.89 733.25,-142.29"/>
<polygon fill="#63b8ff" stroke="#63b8ff" points="736.48,-140.91 728.77,-133.64 730.26,-144.13 736.48,-140.91"/>
</a>
</g>
</g>
<!-- Node13 -->
<g id="Node000013" class="node">
<title>Node13</title>
<g id="a_Node000013"><a xlink:title=" ">
<polygon fill="#e0e0e0" stroke="#999999" points="658,-76 592.5,-76 592.5,-56 658,-56 658,-76"/>
<text xml:space="preserve" text-anchor="middle" x="625.25" y="-62.5" font-family="Helvetica,sans-Serif" font-size="10.00">string_view</text>
</a>
</g>
</g>
<!-- Node11&#45;&gt;Node13 -->
<g id="edge16_Node000011_Node000013" class="edge">
<title>Node11&#45;&gt;Node13</title>
<g id="a_edge16_Node000011_Node000013"><a xlink:title=" ">
<path fill="none" stroke="#63b8ff" d="M765.18,-167.68C782.7,-154.79 808.84,-130.99 794.25,-112 779.1,-92.29 714.19,-79.38 669.37,-72.64"/>
<polygon fill="#63b8ff" stroke="#63b8ff" points="670.07,-69.21 659.67,-71.24 669.06,-76.13 670.07,-69.21"/>
</a>
</g>
</g>
<!-- Node14 -->
<g id="Node000014" class="node">
<title>Node14</title>
<g id="a_Node000014"><a xlink:href="rapid_string_8h.html" target="_top" xlink:title=" ">
<polygon fill="white" stroke="#666666" points="676,-132 574.5,-132 574.5,-112 676,-112 676,-132"/>
<text xml:space="preserve" text-anchor="middle" x="625.25" y="-118.5" font-family="Helvetica,sans-Serif" font-size="10.00">../core/rapidString.h</text>
</a>
</g>
</g>
<!-- Node11&#45;&gt;Node14 -->
<g id="edge18_Node000011_Node000014" class="edge">
<title>Node11&#45;&gt;Node14</title>
<g id="a_edge18_Node000011_Node000014"><a xlink:title=" ">
<path fill="none" stroke="#63b8ff" d="M729.3,-167.59C709.55,-159.13 680.26,-146.58 657.78,-136.94"/>
<polygon fill="#63b8ff" stroke="#63b8ff" points="659.33,-133.8 648.76,-133.08 656.57,-140.23 659.33,-133.8"/>
</a>
</g>
</g>
<!-- Node15 -->
<g id="Node000015" class="node">
<title>Node15</title>
<g id="a_Node000015"><a xlink:href="fsutil_8h.html" target="_top" xlink:title=" ">
<polygon fill="white" stroke="#666666" points="922.25,-132 846.25,-132 846.25,-112 922.25,-112 922.25,-132"/>
<text xml:space="preserve" text-anchor="middle" x="884.25" y="-118.5" font-family="Helvetica,sans-Serif" font-size="10.00">../core/fsutil.h</text>
</a>
</g>
</g>
<!-- Node11&#45;&gt;Node15 -->
<g id="edge21_Node000011_Node000015" class="edge">
<title>Node11&#45;&gt;Node15</title>
<g id="a_edge21_Node000011_Node000015"><a xlink:title=" ">
<path fill="none" stroke="#63b8ff" d="M774.42,-167.59C795.46,-159.05 826.75,-146.35 850.55,-136.68"/>
<polygon fill="#63b8ff" stroke="#63b8ff" points="851.55,-140.05 859.5,-133.05 848.92,-133.57 851.55,-140.05"/>
</a>
</g>
</g>
<!-- Node14&#45;&gt;Node13 -->
<g id="edge19_Node000014_Node000013" class="edge">
<title>Node14&#45;&gt;Node13</title>
<g id="a_edge19_Node000014_Node000013"><a xlink:title=" ">
<path fill="none" stroke="#63b8ff" d="M625.25,-111.59C625.25,-105.01 625.25,-95.96 625.25,-87.73"/>
<polygon fill="#63b8ff" stroke="#63b8ff" points="628.75,-87.81 625.25,-77.81 621.75,-87.81 628.75,-87.81"/>
</a>
</g>
</g>
<!-- Node16 -->
<g id="Node000016" class="node">
<title>Node16</title>
<g id="a_Node000016"><a xlink:href="json_8h.html" target="_top" xlink:title=" ">
<polygon fill="white" stroke="#666666" points="780.38,-76 738.12,-76 738.12,-56 780.38,-56 780.38,-76"/>
<text xml:space="preserve" text-anchor="middle" x="759.25" y="-62.5" font-family="Helvetica,sans-Serif" font-size="10.00">json.h</text>
</a>
</g>
</g>
<!-- Node15&#45;&gt;Node16 -->
<g id="edge22_Node000015_Node000016" class="edge">
<title>Node15&#45;&gt;Node16</title>
<g id="a_edge22_Node000015_Node000016"><a xlink:title=" ">
<path fill="none" stroke="#63b8ff" d="M862.48,-111.59C842.76,-103.08 813.47,-90.42 791.12,-80.77"/>
<polygon fill="#63b8ff" stroke="#63b8ff" points="792.73,-77.65 782.16,-76.9 789.96,-84.08 792.73,-77.65"/>
</a>
</g>
</g>
<!-- Node19 -->
<g id="Node000019" class="node">
<title>Node19</title>
<g id="a_Node000019"><a xlink:title=" ">
<polygon fill="#e0e0e0" stroke="#999999" points="908.75,-76 859.75,-76 859.75,-56 908.75,-56 908.75,-76"/>
<text xml:space="preserve" text-anchor="middle" x="884.25" y="-62.5" font-family="Helvetica,sans-Serif" font-size="10.00">fstream</text>
</a>
</g>
</g>
<!-- Node15&#45;&gt;Node19 -->
<g id="edge25_Node000015_Node000019" class="edge">
<title>Node15&#45;&gt;Node19</title>
<g id="a_edge25_Node000015_Node000019"><a xlink:title=" ">
<path fill="none" stroke="#63b8ff" d="M884.25,-111.59C884.25,-105.01 884.25,-95.96 884.25,-87.73"/>
<polygon fill="#63b8ff" stroke="#63b8ff" points="887.75,-87.81 884.25,-77.81 880.75,-87.81 887.75,-87.81"/>
</a>
</g>
</g>
<!-- Node17 -->
<g id="Node000017" class="node">
<title>Node17</title>
<g id="a_Node000017"><a xlink:title=" ">
<polygon fill="#e0e0e0" stroke="#999999" points="743.75,-20 634.75,-20 634.75,0 743.75,0 743.75,-20"/>
<text xml:space="preserve" text-anchor="middle" x="689.25" y="-6.5" font-family="Helvetica,sans-Serif" font-size="10.00">rapidjson/document.h</text>
</a>
</g>
</g>
<!-- Node16&#45;&gt;Node17 -->
<g id="edge23_Node000016_Node000017" class="edge">
<title>Node16&#45;&gt;Node17</title>
<g id="a_edge23_Node000016_Node000017"><a xlink:title=" ">
<path fill="none" stroke="#63b8ff" d="M747.06,-55.59C736.92,-47.77 722.26,-36.46 710.24,-27.19"/>
<polygon fill="#63b8ff" stroke="#63b8ff" points="712.56,-24.56 702.5,-21.22 708.28,-30.1 712.56,-24.56"/>
</a>
</g>
</g>
<!-- Node18 -->
<g id="Node000018" class="node">
<title>Node18</title>
<g id="a_Node000018"><a xlink:title=" ">
<polygon fill="#e0e0e0" stroke="#999999" points="894.75,-20 761.75,-20 761.75,0 894.75,0 894.75,-20"/>
<text xml:space="preserve" text-anchor="middle" x="828.25" y="-6.5" font-family="Helvetica,sans-Serif" font-size="10.00">rapidjson/istreamwrapper.h</text>
</a>
</g>
</g>
<!-- Node16&#45;&gt;Node18 -->
<g id="edge24_Node000016_Node000018" class="edge">
<title>Node16&#45;&gt;Node18</title>
<g id="a_edge24_Node000016_Node000018"><a xlink:title=" ">
<path fill="none" stroke="#63b8ff" d="M771.27,-55.59C781.26,-47.77 795.71,-36.46 807.56,-27.19"/>
<polygon fill="#63b8ff" stroke="#63b8ff" points="809.46,-30.15 815.18,-21.23 805.14,-24.64 809.46,-30.15"/>
</a>
</g>
</g>
<!-- Node20&#45;&gt;Node2 -->
<g id="edge33_Node000020_Node000002" class="edge">
<title>Node20&#45;&gt;Node2</title>
<g id="a_edge33_Node000020_Node000002"><a xlink:title=" ">
<path fill="none" stroke="#63b8ff" d="M488.86,-171.02C438.75,-163.12 348.02,-148.49 260.08,-132.28"/>
<polygon fill="#63b8ff" stroke="#63b8ff" points="260.77,-128.85 250.3,-130.47 259.5,-135.73 260.77,-128.85"/>
</a>
</g>
</g>
<!-- Node20&#45;&gt;Node3 -->
<g id="edge27_Node000020_Node000003" class="edge">
<title>Node20&#45;&gt;Node3</title>
<g id="a_edge27_Node000020_Node000003"><a xlink:title=" ">
<path fill="none" stroke="#63b8ff" d="M519.15,-167.62C503.38,-149.36 468.29,-108.73 447.85,-85.07"/>
<polygon fill="#63b8ff" stroke="#63b8ff" points="450.5,-82.78 441.32,-77.5 445.21,-87.36 450.5,-82.78"/>
</a>
</g>
</g>
<!-- Node20&#45;&gt;Node8 -->
<g id="edge30_Node000020_Node000008" class="edge">
<title>Node20&#45;&gt;Node8</title>
<g id="a_edge30_Node000020_Node000008"><a xlink:title=" ">
<path fill="none" stroke="#63b8ff" d="M565.51,-173.6C635.48,-167.2 788.96,-152.3 928.26,-132.36"/>
<polygon fill="#63b8ff" stroke="#63b8ff" points="928.65,-135.84 938.04,-130.94 927.65,-128.91 928.65,-135.84"/>
</a>
</g>
</g>
<!-- Node20&#45;&gt;Node9 -->
<g id="edge31_Node000020_Node000009" class="edge">
<title>Node20&#45;&gt;Node9</title>
<g id="a_edge31_Node000020_Node000009"><a xlink:title=" ">
<path fill="none" stroke="#63b8ff" d="M488.85,-168.32C442.44,-157.84 365.12,-140.37 321.26,-130.46"/>
<polygon fill="#63b8ff" stroke="#63b8ff" points="322.1,-127.06 311.57,-128.27 320.55,-133.89 322.1,-127.06"/>
</a>
</g>
</g>
<!-- Node20&#45;&gt;Node12 -->
<g id="edge28_Node000020_Node000012" class="edge">
<title>Node20&#45;&gt;Node12</title>
<g id="a_edge28_Node000020_Node000012"><a xlink:title=" ">
<path fill="none" stroke="#63b8ff" d="M561.39,-167.59C595.14,-158.3 646.78,-144.07 682.62,-134.19"/>
<polygon fill="#63b8ff" stroke="#63b8ff" points="683.49,-137.58 692.2,-131.55 681.63,-130.84 683.49,-137.58"/>
</a>
</g>
</g>
<!-- Node20&#45;&gt;Node13 -->
<g id="edge29_Node000020_Node000013" class="edge">
<title>Node20&#45;&gt;Node13</title>
<g id="a_edge29_Node000020_Node000013"><a xlink:title=" ">
<path fill="none" stroke="#63b8ff" d="M525.28,-167.67C522.96,-154.13 520.77,-128.83 532.25,-112 543.68,-95.23 563.18,-84.49 581.38,-77.73"/>
<polygon fill="#63b8ff" stroke="#63b8ff" points="582.36,-81.09 590.73,-74.59 580.13,-74.46 582.36,-81.09"/>
</a>
</g>
</g>
<!-- Node20&#45;&gt;Node14 -->
<g id="edge35_Node000020_Node000014" class="edge">
<title>Node20&#45;&gt;Node14</title>
<g id="a_edge35_Node000020_Node000014"><a xlink:title=" ">
<path fill="none" stroke="#63b8ff" d="M544.32,-167.59C559.13,-159.44 580.82,-147.48 598.02,-138"/>
<polygon fill="#63b8ff" stroke="#63b8ff" points="599.65,-141.1 606.72,-133.21 596.27,-134.97 599.65,-141.1"/>
</a>
</g>
</g>
<!-- Node20&#45;&gt;Node16 -->
<g id="edge34_Node000020_Node000016" class="edge">
<title>Node20&#45;&gt;Node16</title>
<g id="a_edge34_Node000020_Node000016"><a xlink:title=" ">
<path fill="none" stroke="#63b8ff" d="M529.98,-167.85C534.73,-153.6 545.88,-126.26 565.25,-112 590.59,-93.33 678.02,-78.46 726.4,-71.42"/>
<polygon fill="#63b8ff" stroke="#63b8ff" points="726.89,-74.89 736.3,-70.02 725.9,-67.96 726.89,-74.89"/>
</a>
</g>
</g>
<!-- Node21 -->
<g id="Node000021" class="node">
<title>Node21</title>
<g id="a_Node000021"><a xlink:title=" ">
<polygon fill="#e0e0e0" stroke="#999999" points="403.75,-132 366.75,-132 366.75,-112 403.75,-112 403.75,-132"/>
<text xml:space="preserve" text-anchor="middle" x="385.25" y="-118.5" font-family="Helvetica,sans-Serif" font-size="10.00">span</text>
</a>
</g>
</g>
<!-- Node20&#45;&gt;Node21 -->
<g id="edge32_Node000020_Node000021" class="edge">
<title>Node20&#45;&gt;Node21</title>
<g id="a_edge32_Node000020_Node000021"><a xlink:title=" ">
<path fill="none" stroke="#63b8ff" d="M502.52,-167.59C478.01,-158.28 440.49,-144.01 414.52,-134.13"/>
<polygon fill="#63b8ff" stroke="#63b8ff" points="415.83,-130.88 405.24,-130.6 413.34,-137.43 415.83,-130.88"/>
</a>
</g>
</g>
<!-- Node23&#45;&gt;Node2 -->
<g id="edge42_Node000023_Node000002" class="edge">
<title>Node23&#45;&gt;Node2</title>
<g id="a_edge42_Node000023_Node000002"><a xlink:title=" ">
<path fill="none" stroke="#63b8ff" d="M85.42,-167.59C110.55,-158.9 148.13,-145.89 176.23,-136.16"/>
<polygon fill="#63b8ff" stroke="#63b8ff" points="177.13,-139.55 185.43,-132.97 174.84,-132.94 177.13,-139.55"/>
</a>
</g>
</g>
<!-- Node23&#45;&gt;Node3 -->
<g id="edge40_Node000023_Node000003" class="edge">
<title>Node23&#45;&gt;Node3</title>
<g id="a_edge40_Node000023_Node000003"><a xlink:title=" ">
<path fill="none" stroke="#63b8ff" d="M71.07,-167.59C91.29,-153.23 132.29,-126.06 171.25,-112 212.51,-97.11 337.23,-79.42 398.1,-71.37"/>
<polygon fill="#63b8ff" stroke="#63b8ff" points="398.41,-74.86 407.87,-70.09 397.5,-67.92 398.41,-74.86"/>
</a>
</g>
</g>
<!-- Node23&#45;&gt;Node9 -->
<g id="edge39_Node000023_Node000009" class="edge">
<title>Node23&#45;&gt;Node9</title>
<g id="a_edge39_Node000023_Node000009"><a xlink:title=" ">
<path fill="none" stroke="#63b8ff" d="M103.49,-167.58C141.57,-159.47 197.72,-147.09 255.48,-132.34"/>
<polygon fill="#63b8ff" stroke="#63b8ff" points="256,-135.82 264.81,-129.93 254.26,-129.04 256,-135.82"/>
</a>
</g>
</g>
<!-- Node24 -->
<g id="Node000024" class="node">
<title>Node24</title>
<g id="a_Node000024"><a xlink:title=" ">
<polygon fill="#e0e0e0" stroke="#999999" points="77.88,-132 38.62,-132 38.62,-112 77.88,-112 77.88,-132"/>
<text xml:space="preserve" text-anchor="middle" x="58.25" y="-118.5" font-family="Helvetica,sans-Serif" font-size="10.00">limits</text>
</a>
</g>
</g>
<!-- Node23&#45;&gt;Node24 -->
<g id="edge41_Node000023_Node000024" class="edge">
<title>Node23&#45;&gt;Node24</title>
<g id="a_edge41_Node000023_Node000024"><a xlink:title=" ">
<path fill="none" stroke="#63b8ff" d="M58.25,-167.59C58.25,-161.01 58.25,-151.96 58.25,-143.73"/>
<polygon fill="#63b8ff" stroke="#63b8ff" points="61.75,-143.81 58.25,-133.81 54.75,-143.81 61.75,-143.81"/>
</a>
</g>
</g>
<!-- Node25&#45;&gt;Node2 -->
<g id="edge47_Node000025_Node000002" class="edge">
<title>Node25&#45;&gt;Node2</title>
<g id="a_edge47_Node000025_Node000002"><a xlink:title=" ">
<path fill="none" stroke="#63b8ff" d="M243.98,-167.59C239.23,-160.47 232.55,-150.45 226.73,-141.72"/>
<polygon fill="#63b8ff" stroke="#63b8ff" points="229.75,-139.94 221.29,-133.56 223.92,-143.82 229.75,-139.94"/>
</a>
</g>
</g>
<!-- Node25&#45;&gt;Node9 -->
<g id="edge45_Node000025_Node000009" class="edge">
<title>Node25&#45;&gt;Node9</title>
<g id="a_edge45_Node000025_Node000009"><a xlink:title=" ">
<path fill="none" stroke="#63b8ff" d="M256.87,-167.59C261.94,-160.39 269.09,-150.23 275.28,-141.43"/>
<polygon fill="#63b8ff" stroke="#63b8ff" points="277.94,-143.73 280.84,-133.54 272.22,-139.7 277.94,-143.73"/>
</a>
</g>
</g>
<!-- Node25&#45;&gt;Node21 -->
<g id="edge46_Node000025_Node000021" class="edge">
<title>Node25&#45;&gt;Node21</title>
<g id="a_edge46_Node000025_Node000021"><a xlink:title=" ">
<path fill="none" stroke="#63b8ff" d="M273.77,-167.59C296.56,-158.47 331.22,-144.61 355.83,-134.77"/>
<polygon fill="#63b8ff" stroke="#63b8ff" points="356.96,-138.08 364.95,-131.12 354.36,-131.58 356.96,-138.08"/>
</a>
</g>
</g>
</g>
</svg>
