<?xml version="1.0" encoding="UTF-8" standalone="no"?>
<!DOCTYPE svg PUBLIC "-//W3C//DTD SVG 1.1//EN"
 "http://www.w3.org/Graphics/SVG/1.1/DTD/svg11.dtd">
<!-- Generated by graphviz version 14.1.1 (0)
 -->
<!-- Title: entityManager.h Pages: 1 -->
<svg width="555pt" height="196pt"
 viewBox="0.00 0.00 555.00 196.00" xmlns="http://www.w3.org/2000/svg" xmlns:xlink="http://www.w3.org/1999/xlink">
<g id="graph0" class="graph" transform="scale(1 1) rotate(0) translate(4 192)">
<title>entityManager.h</title>
<!-- Node1 -->
<g id="Node000001" class="node">
<title>Node1</title>
<g id="a_Node000001"><a xlink:title=" ">
<polygon fill="#999999" stroke="#666666" points="321.62,-188 235.88,-188 235.88,-168 321.62,-168 321.62,-188"/>
<text xml:space="preserve" text-anchor="middle" x="278.75" y="-174.5" font-family="Helvetica,sans-Serif" font-size="10.00">entityManager.h</text>
</a>
</g>
</g>
<!-- Node2 -->
<g id="Node000002" class="node">
<title>Node2</title>
<g id="a_Node000002"><a xlink:href="collider_8cpp.html" target="_top" xlink:title=" ">
<polygon fill="white" stroke="#666666" points="65.5,-132 0,-132 0,-112 65.5,-112 65.5,-132"/>
<text xml:space="preserve" text-anchor="middle" x="32.75" y="-118.5" font-family="Helvetica,sans-Serif" font-size="10.00">collider.cpp</text>
</a>
</g>
</g>
<!-- Node1&#45;&gt;Node2 -->
<g id="edge1_Node000001_Node000002" class="edge">
<title>Node1&#45;&gt;Node2</title>
<g id="a_edge1_Node000001_Node000002"><a xlink:title=" ">
<path fill="none" stroke="#63b8ff" d="M224.4,-165.07C175.95,-154.43 106.6,-139.21 65.97,-130.29"/>
<polygon fill="#63b8ff" stroke="#63b8ff" points="223.62,-168.48 234.14,-167.21 225.12,-161.64 223.62,-168.48"/>
</a>
</g>
</g>
<!-- Node3 -->
<g id="Node000003" class="node">
<title>Node3</title>
<g id="a_Node000003"><a xlink:href="enemy_bezier_8h.html" target="_top" xlink:title=" ">
<polygon fill="white" stroke="#666666" points="164.38,-132 83.12,-132 83.12,-112 164.38,-112 164.38,-132"/>
<text xml:space="preserve" text-anchor="middle" x="123.75" y="-118.5" font-family="Helvetica,sans-Serif" font-size="10.00">enemyBezier.h</text>
</a>
</g>
</g>
<!-- Node1&#45;&gt;Node3 -->
<g id="edge2_Node000001_Node000003" class="edge">
<title>Node1&#45;&gt;Node3</title>
<g id="a_edge2_Node000001_Node000003"><a xlink:title=" ">
<path fill="none" stroke="#63b8ff" d="M241.21,-163.92C213.34,-154.21 175.99,-141.2 150.96,-132.48"/>
<polygon fill="#63b8ff" stroke="#63b8ff" points="239.73,-167.11 250.32,-167.1 242.03,-160.5 239.73,-167.11"/>
</a>
</g>
</g>
<!-- Node7 -->
<g id="Node000007" class="node">
<title>Node7</title>
<g id="a_Node000007"><a xlink:href="entity_manager_8cpp.html" target="_top" xlink:title=" ">
<polygon fill="white" stroke="#666666" points="278.88,-132 182.62,-132 182.62,-112 278.88,-112 278.88,-132"/>
<text xml:space="preserve" text-anchor="middle" x="230.75" y="-118.5" font-family="Helvetica,sans-Serif" font-size="10.00">entityManager.cpp</text>
</a>
</g>
</g>
<!-- Node1&#45;&gt;Node7 -->
<g id="edge6_Node000001_Node000007" class="edge">
<title>Node1&#45;&gt;Node7</title>
<g id="a_edge6_Node000001_Node000007"><a xlink:title=" ">
<path fill="none" stroke="#63b8ff" d="M262.75,-159C254.8,-150.06 245.53,-139.62 239.02,-132.3"/>
<polygon fill="#63b8ff" stroke="#63b8ff" points="260.12,-161.31 269.38,-166.46 265.36,-156.66 260.12,-161.31"/>
</a>
</g>
</g>
<!-- Node8 -->
<g id="Node000008" class="node">
<title>Node8</title>
<g id="a_Node000008"><a xlink:href="player_8cpp.html" target="_top" xlink:title=" ">
<polygon fill="white" stroke="#666666" points="358.25,-132 297.25,-132 297.25,-112 358.25,-112 358.25,-132"/>
<text xml:space="preserve" text-anchor="middle" x="327.75" y="-118.5" font-family="Helvetica,sans-Serif" font-size="10.00">player.cpp</text>
</a>
</g>
</g>
<!-- Node1&#45;&gt;Node8 -->
<g id="edge7_Node000001_Node000008" class="edge">
<title>Node1&#45;&gt;Node8</title>
<g id="a_edge7_Node000001_Node000008"><a xlink:title=" ">
<path fill="none" stroke="#63b8ff" d="M294.82,-159.29C303,-150.28 312.6,-139.7 319.31,-132.3"/>
<polygon fill="#63b8ff" stroke="#63b8ff" points="292.43,-156.72 288.3,-166.47 297.61,-161.42 292.43,-156.72"/>
</a>
</g>
</g>
<!-- Node9 -->
<g id="Node000009" class="node">
<title>Node9</title>
<g id="a_Node000009"><a xlink:href="player_bullet_8h.html" target="_top" xlink:title=" ">
<polygon fill="white" stroke="#666666" points="451.38,-132 376.12,-132 376.12,-112 451.38,-112 451.38,-132"/>
<text xml:space="preserve" text-anchor="middle" x="413.75" y="-118.5" font-family="Helvetica,sans-Serif" font-size="10.00">playerBullet.h</text>
</a>
</g>
</g>
<!-- Node1&#45;&gt;Node9 -->
<g id="edge8_Node000001_Node000009" class="edge">
<title>Node1&#45;&gt;Node9</title>
<g id="a_edge8_Node000001_Node000009"><a xlink:title=" ">
<path fill="none" stroke="#63b8ff" d="M312.75,-163.4C336.87,-153.75 368.64,-141.05 390.05,-132.48"/>
<polygon fill="#63b8ff" stroke="#63b8ff" points="311.66,-160.07 303.67,-167.03 314.26,-166.57 311.66,-160.07"/>
</a>
</g>
</g>
<!-- Node10 -->
<g id="Node000010" class="node">
<title>Node10</title>
<g id="a_Node000010"><a xlink:href="simple_bullet_8h.html" target="_top" xlink:title=" ">
<polygon fill="white" stroke="#666666" points="546.5,-132 469,-132 469,-112 546.5,-112 546.5,-132"/>
<text xml:space="preserve" text-anchor="middle" x="507.75" y="-118.5" font-family="Helvetica,sans-Serif" font-size="10.00">simpleBullet.h</text>
</a>
</g>
</g>
<!-- Node1&#45;&gt;Node10 -->
<g id="edge10_Node000001_Node000010" class="edge">
<title>Node1&#45;&gt;Node10</title>
<g id="a_edge10_Node000001_Node000010"><a xlink:title=" ">
<path fill="none" stroke="#63b8ff" d="M330.01,-164.91C372.01,-155.01 430.55,-141.2 468.79,-132.19"/>
<polygon fill="#63b8ff" stroke="#63b8ff" points="329.3,-161.48 320.37,-167.18 330.91,-168.3 329.3,-161.48"/>
</a>
</g>
</g>
<!-- Node4 -->
<g id="Node000004" class="node">
<title>Node4</title>
<g id="a_Node000004"><a xlink:href="_game_8h.html" target="_top" xlink:title=" ">
<polygon fill="white" stroke="#666666" points="439,-76 388.5,-76 388.5,-56 439,-56 439,-76"/>
<text xml:space="preserve" text-anchor="middle" x="413.75" y="-62.5" font-family="Helvetica,sans-Serif" font-size="10.00">Game.h</text>
</a>
</g>
</g>
<!-- Node3&#45;&gt;Node4 -->
<g id="edge3_Node000003_Node000004" class="edge">
<title>Node3&#45;&gt;Node4</title>
<g id="a_edge3_Node000003_Node000004"><a xlink:title=" ">
<path fill="none" stroke="#63b8ff" d="M175.87,-111.3C238.36,-99.66 340.59,-80.62 388.05,-71.79"/>
<polygon fill="#63b8ff" stroke="#63b8ff" points="175.36,-107.83 166.17,-113.1 176.64,-114.71 175.36,-107.83"/>
</a>
</g>
</g>
<!-- Node5 -->
<g id="Node000005" class="node">
<title>Node5</title>
<g id="a_Node000005"><a xlink:href="_game_8cpp.html" target="_top" xlink:title=" ">
<polygon fill="white" stroke="#666666" points="406.25,-20 345.25,-20 345.25,0 406.25,0 406.25,-20"/>
<text xml:space="preserve" text-anchor="middle" x="375.75" y="-6.5" font-family="Helvetica,sans-Serif" font-size="10.00">Game.cpp</text>
</a>
</g>
</g>
<!-- Node4&#45;&gt;Node5 -->
<g id="edge4_Node000004_Node000005" class="edge">
<title>Node4&#45;&gt;Node5</title>
<g id="a_edge4_Node000004_Node000005"><a xlink:title=" ">
<path fill="none" stroke="#63b8ff" d="M400.69,-46.44C394.48,-37.62 387.34,-27.47 382.29,-20.3"/>
<polygon fill="#63b8ff" stroke="#63b8ff" points="397.64,-48.19 406.26,-54.36 403.37,-44.16 397.64,-48.19"/>
</a>
</g>
</g>
<!-- Node6 -->
<g id="Node000006" class="node">
<title>Node6</title>
<g id="a_Node000006"><a xlink:href="main_8cpp.html" target="_top" xlink:title=" ">
<polygon fill="white" stroke="#666666" points="479.62,-20 423.88,-20 423.88,0 479.62,0 479.62,-20"/>
<text xml:space="preserve" text-anchor="middle" x="451.75" y="-6.5" font-family="Helvetica,sans-Serif" font-size="10.00">main.cpp</text>
</a>
</g>
</g>
<!-- Node4&#45;&gt;Node6 -->
<g id="edge5_Node000004_Node000006" class="edge">
<title>Node4&#45;&gt;Node6</title>
<g id="a_edge5_Node000004_Node000006"><a xlink:title=" ">
<path fill="none" stroke="#63b8ff" d="M426.81,-46.44C433.02,-37.62 440.16,-27.47 445.21,-20.3"/>
<polygon fill="#63b8ff" stroke="#63b8ff" points="424.13,-44.16 421.24,-54.36 429.86,-48.19 424.13,-44.16"/>
</a>
</g>
</g>
<!-- Node9&#45;&gt;Node4 -->
<g id="edge9_Node000009_Node000004" class="edge">
<title>Node9&#45;&gt;Node4</title>
<g id="a_edge9_Node000009_Node000004"><a xlink:title=" ">
<path fill="none" stroke="#63b8ff" d="M413.75,-100.13C413.75,-91.9 413.75,-82.85 413.75,-76.3"/>
<polygon fill="#63b8ff" stroke="#63b8ff" points="410.25,-100.08 413.75,-110.08 417.25,-100.08 410.25,-100.08"/>
</a>
</g>
</g>
<!-- Node10&#45;&gt;Node4 -->
<g id="edge11_Node000010_Node000004" class="edge">
<title>Node10&#45;&gt;Node4</title>
<g id="a_edge11_Node000010_Node000004"><a xlink:title=" ">
<path fill="none" stroke="#63b8ff" d="M481.78,-106.08C465.31,-96.62 444.49,-84.66 430.25,-76.48"/>
<polygon fill="#63b8ff" stroke="#63b8ff" points="479.65,-108.89 490.06,-110.84 483.14,-102.82 479.65,-108.89"/>
</a>
</g>
</g>
</g>
</svg>
