<?xml version="1.0" encoding="UTF-8" standalone="no"?>
<!DOCTYPE svg PUBLIC "-//W3C//DTD SVG 1.1//EN"
 "http://www.w3.org/Graphics/SVG/1.1/DTD/svg11.dtd">
<!-- Generated by graphviz version 14.1.1 (0)
 -->
<!-- Title: entityManager.h Pages: 1 -->
<svg width="257pt" height="140pt"
 viewBox="0.00 0.00 257.00 140.00" xmlns="http://www.w3.org/2000/svg" xmlns:xlink="http://www.w3.org/1999/xlink">
<g id="graph0" class="graph" transform="scale(1 1) rotate(0) translate(4 136)">
<title>entityManager.h</title>
<!-- Node1 -->
<g id="Node000001" class="node">
<title>Node1</title>
<g id="a_Node000001"><a xlink:title=" ">
<polygon fill="#999999" stroke="#666666" points="138.38,-132 52.62,-132 52.62,-112 138.38,-112 138.38,-132"/>
<text xml:space="preserve" text-anchor="middle" x="95.5" y="-118.5" font-family="Helvetica,sans-Serif" font-size="10.00">entityManager.h</text>
</a>
</g>
</g>
<!-- Node2 -->
<g id="Node000002" class="node">
<title>Node2</title>
<g id="a_Node000002"><a xlink:title=" ">
<polygon fill="#e0e0e0" stroke="#999999" points="43,-76 0,-76 0,-56 43,-56 43,-76"/>
<text xml:space="preserve" text-anchor="middle" x="21.5" y="-62.5" font-family="Helvetica,sans-Serif" font-size="10.00">vector</text>
</a>
</g>
</g>
<!-- Node1&#45;&gt;Node2 -->
<g id="edge1_Node000001_Node000002" class="edge">
<title>Node1&#45;&gt;Node2</title>
<g id="a_edge1_Node000001_Node000002"><a xlink:title=" ">
<path fill="none" stroke="#63b8ff" d="M82.61,-111.59C71.79,-103.7 56.09,-92.24 43.31,-82.92"/>
<polygon fill="#63b8ff" stroke="#63b8ff" points="45.61,-80.26 35.46,-77.19 41.48,-85.91 45.61,-80.26"/>
</a>
</g>
</g>
<!-- Node3 -->
<g id="Node000003" class="node">
<title>Node3</title>
<g id="a_Node000003"><a xlink:title=" ">
<polygon fill="#e0e0e0" stroke="#999999" points="116.12,-20 70.88,-20 70.88,0 116.12,0 116.12,-20"/>
<text xml:space="preserve" text-anchor="middle" x="93.5" y="-6.5" font-family="Helvetica,sans-Serif" font-size="10.00">cstdint</text>
</a>
</g>
</g>
<!-- Node1&#45;&gt;Node3 -->
<g id="edge2_Node000001_Node000003" class="edge">
<title>Node1&#45;&gt;Node3</title>
<g id="a_edge2_Node000001_Node000003"><a xlink:title=" ">
<path fill="none" stroke="#63b8ff" d="M94.16,-111.72C92.93,-102.64 91.19,-88.4 90.5,-76 89.68,-61.11 90.5,-44.29 91.49,-31.5"/>
<polygon fill="#63b8ff" stroke="#63b8ff" points="94.96,-32.04 92.35,-21.77 87.98,-31.42 94.96,-32.04"/>
</a>
</g>
</g>
<!-- Node4 -->
<g id="Node000004" class="node">
<title>Node4</title>
<g id="a_Node000004"><a xlink:title=" ">
<polygon fill="#e0e0e0" stroke="#999999" points="139.12,-76 99.88,-76 99.88,-56 139.12,-56 139.12,-76"/>
<text xml:space="preserve" text-anchor="middle" x="119.5" y="-62.5" font-family="Helvetica,sans-Serif" font-size="10.00">limits</text>
</a>
</g>
</g>
<!-- Node1&#45;&gt;Node4 -->
<g id="edge3_Node000001_Node000004" class="edge">
<title>Node1&#45;&gt;Node4</title>
<g id="a_edge3_Node000001_Node000004"><a xlink:title=" ">
<path fill="none" stroke="#63b8ff" d="M99.68,-111.59C102.74,-104.7 107.01,-95.1 110.8,-86.57"/>
<polygon fill="#63b8ff" stroke="#63b8ff" points="113.89,-88.24 114.75,-77.68 107.49,-85.4 113.89,-88.24"/>
</a>
</g>
</g>
<!-- Node5 -->
<g id="Node000005" class="node">
<title>Node5</title>
<g id="a_Node000005"><a xlink:href="def_8h.html" target="_top" xlink:title=" ">
<polygon fill="white" stroke="#666666" points="195.38,-76 157.62,-76 157.62,-56 195.38,-56 195.38,-76"/>
<text xml:space="preserve" text-anchor="middle" x="176.5" y="-62.5" font-family="Helvetica,sans-Serif" font-size="10.00">def.h</text>
</a>
</g>
</g>
<!-- Node1&#45;&gt;Node5 -->
<g id="edge4_Node000001_Node000005" class="edge">
<title>Node1&#45;&gt;Node5</title>
<g id="a_edge4_Node000001_Node000005"><a xlink:title=" ">
<path fill="none" stroke="#63b8ff" d="M109.61,-111.59C121.5,-103.67 138.77,-92.16 152.78,-82.82"/>
<polygon fill="#63b8ff" stroke="#63b8ff" points="154.64,-85.78 161.02,-77.32 150.76,-79.95 154.64,-85.78"/>
</a>
</g>
</g>
<!-- Node5&#45;&gt;Node3 -->
<g id="edge5_Node000005_Node000003" class="edge">
<title>Node5&#45;&gt;Node3</title>
<g id="a_edge5_Node000005_Node000003"><a xlink:title=" ">
<path fill="none" stroke="#63b8ff" d="M162.04,-55.59C149.74,-47.59 131.82,-35.93 117.39,-26.54"/>
<polygon fill="#63b8ff" stroke="#63b8ff" points="119.63,-23.82 109.34,-21.3 115.81,-29.69 119.63,-23.82"/>
</a>
</g>
</g>
<!-- Node6 -->
<g id="Node000006" class="node">
<title>Node6</title>
<g id="a_Node000006"><a xlink:title=" ">
<polygon fill="#e0e0e0" stroke="#999999" points="185.5,-20 145.5,-20 145.5,0 185.5,0 185.5,-20"/>
<text xml:space="preserve" text-anchor="middle" x="165.5" y="-6.5" font-family="Helvetica,sans-Serif" font-size="10.00">string</text>
</a>
</g>
</g>
<!-- Node5&#45;&gt;Node6 -->
<g id="edge6_Node000005_Node000006" class="edge">
<title>Node5&#45;&gt;Node6</title>
<g id="a_edge6_Node000005_Node000006"><a xlink:title=" ">
<path fill="none" stroke="#63b8ff" d="M174.58,-55.59C173.23,-48.93 171.36,-39.75 169.66,-31.44"/>
<polygon fill="#63b8ff" stroke="#63b8ff" points="173.12,-30.88 167.7,-21.78 166.26,-32.28 173.12,-30.88"/>
</a>
</g>
</g>
<!-- Node7 -->
<g id="Node000007" class="node">
<title>Node7</title>
<g id="a_Node000007"><a xlink:href="vec2_8h.html" target="_top" xlink:title=" ">
<polygon fill="white" stroke="#666666" points="249.12,-20 203.88,-20 203.88,0 249.12,0 249.12,-20"/>
<text xml:space="preserve" text-anchor="middle" x="226.5" y="-6.5" font-family="Helvetica,sans-Serif" font-size="10.00">vec2.h</text>
</a>
</g>
</g>
<!-- Node5&#45;&gt;Node7 -->
<g id="edge7_Node000005_Node000007" class="edge">
<title>Node5&#45;&gt;Node7</title>
<g id="a_edge7_Node000005_Node000007"><a xlink:title=" ">
<path fill="none" stroke="#63b8ff" d="M185.21,-55.59C192.09,-48.16 201.89,-37.58 210.22,-28.58"/>
<polygon fill="#63b8ff" stroke="#63b8ff" points="212.64,-31.12 216.86,-21.41 207.5,-26.37 212.64,-31.12"/>
</a>
</g>
</g>
</g>
</svg>
