<?xml version="1.0" encoding="UTF-8" standalone="no"?>
<!DOCTYPE svg PUBLIC "-//W3C//DTD SVG 1.1//EN"
 "http://www.w3.org/Graphics/SVG/1.1/DTD/svg11.dtd">
<!-- Generated by graphviz version 14.1.1 (0)
 -->
<!-- Title: fsutil.h Pages: 1 -->
<!--zoomable 420 -->

<svg id="main" version="1.1" xmlns="http://www.w3.org/2000/svg" xmlns:xlink="http://www.w3.org/1999/xlink" xml:space="preserve" onload="init(evt)">

<style type="text/css"><![CDATA[
.node, .edge {opacity: 0.7;}
.node.selected, .edge.selected {opacity: 1;}
.edge:hover path { stroke: red; }
.edge:hover polygon { stroke: red; fill: red; }
]]></style>

<defs>
  <circle id="rim" cx="0" cy="0" r="7"/>
  <circle id="rim2" cx="0" cy="0" r="3.5"/>
  <g id="zoomPlus">
    <use xlink:href="#rim" fill="#404040"><set attributeName="fill" to="#808080" begin="zoomplus.mouseover" end="zoomplus.mouseout"/></use>
    <path d="M-4,0h8M0,-4v8" fill="none" stroke="white" stroke-width="1.5" pointer-events="none"/>
  </g>
  <g id="zoomMin">
    <use xlink:href="#rim" fill="#404040"><set attributeName="fill" to="#808080" begin="zoomminus.mouseover" end="zoomminus.mouseout"/></use>
    <path d="M-4,0h8" fill="none" stroke="white" stroke-width="1.5" pointer-events="none"/>
  </g>
  <g id="arrowUp" transform="translate(30 24)">
    <use xlink:href="#rim"/>
    <path pointer-events="none" fill="none" stroke="white" stroke-width="1.5" d="M0,-3.0v7 M-2.5,-0.5L0,-3.0L2.5,-0.5"/>
  </g>
  <g id="arrowRight" transform="rotate(90) translate(36 -43)">
    <use xlink:href="#rim"/>
    <path pointer-events="none" fill="none" stroke="white" stroke-width="1.5" d="M0,-3.0v7 M-2.5,-0.5L0,-3.0L2.5,-0.5"/>
  </g>
  <g id="arrowDown" transform="rotate(180) translate(-30 -48)">
    <use xlink:href="#rim"/>
    <path pointer-events="none" fill="none" stroke="white" stroke-width="1.5" d="M0,-3.0v7 M-2.5,-0.5L0,-3.0L2.5,-0.5"/>
  </g>
  <g id="arrowLeft" transform="rotate(270) translate(-36 17)">
    <use xlink:href="#rim"/>
    <path pointer-events="none" fill="none" stroke="white" stroke-width="1.5" d="M0,-3.0v7 M-2.5,-0.5L0,-3.0L2.5,-0.5"/>
  </g>
  <g id="resetDef">
    <use xlink:href="#rim2" fill="#404040"><set attributeName="fill" to="#808080" begin="reset.mouseover" end="reset.mouseout"/></use>
  </g>
</defs>
<script type="application/ecmascript">
var viewWidth = 633;
var viewHeight = 420;
var sectionId = 'dynsection-1';
</script>
<script type="application/ecmascript" xlink:href="svg.min.js"/>
<svg id="graph" class="graph">
<g id="viewport">
<title>fsutil.h</title>
<!-- Node1 -->
<g id="Node000001" class="node">
<title>Node1</title>
<g id="a_Node000001"><a xlink:title=" ">
<polygon fill="#999999" stroke="#666666" points="494.62,-412 449.38,-412 449.38,-392 494.62,-392 494.62,-412"/>
<text xml:space="preserve" text-anchor="middle" x="472" y="-398.5" font-family="Helvetica,sans-Serif" font-size="10.00">fsutil.h</text>
</a>
</g>
</g>
<!-- Node2 -->
<g id="Node000002" class="node">
<title>Node2</title>
<g id="a_Node000002"><a xlink:href="_entity_table_8h.html" target="_top" xlink:title=" ">
<polygon fill="white" stroke="#666666" points="476.5,-356 403.5,-356 403.5,-336 476.5,-336 476.5,-356"/>
<text xml:space="preserve" text-anchor="middle" x="440" y="-342.5" font-family="Helvetica,sans-Serif" font-size="10.00">EntityTable.h</text>
</a>
</g>
</g>
<!-- Node1&#45;&gt;Node2 -->
<g id="edge1_Node000001_Node000002" class="edge">
<title>Node1&#45;&gt;Node2</title>
<g id="a_edge1_Node000001_Node000002"><a xlink:title=" ">
<path fill="none" stroke="#63b8ff" d="M460.66,-381.87C455.52,-373.19 449.67,-363.32 445.51,-356.3"/>
<polygon fill="#63b8ff" stroke="#63b8ff" points="457.55,-383.47 465.65,-390.29 463.57,-379.9 457.55,-383.47"/>
</a>
</g>
</g>
<!-- Node8 -->
<g id="Node000008" class="node">
<title>Node8</title>
<g id="a_Node000008"><a xlink:href="_game_8cpp.html" target="_top" xlink:title=" ">
<polygon fill="white" stroke="#666666" points="258.5,-20 197.5,-20 197.5,0 258.5,0 258.5,-20"/>
<text xml:space="preserve" text-anchor="middle" x="228" y="-6.5" font-family="Helvetica,sans-Serif" font-size="10.00">Game.cpp</text>
</a>
</g>
</g>
<!-- Node1&#45;&gt;Node8 -->
<g id="edge27_Node000001_Node000008" class="edge">
<title>Node1&#45;&gt;Node8</title>
<g id="a_edge27_Node000001_Node000008"><a xlink:title=" ">
<path fill="none" stroke="#63b8ff" d="M437.66,-400.35C329.02,-397.37 0,-380.92 0,-291 0,-291 0,-291 0,-121 0,-88.19 8.94,-75.93 35,-56 83.1,-19.21 156.28,-11.74 197.33,-10.66"/>
<polygon fill="#63b8ff" stroke="#63b8ff" points="437.32,-403.84 447.4,-400.59 437.49,-396.84 437.32,-403.84"/>
</a>
</g>
</g>
<!-- Node18 -->
<g id="Node000018" class="node">
<title>Node18</title>
<g id="a_Node000018"><a xlink:href="_param_table_8cpp.html" target="_top" xlink:title=" ">
<polygon fill="white" stroke="#666666" points="619.25,-356 532.75,-356 532.75,-336 619.25,-336 619.25,-356"/>
<text xml:space="preserve" text-anchor="middle" x="576" y="-342.5" font-family="Helvetica,sans-Serif" font-size="10.00">ParamTable.cpp</text>
</a>
</g>
</g>
<!-- Node1&#45;&gt;Node18 -->
<g id="edge28_Node000001_Node000018" class="edge">
<title>Node1&#45;&gt;Node18</title>
<g id="a_edge28_Node000001_Node000018"><a xlink:title=" ">
<path fill="none" stroke="#63b8ff" d="M500.22,-386.35C518.52,-376.84 541.84,-364.74 557.74,-356.48"/>
<polygon fill="#63b8ff" stroke="#63b8ff" points="498.72,-383.18 491.46,-390.9 501.95,-389.39 498.72,-383.18"/>
</a>
</g>
</g>
<!-- Node19 -->
<g id="Node000019" class="node">
<title>Node19</title>
<g id="a_Node000019"><a xlink:href="_v_m_8h.html" target="_top" xlink:title=" ">
<polygon fill="white" stroke="#666666" points="595.62,-300 556.38,-300 556.38,-280 595.62,-280 595.62,-300"/>
<text xml:space="preserve" text-anchor="middle" x="576" y="-286.5" font-family="Helvetica,sans-Serif" font-size="10.00">VM.h</text>
</a>
</g>
</g>
<!-- Node1&#45;&gt;Node19 -->
<g id="edge29_Node000001_Node000019" class="edge">
<title>Node1&#45;&gt;Node19</title>
<g id="a_edge29_Node000001_Node000019"><a xlink:title=" ">
<path fill="none" stroke="#63b8ff" d="M485.32,-382.56C495.36,-369.13 509.79,-350.77 524,-336 536.75,-322.75 552.98,-309.16 563.88,-300.43"/>
<polygon fill="#63b8ff" stroke="#63b8ff" points="482.58,-380.39 479.47,-390.52 488.21,-384.54 482.58,-380.39"/>
</a>
</g>
</g>
<!-- Node3 -->
<g id="Node000003" class="node">
<title>Node3</title>
<g id="a_Node000003"><a xlink:href="all_8cpp.html" target="_top" xlink:title=" ">
<polygon fill="white" stroke="#666666" points="434.25,-300 389.75,-300 389.75,-280 434.25,-280 434.25,-300"/>
<text xml:space="preserve" text-anchor="middle" x="412" y="-286.5" font-family="Helvetica,sans-Serif" font-size="10.00">all.cpp</text>
</a>
</g>
</g>
<!-- Node2&#45;&gt;Node3 -->
<g id="edge2_Node000002_Node000003" class="edge">
<title>Node2&#45;&gt;Node3</title>
<g id="a_edge2_Node000002_Node000003"><a xlink:title=" ">
<path fill="none" stroke="#63b8ff" d="M429.93,-325.58C425.47,-316.97 420.42,-307.24 416.82,-300.3"/>
<polygon fill="#63b8ff" stroke="#63b8ff" points="426.72,-326.98 434.43,-334.25 432.93,-323.76 426.72,-326.98"/>
</a>
</g>
</g>
<!-- Node4 -->
<g id="Node000004" class="node">
<title>Node4</title>
<g id="a_Node000004"><a xlink:href="all_8h.html" target="_top" xlink:title=" ">
<polygon fill="white" stroke="#666666" points="486,-300 452,-300 452,-280 486,-280 486,-300"/>
<text xml:space="preserve" text-anchor="middle" x="469" y="-286.5" font-family="Helvetica,sans-Serif" font-size="10.00">all.h</text>
</a>
</g>
</g>
<!-- Node2&#45;&gt;Node4 -->
<g id="edge3_Node000002_Node000004" class="edge">
<title>Node2&#45;&gt;Node4</title>
<g id="a_edge3_Node000002_Node000004"><a xlink:title=" ">
<path fill="none" stroke="#63b8ff" d="M450.43,-325.58C455.05,-316.97 460.28,-307.24 464.01,-300.3"/>
<polygon fill="#63b8ff" stroke="#63b8ff" points="447.42,-323.79 445.77,-334.26 453.58,-327.11 447.42,-323.79"/>
</a>
</g>
</g>
<!-- Node5 -->
<g id="Node000005" class="node">
<title>Node5</title>
<g id="a_Node000005"><a xlink:href="_v_m_8cpp.html" target="_top" xlink:title=" ">
<polygon fill="white" stroke="#666666" points="600.88,-244 551.12,-244 551.12,-224 600.88,-224 600.88,-244"/>
<text xml:space="preserve" text-anchor="middle" x="576" y="-230.5" font-family="Helvetica,sans-Serif" font-size="10.00">VM.cpp</text>
</a>
</g>
</g>
<!-- Node4&#45;&gt;Node5 -->
<g id="edge4_Node000004_Node000005" class="edge">
<title>Node4&#45;&gt;Node5</title>
<g id="a_edge4_Node000004_Node000005"><a xlink:title=" ">
<path fill="none" stroke="#63b8ff" d="M496.4,-275.17C515.53,-265.52 540.57,-252.88 557.41,-244.38"/>
<polygon fill="#63b8ff" stroke="#63b8ff" points="494.89,-272.01 487.54,-279.64 498.05,-278.26 494.89,-272.01"/>
</a>
</g>
</g>
<!-- Node6 -->
<g id="Node000006" class="node">
<title>Node6</title>
<g id="a_Node000006"><a xlink:href="enemy_bezier_8h.html" target="_top" xlink:title=" ">
<polygon fill="white" stroke="#666666" points="563.62,-132 482.38,-132 482.38,-112 563.62,-112 563.62,-132"/>
<text xml:space="preserve" text-anchor="middle" x="523" y="-118.5" font-family="Helvetica,sans-Serif" font-size="10.00">enemyBezier.h</text>
</a>
</g>
</g>
<!-- Node4&#45;&gt;Node6 -->
<g id="edge5_Node000004_Node000006" class="edge">
<title>Node4&#45;&gt;Node6</title>
<g id="a_edge5_Node000004_Node000006"><a xlink:title=" ">
<path fill="none" stroke="#63b8ff" d="M475.51,-268.97C487.24,-232.92 511.48,-158.42 519.98,-132.3"/>
<polygon fill="#63b8ff" stroke="#63b8ff" points="472.29,-267.57 472.53,-278.16 478.95,-269.73 472.29,-267.57"/>
</a>
</g>
</g>
<!-- Node10 -->
<g id="Node000010" class="node">
<title>Node10</title>
<g id="a_Node000010"><a xlink:href="gfx_8h.html" target="_top" xlink:title=" ">
<polygon fill="white" stroke="#666666" points="393.88,-244 356.12,-244 356.12,-224 393.88,-224 393.88,-244"/>
<text xml:space="preserve" text-anchor="middle" x="375" y="-230.5" font-family="Helvetica,sans-Serif" font-size="10.00">gfx.h</text>
</a>
</g>
</g>
<!-- Node4&#45;&gt;Node10 -->
<g id="edge9_Node000004_Node000010" class="edge">
<title>Node4&#45;&gt;Node10</title>
<g id="a_edge9_Node000004_Node000010"><a xlink:title=" ">
<path fill="none" stroke="#63b8ff" d="M443.03,-274.08C426.56,-264.62 405.74,-252.66 391.5,-244.48"/>
<polygon fill="#63b8ff" stroke="#63b8ff" points="440.9,-276.89 451.31,-278.84 444.39,-270.82 440.9,-276.89"/>
</a>
</g>
</g>
<!-- Node14 -->
<g id="Node000014" class="node">
<title>Node14</title>
<g id="a_Node000014"><a xlink:href="player_8cpp.html" target="_top" xlink:title=" ">
<polygon fill="white" stroke="#666666" points="105.5,-76 44.5,-76 44.5,-56 105.5,-56 105.5,-76"/>
<text xml:space="preserve" text-anchor="middle" x="75" y="-62.5" font-family="Helvetica,sans-Serif" font-size="10.00">player.cpp</text>
</a>
</g>
</g>
<!-- Node4&#45;&gt;Node14 -->
<g id="edge26_Node000004_Node000014" class="edge">
<title>Node4&#45;&gt;Node14</title>
<g id="a_edge26_Node000004_Node000014"><a xlink:title=" ">
<path fill="none" stroke="#63b8ff" d="M441.02,-279.03C380.41,-257.39 238.64,-206.59 191,-188 130.87,-164.53 92.78,-185.73 57,-132 45.32,-114.46 58.96,-89.45 68.09,-76.15"/>
<polygon fill="#63b8ff" stroke="#63b8ff" points="439.66,-282.26 450.25,-282.32 442.01,-275.66 439.66,-282.26"/>
</a>
</g>
</g>
<!-- Node7 -->
<g id="Node000007" class="node">
<title>Node7</title>
<g id="a_Node000007"><a xlink:href="_game_8h.html" target="_top" xlink:title=" ">
<polygon fill="white" stroke="#666666" points="404.25,-76 353.75,-76 353.75,-56 404.25,-56 404.25,-76"/>
<text xml:space="preserve" text-anchor="middle" x="379" y="-62.5" font-family="Helvetica,sans-Serif" font-size="10.00">Game.h</text>
</a>
</g>
</g>
<!-- Node6&#45;&gt;Node7 -->
<g id="edge6_Node000006_Node000007" class="edge">
<title>Node6&#45;&gt;Node7</title>
<g id="a_edge6_Node000006_Node000007"><a xlink:title=" ">
<path fill="none" stroke="#63b8ff" d="M487.43,-107.66C461.62,-97.98 427.33,-85.12 404.28,-76.48"/>
<polygon fill="#63b8ff" stroke="#63b8ff" points="485.91,-110.83 496.5,-111.06 488.37,-104.27 485.91,-110.83"/>
</a>
</g>
</g>
<!-- Node7&#45;&gt;Node8 -->
<g id="edge7_Node000007_Node000008" class="edge">
<title>Node7&#45;&gt;Node8</title>
<g id="a_edge7_Node000007_Node000008"><a xlink:title=" ">
<path fill="none" stroke="#63b8ff" d="M342.74,-52.03C315.56,-42.31 278.98,-29.23 254.5,-20.48"/>
<polygon fill="#63b8ff" stroke="#63b8ff" points="341.37,-55.26 351.96,-55.33 343.72,-48.67 341.37,-55.26"/>
</a>
</g>
</g>
<!-- Node9 -->
<g id="Node000009" class="node">
<title>Node9</title>
<g id="a_Node000009"><a xlink:href="main_8cpp.html" target="_top" xlink:title=" ">
<polygon fill="white" stroke="#666666" points="406.88,-20 351.12,-20 351.12,0 406.88,0 406.88,-20"/>
<text xml:space="preserve" text-anchor="middle" x="379" y="-6.5" font-family="Helvetica,sans-Serif" font-size="10.00">main.cpp</text>
</a>
</g>
</g>
<!-- Node7&#45;&gt;Node9 -->
<g id="edge8_Node000007_Node000009" class="edge">
<title>Node7&#45;&gt;Node9</title>
<g id="a_edge8_Node000007_Node000009"><a xlink:title=" ">
<path fill="none" stroke="#63b8ff" d="M379,-44.13C379,-35.9 379,-26.85 379,-20.3"/>
<polygon fill="#63b8ff" stroke="#63b8ff" points="375.5,-44.08 379,-54.08 382.5,-44.08 375.5,-44.08"/>
</a>
</g>
</g>
<!-- Node10&#45;&gt;Node6 -->
<g id="edge23_Node000010_Node000006" class="edge">
<title>Node10&#45;&gt;Node6</title>
<g id="a_edge23_Node000010_Node000006"><a xlink:title=" ">
<path fill="none" stroke="#63b8ff" d="M396.85,-216.76C428.27,-193.4 485.21,-151.09 510.41,-132.35"/>
<polygon fill="#63b8ff" stroke="#63b8ff" points="394.77,-213.94 388.83,-222.72 398.95,-219.56 394.77,-213.94"/>
</a>
</g>
</g>
<!-- Node10&#45;&gt;Node7 -->
<g id="edge10_Node000010_Node000007" class="edge">
<title>Node10&#45;&gt;Node7</title>
<g id="a_edge10_Node000010_Node000007"><a xlink:title=" ">
<path fill="none" stroke="#63b8ff" d="M405.06,-227.51C471.97,-213.99 623.48,-175.53 573,-112 552.24,-85.88 452.52,-73.57 404.69,-69.09"/>
<polygon fill="#63b8ff" stroke="#63b8ff" points="404.61,-224.03 395.47,-229.38 405.95,-230.9 404.61,-224.03"/>
</a>
</g>
</g>
<!-- Node11 -->
<g id="Node000011" class="node">
<title>Node11</title>
<g id="a_Node000011"><a xlink:href="collider_8h.html" target="_top" xlink:title=" ">
<polygon fill="white" stroke="#666666" points="359.5,-188 304.5,-188 304.5,-168 359.5,-168 359.5,-188"/>
<text xml:space="preserve" text-anchor="middle" x="332" y="-174.5" font-family="Helvetica,sans-Serif" font-size="10.00">collider.h</text>
</a>
</g>
</g>
<!-- Node10&#45;&gt;Node11 -->
<g id="edge11_Node000010_Node000011" class="edge">
<title>Node10&#45;&gt;Node11</title>
<g id="a_edge11_Node000010_Node000011"><a xlink:title=" ">
<path fill="none" stroke="#63b8ff" d="M360.44,-214.72C353.37,-205.84 345.18,-195.55 339.4,-188.3"/>
<polygon fill="#63b8ff" stroke="#63b8ff" points="357.6,-216.77 366.57,-222.41 363.08,-212.41 357.6,-216.77"/>
</a>
</g>
</g>
<!-- Node13 -->
<g id="Node000013" class="node">
<title>Node13</title>
<g id="a_Node000013"><a xlink:href="player_8h.html" target="_top" xlink:title=" ">
<polygon fill="white" stroke="#666666" points="116.25,-132 65.75,-132 65.75,-112 116.25,-112 116.25,-132"/>
<text xml:space="preserve" text-anchor="middle" x="91" y="-118.5" font-family="Helvetica,sans-Serif" font-size="10.00">player.h</text>
</a>
</g>
</g>
<!-- Node10&#45;&gt;Node13 -->
<g id="edge25_Node000010_Node000013" class="edge">
<title>Node10&#45;&gt;Node13</title>
<g id="a_edge25_Node000010_Node000013"><a xlink:title=" ">
<path fill="none" stroke="#63b8ff" d="M348.51,-217.97C316.68,-199.98 266.35,-171.78 257,-168 250.41,-165.34 161.7,-141.72 116.75,-129.81"/>
<polygon fill="#63b8ff" stroke="#63b8ff" points="346.77,-221.01 357.2,-222.89 350.22,-214.92 346.77,-221.01"/>
</a>
</g>
</g>
<!-- Node17 -->
<g id="Node000017" class="node">
<title>Node17</title>
<g id="a_Node000017"><a xlink:href="gfx_8cpp.html" target="_top" xlink:title=" ">
<polygon fill="white" stroke="#666666" points="248.12,-188 199.88,-188 199.88,-168 248.12,-168 248.12,-188"/>
<text xml:space="preserve" text-anchor="middle" x="224" y="-174.5" font-family="Helvetica,sans-Serif" font-size="10.00">gfx.cpp</text>
</a>
</g>
</g>
<!-- Node10&#45;&gt;Node17 -->
<g id="edge24_Node000010_Node000017" class="edge">
<title>Node10&#45;&gt;Node17</title>
<g id="a_edge24_Node000010_Node000017"><a xlink:title=" ">
<path fill="none" stroke="#63b8ff" d="M345.41,-222.42C317.1,-212.29 274.92,-197.21 248.46,-187.75"/>
<polygon fill="#63b8ff" stroke="#63b8ff" points="343.86,-225.58 354.45,-225.65 346.21,-218.99 343.86,-225.58"/>
</a>
</g>
</g>
<!-- Node11&#45;&gt;Node6 -->
<g id="edge15_Node000011_Node000006" class="edge">
<title>Node11&#45;&gt;Node6</title>
<g id="a_edge15_Node000011_Node000006"><a xlink:title=" ">
<path fill="none" stroke="#63b8ff" d="M370.48,-166.12C405.33,-156.27 456.16,-141.9 489.4,-132.5"/>
<polygon fill="#63b8ff" stroke="#63b8ff" points="369.9,-162.65 361.23,-168.74 371.8,-169.38 369.9,-162.65"/>
</a>
</g>
</g>
<!-- Node11&#45;&gt;Node7 -->
<g id="edge13_Node000011_Node000007" class="edge">
<title>Node11&#45;&gt;Node7</title>
<g id="a_edge13_Node000011_Node000007"><a xlink:title=" ">
<path fill="none" stroke="#63b8ff" d="M307.7,-161.05C291.16,-148.13 274.1,-129.3 285,-112 299.95,-88.27 331.25,-76.78 353.63,-71.41"/>
<polygon fill="#63b8ff" stroke="#63b8ff" points="305.28,-163.62 315.42,-166.68 309.4,-157.97 305.28,-163.62"/>
</a>
</g>
</g>
<!-- Node11&#45;&gt;Node8 -->
<g id="edge12_Node000011_Node000008" class="edge">
<title>Node11&#45;&gt;Node8</title>
<g id="a_edge12_Node000011_Node000008"><a xlink:title=" ">
<path fill="none" stroke="#63b8ff" d="M307.69,-160.79C297.48,-153.03 286.11,-143.03 278,-132 250.94,-95.19 235.55,-41.59 230.18,-20.26"/>
<polygon fill="#63b8ff" stroke="#63b8ff" points="305.6,-163.6 315.76,-166.61 309.7,-157.92 305.6,-163.6"/>
</a>
</g>
</g>
<!-- Node12 -->
<g id="Node000012" class="node">
<title>Node12</title>
<g id="a_Node000012"><a xlink:href="collider_8cpp.html" target="_top" xlink:title=" ">
<polygon fill="white" stroke="#666666" points="199.75,-132 134.25,-132 134.25,-112 199.75,-112 199.75,-132"/>
<text xml:space="preserve" text-anchor="middle" x="167" y="-118.5" font-family="Helvetica,sans-Serif" font-size="10.00">collider.cpp</text>
</a>
</g>
</g>
<!-- Node11&#45;&gt;Node12 -->
<g id="edge14_Node000011_Node000012" class="edge">
<title>Node11&#45;&gt;Node12</title>
<g id="a_edge14_Node000011_Node000012"><a xlink:title=" ">
<path fill="none" stroke="#63b8ff" d="M293.17,-164.29C263.39,-154.55 222.95,-141.31 195.96,-132.48"/>
<polygon fill="#63b8ff" stroke="#63b8ff" points="291.98,-167.58 302.57,-167.37 294.16,-160.93 291.98,-167.58"/>
</a>
</g>
</g>
<!-- Node11&#45;&gt;Node13 -->
<g id="edge16_Node000011_Node000013" class="edge">
<title>Node11&#45;&gt;Node13</title>
<g id="a_edge16_Node000011_Node000013"><a xlink:title=" ">
<path fill="none" stroke="#63b8ff" d="M292.95,-168.61C237.58,-156.7 141.15,-135.89 125,-132 122.27,-131.34 119.42,-130.63 116.59,-129.9"/>
<polygon fill="#63b8ff" stroke="#63b8ff" points="292.11,-172.01 302.62,-170.69 293.58,-165.17 292.11,-172.01"/>
</a>
</g>
</g>
<!-- Node15 -->
<g id="Node000015" class="node">
<title>Node15</title>
<g id="a_Node000015"><a xlink:href="player_bullet_8h.html" target="_top" xlink:title=" ">
<polygon fill="white" stroke="#666666" points="369.62,-132 294.38,-132 294.38,-112 369.62,-112 369.62,-132"/>
<text xml:space="preserve" text-anchor="middle" x="332" y="-118.5" font-family="Helvetica,sans-Serif" font-size="10.00">playerBullet.h</text>
</a>
</g>
</g>
<!-- Node11&#45;&gt;Node15 -->
<g id="edge19_Node000011_Node000015" class="edge">
<title>Node11&#45;&gt;Node15</title>
<g id="a_edge19_Node000011_Node000015"><a xlink:title=" ">
<path fill="none" stroke="#63b8ff" d="M332,-156.13C332,-147.9 332,-138.85 332,-132.3"/>
<polygon fill="#63b8ff" stroke="#63b8ff" points="328.5,-156.08 332,-166.08 335.5,-156.08 328.5,-156.08"/>
</a>
</g>
</g>
<!-- Node16 -->
<g id="Node000016" class="node">
<title>Node16</title>
<g id="a_Node000016"><a xlink:href="simple_bullet_8h.html" target="_top" xlink:title=" ">
<polygon fill="white" stroke="#666666" points="464.75,-132 387.25,-132 387.25,-112 464.75,-112 464.75,-132"/>
<text xml:space="preserve" text-anchor="middle" x="426" y="-118.5" font-family="Helvetica,sans-Serif" font-size="10.00">simpleBullet.h</text>
</a>
</g>
</g>
<!-- Node11&#45;&gt;Node16 -->
<g id="edge21_Node000011_Node000016" class="edge">
<title>Node11&#45;&gt;Node16</title>
<g id="a_edge21_Node000011_Node000016"><a xlink:title=" ">
<path fill="none" stroke="#63b8ff" d="M357.97,-162.08C374.44,-152.62 395.26,-140.66 409.5,-132.48"/>
<polygon fill="#63b8ff" stroke="#63b8ff" points="356.61,-158.82 349.69,-166.84 360.1,-164.89 356.61,-158.82"/>
</a>
</g>
</g>
<!-- Node13&#45;&gt;Node7 -->
<g id="edge17_Node000013_Node000007" class="edge">
<title>Node13&#45;&gt;Node7</title>
<g id="a_edge17_Node000013_Node000007"><a xlink:title=" ">
<path fill="none" stroke="#63b8ff" d="M127.57,-111.58C215.75,-92.47 309.08,-77.57 353.26,-70.83"/>
<polygon fill="#63b8ff" stroke="#63b8ff" points="127.06,-108.1 118.04,-113.66 128.56,-114.94 127.06,-108.1"/>
</a>
</g>
</g>
<!-- Node13&#45;&gt;Node14 -->
<g id="edge18_Node000013_Node000014" class="edge">
<title>Node13&#45;&gt;Node14</title>
<g id="a_edge18_Node000013_Node000014"><a xlink:title=" ">
<path fill="none" stroke="#63b8ff" d="M84.99,-100.71C82.5,-92.32 79.74,-83.01 77.76,-76.3"/>
<polygon fill="#63b8ff" stroke="#63b8ff" points="81.59,-101.55 87.78,-110.14 88.3,-99.56 81.59,-101.55"/>
</a>
</g>
</g>
<!-- Node15&#45;&gt;Node7 -->
<g id="edge20_Node000015_Node000007" class="edge">
<title>Node15&#45;&gt;Node7</title>
<g id="a_edge20_Node000015_Node000007"><a xlink:title=" ">
<path fill="none" stroke="#63b8ff" d="M347.66,-103C355.45,-94.06 364.53,-83.62 370.91,-76.3"/>
<polygon fill="#63b8ff" stroke="#63b8ff" points="345.11,-100.61 341.18,-110.45 350.39,-105.21 345.11,-100.61"/>
</a>
</g>
</g>
<!-- Node16&#45;&gt;Node7 -->
<g id="edge22_Node000016_Node000007" class="edge">
<title>Node16&#45;&gt;Node7</title>
<g id="a_edge22_Node000016_Node000007"><a xlink:title=" ">
<path fill="none" stroke="#63b8ff" d="M410.34,-103C402.55,-94.06 393.47,-83.62 387.09,-76.3"/>
<polygon fill="#63b8ff" stroke="#63b8ff" points="407.61,-105.21 416.82,-110.45 412.89,-100.61 407.61,-105.21"/>
</a>
</g>
</g>
<!-- Node19&#45;&gt;Node5 -->
<g id="edge31_Node000019_Node000005" class="edge">
<title>Node19&#45;&gt;Node5</title>
<g id="a_edge31_Node000019_Node000005"><a xlink:title=" ">
<path fill="none" stroke="#63b8ff" d="M576,-268.13C576,-259.9 576,-250.85 576,-244.3"/>
<polygon fill="#63b8ff" stroke="#63b8ff" points="572.5,-268.08 576,-278.08 579.5,-268.08 572.5,-268.08"/>
</a>
</g>
</g>
<!-- Node19&#45;&gt;Node7 -->
<g id="edge30_Node000019_Node000007" class="edge">
<title>Node19&#45;&gt;Node7</title>
<g id="a_edge30_Node000019_Node000007"><a xlink:title=" ">
<path fill="none" stroke="#63b8ff" d="M593.57,-271.34C600.05,-263.61 606.64,-254.03 610,-244 623.37,-204.13 642.42,-164.94 592,-112 566.46,-85.18 455.17,-73.05 404.41,-68.84"/>
<polygon fill="#63b8ff" stroke="#63b8ff" points="591.09,-268.87 586.95,-278.62 596.27,-273.57 591.09,-268.87"/>
</a>
</g>
</g>
</g>
</svg>

<g id="navigator" transform="translate(0 0)" fill="#404254">
  <rect fill="#f2f5e9" fill-opacity="0.5" stroke="#606060" stroke-width=".5" x="0" y="0" width="60" height="60"/>
  <use id="zoomplus" xlink:href="#zoomPlus" x="17" y="9" onmousedown="handleZoom(evt,'in')"/>
  <use id="zoomminus" xlink:href="#zoomMin" x="42" y="9" onmousedown="handleZoom(evt,'out')"/>
  <use id="reset" xlink:href="#resetDef" x="30" y="36" onmousedown="handleReset()"/>
   <use id="arrowup" xlink:href="#arrowUp" x="0" y="0" onmousedown="handlePan(0,-1)"/>
  <use id="arrowright" xlink:href="#arrowRight" x="0" y="0" onmousedown="handlePan(1,0)"/>
  <use id="arrowdown" xlink:href="#arrowDown" x="0" y="0" onmousedown="handlePan(0,1)"/>
  <use id="arrowleft" xlink:href="#arrowLeft" x="0" y="0" onmousedown="handlePan(-1,0)"/>
</g>
<svg viewBox="0 0 15 15" width="100%" height="30px" preserveAspectRatio="xMaxYMin meet">
 <g id="arrow_out" transform="scale(0.3 0.3)">
  <a xlink:href="fsutil_8h__dep__incl_org.svg" target="_base">
   <rect id="button" ry="5" rx="5" y="6" x="6" height="38" width="38"
        fill="#f2f5e9" fill-opacity="0.5" stroke="#606060" stroke-width="1.0"/>
   <path id="arrow"
     d="M 11.500037,31.436501 C 11.940474,20.09759 22.043105,11.32322 32.158766,21.979434 L 37.068811,17.246167 C 37.068811,17.246167 37.088388,32 37.088388,32 L 22.160133,31.978069 C 22.160133,31.978069 26.997745,27.140456 26.997745,27.140456 C 18.528582,18.264221 13.291696,25.230495 11.500037,31.436501 z"
     style="fill:#404040;"/>
  </a>
 </g>
</svg>

<style type='text/css'>
<![CDATA[
[data-mouse-over-selected='false'] { opacity: 0.7; }
[data-mouse-over-selected='true']  { opacity: 1.0; }
]]>
</style>
<script type="application/ecmascript"><![CDATA[
document.addEventListener('DOMContentLoaded', (event) => {
  highlightEdges();
  highlightAdjacentNodes();
});
]]></script>
</svg>
