<?xml version="1.0" encoding="UTF-8" standalone="no"?>
<!DOCTYPE svg PUBLIC "-//W3C//DTD SVG 1.1//EN"
 "http://www.w3.org/Graphics/SVG/1.1/DTD/svg11.dtd">
<!-- Generated by graphviz version 14.1.1 (0)
 -->
<!-- Title: fsutil.h Pages: 1 -->
<svg width="268pt" height="140pt"
 viewBox="0.00 0.00 268.00 140.00" xmlns="http://www.w3.org/2000/svg" xmlns:xlink="http://www.w3.org/1999/xlink">
<g id="graph0" class="graph" transform="scale(1 1) rotate(0) translate(4 136)">
<title>fsutil.h</title>
<!-- Node1 -->
<g id="Node000001" class="node">
<title>Node1</title>
<g id="a_Node000001"><a xlink:title=" ">
<polygon fill="#999999" stroke="#666666" points="178.12,-132 132.88,-132 132.88,-112 178.12,-112 178.12,-132"/>
<text xml:space="preserve" text-anchor="middle" x="155.5" y="-118.5" font-family="Helvetica,sans-Serif" font-size="10.00">fsutil.h</text>
</a>
</g>
</g>
<!-- Node2 -->
<g id="Node000002" class="node">
<title>Node2</title>
<g id="a_Node000002"><a xlink:href="json_8h.html" target="_top" xlink:title=" ">
<polygon fill="white" stroke="#666666" points="144.62,-76 102.38,-76 102.38,-56 144.62,-56 144.62,-76"/>
<text xml:space="preserve" text-anchor="middle" x="123.5" y="-62.5" font-family="Helvetica,sans-Serif" font-size="10.00">json.h</text>
</a>
</g>
</g>
<!-- Node1&#45;&gt;Node2 -->
<g id="edge1_Node000001_Node000002" class="edge">
<title>Node1&#45;&gt;Node2</title>
<g id="a_edge1_Node000001_Node000002"><a xlink:title=" ">
<path fill="none" stroke="#63b8ff" d="M149.93,-111.59C145.75,-104.55 139.9,-94.67 134.76,-86"/>
<polygon fill="#63b8ff" stroke="#63b8ff" points="137.89,-84.42 129.78,-77.6 131.87,-87.99 137.89,-84.42"/>
</a>
</g>
</g>
<!-- Node5 -->
<g id="Node000005" class="node">
<title>Node5</title>
<g id="a_Node000005"><a xlink:title=" ">
<polygon fill="#e0e0e0" stroke="#999999" points="212,-76 163,-76 163,-56 212,-56 212,-76"/>
<text xml:space="preserve" text-anchor="middle" x="187.5" y="-62.5" font-family="Helvetica,sans-Serif" font-size="10.00">fstream</text>
</a>
</g>
</g>
<!-- Node1&#45;&gt;Node5 -->
<g id="edge4_Node000001_Node000005" class="edge">
<title>Node1&#45;&gt;Node5</title>
<g id="a_edge4_Node000001_Node000005"><a xlink:title=" ">
<path fill="none" stroke="#63b8ff" d="M161.07,-111.59C165.25,-104.55 171.1,-94.67 176.24,-86"/>
<polygon fill="#63b8ff" stroke="#63b8ff" points="179.13,-87.99 181.22,-77.6 173.11,-84.42 179.13,-87.99"/>
</a>
</g>
</g>
<!-- Node3 -->
<g id="Node000003" class="node">
<title>Node3</title>
<g id="a_Node000003"><a xlink:title=" ">
<polygon fill="#e0e0e0" stroke="#999999" points="109,-20 0,-20 0,0 109,0 109,-20"/>
<text xml:space="preserve" text-anchor="middle" x="54.5" y="-6.5" font-family="Helvetica,sans-Serif" font-size="10.00">rapidjson/document.h</text>
</a>
</g>
</g>
<!-- Node2&#45;&gt;Node3 -->
<g id="edge2_Node000002_Node000003" class="edge">
<title>Node2&#45;&gt;Node3</title>
<g id="a_edge2_Node000002_Node000003"><a xlink:title=" ">
<path fill="none" stroke="#63b8ff" d="M111.48,-55.59C101.49,-47.77 87.04,-36.46 75.19,-27.19"/>
<polygon fill="#63b8ff" stroke="#63b8ff" points="77.61,-24.64 67.57,-21.23 73.29,-30.15 77.61,-24.64"/>
</a>
</g>
</g>
<!-- Node4 -->
<g id="Node000004" class="node">
<title>Node4</title>
<g id="a_Node000004"><a xlink:title=" ">
<polygon fill="#e0e0e0" stroke="#999999" points="260,-20 127,-20 127,0 260,0 260,-20"/>
<text xml:space="preserve" text-anchor="middle" x="193.5" y="-6.5" font-family="Helvetica,sans-Serif" font-size="10.00">rapidjson/istreamwrapper.h</text>
</a>
</g>
</g>
<!-- Node2&#45;&gt;Node4 -->
<g id="edge3_Node000002_Node000004" class="edge">
<title>Node2&#45;&gt;Node4</title>
<g id="a_edge3_Node000002_Node000004"><a xlink:title=" ">
<path fill="none" stroke="#63b8ff" d="M135.69,-55.59C145.83,-47.77 160.49,-36.46 172.51,-27.19"/>
<polygon fill="#63b8ff" stroke="#63b8ff" points="174.47,-30.1 180.25,-21.22 170.19,-24.56 174.47,-30.1"/>
</a>
</g>
</g>
</g>
</svg>
