<?xml version="1.0" encoding="UTF-8" standalone="no"?>
<!DOCTYPE svg PUBLIC "-//W3C//DTD SVG 1.1//EN"
 "http://www.w3.org/Graphics/SVG/1.1/DTD/svg11.dtd">
<!-- Generated by graphviz version 14.1.1 (0)
 -->
<!-- Title: gfx.h Pages: 1 -->
<svg width="961pt" height="308pt"
 viewBox="0.00 0.00 961.00 308.00" xmlns="http://www.w3.org/2000/svg" xmlns:xlink="http://www.w3.org/1999/xlink">
<g id="graph0" class="graph" transform="scale(1 1) rotate(0) translate(4 304)">
<title>gfx.h</title>
<!-- Node1 -->
<g id="Node000001" class="node">
<title>Node1</title>
<g id="a_Node000001"><a xlink:title=" ">
<polygon fill="#999999" stroke="#666666" points="793.25,-300 755.5,-300 755.5,-280 793.25,-280 793.25,-300"/>
<text xml:space="preserve" text-anchor="middle" x="774.38" y="-286.5" font-family="Helvetica,sans-Serif" font-size="10.00">gfx.h</text>
</a>
</g>
</g>
<!-- Node2 -->
<g id="Node000002" class="node">
<title>Node2</title>
<g id="a_Node000002"><a xlink:title=" ">
<polygon fill="#e0e0e0" stroke="#999999" points="661,-76 615.75,-76 615.75,-56 661,-56 661,-76"/>
<text xml:space="preserve" text-anchor="middle" x="638.38" y="-62.5" font-family="Helvetica,sans-Serif" font-size="10.00">cstdint</text>
</a>
</g>
</g>
<!-- Node1&#45;&gt;Node2 -->
<g id="edge1_Node000001_Node000002" class="edge">
<title>Node1&#45;&gt;Node2</title>
<g id="a_edge1_Node000001_Node000002"><a xlink:title=" ">
<path fill="none" stroke="#63b8ff" d="M777.84,-279.73C787.81,-251.3 813.46,-164.12 774.38,-112 750.79,-80.55 704.47,-70.78 672.49,-67.91"/>
<polygon fill="#63b8ff" stroke="#63b8ff" points="673.15,-64.45 662.93,-67.24 672.67,-71.43 673.15,-64.45"/>
</a>
</g>
</g>
<!-- Node3 -->
<g id="Node000003" class="node">
<title>Node3</title>
<g id="a_Node000003"><a xlink:title=" ">
<polygon fill="#e0e0e0" stroke="#999999" points="785.38,-76 745.38,-76 745.38,-56 785.38,-56 785.38,-76"/>
<text xml:space="preserve" text-anchor="middle" x="765.38" y="-62.5" font-family="Helvetica,sans-Serif" font-size="10.00">string</text>
</a>
</g>
</g>
<!-- Node1&#45;&gt;Node3 -->
<g id="edge2_Node000001_Node000003" class="edge">
<title>Node1&#45;&gt;Node3</title>
<g id="a_edge2_Node000001_Node000003"><a xlink:title=" ">
<path fill="none" stroke="#63b8ff" d="M784.02,-279.68C792.02,-271.24 802.79,-258 807.38,-244 825.63,-188.24 828.89,-166.58 807.38,-112 803.12,-101.19 794.9,-91.45 786.86,-83.82"/>
<polygon fill="#63b8ff" stroke="#63b8ff" points="789.37,-81.36 779.54,-77.41 784.76,-86.63 789.37,-81.36"/>
</a>
</g>
</g>
<!-- Node4 -->
<g id="Node000004" class="node">
<title>Node4</title>
<g id="a_Node000004"><a xlink:title=" ">
<polygon fill="#e0e0e0" stroke="#999999" points="82.75,-132 0,-132 0,-112 82.75,-112 82.75,-132"/>
<text xml:space="preserve" text-anchor="middle" x="41.38" y="-118.5" font-family="Helvetica,sans-Serif" font-size="10.00">unordered_map</text>
</a>
</g>
</g>
<!-- Node1&#45;&gt;Node4 -->
<g id="edge3_Node000001_Node000004" class="edge">
<title>Node1&#45;&gt;Node4</title>
<g id="a_edge3_Node000001_Node000004"><a xlink:title=" ">
<path fill="none" stroke="#63b8ff" d="M755.09,-286.88C683.72,-278.73 428.26,-246.91 225.38,-188 172.45,-172.63 112.49,-150.55 75.81,-136.49"/>
<polygon fill="#63b8ff" stroke="#63b8ff" points="77.2,-133.28 66.61,-132.95 74.69,-139.81 77.2,-133.28"/>
</a>
</g>
</g>
<!-- Node5 -->
<g id="Node000005" class="node">
<title>Node5</title>
<g id="a_Node000005"><a xlink:title=" ">
<polygon fill="#e0e0e0" stroke="#999999" points="764.88,-132 721.88,-132 721.88,-112 764.88,-112 764.88,-132"/>
<text xml:space="preserve" text-anchor="middle" x="743.38" y="-118.5" font-family="Helvetica,sans-Serif" font-size="10.00">vector</text>
</a>
</g>
</g>
<!-- Node1&#45;&gt;Node5 -->
<g id="edge4_Node000001_Node000005" class="edge">
<title>Node1&#45;&gt;Node5</title>
<g id="a_edge4_Node000001_Node000005"><a xlink:title=" ">
<path fill="none" stroke="#63b8ff" d="M772.62,-279.6C767.74,-253.46 753.92,-179.48 747.18,-143.36"/>
<polygon fill="#63b8ff" stroke="#63b8ff" points="750.67,-142.97 745.39,-133.79 743.78,-144.26 750.67,-142.97"/>
</a>
</g>
</g>
<!-- Node6 -->
<g id="Node000006" class="node">
<title>Node6</title>
<g id="a_Node000006"><a xlink:href="all_8h.html" target="_top" xlink:title=" ">
<polygon fill="white" stroke="#666666" points="550.5,-244 478.25,-244 478.25,-224 550.5,-224 550.5,-244"/>
<text xml:space="preserve" text-anchor="middle" x="514.38" y="-230.5" font-family="Helvetica,sans-Serif" font-size="10.00">../tables/all.h</text>
</a>
</g>
</g>
<!-- Node1&#45;&gt;Node6 -->
<g id="edge5_Node000001_Node000006" class="edge">
<title>Node1&#45;&gt;Node6</title>
<g id="a_edge5_Node000001_Node000006"><a xlink:title=" ">
<path fill="none" stroke="#63b8ff" d="M755.26,-285.03C714.8,-276.63 619.49,-256.83 561.63,-244.81"/>
<polygon fill="#63b8ff" stroke="#63b8ff" points="562.56,-241.43 552.06,-242.83 561.14,-248.29 562.56,-241.43"/>
</a>
</g>
</g>
<!-- Node20 -->
<g id="Node000020" class="node">
<title>Node20</title>
<g id="a_Node000020"><a xlink:href="_s_d_l__def_8h.html" target="_top" xlink:title=" ">
<polygon fill="white" stroke="#666666" points="953,-244 859.75,-244 859.75,-224 953,-224 953,-244"/>
<text xml:space="preserve" text-anchor="middle" x="906.38" y="-230.5" font-family="Helvetica,sans-Serif" font-size="10.00">../core/SDL_def.h</text>
</a>
</g>
</g>
<!-- Node1&#45;&gt;Node20 -->
<g id="edge32_Node000001_Node000020" class="edge">
<title>Node1&#45;&gt;Node20</title>
<g id="a_edge32_Node000001_Node000020"><a xlink:title=" ">
<path fill="none" stroke="#63b8ff" d="M793.57,-281.15C814.25,-272.69 847.56,-259.06 872.63,-248.8"/>
<polygon fill="#63b8ff" stroke="#63b8ff" points="873.82,-252.1 881.75,-245.07 871.17,-245.62 873.82,-252.1"/>
</a>
</g>
</g>
<!-- Node7 -->
<g id="Node000007" class="node">
<title>Node7</title>
<g id="a_Node000007"><a xlink:href="_entity_table_8h.html" target="_top" xlink:title=" ">
<polygon fill="white" stroke="#666666" points="307.88,-188 234.88,-188 234.88,-168 307.88,-168 307.88,-188"/>
<text xml:space="preserve" text-anchor="middle" x="271.38" y="-174.5" font-family="Helvetica,sans-Serif" font-size="10.00">EntityTable.h</text>
</a>
</g>
</g>
<!-- Node6&#45;&gt;Node7 -->
<g id="edge6_Node000006_Node000007" class="edge">
<title>Node6&#45;&gt;Node7</title>
<g id="a_edge6_Node000006_Node000007"><a xlink:title=" ">
<path fill="none" stroke="#63b8ff" d="M478,-224.92C435.67,-215.51 365.66,-199.95 319.03,-189.59"/>
<polygon fill="#63b8ff" stroke="#63b8ff" points="320,-186.22 309.48,-187.47 318.48,-193.05 320,-186.22"/>
</a>
</g>
</g>
<!-- Node18 -->
<g id="Node000018" class="node">
<title>Node18</title>
<g id="a_Node000018"><a xlink:href="_param_table_8h.html" target="_top" xlink:title=" ">
<polygon fill="white" stroke="#666666" points="552.38,-188 476.38,-188 476.38,-168 552.38,-168 552.38,-188"/>
<text xml:space="preserve" text-anchor="middle" x="514.38" y="-174.5" font-family="Helvetica,sans-Serif" font-size="10.00">ParamTable.h</text>
</a>
</g>
</g>
<!-- Node6&#45;&gt;Node18 -->
<g id="edge22_Node000006_Node000018" class="edge">
<title>Node6&#45;&gt;Node18</title>
<g id="a_edge22_Node000006_Node000018"><a xlink:title=" ">
<path fill="none" stroke="#63b8ff" d="M514.38,-223.59C514.38,-217.01 514.38,-207.96 514.38,-199.73"/>
<polygon fill="#63b8ff" stroke="#63b8ff" points="517.88,-199.81 514.38,-189.81 510.88,-199.81 517.88,-199.81"/>
</a>
</g>
</g>
<!-- Node7&#45;&gt;Node2 -->
<g id="edge7_Node000007_Node000002" class="edge">
<title>Node7&#45;&gt;Node2</title>
<g id="a_edge7_Node000007_Node000002"><a xlink:title=" ">
<path fill="none" stroke="#63b8ff" d="M265.86,-167.72C258.39,-153.78 247.46,-127.44 261.38,-112 310.96,-56.99 513.46,-87.96 604.2,-75.98"/>
<polygon fill="#63b8ff" stroke="#63b8ff" points="604.66,-79.45 613.97,-74.39 603.54,-72.54 604.66,-79.45"/>
</a>
</g>
</g>
<!-- Node7&#45;&gt;Node4 -->
<g id="edge10_Node000007_Node000004" class="edge">
<title>Node7&#45;&gt;Node4</title>
<g id="a_edge10_Node000007_Node000004"><a xlink:title=" ">
<path fill="none" stroke="#63b8ff" d="M234.42,-168.32C196.07,-159.32 135.79,-145.17 92.8,-135.07"/>
<polygon fill="#63b8ff" stroke="#63b8ff" points="93.73,-131.7 83.19,-132.82 92.13,-138.51 93.73,-131.7"/>
</a>
</g>
</g>
<!-- Node8 -->
<g id="Node000008" class="node">
<title>Node8</title>
<g id="a_Node000008"><a xlink:title=" ">
<polygon fill="#e0e0e0" stroke="#999999" points="328.75,-132 270,-132 270,-112 328.75,-112 328.75,-132"/>
<text xml:space="preserve" text-anchor="middle" x="299.38" y="-118.5" font-family="Helvetica,sans-Serif" font-size="10.00">stdexcept</text>
</a>
</g>
</g>
<!-- Node7&#45;&gt;Node8 -->
<g id="edge8_Node000007_Node000008" class="edge">
<title>Node7&#45;&gt;Node8</title>
<g id="a_edge8_Node000007_Node000008"><a xlink:title=" ">
<path fill="none" stroke="#63b8ff" d="M276.25,-167.59C279.87,-160.63 284.92,-150.89 289.37,-142.29"/>
<polygon fill="#63b8ff" stroke="#63b8ff" points="292.36,-144.13 293.86,-133.64 286.15,-140.91 292.36,-144.13"/>
</a>
</g>
</g>
<!-- Node9 -->
<g id="Node000009" class="node">
<title>Node9</title>
<g id="a_Node000009"><a xlink:title=" ">
<polygon fill="#e0e0e0" stroke="#999999" points="468.12,-76 402.62,-76 402.62,-56 468.12,-56 468.12,-76"/>
<text xml:space="preserve" text-anchor="middle" x="435.38" y="-62.5" font-family="Helvetica,sans-Serif" font-size="10.00">string_view</text>
</a>
</g>
</g>
<!-- Node7&#45;&gt;Node9 -->
<g id="edge9_Node000007_Node000009" class="edge">
<title>Node7&#45;&gt;Node9</title>
<g id="a_edge9_Node000007_Node000009"><a xlink:title=" ">
<path fill="none" stroke="#63b8ff" d="M257.32,-167.58C239.66,-154.58 213.35,-130.65 228.38,-112 248.37,-87.19 336.14,-75.35 390.77,-70.29"/>
<polygon fill="#63b8ff" stroke="#63b8ff" points="391.06,-73.78 400.71,-69.41 390.45,-66.8 391.06,-73.78"/>
</a>
</g>
</g>
<!-- Node10 -->
<g id="Node000010" class="node">
<title>Node10</title>
<g id="a_Node000010"><a xlink:href="rapid_string_8h.html" target="_top" xlink:title=" ">
<polygon fill="white" stroke="#666666" points="486.12,-132 384.62,-132 384.62,-112 486.12,-112 486.12,-132"/>
<text xml:space="preserve" text-anchor="middle" x="435.38" y="-118.5" font-family="Helvetica,sans-Serif" font-size="10.00">../core/rapidString.h</text>
</a>
</g>
</g>
<!-- Node7&#45;&gt;Node10 -->
<g id="edge11_Node000007_Node000010" class="edge">
<title>Node7&#45;&gt;Node10</title>
<g id="a_edge11_Node000007_Node000010"><a xlink:title=" ">
<path fill="none" stroke="#63b8ff" d="M299.94,-167.59C326.47,-158.86 366.21,-145.77 395.79,-136.03"/>
<polygon fill="#63b8ff" stroke="#63b8ff" points="396.74,-139.4 405.15,-132.95 394.55,-132.76 396.74,-139.4"/>
</a>
</g>
</g>
<!-- Node11 -->
<g id="Node000011" class="node">
<title>Node11</title>
<g id="a_Node000011"><a xlink:href="def_8h.html" target="_top" xlink:title=" ">
<polygon fill="white" stroke="#666666" points="610.62,-132 542.12,-132 542.12,-112 610.62,-112 610.62,-132"/>
<text xml:space="preserve" text-anchor="middle" x="576.38" y="-118.5" font-family="Helvetica,sans-Serif" font-size="10.00">../core/def.h</text>
</a>
</g>
</g>
<!-- Node7&#45;&gt;Node11 -->
<g id="edge13_Node000007_Node000011" class="edge">
<title>Node7&#45;&gt;Node11</title>
<g id="a_edge13_Node000007_Node000011"><a xlink:title=" ">
<path fill="none" stroke="#63b8ff" d="M308.17,-170.49C363.98,-160.6 469.97,-141.84 530.66,-131.09"/>
<polygon fill="#63b8ff" stroke="#63b8ff" points="531.08,-134.57 540.31,-129.38 529.86,-127.68 531.08,-134.57"/>
</a>
</g>
</g>
<!-- Node13 -->
<g id="Node000013" class="node">
<title>Node13</title>
<g id="a_Node000013"><a xlink:href="fsutil_8h.html" target="_top" xlink:title=" ">
<polygon fill="white" stroke="#666666" points="176.38,-132 100.38,-132 100.38,-112 176.38,-112 176.38,-132"/>
<text xml:space="preserve" text-anchor="middle" x="138.38" y="-118.5" font-family="Helvetica,sans-Serif" font-size="10.00">../core/fsutil.h</text>
</a>
</g>
</g>
<!-- Node7&#45;&gt;Node13 -->
<g id="edge17_Node000007_Node000013" class="edge">
<title>Node7&#45;&gt;Node13</title>
<g id="a_edge17_Node000007_Node000013"><a xlink:title=" ">
<path fill="none" stroke="#63b8ff" d="M248.21,-167.59C227.17,-159.05 195.88,-146.35 172.07,-136.68"/>
<polygon fill="#63b8ff" stroke="#63b8ff" points="173.71,-133.57 163.12,-133.05 171.07,-140.05 173.71,-133.57"/>
</a>
</g>
</g>
<!-- Node10&#45;&gt;Node9 -->
<g id="edge12_Node000010_Node000009" class="edge">
<title>Node10&#45;&gt;Node9</title>
<g id="a_edge12_Node000010_Node000009"><a xlink:title=" ">
<path fill="none" stroke="#63b8ff" d="M435.38,-111.59C435.38,-105.01 435.38,-95.96 435.38,-87.73"/>
<polygon fill="#63b8ff" stroke="#63b8ff" points="438.88,-87.81 435.38,-77.81 431.88,-87.81 438.88,-87.81"/>
</a>
</g>
</g>
<!-- Node11&#45;&gt;Node2 -->
<g id="edge14_Node000011_Node000002" class="edge">
<title>Node11&#45;&gt;Node2</title>
<g id="a_edge14_Node000011_Node000002"><a xlink:title=" ">
<path fill="none" stroke="#63b8ff" d="M587.17,-111.59C595.98,-103.93 608.63,-92.91 619.15,-83.75"/>
<polygon fill="#63b8ff" stroke="#63b8ff" points="621.32,-86.5 626.56,-77.29 616.72,-81.22 621.32,-86.5"/>
</a>
</g>
</g>
<!-- Node11&#45;&gt;Node3 -->
<g id="edge15_Node000011_Node000003" class="edge">
<title>Node11&#45;&gt;Node3</title>
<g id="a_edge15_Node000011_Node000003"><a xlink:title=" ">
<path fill="none" stroke="#63b8ff" d="M609.3,-111.59C644.45,-101.55 699.75,-85.75 734.22,-75.9"/>
<polygon fill="#63b8ff" stroke="#63b8ff" points="734.94,-79.34 743.59,-73.22 733.02,-72.61 734.94,-79.34"/>
</a>
</g>
</g>
<!-- Node12 -->
<g id="Node000012" class="node">
<title>Node12</title>
<g id="a_Node000012"><a xlink:href="vec2_8h.html" target="_top" xlink:title=" ">
<polygon fill="white" stroke="#666666" points="598,-76 552.75,-76 552.75,-56 598,-56 598,-76"/>
<text xml:space="preserve" text-anchor="middle" x="575.38" y="-62.5" font-family="Helvetica,sans-Serif" font-size="10.00">vec2.h</text>
</a>
</g>
</g>
<!-- Node11&#45;&gt;Node12 -->
<g id="edge16_Node000011_Node000012" class="edge">
<title>Node11&#45;&gt;Node12</title>
<g id="a_edge16_Node000011_Node000012"><a xlink:title=" ">
<path fill="none" stroke="#63b8ff" d="M576.2,-111.59C576.08,-105.01 575.91,-95.96 575.76,-87.73"/>
<polygon fill="#63b8ff" stroke="#63b8ff" points="579.26,-87.75 575.58,-77.81 572.26,-87.87 579.26,-87.75"/>
</a>
</g>
</g>
<!-- Node14 -->
<g id="Node000014" class="node">
<title>Node14</title>
<g id="a_Node000014"><a xlink:href="json_8h.html" target="_top" xlink:title=" ">
<polygon fill="white" stroke="#666666" points="300.5,-76 258.25,-76 258.25,-56 300.5,-56 300.5,-76"/>
<text xml:space="preserve" text-anchor="middle" x="279.38" y="-62.5" font-family="Helvetica,sans-Serif" font-size="10.00">json.h</text>
</a>
</g>
</g>
<!-- Node13&#45;&gt;Node14 -->
<g id="edge18_Node000013_Node000014" class="edge">
<title>Node13&#45;&gt;Node14</title>
<g id="a_edge18_Node000013_Node000014"><a xlink:title=" ">
<path fill="none" stroke="#63b8ff" d="M162.94,-111.59C186.3,-102.64 221.6,-89.13 247.2,-79.32"/>
<polygon fill="#63b8ff" stroke="#63b8ff" points="248.36,-82.62 256.45,-75.78 245.86,-76.09 248.36,-82.62"/>
</a>
</g>
</g>
<!-- Node17 -->
<g id="Node000017" class="node">
<title>Node17</title>
<g id="a_Node000017"><a xlink:title=" ">
<polygon fill="#e0e0e0" stroke="#999999" points="162.88,-76 113.88,-76 113.88,-56 162.88,-56 162.88,-76"/>
<text xml:space="preserve" text-anchor="middle" x="138.38" y="-62.5" font-family="Helvetica,sans-Serif" font-size="10.00">fstream</text>
</a>
</g>
</g>
<!-- Node13&#45;&gt;Node17 -->
<g id="edge21_Node000013_Node000017" class="edge">
<title>Node13&#45;&gt;Node17</title>
<g id="a_edge21_Node000013_Node000017"><a xlink:title=" ">
<path fill="none" stroke="#63b8ff" d="M138.38,-111.59C138.38,-105.01 138.38,-95.96 138.38,-87.73"/>
<polygon fill="#63b8ff" stroke="#63b8ff" points="141.88,-87.81 138.38,-77.81 134.88,-87.81 141.88,-87.81"/>
</a>
</g>
</g>
<!-- Node15 -->
<g id="Node000015" class="node">
<title>Node15</title>
<g id="a_Node000015"><a xlink:title=" ">
<polygon fill="#e0e0e0" stroke="#999999" points="264.88,-20 155.88,-20 155.88,0 264.88,0 264.88,-20"/>
<text xml:space="preserve" text-anchor="middle" x="210.38" y="-6.5" font-family="Helvetica,sans-Serif" font-size="10.00">rapidjson/document.h</text>
</a>
</g>
</g>
<!-- Node14&#45;&gt;Node15 -->
<g id="edge19_Node000014_Node000015" class="edge">
<title>Node14&#45;&gt;Node15</title>
<g id="a_edge19_Node000014_Node000015"><a xlink:title=" ">
<path fill="none" stroke="#63b8ff" d="M267.36,-55.59C257.36,-47.77 242.91,-36.46 231.07,-27.19"/>
<polygon fill="#63b8ff" stroke="#63b8ff" points="233.48,-24.64 223.45,-21.23 229.17,-30.15 233.48,-24.64"/>
</a>
</g>
</g>
<!-- Node16 -->
<g id="Node000016" class="node">
<title>Node16</title>
<g id="a_Node000016"><a xlink:title=" ">
<polygon fill="#e0e0e0" stroke="#999999" points="415.88,-20 282.88,-20 282.88,0 415.88,0 415.88,-20"/>
<text xml:space="preserve" text-anchor="middle" x="349.38" y="-6.5" font-family="Helvetica,sans-Serif" font-size="10.00">rapidjson/istreamwrapper.h</text>
</a>
</g>
</g>
<!-- Node14&#45;&gt;Node16 -->
<g id="edge20_Node000014_Node000016" class="edge">
<title>Node14&#45;&gt;Node16</title>
<g id="a_edge20_Node000014_Node000016"><a xlink:title=" ">
<path fill="none" stroke="#63b8ff" d="M291.57,-55.59C301.71,-47.77 316.37,-36.46 328.39,-27.19"/>
<polygon fill="#63b8ff" stroke="#63b8ff" points="330.34,-30.1 336.12,-21.22 326.07,-24.56 330.34,-30.1"/>
</a>
</g>
</g>
<!-- Node18&#45;&gt;Node2 -->
<g id="edge23_Node000018_Node000002" class="edge">
<title>Node18&#45;&gt;Node2</title>
<g id="a_edge23_Node000018_Node000002"><a xlink:title=" ">
<path fill="none" stroke="#63b8ff" d="M552.7,-169.2C575.05,-162.77 602.14,-151.44 619.38,-132 630.24,-119.74 634.91,-101.57 636.9,-87.55"/>
<polygon fill="#63b8ff" stroke="#63b8ff" points="640.38,-87.95 637.93,-77.64 633.42,-87.23 640.38,-87.95"/>
</a>
</g>
</g>
<!-- Node18&#45;&gt;Node4 -->
<g id="edge26_Node000018_Node000004" class="edge">
<title>Node18&#45;&gt;Node4</title>
<g id="a_edge26_Node000018_Node000004"><a xlink:title=" ">
<path fill="none" stroke="#63b8ff" d="M476.06,-173.86C403.5,-167.7 240.85,-152.95 94.07,-132.3"/>
<polygon fill="#63b8ff" stroke="#63b8ff" points="94.97,-128.89 84.58,-130.95 93.99,-135.82 94.97,-128.89"/>
</a>
</g>
</g>
<!-- Node18&#45;&gt;Node5 -->
<g id="edge27_Node000018_Node000005" class="edge">
<title>Node18&#45;&gt;Node5</title>
<g id="a_edge27_Node000018_Node000005"><a xlink:title=" ">
<path fill="none" stroke="#63b8ff" d="M552.71,-169.15C590.65,-161.21 650.6,-148.17 710.66,-132.59"/>
<polygon fill="#63b8ff" stroke="#63b8ff" points="711.22,-136.06 720.01,-130.15 709.44,-129.29 711.22,-136.06"/>
</a>
</g>
</g>
<!-- Node18&#45;&gt;Node8 -->
<g id="edge24_Node000018_Node000008" class="edge">
<title>Node18&#45;&gt;Node8</title>
<g id="a_edge24_Node000018_Node000008"><a xlink:title=" ">
<path fill="none" stroke="#63b8ff" d="M476.92,-167.59C438.71,-158 379.57,-143.14 340.18,-133.25"/>
<polygon fill="#63b8ff" stroke="#63b8ff" points="341.16,-129.88 330.6,-130.84 339.45,-136.67 341.16,-129.88"/>
</a>
</g>
</g>
<!-- Node18&#45;&gt;Node9 -->
<g id="edge25_Node000018_Node000009" class="edge">
<title>Node18&#45;&gt;Node9</title>
<g id="a_edge25_Node000018_Node000009"><a xlink:title=" ">
<path fill="none" stroke="#63b8ff" d="M513.53,-167.81C511.92,-154.46 507.43,-129.4 495.38,-112 487.12,-100.08 474.69,-90.01 463.28,-82.44"/>
<polygon fill="#63b8ff" stroke="#63b8ff" points="465.27,-79.56 454.93,-77.25 461.58,-85.51 465.27,-79.56"/>
</a>
</g>
</g>
<!-- Node18&#45;&gt;Node10 -->
<g id="edge31_Node000018_Node000010" class="edge">
<title>Node18&#45;&gt;Node10</title>
<g id="a_edge31_Node000018_Node000010"><a xlink:title=" ">
<path fill="none" stroke="#63b8ff" d="M500.61,-167.59C489.02,-159.67 472.18,-148.16 458.51,-138.82"/>
<polygon fill="#63b8ff" stroke="#63b8ff" points="460.72,-136.09 450.49,-133.33 456.77,-141.87 460.72,-136.09"/>
</a>
</g>
</g>
<!-- Node18&#45;&gt;Node11 -->
<g id="edge29_Node000018_Node000011" class="edge">
<title>Node18&#45;&gt;Node11</title>
<g id="a_edge29_Node000018_Node000011"><a xlink:title=" ">
<path fill="none" stroke="#63b8ff" d="M525.17,-167.59C533.98,-159.93 546.63,-148.91 557.15,-139.75"/>
<polygon fill="#63b8ff" stroke="#63b8ff" points="559.32,-142.5 564.56,-133.29 554.72,-137.22 559.32,-142.5"/>
</a>
</g>
</g>
<!-- Node18&#45;&gt;Node14 -->
<g id="edge30_Node000018_Node000014" class="edge">
<title>Node18&#45;&gt;Node14</title>
<g id="a_edge30_Node000018_Node000014"><a xlink:title=" ">
<path fill="none" stroke="#63b8ff" d="M476.09,-167.74C447.52,-160.09 407.97,-147.91 375.38,-132 347.62,-118.45 318.65,-97.8 299.9,-83.42"/>
<polygon fill="#63b8ff" stroke="#63b8ff" points="302.07,-80.67 292.03,-77.28 297.76,-86.19 302.07,-80.67"/>
</a>
</g>
</g>
<!-- Node19 -->
<g id="Node000019" class="node">
<title>Node19</title>
<g id="a_Node000019"><a xlink:title=" ">
<polygon fill="#e0e0e0" stroke="#999999" points="703.88,-132 666.88,-132 666.88,-112 703.88,-112 703.88,-132"/>
<text xml:space="preserve" text-anchor="middle" x="685.38" y="-118.5" font-family="Helvetica,sans-Serif" font-size="10.00">span</text>
</a>
</g>
</g>
<!-- Node18&#45;&gt;Node19 -->
<g id="edge28_Node000018_Node000019" class="edge">
<title>Node18&#45;&gt;Node19</title>
<g id="a_edge28_Node000018_Node000019"><a xlink:title=" ">
<path fill="none" stroke="#63b8ff" d="M544.16,-167.59C575.52,-157.69 624.6,-142.19 655.86,-132.32"/>
<polygon fill="#63b8ff" stroke="#63b8ff" points="656.58,-135.76 665.06,-129.42 654.47,-129.09 656.58,-135.76"/>
</a>
</g>
</g>
</g>
</svg>
