<?xml version="1.0" encoding="UTF-8" standalone="no"?>
<!DOCTYPE svg PUBLIC "-//W3C//DTD SVG 1.1//EN"
 "http://www.w3.org/Graphics/SVG/1.1/DTD/svg11.dtd">
<!-- Generated by graphviz version 14.1.1 (0)
 -->
<!-- Title: gfx.cpp Pages: 1 -->
<svg width="881pt" height="364pt"
 viewBox="0.00 0.00 881.00 364.00" xmlns="http://www.w3.org/2000/svg" xmlns:xlink="http://www.w3.org/1999/xlink">
<g id="graph0" class="graph" transform="scale(1 1) rotate(0) translate(4 360)">
<title>gfx.cpp</title>
<!-- Node1 -->
<g id="Node000001" class="node">
<title>Node1</title>
<g id="a_Node000001"><a xlink:title=" ">
<polygon fill="#999999" stroke="#666666" points="703.12,-356 654.88,-356 654.88,-336 703.12,-336 703.12,-356"/>
<text xml:space="preserve" text-anchor="middle" x="679" y="-342.5" font-family="Helvetica,sans-Serif" font-size="10.00">gfx.cpp</text>
</a>
</g>
</g>
<!-- Node2 -->
<g id="Node000002" class="node">
<title>Node2</title>
<g id="a_Node000002"><a xlink:href="gfx_8h.html" target="_top" xlink:title=" ">
<polygon fill="white" stroke="#666666" points="661.88,-300 624.12,-300 624.12,-280 661.88,-280 661.88,-300"/>
<text xml:space="preserve" text-anchor="middle" x="643" y="-286.5" font-family="Helvetica,sans-Serif" font-size="10.00">gfx.h</text>
</a>
</g>
</g>
<!-- Node1&#45;&gt;Node2 -->
<g id="edge1_Node000001_Node000002" class="edge">
<title>Node1&#45;&gt;Node2</title>
<g id="a_edge1_Node000001_Node000002"><a xlink:title=" ">
<path fill="none" stroke="#63b8ff" d="M672.73,-335.59C667.98,-328.47 661.3,-318.45 655.48,-309.72"/>
<polygon fill="#63b8ff" stroke="#63b8ff" points="658.5,-307.94 650.04,-301.56 652.67,-311.82 658.5,-307.94"/>
</a>
</g>
</g>
<!-- Node9 -->
<g id="Node000009" class="node">
<title>Node9</title>
<g id="a_Node000009"><a xlink:title=" ">
<polygon fill="#e0e0e0" stroke="#999999" points="152.38,-132 93.62,-132 93.62,-112 152.38,-112 152.38,-132"/>
<text xml:space="preserve" text-anchor="middle" x="123" y="-118.5" font-family="Helvetica,sans-Serif" font-size="10.00">stdexcept</text>
</a>
</g>
</g>
<!-- Node1&#45;&gt;Node9 -->
<g id="edge36_Node000001_Node000009" class="edge">
<title>Node1&#45;&gt;Node9</title>
<g id="a_edge36_Node000001_Node000009"><a xlink:title=" ">
<path fill="none" stroke="#63b8ff" d="M654.64,-339.23C598.16,-325.54 454.35,-288.87 339,-244 286.02,-223.39 273.55,-215.88 224,-188 196.33,-172.43 165.84,-152.39 145.68,-138.7"/>
<polygon fill="#63b8ff" stroke="#63b8ff" points="147.89,-135.97 137.66,-133.21 143.93,-141.75 147.89,-135.97"/>
</a>
</g>
</g>
<!-- Node22 -->
<g id="Node000022" class="node">
<title>Node22</title>
<g id="a_Node000022"><a xlink:title=" ">
<polygon fill="#e0e0e0" stroke="#999999" points="751.75,-300 680.25,-300 680.25,-280 751.75,-280 751.75,-300"/>
<text xml:space="preserve" text-anchor="middle" x="716" y="-286.5" font-family="Helvetica,sans-Serif" font-size="10.00">SDL2/SDL.h</text>
</a>
</g>
</g>
<!-- Node1&#45;&gt;Node22 -->
<g id="edge34_Node000001_Node000022" class="edge">
<title>Node1&#45;&gt;Node22</title>
<g id="a_edge34_Node000001_Node000022"><a xlink:title=" ">
<path fill="none" stroke="#63b8ff" d="M685.44,-335.59C690.33,-328.47 697.19,-318.45 703.18,-309.72"/>
<polygon fill="#63b8ff" stroke="#63b8ff" points="706.01,-311.77 708.77,-301.55 700.23,-307.82 706.01,-311.77"/>
</a>
</g>
</g>
<!-- Node23 -->
<g id="Node000023" class="node">
<title>Node23</title>
<g id="a_Node000023"><a xlink:title=" ">
<polygon fill="#e0e0e0" stroke="#999999" points="872.5,-300 769.5,-300 769.5,-280 872.5,-280 872.5,-300"/>
<text xml:space="preserve" text-anchor="middle" x="821" y="-286.5" font-family="Helvetica,sans-Serif" font-size="10.00">SDL2/SDL_image.h</text>
</a>
</g>
</g>
<!-- Node1&#45;&gt;Node23 -->
<g id="edge35_Node000001_Node000023" class="edge">
<title>Node1&#45;&gt;Node23</title>
<g id="a_edge35_Node000001_Node000023"><a xlink:title=" ">
<path fill="none" stroke="#63b8ff" d="M703.41,-335.72C726.07,-327.1 760.06,-314.18 785.67,-304.43"/>
<polygon fill="#63b8ff" stroke="#63b8ff" points="786.92,-307.71 795.02,-300.88 784.43,-301.16 786.92,-307.71"/>
</a>
</g>
</g>
<!-- Node3 -->
<g id="Node000003" class="node">
<title>Node3</title>
<g id="a_Node000003"><a xlink:title=" ">
<polygon fill="#e0e0e0" stroke="#999999" points="660.62,-76 615.38,-76 615.38,-56 660.62,-56 660.62,-76"/>
<text xml:space="preserve" text-anchor="middle" x="638" y="-62.5" font-family="Helvetica,sans-Serif" font-size="10.00">cstdint</text>
</a>
</g>
</g>
<!-- Node2&#45;&gt;Node3 -->
<g id="edge2_Node000002_Node000003" class="edge">
<title>Node2&#45;&gt;Node3</title>
<g id="a_edge2_Node000002_Node000003"><a xlink:title=" ">
<path fill="none" stroke="#63b8ff" d="M643.95,-279.88C645.68,-266.62 650.34,-241.66 662,-224 700.8,-165.26 815.22,-169.06 774,-112 750.91,-80.04 704.26,-70.41 672.09,-67.7"/>
<polygon fill="#63b8ff" stroke="#63b8ff" points="672.68,-64.23 662.47,-67.09 672.23,-71.22 672.68,-64.23"/>
</a>
</g>
</g>
<!-- Node4 -->
<g id="Node000004" class="node">
<title>Node4</title>
<g id="a_Node000004"><a xlink:title=" ">
<polygon fill="#e0e0e0" stroke="#999999" points="785,-76 745,-76 745,-56 785,-56 785,-76"/>
<text xml:space="preserve" text-anchor="middle" x="765" y="-62.5" font-family="Helvetica,sans-Serif" font-size="10.00">string</text>
</a>
</g>
</g>
<!-- Node2&#45;&gt;Node4 -->
<g id="edge3_Node000002_Node000004" class="edge">
<title>Node2&#45;&gt;Node4</title>
<g id="a_edge3_Node000002_Node000004"><a xlink:title=" ">
<path fill="none" stroke="#63b8ff" d="M662.26,-282.75C665.19,-281.82 668.17,-280.88 671,-280 724.6,-263.41 758.46,-288.98 792,-244 827.07,-196.97 807.66,-168.54 792,-112 789.43,-102.7 784.36,-93.4 779.31,-85.68"/>
<polygon fill="#63b8ff" stroke="#63b8ff" points="782.17,-83.67 773.53,-77.53 776.46,-87.72 782.17,-83.67"/>
</a>
</g>
</g>
<!-- Node5 -->
<g id="Node000005" class="node">
<title>Node5</title>
<g id="a_Node000005"><a xlink:title=" ">
<polygon fill="#e0e0e0" stroke="#999999" points="448.38,-132 365.62,-132 365.62,-112 448.38,-112 448.38,-132"/>
<text xml:space="preserve" text-anchor="middle" x="407" y="-118.5" font-family="Helvetica,sans-Serif" font-size="10.00">unordered_map</text>
</a>
</g>
</g>
<!-- Node2&#45;&gt;Node5 -->
<g id="edge4_Node000002_Node000005" class="edge">
<title>Node2&#45;&gt;Node5</title>
<g id="a_edge4_Node000002_Node000005"><a xlink:title=" ">
<path fill="none" stroke="#63b8ff" d="M623.84,-280.4C590.18,-264.78 519.06,-229.51 467,-188 449.44,-174 432.36,-154.78 420.94,-140.88"/>
<polygon fill="#63b8ff" stroke="#63b8ff" points="423.94,-139.02 414.96,-133.41 418.48,-143.4 423.94,-139.02"/>
</a>
</g>
</g>
<!-- Node6 -->
<g id="Node000006" class="node">
<title>Node6</title>
<g id="a_Node000006"><a xlink:title=" ">
<polygon fill="#e0e0e0" stroke="#999999" points="764.5,-132 721.5,-132 721.5,-112 764.5,-112 764.5,-132"/>
<text xml:space="preserve" text-anchor="middle" x="743" y="-118.5" font-family="Helvetica,sans-Serif" font-size="10.00">vector</text>
</a>
</g>
</g>
<!-- Node2&#45;&gt;Node6 -->
<g id="edge5_Node000002_Node000006" class="edge">
<title>Node2&#45;&gt;Node6</title>
<g id="a_edge5_Node000002_Node000006"><a xlink:title=" ">
<path fill="none" stroke="#63b8ff" d="M662.31,-282.69C698.33,-270.87 772.31,-246.37 774,-244 796.26,-212.82 773.03,-167.05 756.5,-141.68"/>
<polygon fill="#63b8ff" stroke="#63b8ff" points="759.57,-139.97 751.04,-133.69 753.8,-143.92 759.57,-139.97"/>
</a>
</g>
</g>
<!-- Node7 -->
<g id="Node000007" class="node">
<title>Node7</title>
<g id="a_Node000007"><a xlink:href="all_8h.html" target="_top" xlink:title=" ">
<polygon fill="white" stroke="#666666" points="420.12,-244 347.88,-244 347.88,-224 420.12,-224 420.12,-244"/>
<text xml:space="preserve" text-anchor="middle" x="384" y="-230.5" font-family="Helvetica,sans-Serif" font-size="10.00">../tables/all.h</text>
</a>
</g>
</g>
<!-- Node2&#45;&gt;Node7 -->
<g id="edge6_Node000002_Node000007" class="edge">
<title>Node2&#45;&gt;Node7</title>
<g id="a_edge6_Node000002_Node000007"><a xlink:title=" ">
<path fill="none" stroke="#63b8ff" d="M623.96,-285.03C583.76,-276.65 489.23,-256.94 431.54,-244.91"/>
<polygon fill="#63b8ff" stroke="#63b8ff" points="432.51,-241.54 422,-242.92 431.08,-248.39 432.51,-241.54"/>
</a>
</g>
</g>
<!-- Node21 -->
<g id="Node000021" class="node">
<title>Node21</title>
<g id="a_Node000021"><a xlink:href="_s_d_l__def_8h.html" target="_top" xlink:title=" ">
<polygon fill="white" stroke="#666666" points="764.62,-244 671.38,-244 671.38,-224 764.62,-224 764.62,-244"/>
<text xml:space="preserve" text-anchor="middle" x="718" y="-230.5" font-family="Helvetica,sans-Serif" font-size="10.00">../core/SDL_def.h</text>
</a>
</g>
</g>
<!-- Node2&#45;&gt;Node21 -->
<g id="edge33_Node000002_Node000021" class="edge">
<title>Node2&#45;&gt;Node21</title>
<g id="a_edge33_Node000002_Node000021"><a xlink:title=" ">
<path fill="none" stroke="#63b8ff" d="M656.06,-279.59C666.97,-271.74 682.75,-260.38 695.66,-251.09"/>
<polygon fill="#63b8ff" stroke="#63b8ff" points="697.54,-254.05 703.61,-245.36 693.45,-248.37 697.54,-254.05"/>
</a>
</g>
</g>
<!-- Node8 -->
<g id="Node000008" class="node">
<title>Node8</title>
<g id="a_Node000008"><a xlink:href="_entity_table_8h.html" target="_top" xlink:title=" ">
<polygon fill="white" stroke="#666666" points="306.5,-188 233.5,-188 233.5,-168 306.5,-168 306.5,-188"/>
<text xml:space="preserve" text-anchor="middle" x="270" y="-174.5" font-family="Helvetica,sans-Serif" font-size="10.00">EntityTable.h</text>
</a>
</g>
</g>
<!-- Node7&#45;&gt;Node8 -->
<g id="edge7_Node000007_Node000008" class="edge">
<title>Node7&#45;&gt;Node8</title>
<g id="a_edge7_Node000007_Node000008"><a xlink:title=" ">
<path fill="none" stroke="#63b8ff" d="M364.14,-223.59C346.51,-215.24 320.49,-202.92 300.27,-193.34"/>
<polygon fill="#63b8ff" stroke="#63b8ff" points="301.92,-190.25 291.38,-189.13 298.92,-196.57 301.92,-190.25"/>
</a>
</g>
</g>
<!-- Node19 -->
<g id="Node000019" class="node">
<title>Node19</title>
<g id="a_Node000019"><a xlink:href="_param_table_8h.html" target="_top" xlink:title=" ">
<polygon fill="white" stroke="#666666" points="552,-188 476,-188 476,-168 552,-168 552,-188"/>
<text xml:space="preserve" text-anchor="middle" x="514" y="-174.5" font-family="Helvetica,sans-Serif" font-size="10.00">ParamTable.h</text>
</a>
</g>
</g>
<!-- Node7&#45;&gt;Node19 -->
<g id="edge23_Node000007_Node000019" class="edge">
<title>Node7&#45;&gt;Node19</title>
<g id="a_edge23_Node000007_Node000019"><a xlink:title=" ">
<path fill="none" stroke="#63b8ff" d="M406.64,-223.59C427.12,-215.09 457.52,-202.46 480.75,-192.81"/>
<polygon fill="#63b8ff" stroke="#63b8ff" points="481.89,-196.13 489.78,-189.06 479.2,-189.66 481.89,-196.13"/>
</a>
</g>
</g>
<!-- Node8&#45;&gt;Node3 -->
<g id="edge8_Node000008_Node000003" class="edge">
<title>Node8&#45;&gt;Node3</title>
<g id="a_edge8_Node000008_Node000003"><a xlink:title=" ">
<path fill="none" stroke="#63b8ff" d="M258.95,-167.68C244.23,-154.15 221.69,-128.87 237,-112 290.35,-53.21 507.91,-88.55 604,-75.95"/>
<polygon fill="#63b8ff" stroke="#63b8ff" points="604.28,-79.45 613.6,-74.4 603.17,-72.54 604.28,-79.45"/>
</a>
</g>
</g>
<!-- Node8&#45;&gt;Node5 -->
<g id="edge11_Node000008_Node000005" class="edge">
<title>Node8&#45;&gt;Node5</title>
<g id="a_edge11_Node000008_Node000005"><a xlink:title=" ">
<path fill="none" stroke="#63b8ff" d="M293.86,-167.59C315.54,-159.05 347.77,-146.35 372.29,-136.68"/>
<polygon fill="#63b8ff" stroke="#63b8ff" points="373.52,-139.96 381.54,-133.03 370.96,-133.45 373.52,-139.96"/>
</a>
</g>
</g>
<!-- Node8&#45;&gt;Node9 -->
<g id="edge9_Node000008_Node000009" class="edge">
<title>Node8&#45;&gt;Node9</title>
<g id="a_edge9_Node000008_Node000009"><a xlink:title=" ">
<path fill="none" stroke="#63b8ff" d="M244.39,-167.59C220.93,-158.97 185.93,-146.12 159.53,-136.42"/>
<polygon fill="#63b8ff" stroke="#63b8ff" points="160.82,-133.16 150.23,-133 158.41,-139.73 160.82,-133.16"/>
</a>
</g>
</g>
<!-- Node10 -->
<g id="Node000010" class="node">
<title>Node10</title>
<g id="a_Node000010"><a xlink:title=" ">
<polygon fill="#e0e0e0" stroke="#999999" points="329.75,-76 264.25,-76 264.25,-56 329.75,-56 329.75,-76"/>
<text xml:space="preserve" text-anchor="middle" x="297" y="-62.5" font-family="Helvetica,sans-Serif" font-size="10.00">string_view</text>
</a>
</g>
</g>
<!-- Node8&#45;&gt;Node10 -->
<g id="edge10_Node000008_Node000010" class="edge">
<title>Node8&#45;&gt;Node10</title>
<g id="a_edge10_Node000008_Node000010"><a xlink:title=" ">
<path fill="none" stroke="#63b8ff" d="M247.31,-167.56C222.95,-155.98 189.56,-135.03 204,-112 214.86,-94.68 234.49,-83.86 252.92,-77.19"/>
<polygon fill="#63b8ff" stroke="#63b8ff" points="253.99,-80.52 262.42,-74.1 251.83,-73.86 253.99,-80.52"/>
</a>
</g>
</g>
<!-- Node11 -->
<g id="Node000011" class="node">
<title>Node11</title>
<g id="a_Node000011"><a xlink:href="rapid_string_8h.html" target="_top" xlink:title=" ">
<polygon fill="white" stroke="#666666" points="347.75,-132 246.25,-132 246.25,-112 347.75,-112 347.75,-132"/>
<text xml:space="preserve" text-anchor="middle" x="297" y="-118.5" font-family="Helvetica,sans-Serif" font-size="10.00">../core/rapidString.h</text>
</a>
</g>
</g>
<!-- Node8&#45;&gt;Node11 -->
<g id="edge12_Node000008_Node000011" class="edge">
<title>Node8&#45;&gt;Node11</title>
<g id="a_edge12_Node000008_Node000011"><a xlink:title=" ">
<path fill="none" stroke="#63b8ff" d="M274.7,-167.59C278.15,-160.7 282.95,-151.1 287.21,-142.57"/>
<polygon fill="#63b8ff" stroke="#63b8ff" points="290.33,-144.16 291.67,-133.65 284.07,-141.03 290.33,-144.16"/>
</a>
</g>
</g>
<!-- Node12 -->
<g id="Node000012" class="node">
<title>Node12</title>
<g id="a_Node000012"><a xlink:href="def_8h.html" target="_top" xlink:title=" ">
<polygon fill="white" stroke="#666666" points="610.25,-132 541.75,-132 541.75,-112 610.25,-112 610.25,-132"/>
<text xml:space="preserve" text-anchor="middle" x="576" y="-118.5" font-family="Helvetica,sans-Serif" font-size="10.00">../core/def.h</text>
</a>
</g>
</g>
<!-- Node8&#45;&gt;Node12 -->
<g id="edge14_Node000008_Node000012" class="edge">
<title>Node8&#45;&gt;Node12</title>
<g id="a_edge14_Node000008_Node000012"><a xlink:title=" ">
<path fill="none" stroke="#63b8ff" d="M306.91,-170.49C362.91,-160.6 469.25,-141.84 530.13,-131.09"/>
<polygon fill="#63b8ff" stroke="#63b8ff" points="530.59,-134.57 539.82,-129.38 529.37,-127.68 530.59,-134.57"/>
</a>
</g>
</g>
<!-- Node14 -->
<g id="Node000014" class="node">
<title>Node14</title>
<g id="a_Node000014"><a xlink:href="fsutil_8h.html" target="_top" xlink:title=" ">
<polygon fill="white" stroke="#666666" points="76,-132 0,-132 0,-112 76,-112 76,-132"/>
<text xml:space="preserve" text-anchor="middle" x="38" y="-118.5" font-family="Helvetica,sans-Serif" font-size="10.00">../core/fsutil.h</text>
</a>
</g>
</g>
<!-- Node8&#45;&gt;Node14 -->
<g id="edge18_Node000008_Node000014" class="edge">
<title>Node8&#45;&gt;Node14</title>
<g id="a_edge18_Node000008_Node000014"><a xlink:title=" ">
<path fill="none" stroke="#63b8ff" d="M233.24,-168.44C193.75,-159.25 130.78,-144.6 87.08,-134.42"/>
<polygon fill="#63b8ff" stroke="#63b8ff" points="88.14,-131.08 77.61,-132.22 86.55,-137.89 88.14,-131.08"/>
</a>
</g>
</g>
<!-- Node11&#45;&gt;Node10 -->
<g id="edge13_Node000011_Node000010" class="edge">
<title>Node11&#45;&gt;Node10</title>
<g id="a_edge13_Node000011_Node000010"><a xlink:title=" ">
<path fill="none" stroke="#63b8ff" d="M297,-111.59C297,-105.01 297,-95.96 297,-87.73"/>
<polygon fill="#63b8ff" stroke="#63b8ff" points="300.5,-87.81 297,-77.81 293.5,-87.81 300.5,-87.81"/>
</a>
</g>
</g>
<!-- Node12&#45;&gt;Node3 -->
<g id="edge15_Node000012_Node000003" class="edge">
<title>Node12&#45;&gt;Node3</title>
<g id="a_edge15_Node000012_Node000003"><a xlink:title=" ">
<path fill="none" stroke="#63b8ff" d="M586.8,-111.59C595.6,-103.93 608.25,-92.91 618.77,-83.75"/>
<polygon fill="#63b8ff" stroke="#63b8ff" points="620.94,-86.5 626.18,-77.29 616.34,-81.22 620.94,-86.5"/>
</a>
</g>
</g>
<!-- Node12&#45;&gt;Node4 -->
<g id="edge16_Node000012_Node000004" class="edge">
<title>Node12&#45;&gt;Node4</title>
<g id="a_edge16_Node000012_Node000004"><a xlink:title=" ">
<path fill="none" stroke="#63b8ff" d="M608.92,-111.59C644.08,-101.55 699.38,-85.75 733.84,-75.9"/>
<polygon fill="#63b8ff" stroke="#63b8ff" points="734.56,-79.34 743.22,-73.22 732.64,-72.61 734.56,-79.34"/>
</a>
</g>
</g>
<!-- Node13 -->
<g id="Node000013" class="node">
<title>Node13</title>
<g id="a_Node000013"><a xlink:href="vec2_8h.html" target="_top" xlink:title=" ">
<polygon fill="white" stroke="#666666" points="597.62,-76 552.38,-76 552.38,-56 597.62,-56 597.62,-76"/>
<text xml:space="preserve" text-anchor="middle" x="575" y="-62.5" font-family="Helvetica,sans-Serif" font-size="10.00">vec2.h</text>
</a>
</g>
</g>
<!-- Node12&#45;&gt;Node13 -->
<g id="edge17_Node000012_Node000013" class="edge">
<title>Node12&#45;&gt;Node13</title>
<g id="a_edge17_Node000012_Node000013"><a xlink:title=" ">
<path fill="none" stroke="#63b8ff" d="M575.83,-111.59C575.7,-105.01 575.54,-95.96 575.38,-87.73"/>
<polygon fill="#63b8ff" stroke="#63b8ff" points="578.88,-87.75 575.2,-77.81 571.89,-87.87 578.88,-87.75"/>
</a>
</g>
</g>
<!-- Node15 -->
<g id="Node000015" class="node">
<title>Node15</title>
<g id="a_Node000015"><a xlink:href="json_8h.html" target="_top" xlink:title=" ">
<polygon fill="white" stroke="#666666" points="185.12,-76 142.88,-76 142.88,-56 185.12,-56 185.12,-76"/>
<text xml:space="preserve" text-anchor="middle" x="164" y="-62.5" font-family="Helvetica,sans-Serif" font-size="10.00">json.h</text>
</a>
</g>
</g>
<!-- Node14&#45;&gt;Node15 -->
<g id="edge19_Node000014_Node000015" class="edge">
<title>Node14&#45;&gt;Node15</title>
<g id="a_edge19_Node000014_Node000015"><a xlink:title=" ">
<path fill="none" stroke="#63b8ff" d="M59.95,-111.59C79.94,-103.02 109.71,-90.27 132.29,-80.59"/>
<polygon fill="#63b8ff" stroke="#63b8ff" points="133.52,-83.87 141.33,-76.71 130.76,-77.44 133.52,-83.87"/>
</a>
</g>
</g>
<!-- Node18 -->
<g id="Node000018" class="node">
<title>Node18</title>
<g id="a_Node000018"><a xlink:title=" ">
<polygon fill="#e0e0e0" stroke="#999999" points="62.5,-76 13.5,-76 13.5,-56 62.5,-56 62.5,-76"/>
<text xml:space="preserve" text-anchor="middle" x="38" y="-62.5" font-family="Helvetica,sans-Serif" font-size="10.00">fstream</text>
</a>
</g>
</g>
<!-- Node14&#45;&gt;Node18 -->
<g id="edge22_Node000014_Node000018" class="edge">
<title>Node14&#45;&gt;Node18</title>
<g id="a_edge22_Node000014_Node000018"><a xlink:title=" ">
<path fill="none" stroke="#63b8ff" d="M38,-111.59C38,-105.01 38,-95.96 38,-87.73"/>
<polygon fill="#63b8ff" stroke="#63b8ff" points="41.5,-87.81 38,-77.81 34.5,-87.81 41.5,-87.81"/>
</a>
</g>
</g>
<!-- Node16 -->
<g id="Node000016" class="node">
<title>Node16</title>
<g id="a_Node000016"><a xlink:title=" ">
<polygon fill="#e0e0e0" stroke="#999999" points="149.5,-20 40.5,-20 40.5,0 149.5,0 149.5,-20"/>
<text xml:space="preserve" text-anchor="middle" x="95" y="-6.5" font-family="Helvetica,sans-Serif" font-size="10.00">rapidjson/document.h</text>
</a>
</g>
</g>
<!-- Node15&#45;&gt;Node16 -->
<g id="edge20_Node000015_Node000016" class="edge">
<title>Node15&#45;&gt;Node16</title>
<g id="a_edge20_Node000015_Node000016"><a xlink:title=" ">
<path fill="none" stroke="#63b8ff" d="M151.98,-55.59C141.99,-47.77 127.54,-36.46 115.69,-27.19"/>
<polygon fill="#63b8ff" stroke="#63b8ff" points="118.11,-24.64 108.07,-21.23 113.79,-30.15 118.11,-24.64"/>
</a>
</g>
</g>
<!-- Node17 -->
<g id="Node000017" class="node">
<title>Node17</title>
<g id="a_Node000017"><a xlink:title=" ">
<polygon fill="#e0e0e0" stroke="#999999" points="300.5,-20 167.5,-20 167.5,0 300.5,0 300.5,-20"/>
<text xml:space="preserve" text-anchor="middle" x="234" y="-6.5" font-family="Helvetica,sans-Serif" font-size="10.00">rapidjson/istreamwrapper.h</text>
</a>
</g>
</g>
<!-- Node15&#45;&gt;Node17 -->
<g id="edge21_Node000015_Node000017" class="edge">
<title>Node15&#45;&gt;Node17</title>
<g id="a_edge21_Node000015_Node000017"><a xlink:title=" ">
<path fill="none" stroke="#63b8ff" d="M176.19,-55.59C186.33,-47.77 200.99,-36.46 213.01,-27.19"/>
<polygon fill="#63b8ff" stroke="#63b8ff" points="214.97,-30.1 220.75,-21.22 210.69,-24.56 214.97,-30.1"/>
</a>
</g>
</g>
<!-- Node19&#45;&gt;Node3 -->
<g id="edge24_Node000019_Node000003" class="edge">
<title>Node19&#45;&gt;Node3</title>
<g id="a_edge24_Node000019_Node000003"><a xlink:title=" ">
<path fill="none" stroke="#63b8ff" d="M552.33,-169.2C574.68,-162.77 601.77,-151.44 619,-132 629.87,-119.74 634.53,-101.57 636.53,-87.55"/>
<polygon fill="#63b8ff" stroke="#63b8ff" points="640.01,-87.95 637.56,-77.64 633.04,-87.23 640.01,-87.95"/>
</a>
</g>
</g>
<!-- Node19&#45;&gt;Node5 -->
<g id="edge27_Node000019_Node000005" class="edge">
<title>Node19&#45;&gt;Node5</title>
<g id="a_edge27_Node000019_Node000005"><a xlink:title=" ">
<path fill="none" stroke="#63b8ff" d="M495.36,-167.59C478.97,-159.32 454.84,-147.14 435.94,-137.6"/>
<polygon fill="#63b8ff" stroke="#63b8ff" points="437.64,-134.54 427.13,-133.16 434.49,-140.79 437.64,-134.54"/>
</a>
</g>
</g>
<!-- Node19&#45;&gt;Node6 -->
<g id="edge28_Node000019_Node000006" class="edge">
<title>Node19&#45;&gt;Node6</title>
<g id="a_edge28_Node000019_Node000006"><a xlink:title=" ">
<path fill="none" stroke="#63b8ff" d="M552.34,-169.15C590.28,-161.21 650.22,-148.17 710.28,-132.59"/>
<polygon fill="#63b8ff" stroke="#63b8ff" points="710.84,-136.06 719.63,-130.15 709.07,-129.29 710.84,-136.06"/>
</a>
</g>
</g>
<!-- Node19&#45;&gt;Node9 -->
<g id="edge25_Node000019_Node000009" class="edge">
<title>Node19&#45;&gt;Node9</title>
<g id="a_edge25_Node000019_Node000009"><a xlink:title=" ">
<path fill="none" stroke="#63b8ff" d="M475.8,-171.72C401.86,-161.51 239.82,-139.13 163.84,-128.64"/>
<polygon fill="#63b8ff" stroke="#63b8ff" points="164.73,-125.23 154.35,-127.33 163.77,-132.16 164.73,-125.23"/>
</a>
</g>
</g>
<!-- Node19&#45;&gt;Node10 -->
<g id="edge26_Node000019_Node000010" class="edge">
<title>Node19&#45;&gt;Node10</title>
<g id="a_edge26_Node000019_Node000010"><a xlink:title=" ">
<path fill="none" stroke="#63b8ff" d="M513.31,-167.94C511.73,-153.82 506.6,-126.65 490,-112 468.22,-92.78 391.21,-79.34 341.3,-72.41"/>
<polygon fill="#63b8ff" stroke="#63b8ff" points="342.05,-68.98 331.67,-71.12 341.12,-75.92 342.05,-68.98"/>
</a>
</g>
</g>
<!-- Node19&#45;&gt;Node11 -->
<g id="edge32_Node000019_Node000011" class="edge">
<title>Node19&#45;&gt;Node11</title>
<g id="a_edge32_Node000019_Node000011"><a xlink:title=" ">
<path fill="none" stroke="#63b8ff" d="M476.2,-167.59C440.09,-158.61 385.49,-145.02 346.04,-135.2"/>
<polygon fill="#63b8ff" stroke="#63b8ff" points="347.11,-131.86 336.56,-132.84 345.42,-138.66 347.11,-131.86"/>
</a>
</g>
</g>
<!-- Node19&#45;&gt;Node12 -->
<g id="edge30_Node000019_Node000012" class="edge">
<title>Node19&#45;&gt;Node12</title>
<g id="a_edge30_Node000019_Node000012"><a xlink:title=" ">
<path fill="none" stroke="#63b8ff" d="M524.8,-167.59C533.6,-159.93 546.25,-148.91 556.77,-139.75"/>
<polygon fill="#63b8ff" stroke="#63b8ff" points="558.94,-142.5 564.18,-133.29 554.34,-137.22 558.94,-142.5"/>
</a>
</g>
</g>
<!-- Node19&#45;&gt;Node15 -->
<g id="edge31_Node000019_Node000015" class="edge">
<title>Node19&#45;&gt;Node15</title>
<g id="a_edge31_Node000019_Node000015"><a xlink:title=" ">
<path fill="none" stroke="#63b8ff" d="M508.76,-167.62C500.07,-153.05 481.21,-125.28 457,-112 434.4,-99.6 267.72,-79.05 196.32,-70.7"/>
<polygon fill="#63b8ff" stroke="#63b8ff" points="197.16,-67.27 186.82,-69.6 196.35,-74.23 197.16,-67.27"/>
</a>
</g>
</g>
<!-- Node20 -->
<g id="Node000020" class="node">
<title>Node20</title>
<g id="a_Node000020"><a xlink:title=" ">
<polygon fill="#e0e0e0" stroke="#999999" points="703.5,-132 666.5,-132 666.5,-112 703.5,-112 703.5,-132"/>
<text xml:space="preserve" text-anchor="middle" x="685" y="-118.5" font-family="Helvetica,sans-Serif" font-size="10.00">span</text>
</a>
</g>
</g>
<!-- Node19&#45;&gt;Node20 -->
<g id="edge29_Node000019_Node000020" class="edge">
<title>Node19&#45;&gt;Node20</title>
<g id="a_edge29_Node000019_Node000020"><a xlink:title=" ">
<path fill="none" stroke="#63b8ff" d="M543.79,-167.59C575.15,-157.69 624.22,-142.19 655.48,-132.32"/>
<polygon fill="#63b8ff" stroke="#63b8ff" points="656.2,-135.76 664.69,-129.42 654.1,-129.09 656.2,-135.76"/>
</a>
</g>
</g>
</g>
</svg>
