<?xml version="1.0" encoding="UTF-8" standalone="no"?>
<!DOCTYPE svg PUBLIC "-//W3C//DTD SVG 1.1//EN"
 "http://www.w3.org/Graphics/SVG/1.1/DTD/svg11.dtd">
<!-- Generated by graphviz version 14.1.1 (0)
 -->
<!-- Title: クラス階層図 Pages: 1 -->
<svg width="180pt" height="142pt"
 viewBox="0.00 0.00 180.00 142.00" xmlns="http://www.w3.org/2000/svg" xmlns:xlink="http://www.w3.org/1999/xlink">
<g id="graph0" class="graph" transform="scale(1 1) rotate(0) translate(4 138)">
<title>クラス階層図</title>
<!-- Node0 -->
<g id="Node000000" class="node">
<title>Node0</title>
<g id="a_Node000000"><a xlink:href="struct_i_collidable.html" target="_top" xlink:title=" ">
<polygon fill="white" stroke="#666666" points="61.75,-77 0,-77 0,-57 61.75,-57 61.75,-77"/>
<text xml:space="preserve" text-anchor="middle" x="30.88" y="-63.5" font-family="Helvetica,sans-Serif" font-size="10.00">ICollidable</text>
</a>
</g>
</g>
<!-- Node1 -->
<g id="Node000001" class="node">
<title>Node1</title>
<g id="a_Node000001"><a xlink:href="struct_enemy_bezier.html" target="_top" xlink:title=" ">
<polygon fill="white" stroke="#666666" points="172.25,-134 97.75,-134 97.75,-114 172.25,-114 172.25,-134"/>
<text xml:space="preserve" text-anchor="middle" x="135" y="-120.5" font-family="Helvetica,sans-Serif" font-size="10.00">EnemyBezier</text>
</a>
</g>
</g>
<!-- Node0&#45;&gt;Node1 -->
<g id="edge1_Node000000_Node000001" class="edge">
<title>Node0&#45;&gt;Node1</title>
<g id="a_edge1_Node000000_Node000001"><a xlink:title=" ">
<path fill="none" stroke="#63b8ff" d="M59.11,-83.04C70.92,-89.91 84.96,-97.96 97.75,-105 102.98,-107.88 108.68,-110.91 113.98,-113.69"/>
<polygon fill="#63b8ff" stroke="#63b8ff" points="61.09,-80.14 50.69,-78.12 57.56,-86.19 61.09,-80.14"/>
</a>
</g>
</g>
<!-- Node2 -->
<g id="Node000002" class="node">
<title>Node2</title>
<g id="a_Node000002"><a xlink:href="class_player.html" target="_top" xlink:title=" ">
<polygon fill="white" stroke="#666666" points="156.88,-96 113.12,-96 113.12,-76 156.88,-76 156.88,-96"/>
<text xml:space="preserve" text-anchor="middle" x="135" y="-82.5" font-family="Helvetica,sans-Serif" font-size="10.00">Player</text>
</a>
</g>
</g>
<!-- Node0&#45;&gt;Node2 -->
<g id="edge2_Node000000_Node000002" class="edge">
<title>Node0&#45;&gt;Node2</title>
<g id="a_edge2_Node000000_Node000002"><a xlink:title=" ">
<path fill="none" stroke="#63b8ff" d="M73.28,-74.7C86.8,-77.22 101.25,-79.91 112.66,-82.03"/>
<polygon fill="#63b8ff" stroke="#63b8ff" points="74.2,-71.31 63.73,-72.93 72.92,-78.2 74.2,-71.31"/>
</a>
</g>
</g>
<!-- Node3 -->
<g id="Node000003" class="node">
<title>Node3</title>
<g id="a_Node000003"><a xlink:href="class_player_bullet.html" target="_top" xlink:title=" ">
<polygon fill="white" stroke="#666666" points="169.25,-58 100.75,-58 100.75,-38 169.25,-38 169.25,-58"/>
<text xml:space="preserve" text-anchor="middle" x="135" y="-44.5" font-family="Helvetica,sans-Serif" font-size="10.00">PlayerBullet</text>
</a>
</g>
</g>
<!-- Node0&#45;&gt;Node3 -->
<g id="edge3_Node000000_Node000003" class="edge">
<title>Node0&#45;&gt;Node3</title>
<g id="a_edge3_Node000000_Node000003"><a xlink:title=" ">
<path fill="none" stroke="#63b8ff" d="M73.32,-59.29C82.31,-57.62 91.71,-55.87 100.36,-54.26"/>
<polygon fill="#63b8ff" stroke="#63b8ff" points="72.92,-55.8 63.73,-61.07 74.2,-62.69 72.92,-55.8"/>
</a>
</g>
</g>
<!-- Node4 -->
<g id="Node000004" class="node">
<title>Node4</title>
<g id="a_Node000004"><a xlink:href="struct_simple_bullet.html" target="_top" xlink:title=" ">
<polygon fill="white" stroke="#666666" points="170.38,-20 99.62,-20 99.62,0 170.38,0 170.38,-20"/>
<text xml:space="preserve" text-anchor="middle" x="135" y="-6.5" font-family="Helvetica,sans-Serif" font-size="10.00">SimpleBullet</text>
</a>
</g>
</g>
<!-- Node0&#45;&gt;Node4 -->
<g id="edge4_Node000000_Node000004" class="edge">
<title>Node0&#45;&gt;Node4</title>
<g id="a_edge4_Node000000_Node000004"><a xlink:title=" ">
<path fill="none" stroke="#63b8ff" d="M59.11,-50.96C70.92,-44.09 84.96,-36.04 97.75,-29 102.98,-26.12 108.68,-23.09 113.98,-20.31"/>
<polygon fill="#63b8ff" stroke="#63b8ff" points="57.56,-47.81 50.69,-55.88 61.09,-53.86 57.56,-47.81"/>
</a>
</g>
</g>
</g>
</svg>
