<?xml version="1.0" encoding="UTF-8" standalone="no"?>
<!DOCTYPE svg PUBLIC "-//W3C//DTD SVG 1.1//EN"
 "http://www.w3.org/Graphics/SVG/1.1/DTD/svg11.dtd">
<!-- Generated by graphviz version 14.1.1 (0)
 -->
<!-- Title: json.h Pages: 1 -->
<svg width="802pt" height="476pt"
 viewBox="0.00 0.00 802.00 476.00" xmlns="http://www.w3.org/2000/svg" xmlns:xlink="http://www.w3.org/1999/xlink">
<g id="graph0" class="graph" transform="scale(1 1) rotate(0) translate(4 472)">
<title>json.h</title>
<!-- Node1 -->
<g id="Node000001" class="node">
<title>Node1</title>
<g id="a_Node000001"><a xlink:title=" ">
<polygon fill="#999999" stroke="#666666" points="97.12,-468 54.88,-468 54.88,-448 97.12,-448 97.12,-468"/>
<text xml:space="preserve" text-anchor="middle" x="76" y="-454.5" font-family="Helvetica,sans-Serif" font-size="10.00">json.h</text>
</a>
</g>
</g>
<!-- Node2 -->
<g id="Node000002" class="node">
<title>Node2</title>
<g id="a_Node000002"><a xlink:href="_game_8cpp.html" target="_top" xlink:title=" ">
<polygon fill="white" stroke="#666666" points="271.5,-20 210.5,-20 210.5,0 271.5,0 271.5,-20"/>
<text xml:space="preserve" text-anchor="middle" x="241" y="-6.5" font-family="Helvetica,sans-Serif" font-size="10.00">Game.cpp</text>
</a>
</g>
</g>
<!-- Node1&#45;&gt;Node2 -->
<g id="edge1_Node000001_Node000002" class="edge">
<title>Node1&#45;&gt;Node2</title>
<g id="a_edge1_Node000001_Node000002"><a xlink:title=" ">
<path fill="none" stroke="#63b8ff" d="M54.83,-440.41C32.34,-420.76 0,-385.76 0,-347 0,-347 0,-347 0,-121 0,-29.47 145.63,-13.77 210.48,-11.32"/>
<polygon fill="#63b8ff" stroke="#63b8ff" points="52.37,-442.92 62.29,-446.66 56.87,-437.56 52.37,-442.92"/>
</a>
</g>
</g>
<!-- Node3 -->
<g id="Node000003" class="node">
<title>Node3</title>
<g id="a_Node000003"><a xlink:href="_param_table_8h.html" target="_top" xlink:title=" ">
<polygon fill="white" stroke="#666666" points="114,-412 38,-412 38,-392 114,-392 114,-412"/>
<text xml:space="preserve" text-anchor="middle" x="76" y="-398.5" font-family="Helvetica,sans-Serif" font-size="10.00">ParamTable.h</text>
</a>
</g>
</g>
<!-- Node1&#45;&gt;Node3 -->
<g id="edge2_Node000001_Node000003" class="edge">
<title>Node1&#45;&gt;Node3</title>
<g id="a_edge2_Node000001_Node000003"><a xlink:title=" ">
<path fill="none" stroke="#63b8ff" d="M76,-436.13C76,-427.9 76,-418.85 76,-412.3"/>
<polygon fill="#63b8ff" stroke="#63b8ff" points="72.5,-436.08 76,-446.08 79.5,-436.08 72.5,-436.08"/>
</a>
</g>
</g>
<!-- Node19 -->
<g id="Node000019" class="node">
<title>Node19</title>
<g id="a_Node000019"><a xlink:href="fsutil_8h.html" target="_top" xlink:title=" ">
<polygon fill="white" stroke="#666666" points="240.62,-412 195.38,-412 195.38,-392 240.62,-392 240.62,-412"/>
<text xml:space="preserve" text-anchor="middle" x="218" y="-398.5" font-family="Helvetica,sans-Serif" font-size="10.00">fsutil.h</text>
</a>
</g>
</g>
<!-- Node1&#45;&gt;Node19 -->
<g id="edge29_Node000001_Node000019" class="edge">
<title>Node1&#45;&gt;Node19</title>
<g id="a_edge29_Node000001_Node000019"><a xlink:title=" ">
<path fill="none" stroke="#63b8ff" d="M108.24,-444.74C134.78,-434.65 171.76,-420.58 195.29,-411.64"/>
<polygon fill="#63b8ff" stroke="#63b8ff" points="107.08,-441.43 98.98,-448.26 109.57,-447.98 107.08,-441.43"/>
</a>
</g>
</g>
<!-- Node4 -->
<g id="Node000004" class="node">
<title>Node4</title>
<g id="a_Node000004"><a xlink:href="_param_table_8cpp.html" target="_top" xlink:title=" ">
<polygon fill="white" stroke="#666666" points="190.25,-356 103.75,-356 103.75,-336 190.25,-336 190.25,-356"/>
<text xml:space="preserve" text-anchor="middle" x="147" y="-342.5" font-family="Helvetica,sans-Serif" font-size="10.00">ParamTable.cpp</text>
</a>
</g>
</g>
<!-- Node3&#45;&gt;Node4 -->
<g id="edge3_Node000003_Node000004" class="edge">
<title>Node3&#45;&gt;Node4</title>
<g id="a_edge3_Node000003_Node000004"><a xlink:title=" ">
<path fill="none" stroke="#63b8ff" d="M97.46,-384.68C109.67,-375.39 124.53,-364.09 134.77,-356.3"/>
<polygon fill="#63b8ff" stroke="#63b8ff" points="95.41,-381.84 89.57,-390.68 99.65,-387.41 95.41,-381.84"/>
</a>
</g>
</g>
<!-- Node5 -->
<g id="Node000005" class="node">
<title>Node5</title>
<g id="a_Node000005"><a xlink:href="all_8cpp.html" target="_top" xlink:title=" ">
<polygon fill="white" stroke="#666666" points="255.25,-300 210.75,-300 210.75,-280 255.25,-280 255.25,-300"/>
<text xml:space="preserve" text-anchor="middle" x="233" y="-286.5" font-family="Helvetica,sans-Serif" font-size="10.00">all.cpp</text>
</a>
</g>
</g>
<!-- Node3&#45;&gt;Node5 -->
<g id="edge4_Node000003_Node000005" class="edge">
<title>Node3&#45;&gt;Node5</title>
<g id="a_edge4_Node000003_Node000005"><a xlink:title=" ">
<path fill="none" stroke="#63b8ff" d="M64.19,-381.54C57.4,-367.57 51.99,-348.98 62,-336 80.09,-312.54 168.09,-298.88 210.31,-293.57"/>
<polygon fill="#63b8ff" stroke="#63b8ff" points="61.08,-383.14 68.95,-390.24 67.22,-379.79 61.08,-383.14"/>
</a>
</g>
</g>
<!-- Node6 -->
<g id="Node000006" class="node">
<title>Node6</title>
<g id="a_Node000006"><a xlink:href="all_8h.html" target="_top" xlink:title=" ">
<polygon fill="white" stroke="#666666" points="344,-300 310,-300 310,-280 344,-280 344,-300"/>
<text xml:space="preserve" text-anchor="middle" x="327" y="-286.5" font-family="Helvetica,sans-Serif" font-size="10.00">all.h</text>
</a>
</g>
</g>
<!-- Node3&#45;&gt;Node6 -->
<g id="edge5_Node000003_Node000006" class="edge">
<title>Node3&#45;&gt;Node6</title>
<g id="a_edge5_Node000003_Node000006"><a xlink:title=" ">
<path fill="none" stroke="#63b8ff" d="M76.6,-380.6C78.14,-366.1 82.63,-347.27 95,-336 103.04,-328.68 256.87,-302.62 309.51,-293.88"/>
<polygon fill="#63b8ff" stroke="#63b8ff" points="73.11,-380.21 75.97,-390.41 80.1,-380.66 73.11,-380.21"/>
</a>
</g>
</g>
<!-- Node7 -->
<g id="Node000007" class="node">
<title>Node7</title>
<g id="a_Node000007"><a xlink:href="_v_m_8cpp.html" target="_top" xlink:title=" ">
<polygon fill="white" stroke="#666666" points="583.88,-244 534.12,-244 534.12,-224 583.88,-224 583.88,-244"/>
<text xml:space="preserve" text-anchor="middle" x="559" y="-230.5" font-family="Helvetica,sans-Serif" font-size="10.00">VM.cpp</text>
</a>
</g>
</g>
<!-- Node6&#45;&gt;Node7 -->
<g id="edge6_Node000006_Node000007" class="edge">
<title>Node6&#45;&gt;Node7</title>
<g id="a_edge6_Node000006_Node000007"><a xlink:title=" ">
<path fill="none" stroke="#63b8ff" d="M355.61,-282.34C401.37,-271.69 490.3,-250.99 533.8,-240.86"/>
<polygon fill="#63b8ff" stroke="#63b8ff" points="354.86,-278.92 345.91,-284.6 356.44,-285.74 354.86,-278.92"/>
</a>
</g>
</g>
<!-- Node8 -->
<g id="Node000008" class="node">
<title>Node8</title>
<g id="a_Node000008"><a xlink:href="enemy_bezier_8h.html" target="_top" xlink:title=" ">
<polygon fill="white" stroke="#666666" points="770.62,-132 689.38,-132 689.38,-112 770.62,-112 770.62,-132"/>
<text xml:space="preserve" text-anchor="middle" x="730" y="-118.5" font-family="Helvetica,sans-Serif" font-size="10.00">enemyBezier.h</text>
</a>
</g>
</g>
<!-- Node6&#45;&gt;Node8 -->
<g id="edge7_Node000006_Node000008" class="edge">
<title>Node6&#45;&gt;Node8</title>
<g id="a_edge7_Node000006_Node000008"><a xlink:title=" ">
<path fill="none" stroke="#63b8ff" d="M354.85,-277.53C430.28,-246.46 637.5,-161.1 706.96,-132.49"/>
<polygon fill="#63b8ff" stroke="#63b8ff" points="353.63,-274.25 345.72,-281.29 356.3,-280.72 353.63,-274.25"/>
</a>
</g>
</g>
<!-- Node11 -->
<g id="Node000011" class="node">
<title>Node11</title>
<g id="a_Node000011"><a xlink:href="gfx_8h.html" target="_top" xlink:title=" ">
<polygon fill="white" stroke="#666666" points="364.88,-244 327.12,-244 327.12,-224 364.88,-224 364.88,-244"/>
<text xml:space="preserve" text-anchor="middle" x="346" y="-230.5" font-family="Helvetica,sans-Serif" font-size="10.00">gfx.h</text>
</a>
</g>
</g>
<!-- Node6&#45;&gt;Node11 -->
<g id="edge11_Node000006_Node000011" class="edge">
<title>Node6&#45;&gt;Node11</title>
<g id="a_edge11_Node000006_Node000011"><a xlink:title=" ">
<path fill="none" stroke="#63b8ff" d="M334.04,-269C337.01,-260.54 340.34,-251.08 342.73,-244.3"/>
<polygon fill="#63b8ff" stroke="#63b8ff" points="330.83,-267.57 330.81,-278.17 337.43,-269.89 330.83,-267.57"/>
</a>
</g>
</g>
<!-- Node15 -->
<g id="Node000015" class="node">
<title>Node15</title>
<g id="a_Node000015"><a xlink:href="player_8cpp.html" target="_top" xlink:title=" ">
<polygon fill="white" stroke="#666666" points="271.5,-76 210.5,-76 210.5,-56 271.5,-56 271.5,-76"/>
<text xml:space="preserve" text-anchor="middle" x="241" y="-62.5" font-family="Helvetica,sans-Serif" font-size="10.00">player.cpp</text>
</a>
</g>
</g>
<!-- Node6&#45;&gt;Node15 -->
<g id="edge28_Node000006_Node000015" class="edge">
<title>Node6&#45;&gt;Node15</title>
<g id="a_edge28_Node000006_Node000015"><a xlink:title=" ">
<path fill="none" stroke="#63b8ff" d="M303.37,-273.13C279.43,-255.51 243.75,-224.69 228,-188 211.33,-149.17 228.64,-97.16 237.01,-76.26"/>
<polygon fill="#63b8ff" stroke="#63b8ff" points="301.1,-275.81 311.28,-278.76 305.16,-270.11 301.1,-275.81"/>
</a>
</g>
</g>
<!-- Node9 -->
<g id="Node000009" class="node">
<title>Node9</title>
<g id="a_Node000009"><a xlink:href="_game_8h.html" target="_top" xlink:title=" ">
<polygon fill="white" stroke="#666666" points="531.25,-76 480.75,-76 480.75,-56 531.25,-56 531.25,-76"/>
<text xml:space="preserve" text-anchor="middle" x="506" y="-62.5" font-family="Helvetica,sans-Serif" font-size="10.00">Game.h</text>
</a>
</g>
</g>
<!-- Node8&#45;&gt;Node9 -->
<g id="edge8_Node000008_Node000009" class="edge">
<title>Node8&#45;&gt;Node9</title>
<g id="a_edge8_Node000008_Node000009"><a xlink:title=" ">
<path fill="none" stroke="#63b8ff" d="M679.79,-108.9C633.8,-97.81 567.58,-81.85 531.61,-73.17"/>
<polygon fill="#63b8ff" stroke="#63b8ff" points="678.71,-112.24 689.25,-111.18 680.35,-105.43 678.71,-112.24"/>
</a>
</g>
</g>
<!-- Node9&#45;&gt;Node2 -->
<g id="edge9_Node000009_Node000002" class="edge">
<title>Node9&#45;&gt;Node2</title>
<g id="a_edge9_Node000009_Node000002"><a xlink:title=" ">
<path fill="none" stroke="#63b8ff" d="M469.44,-57.55C416.81,-46.83 320.66,-27.23 271.58,-17.23"/>
<polygon fill="#63b8ff" stroke="#63b8ff" points="468.61,-60.95 479.11,-59.52 470.01,-54.09 468.61,-60.95"/>
</a>
</g>
</g>
<!-- Node10 -->
<g id="Node000010" class="node">
<title>Node10</title>
<g id="a_Node000010"><a xlink:href="main_8cpp.html" target="_top" xlink:title=" ">
<polygon fill="white" stroke="#666666" points="533.88,-20 478.12,-20 478.12,0 533.88,0 533.88,-20"/>
<text xml:space="preserve" text-anchor="middle" x="506" y="-6.5" font-family="Helvetica,sans-Serif" font-size="10.00">main.cpp</text>
</a>
</g>
</g>
<!-- Node9&#45;&gt;Node10 -->
<g id="edge10_Node000009_Node000010" class="edge">
<title>Node9&#45;&gt;Node10</title>
<g id="a_edge10_Node000009_Node000010"><a xlink:title=" ">
<path fill="none" stroke="#63b8ff" d="M506,-44.13C506,-35.9 506,-26.85 506,-20.3"/>
<polygon fill="#63b8ff" stroke="#63b8ff" points="502.5,-44.08 506,-54.08 509.5,-44.08 502.5,-44.08"/>
</a>
</g>
</g>
<!-- Node11&#45;&gt;Node8 -->
<g id="edge25_Node000011_Node000008" class="edge">
<title>Node11&#45;&gt;Node8</title>
<g id="a_edge25_Node000011_Node000008"><a xlink:title=" ">
<path fill="none" stroke="#63b8ff" d="M375.38,-220.38C396.03,-211.46 424.27,-199.15 449,-188 468.21,-179.34 471.93,-174.45 492,-168 496.69,-166.49 622.18,-143.05 689.01,-130.62"/>
<polygon fill="#63b8ff" stroke="#63b8ff" points="374.23,-217.07 366.43,-224.24 377,-223.49 374.23,-217.07"/>
</a>
</g>
</g>
<!-- Node11&#45;&gt;Node9 -->
<g id="edge12_Node000011_Node000009" class="edge">
<title>Node11&#45;&gt;Node9</title>
<g id="a_edge12_Node000011_Node000009"><a xlink:title=" ">
<path fill="none" stroke="#63b8ff" d="M344.22,-212.51C343.1,-186.03 345.27,-140 370,-112 398.15,-80.13 449.38,-70.76 480.29,-68.05"/>
<polygon fill="#63b8ff" stroke="#63b8ff" points="340.72,-212.52 344.86,-222.27 347.7,-212.06 340.72,-212.52"/>
</a>
</g>
</g>
<!-- Node12 -->
<g id="Node000012" class="node">
<title>Node12</title>
<g id="a_Node000012"><a xlink:href="collider_8h.html" target="_top" xlink:title=" ">
<polygon fill="white" stroke="#666666" points="439.5,-188 384.5,-188 384.5,-168 439.5,-168 439.5,-188"/>
<text xml:space="preserve" text-anchor="middle" x="412" y="-174.5" font-family="Helvetica,sans-Serif" font-size="10.00">collider.h</text>
</a>
</g>
</g>
<!-- Node11&#45;&gt;Node12 -->
<g id="edge13_Node000011_Node000012" class="edge">
<title>Node11&#45;&gt;Node12</title>
<g id="a_edge13_Node000011_Node000012"><a xlink:title=" ">
<path fill="none" stroke="#63b8ff" d="M366.29,-216.4C377.58,-207.17 391.21,-196.01 400.64,-188.3"/>
<polygon fill="#63b8ff" stroke="#63b8ff" points="364.19,-213.59 358.67,-222.64 368.62,-219.01 364.19,-213.59"/>
</a>
</g>
</g>
<!-- Node14 -->
<g id="Node000014" class="node">
<title>Node14</title>
<g id="a_Node000014"><a xlink:href="player_8h.html" target="_top" xlink:title=" ">
<polygon fill="white" stroke="#666666" points="285.25,-132 234.75,-132 234.75,-112 285.25,-112 285.25,-132"/>
<text xml:space="preserve" text-anchor="middle" x="260" y="-118.5" font-family="Helvetica,sans-Serif" font-size="10.00">player.h</text>
</a>
</g>
</g>
<!-- Node11&#45;&gt;Node14 -->
<g id="edge27_Node000011_Node000014" class="edge">
<title>Node11&#45;&gt;Node14</title>
<g id="a_edge27_Node000011_Node000014"><a xlink:title=" ">
<path fill="none" stroke="#63b8ff" d="M331.6,-214.58C313.05,-190.86 281.52,-150.52 267.31,-132.35"/>
<polygon fill="#63b8ff" stroke="#63b8ff" points="328.82,-216.71 337.74,-222.43 334.33,-212.4 328.82,-216.71"/>
</a>
</g>
</g>
<!-- Node18 -->
<g id="Node000018" class="node">
<title>Node18</title>
<g id="a_Node000018"><a xlink:href="gfx_8cpp.html" target="_top" xlink:title=" ">
<polygon fill="white" stroke="#666666" points="285.12,-188 236.88,-188 236.88,-168 285.12,-168 285.12,-188"/>
<text xml:space="preserve" text-anchor="middle" x="261" y="-174.5" font-family="Helvetica,sans-Serif" font-size="10.00">gfx.cpp</text>
</a>
</g>
</g>
<!-- Node11&#45;&gt;Node18 -->
<g id="edge26_Node000011_Node000018" class="edge">
<title>Node11&#45;&gt;Node18</title>
<g id="a_edge26_Node000011_Node000018"><a xlink:title=" ">
<path fill="none" stroke="#63b8ff" d="M321.67,-217.54C306.91,-208.17 288.56,-196.51 275.92,-188.48"/>
<polygon fill="#63b8ff" stroke="#63b8ff" points="319.6,-220.37 329.92,-222.78 323.35,-214.47 319.6,-220.37"/>
</a>
</g>
</g>
<!-- Node12&#45;&gt;Node2 -->
<g id="edge14_Node000012_Node000002" class="edge">
<title>Node12&#45;&gt;Node2</title>
<g id="a_edge14_Node000012_Node000002"><a xlink:title=" ">
<path fill="none" stroke="#63b8ff" d="M394.19,-159.71C358.27,-124.84 278.19,-47.1 250.58,-20.3"/>
<polygon fill="#63b8ff" stroke="#63b8ff" points="391.62,-162.09 401.23,-166.55 396.49,-157.07 391.62,-162.09"/>
</a>
</g>
</g>
<!-- Node12&#45;&gt;Node8 -->
<g id="edge17_Node000012_Node000008" class="edge">
<title>Node12&#45;&gt;Node8</title>
<g id="a_edge17_Node000012_Node000008"><a xlink:title=" ">
<path fill="none" stroke="#63b8ff" d="M450.98,-168.57C452,-168.38 453.01,-168.19 454,-168 554.42,-149.29 580.31,-149.23 681,-132 683.64,-131.55 686.36,-131.07 689.11,-130.59"/>
<polygon fill="#63b8ff" stroke="#63b8ff" points="450.57,-165.08 441.46,-170.49 451.95,-171.95 450.57,-165.08"/>
</a>
</g>
</g>
<!-- Node12&#45;&gt;Node9 -->
<g id="edge15_Node000012_Node000009" class="edge">
<title>Node12&#45;&gt;Node9</title>
<g id="a_edge15_Node000012_Node000009"><a xlink:title=" ">
<path fill="none" stroke="#63b8ff" d="M428.96,-159.45C436.74,-151.25 445.99,-141.26 454,-132 470.63,-112.76 488.97,-89.25 498.81,-76.44"/>
<polygon fill="#63b8ff" stroke="#63b8ff" points="426.66,-156.8 422.27,-166.44 431.72,-161.64 426.66,-156.8"/>
</a>
</g>
</g>
<!-- Node13 -->
<g id="Node000013" class="node">
<title>Node13</title>
<g id="a_Node000013"><a xlink:href="collider_8cpp.html" target="_top" xlink:title=" ">
<polygon fill="white" stroke="#666666" points="444.75,-132 379.25,-132 379.25,-112 444.75,-112 444.75,-132"/>
<text xml:space="preserve" text-anchor="middle" x="412" y="-118.5" font-family="Helvetica,sans-Serif" font-size="10.00">collider.cpp</text>
</a>
</g>
</g>
<!-- Node12&#45;&gt;Node13 -->
<g id="edge16_Node000012_Node000013" class="edge">
<title>Node12&#45;&gt;Node13</title>
<g id="a_edge16_Node000012_Node000013"><a xlink:title=" ">
<path fill="none" stroke="#63b8ff" d="M412,-156.13C412,-147.9 412,-138.85 412,-132.3"/>
<polygon fill="#63b8ff" stroke="#63b8ff" points="408.5,-156.08 412,-166.08 415.5,-156.08 408.5,-156.08"/>
</a>
</g>
</g>
<!-- Node12&#45;&gt;Node14 -->
<g id="edge18_Node000012_Node000014" class="edge">
<title>Node12&#45;&gt;Node14</title>
<g id="a_edge18_Node000012_Node000014"><a xlink:title=" ">
<path fill="none" stroke="#63b8ff" d="M374.68,-163.74C347.03,-153.92 310.06,-140.79 285.67,-132.12"/>
<polygon fill="#63b8ff" stroke="#63b8ff" points="373.5,-167.04 384.1,-167.09 375.85,-160.44 373.5,-167.04"/>
</a>
</g>
</g>
<!-- Node16 -->
<g id="Node000016" class="node">
<title>Node16</title>
<g id="a_Node000016"><a xlink:href="player_bullet_8h.html" target="_top" xlink:title=" ">
<polygon fill="white" stroke="#666666" points="576.62,-132 501.38,-132 501.38,-112 576.62,-112 576.62,-132"/>
<text xml:space="preserve" text-anchor="middle" x="539" y="-118.5" font-family="Helvetica,sans-Serif" font-size="10.00">playerBullet.h</text>
</a>
</g>
</g>
<!-- Node12&#45;&gt;Node16 -->
<g id="edge21_Node000012_Node000016" class="edge">
<title>Node12&#45;&gt;Node16</title>
<g id="a_edge21_Node000012_Node000016"><a xlink:title=" ">
<path fill="none" stroke="#63b8ff" d="M444.6,-163.14C467.21,-153.52 496.74,-140.97 516.71,-132.48"/>
<polygon fill="#63b8ff" stroke="#63b8ff" points="443.35,-159.87 435.51,-167 446.09,-166.31 443.35,-159.87"/>
</a>
</g>
</g>
<!-- Node17 -->
<g id="Node000017" class="node">
<title>Node17</title>
<g id="a_Node000017"><a xlink:href="simple_bullet_8h.html" target="_top" xlink:title=" ">
<polygon fill="white" stroke="#666666" points="671.75,-132 594.25,-132 594.25,-112 671.75,-112 671.75,-132"/>
<text xml:space="preserve" text-anchor="middle" x="633" y="-118.5" font-family="Helvetica,sans-Serif" font-size="10.00">simpleBullet.h</text>
</a>
</g>
</g>
<!-- Node12&#45;&gt;Node17 -->
<g id="edge23_Node000012_Node000017" class="edge">
<title>Node12&#45;&gt;Node17</title>
<g id="a_edge23_Node000012_Node000017"><a xlink:title=" ">
<path fill="none" stroke="#63b8ff" d="M451.01,-167.47C491.44,-157.59 554.24,-142.24 594.49,-132.41"/>
<polygon fill="#63b8ff" stroke="#63b8ff" points="450.34,-164.03 441.46,-169.8 452.01,-170.83 450.34,-164.03"/>
</a>
</g>
</g>
<!-- Node14&#45;&gt;Node9 -->
<g id="edge19_Node000014_Node000009" class="edge">
<title>Node14&#45;&gt;Node9</title>
<g id="a_edge19_Node000014_Node000009"><a xlink:title=" ">
<path fill="none" stroke="#63b8ff" d="M296.42,-113.01C346.79,-101.95 436.48,-82.26 480.37,-72.63"/>
<polygon fill="#63b8ff" stroke="#63b8ff" points="295.9,-109.54 286.88,-115.1 297.4,-116.37 295.9,-109.54"/>
</a>
</g>
</g>
<!-- Node14&#45;&gt;Node15 -->
<g id="edge20_Node000014_Node000015" class="edge">
<title>Node14&#45;&gt;Node15</title>
<g id="a_edge20_Node000014_Node000015"><a xlink:title=" ">
<path fill="none" stroke="#63b8ff" d="M252.96,-101C249.99,-92.54 246.66,-83.08 244.27,-76.3"/>
<polygon fill="#63b8ff" stroke="#63b8ff" points="249.57,-101.89 256.19,-110.17 256.17,-99.57 249.57,-101.89"/>
</a>
</g>
</g>
<!-- Node16&#45;&gt;Node9 -->
<g id="edge22_Node000016_Node000009" class="edge">
<title>Node16&#45;&gt;Node9</title>
<g id="a_edge22_Node000016_Node000009"><a xlink:title=" ">
<path fill="none" stroke="#63b8ff" d="M527.31,-101.87C522,-93.19 515.97,-83.32 511.68,-76.3"/>
<polygon fill="#63b8ff" stroke="#63b8ff" points="524.26,-103.59 532.46,-110.3 530.23,-99.94 524.26,-103.59"/>
</a>
</g>
</g>
<!-- Node17&#45;&gt;Node9 -->
<g id="edge24_Node000017_Node000009" class="edge">
<title>Node17&#45;&gt;Node9</title>
<g id="a_edge24_Node000017_Node000009"><a xlink:title=" ">
<path fill="none" stroke="#63b8ff" d="M600.4,-107.14C577.79,-97.52 548.26,-84.97 528.29,-76.48"/>
<polygon fill="#63b8ff" stroke="#63b8ff" points="598.91,-110.31 609.49,-111 601.65,-103.87 598.91,-110.31"/>
</a>
</g>
</g>
<!-- Node19&#45;&gt;Node2 -->
<g id="edge33_Node000019_Node000002" class="edge">
<title>Node19&#45;&gt;Node2</title>
<g id="a_edge33_Node000019_Node000002"><a xlink:title=" ">
<path fill="none" stroke="#63b8ff" d="M212.37,-380.82C199.49,-333.99 169,-218.85 169,-179 169,-179 169,-179 169,-121 169,-77.41 209.08,-37.63 229.43,-20.24"/>
<polygon fill="#63b8ff" stroke="#63b8ff" points="208.92,-381.48 214.96,-390.18 215.67,-379.61 208.92,-381.48"/>
</a>
</g>
</g>
<!-- Node19&#45;&gt;Node4 -->
<g id="edge34_Node000019_Node000004" class="edge">
<title>Node19&#45;&gt;Node4</title>
<g id="a_edge34_Node000019_Node000004"><a xlink:title=" ">
<path fill="none" stroke="#63b8ff" d="M196.54,-384.68C184.33,-375.39 169.47,-364.09 159.23,-356.3"/>
<polygon fill="#63b8ff" stroke="#63b8ff" points="194.35,-387.41 204.43,-390.68 198.59,-381.84 194.35,-387.41"/>
</a>
</g>
</g>
<!-- Node20 -->
<g id="Node000020" class="node">
<title>Node20</title>
<g id="a_Node000020"><a xlink:href="_entity_table_8h.html" target="_top" xlink:title=" ">
<polygon fill="white" stroke="#666666" points="319.5,-356 246.5,-356 246.5,-336 319.5,-336 319.5,-356"/>
<text xml:space="preserve" text-anchor="middle" x="283" y="-342.5" font-family="Helvetica,sans-Serif" font-size="10.00">EntityTable.h</text>
</a>
</g>
</g>
<!-- Node19&#45;&gt;Node20 -->
<g id="edge30_Node000019_Node000020" class="edge">
<title>Node19&#45;&gt;Node20</title>
<g id="a_edge30_Node000019_Node000020"><a xlink:title=" ">
<path fill="none" stroke="#63b8ff" d="M237.98,-384.4C249.1,-375.17 262.53,-364.01 271.81,-356.3"/>
<polygon fill="#63b8ff" stroke="#63b8ff" points="235.94,-381.54 230.49,-390.63 240.41,-386.93 235.94,-381.54"/>
</a>
</g>
</g>
<!-- Node21 -->
<g id="Node000021" class="node">
<title>Node21</title>
<g id="a_Node000021"><a xlink:href="_v_m_8h.html" target="_top" xlink:title=" ">
<polygon fill="white" stroke="#666666" points="578.62,-300 539.38,-300 539.38,-280 578.62,-280 578.62,-300"/>
<text xml:space="preserve" text-anchor="middle" x="559" y="-286.5" font-family="Helvetica,sans-Serif" font-size="10.00">VM.h</text>
</a>
</g>
</g>
<!-- Node19&#45;&gt;Node21 -->
<g id="edge35_Node000019_Node000021" class="edge">
<title>Node19&#45;&gt;Node21</title>
<g id="a_edge35_Node000019_Node000021"><a xlink:title=" ">
<path fill="none" stroke="#63b8ff" d="M251.8,-390.1C322.3,-367.36 483.11,-315.48 539.23,-297.38"/>
<polygon fill="#63b8ff" stroke="#63b8ff" points="250.79,-386.75 242.34,-393.15 252.94,-393.41 250.79,-386.75"/>
</a>
</g>
</g>
<!-- Node20&#45;&gt;Node5 -->
<g id="edge31_Node000020_Node000005" class="edge">
<title>Node20&#45;&gt;Node5</title>
<g id="a_edge31_Node000020_Node000005"><a xlink:title=" ">
<path fill="none" stroke="#63b8ff" d="M266.6,-327.29C258.26,-318.28 248.46,-307.7 241.61,-300.3"/>
<polygon fill="#63b8ff" stroke="#63b8ff" points="263.9,-329.52 273.26,-334.48 269.04,-324.77 263.9,-329.52"/>
</a>
</g>
</g>
<!-- Node20&#45;&gt;Node6 -->
<g id="edge32_Node000020_Node000006" class="edge">
<title>Node20&#45;&gt;Node6</title>
<g id="a_edge32_Node000020_Node000006"><a xlink:title=" ">
<path fill="none" stroke="#63b8ff" d="M297.89,-326.72C305.13,-317.84 313.52,-307.55 319.42,-300.3"/>
<polygon fill="#63b8ff" stroke="#63b8ff" points="295.22,-324.46 291.62,-334.42 300.65,-328.88 295.22,-324.46"/>
</a>
</g>
</g>
<!-- Node21&#45;&gt;Node7 -->
<g id="edge37_Node000021_Node000007" class="edge">
<title>Node21&#45;&gt;Node7</title>
<g id="a_edge37_Node000021_Node000007"><a xlink:title=" ">
<path fill="none" stroke="#63b8ff" d="M559,-268.13C559,-259.9 559,-250.85 559,-244.3"/>
<polygon fill="#63b8ff" stroke="#63b8ff" points="555.5,-268.08 559,-278.08 562.5,-268.08 555.5,-268.08"/>
</a>
</g>
</g>
<!-- Node21&#45;&gt;Node9 -->
<g id="edge36_Node000021_Node000009" class="edge">
<title>Node21&#45;&gt;Node9</title>
<g id="a_edge36_Node000021_Node000009"><a xlink:title=" ">
<path fill="none" stroke="#63b8ff" d="M589.61,-279.86C664.31,-256.09 845.22,-188.8 780,-112 748.17,-74.52 593.08,-68.2 531.38,-67.18"/>
<polygon fill="#63b8ff" stroke="#63b8ff" points="588.94,-276.4 580.44,-282.72 591.03,-283.09 588.94,-276.4"/>
</a>
</g>
</g>
</g>
</svg>
