<?xml version="1.0" encoding="UTF-8" standalone="no"?>
<!DOCTYPE svg PUBLIC "-//W3C//DTD SVG 1.1//EN"
 "http://www.w3.org/Graphics/SVG/1.1/DTD/svg11.dtd">
<!-- Generated by graphviz version 14.1.1 (0)
 -->
<!-- Title: main Pages: 1 -->
<svg width="289pt" height="66pt"
 viewBox="0.00 0.00 289.00 66.00" xmlns="http://www.w3.org/2000/svg" xmlns:xlink="http://www.w3.org/1999/xlink">
<g id="graph0" class="graph" transform="scale(1 1) rotate(0) translate(4 62)">
<title>main</title>
<!-- Node1 -->
<g id="Node000001" class="node">
<title>Node1</title>
<g id="a_Node000001"><a xlink:title=" ">
<polygon fill="#999999" stroke="#666666" points="37,-39 0,-39 0,-19 37,-19 37,-39"/>
<text xml:space="preserve" text-anchor="middle" x="18.5" y="-25.5" font-family="Helvetica,sans-Serif" font-size="10.00">main</text>
</a>
</g>
</g>
<!-- Node2 -->
<g id="Node000002" class="node">
<title>Node2</title>
<g id="a_Node000002"><a xlink:href="class_game.html#ae4f3841f0e51c499d35be615927fd4cf" target="_top" xlink:title=" ">
<polygon fill="white" stroke="#666666" points="142.25,-39 73,-39 73,-19 142.25,-19 142.25,-39"/>
<text xml:space="preserve" text-anchor="middle" x="107.62" y="-25.5" font-family="Helvetica,sans-Serif" font-size="10.00">Game::exec</text>
</a>
</g>
</g>
<!-- Node1&#45;&gt;Node2 -->
<g id="edge1_Node000001_Node000002" class="edge">
<title>Node1&#45;&gt;Node2</title>
<g id="a_edge1_Node000001_Node000002"><a xlink:title=" ">
<path fill="none" stroke="#63b8ff" d="M37.13,-29C44.25,-29 52.83,-29 61.49,-29"/>
<polygon fill="#63b8ff" stroke="#63b8ff" points="61.29,-32.5 71.29,-29 61.29,-25.5 61.29,-32.5"/>
</a>
</g>
</g>
<!-- Node3 -->
<g id="Node000003" class="node">
<title>Node3</title>
<g id="a_Node000003"><a xlink:href="class_fps_counter.html#a5dc927aabeafe2ffbff32ca64f3a3d17" target="_top" xlink:title=" ">
<polygon fill="white" stroke="#666666" points="281.25,-58 178.25,-58 178.25,-38 281.25,-38 281.25,-58"/>
<text xml:space="preserve" text-anchor="middle" x="229.75" y="-44.5" font-family="Helvetica,sans-Serif" font-size="10.00">FpsCounter::getFps</text>
</a>
</g>
</g>
<!-- Node2&#45;&gt;Node3 -->
<g id="edge2_Node000002_Node000003" class="edge">
<title>Node2&#45;&gt;Node3</title>
<g id="a_edge2_Node000002_Node000003"><a xlink:title=" ">
<path fill="none" stroke="#63b8ff" d="M142.73,-34.39C150.26,-35.59 158.47,-36.88 166.73,-38.19"/>
<polygon fill="#63b8ff" stroke="#63b8ff" points="166.04,-41.63 176.47,-39.73 167.14,-34.71 166.04,-41.63"/>
</a>
</g>
</g>
<!-- Node4 -->
<g id="Node000004" class="node">
<title>Node4</title>
<g id="a_Node000004"><a xlink:href="class_fps_counter.html#a9d14052c40bc19abd30bb307aa5fe2f8" target="_top" xlink:title=" ">
<polygon fill="white" stroke="#666666" points="280.88,-20 178.62,-20 178.62,0 280.88,0 280.88,-20"/>
<text xml:space="preserve" text-anchor="middle" x="229.75" y="-6.5" font-family="Helvetica,sans-Serif" font-size="10.00">FpsCounter::update</text>
</a>
</g>
</g>
<!-- Node2&#45;&gt;Node4 -->
<g id="edge3_Node000002_Node000004" class="edge">
<title>Node2&#45;&gt;Node4</title>
<g id="a_edge3_Node000002_Node000004"><a xlink:title=" ">
<path fill="none" stroke="#63b8ff" d="M142.73,-23.61C150.36,-22.4 158.68,-21.08 167.04,-19.76"/>
<polygon fill="#63b8ff" stroke="#63b8ff" points="167.59,-23.22 176.92,-18.2 166.5,-16.3 167.59,-23.22"/>
</a>
</g>
</g>
</g>
</svg>
