<?xml version="1.0" encoding="UTF-8" standalone="no"?>
<!DOCTYPE svg PUBLIC "-//W3C//DTD SVG 1.1//EN"
 "http://www.w3.org/Graphics/SVG/1.1/DTD/svg11.dtd">
<!-- Generated by graphviz version 14.1.1 (0)
 -->
<!-- Title: player.h Pages: 1 -->
<svg width="879pt" height="420pt"
 viewBox="0.00 0.00 879.00 420.00" xmlns="http://www.w3.org/2000/svg" xmlns:xlink="http://www.w3.org/1999/xlink">
<g id="graph0" class="graph" transform="scale(1 1) rotate(0) translate(4 416)">
<title>player.h</title>
<!-- Node1 -->
<g id="Node000001" class="node">
<title>Node1</title>
<g id="a_Node000001"><a xlink:title=" ">
<polygon fill="#999999" stroke="#666666" points="632.75,-412 582.25,-412 582.25,-392 632.75,-392 632.75,-412"/>
<text xml:space="preserve" text-anchor="middle" x="607.5" y="-398.5" font-family="Helvetica,sans-Serif" font-size="10.00">player.h</text>
</a>
</g>
</g>
<!-- Node2 -->
<g id="Node000002" class="node">
<title>Node2</title>
<g id="a_Node000002"><a xlink:title=" ">
<polygon fill="#e0e0e0" stroke="#999999" points="512,-356 469,-356 469,-336 512,-336 512,-356"/>
<text xml:space="preserve" text-anchor="middle" x="490.5" y="-342.5" font-family="Helvetica,sans-Serif" font-size="10.00">cmath</text>
</a>
</g>
</g>
<!-- Node1&#45;&gt;Node2 -->
<g id="edge1_Node000001_Node000002" class="edge">
<title>Node1&#45;&gt;Node2</title>
<g id="a_edge1_Node000001_Node000002"><a xlink:title=" ">
<path fill="none" stroke="#63b8ff" d="M587.12,-391.59C568.94,-383.21 542.07,-370.8 521.28,-361.21"/>
<polygon fill="#63b8ff" stroke="#63b8ff" points="522.96,-358.13 512.41,-357.11 520.03,-364.48 522.96,-358.13"/>
</a>
</g>
</g>
<!-- Node3 -->
<g id="Node000003" class="node">
<title>Node3</title>
<g id="a_Node000003"><a xlink:href="def_8h.html" target="_top" xlink:title=" ">
<polygon fill="white" stroke="#666666" points="804.75,-132 736.25,-132 736.25,-112 804.75,-112 804.75,-132"/>
<text xml:space="preserve" text-anchor="middle" x="770.5" y="-118.5" font-family="Helvetica,sans-Serif" font-size="10.00">../core/def.h</text>
</a>
</g>
</g>
<!-- Node1&#45;&gt;Node3 -->
<g id="edge2_Node000001_Node000003" class="edge">
<title>Node1&#45;&gt;Node3</title>
<g id="a_edge2_Node000001_Node000003"><a xlink:title=" ">
<path fill="none" stroke="#63b8ff" d="M633.2,-401.72C699.37,-402.1 870.5,-393.2 870.5,-291 870.5,-291 870.5,-291 870.5,-233 870.5,-190.06 828.26,-156.47 798.68,-138.22"/>
<polygon fill="#63b8ff" stroke="#63b8ff" points="800.54,-135.24 790.15,-133.18 796.98,-141.27 800.54,-135.24"/>
</a>
</g>
</g>
<!-- Node7 -->
<g id="Node000007" class="node">
<title>Node7</title>
<g id="a_Node000007"><a xlink:href="collider_8h.html" target="_top" xlink:title=" ">
<polygon fill="white" stroke="#666666" points="615.38,-356 529.62,-356 529.62,-336 615.38,-336 615.38,-356"/>
<text xml:space="preserve" text-anchor="middle" x="572.5" y="-342.5" font-family="Helvetica,sans-Serif" font-size="10.00">../core/collider.h</text>
</a>
</g>
</g>
<!-- Node1&#45;&gt;Node7 -->
<g id="edge6_Node000001_Node000007" class="edge">
<title>Node1&#45;&gt;Node7</title>
<g id="a_edge6_Node000001_Node000007"><a xlink:title=" ">
<path fill="none" stroke="#63b8ff" d="M601.4,-391.59C596.79,-384.47 590.29,-374.45 584.63,-365.72"/>
<polygon fill="#63b8ff" stroke="#63b8ff" points="587.73,-364.06 579.35,-357.57 581.85,-367.86 587.73,-364.06"/>
</a>
</g>
</g>
<!-- Node8 -->
<g id="Node000008" class="node">
<title>Node8</title>
<g id="a_Node000008"><a xlink:href="gfx_8h.html" target="_top" xlink:title=" ">
<polygon fill="white" stroke="#666666" points="615.75,-300 529.25,-300 529.25,-280 615.75,-280 615.75,-300"/>
<text xml:space="preserve" text-anchor="middle" x="572.5" y="-286.5" font-family="Helvetica,sans-Serif" font-size="10.00">../graphics/gfx.h</text>
</a>
</g>
</g>
<!-- Node1&#45;&gt;Node8 -->
<g id="edge39_Node000001_Node000008" class="edge">
<title>Node1&#45;&gt;Node8</title>
<g id="a_edge39_Node000001_Node000008"><a xlink:title=" ">
<path fill="none" stroke="#63b8ff" d="M613.68,-391.83C621.54,-378.93 633.13,-354.88 624.5,-336 619.12,-324.23 608.98,-314.36 599.07,-306.9"/>
<polygon fill="#63b8ff" stroke="#63b8ff" points="601.26,-304.16 591.05,-301.35 597.28,-309.91 601.26,-304.16"/>
</a>
</g>
</g>
<!-- Node4 -->
<g id="Node000004" class="node">
<title>Node4</title>
<g id="a_Node000004"><a xlink:title=" ">
<polygon fill="#e0e0e0" stroke="#999999" points="711.12,-76 665.88,-76 665.88,-56 711.12,-56 711.12,-76"/>
<text xml:space="preserve" text-anchor="middle" x="688.5" y="-62.5" font-family="Helvetica,sans-Serif" font-size="10.00">cstdint</text>
</a>
</g>
</g>
<!-- Node3&#45;&gt;Node4 -->
<g id="edge3_Node000003_Node000004" class="edge">
<title>Node3&#45;&gt;Node4</title>
<g id="a_edge3_Node000003_Node000004"><a xlink:title=" ">
<path fill="none" stroke="#63b8ff" d="M756.22,-111.59C744.06,-103.59 726.36,-91.93 712.1,-82.54"/>
<polygon fill="#63b8ff" stroke="#63b8ff" points="714.44,-79.89 704.16,-77.31 710.59,-85.73 714.44,-79.89"/>
</a>
</g>
</g>
<!-- Node5 -->
<g id="Node000005" class="node">
<title>Node5</title>
<g id="a_Node000005"><a xlink:title=" ">
<polygon fill="#e0e0e0" stroke="#999999" points="851.5,-76 811.5,-76 811.5,-56 851.5,-56 851.5,-76"/>
<text xml:space="preserve" text-anchor="middle" x="831.5" y="-62.5" font-family="Helvetica,sans-Serif" font-size="10.00">string</text>
</a>
</g>
</g>
<!-- Node3&#45;&gt;Node5 -->
<g id="edge4_Node000003_Node000005" class="edge">
<title>Node3&#45;&gt;Node5</title>
<g id="a_edge4_Node000003_Node000005"><a xlink:title=" ">
<path fill="none" stroke="#63b8ff" d="M781.13,-111.59C789.78,-103.93 802.23,-92.91 812.58,-83.75"/>
<polygon fill="#63b8ff" stroke="#63b8ff" points="814.7,-86.55 819.86,-77.3 810.06,-81.31 814.7,-86.55"/>
</a>
</g>
</g>
<!-- Node6 -->
<g id="Node000006" class="node">
<title>Node6</title>
<g id="a_Node000006"><a xlink:href="vec2_8h.html" target="_top" xlink:title=" ">
<polygon fill="white" stroke="#666666" points="793.12,-76 747.88,-76 747.88,-56 793.12,-56 793.12,-76"/>
<text xml:space="preserve" text-anchor="middle" x="770.5" y="-62.5" font-family="Helvetica,sans-Serif" font-size="10.00">vec2.h</text>
</a>
</g>
</g>
<!-- Node3&#45;&gt;Node6 -->
<g id="edge5_Node000003_Node000006" class="edge">
<title>Node3&#45;&gt;Node6</title>
<g id="a_edge5_Node000003_Node000006"><a xlink:title=" ">
<path fill="none" stroke="#63b8ff" d="M770.5,-111.59C770.5,-105.01 770.5,-95.96 770.5,-87.73"/>
<polygon fill="#63b8ff" stroke="#63b8ff" points="774,-87.81 770.5,-77.81 767,-87.81 774,-87.81"/>
</a>
</g>
</g>
<!-- Node7&#45;&gt;Node3 -->
<g id="edge7_Node000007_Node000003" class="edge">
<title>Node7&#45;&gt;Node3</title>
<g id="a_edge7_Node000007_Node000003"><a xlink:title=" ">
<path fill="none" stroke="#63b8ff" d="M584.57,-335.53C595.45,-326.77 611.65,-313.15 624.5,-300 677.47,-245.76 732.37,-174.35 757.06,-141.27"/>
<polygon fill="#63b8ff" stroke="#63b8ff" points="759.67,-143.63 762.81,-133.51 754.04,-139.46 759.67,-143.63"/>
</a>
</g>
</g>
<!-- Node7&#45;&gt;Node8 -->
<g id="edge8_Node000007_Node000008" class="edge">
<title>Node7&#45;&gt;Node8</title>
<g id="a_edge8_Node000007_Node000008"><a xlink:title=" ">
<path fill="none" stroke="#63b8ff" d="M572.5,-335.59C572.5,-329.01 572.5,-319.96 572.5,-311.73"/>
<polygon fill="#63b8ff" stroke="#63b8ff" points="576,-311.81 572.5,-301.81 569,-311.81 576,-311.81"/>
</a>
</g>
</g>
<!-- Node10 -->
<g id="Node000010" class="node">
<title>Node10</title>
<g id="a_Node000010"><a xlink:title=" ">
<polygon fill="#e0e0e0" stroke="#999999" points="43,-132 0,-132 0,-112 43,-112 43,-132"/>
<text xml:space="preserve" text-anchor="middle" x="21.5" y="-118.5" font-family="Helvetica,sans-Serif" font-size="10.00">vector</text>
</a>
</g>
</g>
<!-- Node7&#45;&gt;Node10 -->
<g id="edge38_Node000007_Node000010" class="edge">
<title>Node7&#45;&gt;Node10</title>
<g id="a_edge38_Node000007_Node000010"><a xlink:title=" ">
<path fill="none" stroke="#63b8ff" d="M532.52,-335.55C451.24,-315.43 262.18,-263.88 117.5,-188 90.3,-173.74 61.42,-153.39 42.53,-139.27"/>
<polygon fill="#63b8ff" stroke="#63b8ff" points="44.67,-136.5 34.58,-133.25 40.44,-142.08 44.67,-136.5"/>
</a>
</g>
</g>
<!-- Node8&#45;&gt;Node4 -->
<g id="edge9_Node000008_Node000004" class="edge">
<title>Node8&#45;&gt;Node4</title>
<g id="a_edge9_Node000008_Node000004"><a xlink:title=" ">
<path fill="none" stroke="#63b8ff" d="M588.5,-279.57C600.93,-271.52 617.81,-258.9 628.5,-244 664.05,-194.46 679.74,-122.27 685.57,-87.38"/>
<polygon fill="#63b8ff" stroke="#63b8ff" points="688.98,-88.24 687.06,-77.82 682.06,-87.17 688.98,-88.24"/>
</a>
</g>
</g>
<!-- Node8&#45;&gt;Node5 -->
<g id="edge10_Node000008_Node000005" class="edge">
<title>Node8&#45;&gt;Node5</title>
<g id="a_edge10_Node000008_Node000005"><a xlink:title=" ">
<path fill="none" stroke="#63b8ff" d="M598.51,-279.53C648.31,-260.03 757.18,-210.51 813.5,-132 822.91,-118.89 827.4,-101.06 829.55,-87.39"/>
<polygon fill="#63b8ff" stroke="#63b8ff" points="832.98,-88.11 830.74,-77.76 826.04,-87.25 832.98,-88.11"/>
</a>
</g>
</g>
<!-- Node9 -->
<g id="Node000009" class="node">
<title>Node9</title>
<g id="a_Node000009"><a xlink:title=" ">
<polygon fill="#e0e0e0" stroke="#999999" points="352.88,-132 270.12,-132 270.12,-112 352.88,-112 352.88,-132"/>
<text xml:space="preserve" text-anchor="middle" x="311.5" y="-118.5" font-family="Helvetica,sans-Serif" font-size="10.00">unordered_map</text>
</a>
</g>
</g>
<!-- Node8&#45;&gt;Node9 -->
<g id="edge11_Node000008_Node000009" class="edge">
<title>Node8&#45;&gt;Node9</title>
<g id="a_edge11_Node000008_Node000009"><a xlink:title=" ">
<path fill="none" stroke="#63b8ff" d="M557.72,-279.6C514.65,-252.21 388.96,-172.27 335.75,-138.42"/>
<polygon fill="#63b8ff" stroke="#63b8ff" points="337.71,-135.52 327.4,-133.11 333.95,-141.43 337.71,-135.52"/>
</a>
</g>
</g>
<!-- Node8&#45;&gt;Node10 -->
<g id="edge12_Node000008_Node000010" class="edge">
<title>Node8&#45;&gt;Node10</title>
<g id="a_edge12_Node000008_Node000010"><a xlink:title=" ">
<path fill="none" stroke="#63b8ff" d="M528.8,-283.65C479.15,-276.97 395.99,-263.93 326.5,-244 222.76,-214.25 105.53,-162.27 51.59,-137.25"/>
<polygon fill="#63b8ff" stroke="#63b8ff" points="53.28,-134.18 42.74,-133.12 50.32,-140.52 53.28,-134.18"/>
</a>
</g>
</g>
<!-- Node11 -->
<g id="Node000011" class="node">
<title>Node11</title>
<g id="a_Node000011"><a xlink:href="all_8h.html" target="_top" xlink:title=" ">
<polygon fill="white" stroke="#666666" points="407.62,-244 335.38,-244 335.38,-224 407.62,-224 407.62,-244"/>
<text xml:space="preserve" text-anchor="middle" x="371.5" y="-230.5" font-family="Helvetica,sans-Serif" font-size="10.00">../tables/all.h</text>
</a>
</g>
</g>
<!-- Node8&#45;&gt;Node11 -->
<g id="edge13_Node000008_Node000011" class="edge">
<title>Node8&#45;&gt;Node11</title>
<g id="a_edge13_Node000008_Node000011"><a xlink:title=" ">
<path fill="none" stroke="#63b8ff" d="M537.49,-279.59C504.26,-270.67 454.11,-257.19 417.63,-247.39"/>
<polygon fill="#63b8ff" stroke="#63b8ff" points="418.81,-244.09 408.25,-244.87 417,-250.85 418.81,-244.09"/>
</a>
</g>
</g>
<!-- Node23 -->
<g id="Node000023" class="node">
<title>Node23</title>
<g id="a_Node000023"><a xlink:href="_s_d_l__def_8h.html" target="_top" xlink:title=" ">
<polygon fill="white" stroke="#666666" points="619.12,-244 525.88,-244 525.88,-224 619.12,-224 619.12,-244"/>
<text xml:space="preserve" text-anchor="middle" x="572.5" y="-230.5" font-family="Helvetica,sans-Serif" font-size="10.00">../core/SDL_def.h</text>
</a>
</g>
</g>
<!-- Node8&#45;&gt;Node23 -->
<g id="edge37_Node000008_Node000023" class="edge">
<title>Node8&#45;&gt;Node23</title>
<g id="a_edge37_Node000008_Node000023"><a xlink:title=" ">
<path fill="none" stroke="#63b8ff" d="M572.5,-279.59C572.5,-273.01 572.5,-263.96 572.5,-255.73"/>
<polygon fill="#63b8ff" stroke="#63b8ff" points="576,-255.81 572.5,-245.81 569,-255.81 576,-255.81"/>
</a>
</g>
</g>
<!-- Node12 -->
<g id="Node000012" class="node">
<title>Node12</title>
<g id="a_Node000012"><a xlink:href="_entity_table_8h.html" target="_top" xlink:title=" ">
<polygon fill="white" stroke="#666666" points="537,-188 464,-188 464,-168 537,-168 537,-188"/>
<text xml:space="preserve" text-anchor="middle" x="500.5" y="-174.5" font-family="Helvetica,sans-Serif" font-size="10.00">EntityTable.h</text>
</a>
</g>
</g>
<!-- Node11&#45;&gt;Node12 -->
<g id="edge14_Node000011_Node000012" class="edge">
<title>Node11&#45;&gt;Node12</title>
<g id="a_edge14_Node000011_Node000012"><a xlink:title=" ">
<path fill="none" stroke="#63b8ff" d="M393.97,-223.59C414.29,-215.09 444.45,-202.46 467.51,-192.81"/>
<polygon fill="#63b8ff" stroke="#63b8ff" points="468.59,-196.15 476.46,-189.06 465.88,-189.7 468.59,-196.15"/>
</a>
</g>
</g>
<!-- Node21 -->
<g id="Node000021" class="node">
<title>Node21</title>
<g id="a_Node000021"><a xlink:href="_param_table_8h.html" target="_top" xlink:title=" ">
<polygon fill="white" stroke="#666666" points="304.5,-188 228.5,-188 228.5,-168 304.5,-168 304.5,-188"/>
<text xml:space="preserve" text-anchor="middle" x="266.5" y="-174.5" font-family="Helvetica,sans-Serif" font-size="10.00">ParamTable.h</text>
</a>
</g>
</g>
<!-- Node11&#45;&gt;Node21 -->
<g id="edge27_Node000011_Node000021" class="edge">
<title>Node11&#45;&gt;Node21</title>
<g id="a_edge27_Node000011_Node000021"><a xlink:title=" ">
<path fill="none" stroke="#63b8ff" d="M353.21,-223.59C337.2,-215.36 313.67,-203.26 295.16,-193.74"/>
<polygon fill="#63b8ff" stroke="#63b8ff" points="296.77,-190.63 286.28,-189.17 293.57,-196.86 296.77,-190.63"/>
</a>
</g>
</g>
<!-- Node12&#45;&gt;Node3 -->
<g id="edge21_Node000012_Node000003" class="edge">
<title>Node12&#45;&gt;Node3</title>
<g id="a_edge21_Node000012_Node000003"><a xlink:title=" ">
<path fill="none" stroke="#63b8ff" d="M537.48,-169.6C586.32,-159.84 672.3,-142.64 725.05,-132.09"/>
<polygon fill="#63b8ff" stroke="#63b8ff" points="725.5,-135.57 734.62,-130.18 724.13,-128.71 725.5,-135.57"/>
</a>
</g>
</g>
<!-- Node12&#45;&gt;Node4 -->
<g id="edge15_Node000012_Node000004" class="edge">
<title>Node12&#45;&gt;Node4</title>
<g id="a_edge15_Node000012_Node000004"><a xlink:title=" ">
<path fill="none" stroke="#63b8ff" d="M537.3,-172.8C568.91,-167.64 614.36,-156.34 646.5,-132 661.88,-120.35 673.22,-101.32 680.22,-86.85"/>
<polygon fill="#63b8ff" stroke="#63b8ff" points="683.36,-88.39 684.27,-77.83 676.98,-85.52 683.36,-88.39"/>
</a>
</g>
</g>
<!-- Node12&#45;&gt;Node9 -->
<g id="edge18_Node000012_Node000009" class="edge">
<title>Node12&#45;&gt;Node9</title>
<g id="a_edge18_Node000012_Node000009"><a xlink:title=" ">
<path fill="none" stroke="#63b8ff" d="M467.58,-167.59C436.47,-158.71 389.58,-145.31 355.32,-135.52"/>
<polygon fill="#63b8ff" stroke="#63b8ff" points="356.71,-132.28 346.13,-132.9 354.79,-139.01 356.71,-132.28"/>
</a>
</g>
</g>
<!-- Node13 -->
<g id="Node000013" class="node">
<title>Node13</title>
<g id="a_Node000013"><a xlink:title=" ">
<polygon fill="#e0e0e0" stroke="#999999" points="251.88,-132 193.12,-132 193.12,-112 251.88,-112 251.88,-132"/>
<text xml:space="preserve" text-anchor="middle" x="222.5" y="-118.5" font-family="Helvetica,sans-Serif" font-size="10.00">stdexcept</text>
</a>
</g>
</g>
<!-- Node12&#45;&gt;Node13 -->
<g id="edge16_Node000012_Node000013" class="edge">
<title>Node12&#45;&gt;Node13</title>
<g id="a_edge16_Node000012_Node000013"><a xlink:title=" ">
<path fill="none" stroke="#63b8ff" d="M463.56,-170.53C418.63,-162.55 340.24,-148.29 263.15,-132.27"/>
<polygon fill="#63b8ff" stroke="#63b8ff" points="264.27,-128.93 253.76,-130.31 262.84,-135.79 264.27,-128.93"/>
</a>
</g>
</g>
<!-- Node14 -->
<g id="Node000014" class="node">
<title>Node14</title>
<g id="a_Node000014"><a xlink:title=" ">
<polygon fill="#e0e0e0" stroke="#999999" points="454.25,-76 388.75,-76 388.75,-56 454.25,-56 454.25,-76"/>
<text xml:space="preserve" text-anchor="middle" x="421.5" y="-62.5" font-family="Helvetica,sans-Serif" font-size="10.00">string_view</text>
</a>
</g>
</g>
<!-- Node12&#45;&gt;Node14 -->
<g id="edge17_Node000012_Node000014" class="edge">
<title>Node12&#45;&gt;Node14</title>
<g id="a_edge17_Node000012_Node000014"><a xlink:title=" ">
<path fill="none" stroke="#63b8ff" d="M499.66,-167.81C498.05,-154.46 493.55,-129.4 481.5,-112 473.24,-100.08 460.81,-90.01 449.4,-82.44"/>
<polygon fill="#63b8ff" stroke="#63b8ff" points="451.4,-79.56 441.06,-77.25 447.7,-85.51 451.4,-79.56"/>
</a>
</g>
</g>
<!-- Node15 -->
<g id="Node000015" class="node">
<title>Node15</title>
<g id="a_Node000015"><a xlink:href="rapid_string_8h.html" target="_top" xlink:title=" ">
<polygon fill="white" stroke="#666666" points="472.25,-132 370.75,-132 370.75,-112 472.25,-112 472.25,-132"/>
<text xml:space="preserve" text-anchor="middle" x="421.5" y="-118.5" font-family="Helvetica,sans-Serif" font-size="10.00">../core/rapidString.h</text>
</a>
</g>
</g>
<!-- Node12&#45;&gt;Node15 -->
<g id="edge19_Node000012_Node000015" class="edge">
<title>Node12&#45;&gt;Node15</title>
<g id="a_edge19_Node000012_Node000015"><a xlink:title=" ">
<path fill="none" stroke="#63b8ff" d="M486.74,-167.59C475.14,-159.67 458.3,-148.16 444.64,-138.82"/>
<polygon fill="#63b8ff" stroke="#63b8ff" points="446.85,-136.09 436.62,-133.33 442.9,-141.87 446.85,-136.09"/>
</a>
</g>
</g>
<!-- Node16 -->
<g id="Node000016" class="node">
<title>Node16</title>
<g id="a_Node000016"><a xlink:href="fsutil_8h.html" target="_top" xlink:title=" ">
<polygon fill="white" stroke="#666666" points="604.5,-132 528.5,-132 528.5,-112 604.5,-112 604.5,-132"/>
<text xml:space="preserve" text-anchor="middle" x="566.5" y="-118.5" font-family="Helvetica,sans-Serif" font-size="10.00">../core/fsutil.h</text>
</a>
</g>
</g>
<!-- Node12&#45;&gt;Node16 -->
<g id="edge22_Node000012_Node000016" class="edge">
<title>Node12&#45;&gt;Node16</title>
<g id="a_edge22_Node000012_Node000016"><a xlink:title=" ">
<path fill="none" stroke="#63b8ff" d="M512,-167.59C521.46,-159.85 535.1,-148.69 546.37,-139.47"/>
<polygon fill="#63b8ff" stroke="#63b8ff" points="548.44,-142.3 553.96,-133.26 544.01,-136.88 548.44,-142.3"/>
</a>
</g>
</g>
<!-- Node15&#45;&gt;Node14 -->
<g id="edge20_Node000015_Node000014" class="edge">
<title>Node15&#45;&gt;Node14</title>
<g id="a_edge20_Node000015_Node000014"><a xlink:title=" ">
<path fill="none" stroke="#63b8ff" d="M421.5,-111.59C421.5,-105.01 421.5,-95.96 421.5,-87.73"/>
<polygon fill="#63b8ff" stroke="#63b8ff" points="425,-87.81 421.5,-77.81 418,-87.81 425,-87.81"/>
</a>
</g>
</g>
<!-- Node17 -->
<g id="Node000017" class="node">
<title>Node17</title>
<g id="a_Node000017"><a xlink:href="json_8h.html" target="_top" xlink:title=" ">
<polygon fill="white" stroke="#666666" points="519.62,-76 477.38,-76 477.38,-56 519.62,-56 519.62,-76"/>
<text xml:space="preserve" text-anchor="middle" x="498.5" y="-62.5" font-family="Helvetica,sans-Serif" font-size="10.00">json.h</text>
</a>
</g>
</g>
<!-- Node16&#45;&gt;Node17 -->
<g id="edge23_Node000016_Node000017" class="edge">
<title>Node16&#45;&gt;Node17</title>
<g id="a_edge23_Node000016_Node000017"><a xlink:title=" ">
<path fill="none" stroke="#63b8ff" d="M554.66,-111.59C544.81,-103.77 530.57,-92.46 518.89,-83.19"/>
<polygon fill="#63b8ff" stroke="#63b8ff" points="521.4,-80.72 511.39,-77.24 517.05,-86.2 521.4,-80.72"/>
</a>
</g>
</g>
<!-- Node20 -->
<g id="Node000020" class="node">
<title>Node20</title>
<g id="a_Node000020"><a xlink:title=" ">
<polygon fill="#e0e0e0" stroke="#999999" points="591,-76 542,-76 542,-56 591,-56 591,-76"/>
<text xml:space="preserve" text-anchor="middle" x="566.5" y="-62.5" font-family="Helvetica,sans-Serif" font-size="10.00">fstream</text>
</a>
</g>
</g>
<!-- Node16&#45;&gt;Node20 -->
<g id="edge26_Node000016_Node000020" class="edge">
<title>Node16&#45;&gt;Node20</title>
<g id="a_edge26_Node000016_Node000020"><a xlink:title=" ">
<path fill="none" stroke="#63b8ff" d="M566.5,-111.59C566.5,-105.01 566.5,-95.96 566.5,-87.73"/>
<polygon fill="#63b8ff" stroke="#63b8ff" points="570,-87.81 566.5,-77.81 563,-87.81 570,-87.81"/>
</a>
</g>
</g>
<!-- Node18 -->
<g id="Node000018" class="node">
<title>Node18</title>
<g id="a_Node000018"><a xlink:title=" ">
<polygon fill="#e0e0e0" stroke="#999999" points="483,-20 374,-20 374,0 483,0 483,-20"/>
<text xml:space="preserve" text-anchor="middle" x="428.5" y="-6.5" font-family="Helvetica,sans-Serif" font-size="10.00">rapidjson/document.h</text>
</a>
</g>
</g>
<!-- Node17&#45;&gt;Node18 -->
<g id="edge24_Node000017_Node000018" class="edge">
<title>Node17&#45;&gt;Node18</title>
<g id="a_edge24_Node000017_Node000018"><a xlink:title=" ">
<path fill="none" stroke="#63b8ff" d="M486.31,-55.59C476.17,-47.77 461.51,-36.46 449.49,-27.19"/>
<polygon fill="#63b8ff" stroke="#63b8ff" points="451.81,-24.56 441.75,-21.22 447.53,-30.1 451.81,-24.56"/>
</a>
</g>
</g>
<!-- Node19 -->
<g id="Node000019" class="node">
<title>Node19</title>
<g id="a_Node000019"><a xlink:title=" ">
<polygon fill="#e0e0e0" stroke="#999999" points="634,-20 501,-20 501,0 634,0 634,-20"/>
<text xml:space="preserve" text-anchor="middle" x="567.5" y="-6.5" font-family="Helvetica,sans-Serif" font-size="10.00">rapidjson/istreamwrapper.h</text>
</a>
</g>
</g>
<!-- Node17&#45;&gt;Node19 -->
<g id="edge25_Node000017_Node000019" class="edge">
<title>Node17&#45;&gt;Node19</title>
<g id="a_edge25_Node000017_Node000019"><a xlink:title=" ">
<path fill="none" stroke="#63b8ff" d="M510.52,-55.59C520.51,-47.77 534.96,-36.46 546.81,-27.19"/>
<polygon fill="#63b8ff" stroke="#63b8ff" points="548.71,-30.15 554.43,-21.23 544.39,-24.64 548.71,-30.15"/>
</a>
</g>
</g>
<!-- Node21&#45;&gt;Node3 -->
<g id="edge34_Node000021_Node000003" class="edge">
<title>Node21&#45;&gt;Node3</title>
<g id="a_edge34_Node000021_Node000003"><a xlink:title=" ">
<path fill="none" stroke="#63b8ff" d="M304.8,-172.9C396.07,-163.12 626.16,-138.46 724.63,-127.91"/>
<polygon fill="#63b8ff" stroke="#63b8ff" points="724.89,-131.41 734.47,-126.86 724.15,-124.45 724.89,-131.41"/>
</a>
</g>
</g>
<!-- Node21&#45;&gt;Node4 -->
<g id="edge28_Node000021_Node000004" class="edge">
<title>Node21&#45;&gt;Node4</title>
<g id="a_edge28_Node000021_Node000004"><a xlink:title=" ">
<path fill="none" stroke="#63b8ff" d="M304.9,-174.81C383.29,-169.9 558.97,-156.45 613.5,-132 637.46,-121.26 659.47,-100.28 673.36,-85.05"/>
<polygon fill="#63b8ff" stroke="#63b8ff" points="675.94,-87.42 679.91,-77.59 670.68,-82.8 675.94,-87.42"/>
</a>
</g>
</g>
<!-- Node21&#45;&gt;Node9 -->
<g id="edge31_Node000021_Node000009" class="edge">
<title>Node21&#45;&gt;Node9</title>
<g id="a_edge31_Node000021_Node000009"><a xlink:title=" ">
<path fill="none" stroke="#63b8ff" d="M274.34,-167.59C280.47,-160.24 289.17,-149.8 296.61,-140.87"/>
<polygon fill="#63b8ff" stroke="#63b8ff" points="299.07,-143.38 302.78,-133.46 293.69,-138.9 299.07,-143.38"/>
</a>
</g>
</g>
<!-- Node21&#45;&gt;Node10 -->
<g id="edge32_Node000021_Node000010" class="edge">
<title>Node21&#45;&gt;Node10</title>
<g id="a_edge32_Node000021_Node000010"><a xlink:title=" ">
<path fill="none" stroke="#63b8ff" d="M228.28,-169.16C186.31,-160.47 116.97,-145.83 57.5,-132 56.34,-131.73 55.16,-131.45 53.97,-131.17"/>
<polygon fill="#63b8ff" stroke="#63b8ff" points="55.19,-127.86 44.64,-128.9 53.53,-134.67 55.19,-127.86"/>
</a>
</g>
</g>
<!-- Node21&#45;&gt;Node13 -->
<g id="edge29_Node000021_Node000013" class="edge">
<title>Node21&#45;&gt;Node13</title>
<g id="a_edge29_Node000021_Node000013"><a xlink:title=" ">
<path fill="none" stroke="#63b8ff" d="M258.84,-167.59C252.91,-160.32 244.51,-150.02 237.29,-141.15"/>
<polygon fill="#63b8ff" stroke="#63b8ff" points="240.06,-139.01 231.03,-133.47 234.64,-143.43 240.06,-139.01"/>
</a>
</g>
</g>
<!-- Node21&#45;&gt;Node14 -->
<g id="edge30_Node000021_Node000014" class="edge">
<title>Node21&#45;&gt;Node14</title>
<g id="a_edge30_Node000021_Node000014"><a xlink:title=" ">
<path fill="none" stroke="#63b8ff" d="M228.27,-172.67C181.73,-166.52 107.23,-153.55 90.5,-132 85.05,-124.98 84.65,-118.7 90.5,-112 127.18,-70 295.51,-65.71 377.02,-66.17"/>
<polygon fill="#63b8ff" stroke="#63b8ff" points="376.85,-69.67 386.88,-66.26 376.91,-62.67 376.85,-69.67"/>
</a>
</g>
</g>
<!-- Node21&#45;&gt;Node15 -->
<g id="edge36_Node000021_Node000015" class="edge">
<title>Node21&#45;&gt;Node15</title>
<g id="a_edge36_Node000021_Node000015"><a xlink:title=" ">
<path fill="none" stroke="#63b8ff" d="M293.5,-167.59C318.46,-158.9 355.8,-145.89 383.72,-136.16"/>
<polygon fill="#63b8ff" stroke="#63b8ff" points="384.57,-139.57 392.86,-132.98 382.27,-132.96 384.57,-139.57"/>
</a>
</g>
</g>
<!-- Node21&#45;&gt;Node17 -->
<g id="edge35_Node000021_Node000017" class="edge">
<title>Node21&#45;&gt;Node17</title>
<g id="a_edge35_Node000021_Node000017"><a xlink:title=" ">
<path fill="none" stroke="#63b8ff" d="M237.5,-167.57C206.46,-156 164.23,-135.06 184.5,-112 225.78,-65.05 402.11,-87.81 463.5,-76 464.33,-75.84 465.17,-75.67 466.02,-75.5"/>
<polygon fill="#63b8ff" stroke="#63b8ff" points="466.69,-78.94 475.65,-73.28 465.12,-72.11 466.69,-78.94"/>
</a>
</g>
</g>
<!-- Node22 -->
<g id="Node000022" class="node">
<title>Node22</title>
<g id="a_Node000022"><a xlink:title=" ">
<polygon fill="#e0e0e0" stroke="#999999" points="137,-132 100,-132 100,-112 137,-112 137,-132"/>
<text xml:space="preserve" text-anchor="middle" x="118.5" y="-118.5" font-family="Helvetica,sans-Serif" font-size="10.00">span</text>
</a>
</g>
</g>
<!-- Node21&#45;&gt;Node22 -->
<g id="edge33_Node000021_Node000022" class="edge">
<title>Node21&#45;&gt;Node22</title>
<g id="a_edge33_Node000021_Node000022"><a xlink:title=" ">
<path fill="none" stroke="#63b8ff" d="M240.72,-167.59C214.92,-158.18 175.28,-143.72 148.18,-133.83"/>
<polygon fill="#63b8ff" stroke="#63b8ff" points="149.43,-130.56 138.84,-130.42 147.03,-137.14 149.43,-130.56"/>
</a>
</g>
</g>
</g>
</svg>
