<?xml version="1.0" encoding="UTF-8" standalone="no"?>
<!DOCTYPE svg PUBLIC "-//W3C//DTD SVG 1.1//EN"
 "http://www.w3.org/Graphics/SVG/1.1/DTD/svg11.dtd">
<!-- Generated by graphviz version 14.1.1 (0)
 -->
<!-- Title: player.cpp Pages: 1 -->
<!--zoomable 476 -->

<svg id="main" version="1.1" xmlns="http://www.w3.org/2000/svg" xmlns:xlink="http://www.w3.org/1999/xlink" xml:space="preserve" onload="init(evt)">

<style type="text/css"><![CDATA[
.node, .edge {opacity: 0.7;}
.node.selected, .edge.selected {opacity: 1;}
.edge:hover path { stroke: red; }
.edge:hover polygon { stroke: red; fill: red; }
]]></style>

<defs>
  <circle id="rim" cx="0" cy="0" r="7"/>
  <circle id="rim2" cx="0" cy="0" r="3.5"/>
  <g id="zoomPlus">
    <use xlink:href="#rim" fill="#404040"><set attributeName="fill" to="#808080" begin="zoomplus.mouseover" end="zoomplus.mouseout"/></use>
    <path d="M-4,0h8M0,-4v8" fill="none" stroke="white" stroke-width="1.5" pointer-events="none"/>
  </g>
  <g id="zoomMin">
    <use xlink:href="#rim" fill="#404040"><set attributeName="fill" to="#808080" begin="zoomminus.mouseover" end="zoomminus.mouseout"/></use>
    <path d="M-4,0h8" fill="none" stroke="white" stroke-width="1.5" pointer-events="none"/>
  </g>
  <g id="arrowUp" transform="translate(30 24)">
    <use xlink:href="#rim"/>
    <path pointer-events="none" fill="none" stroke="white" stroke-width="1.5" d="M0,-3.0v7 M-2.5,-0.5L0,-3.0L2.5,-0.5"/>
  </g>
  <g id="arrowRight" transform="rotate(90) translate(36 -43)">
    <use xlink:href="#rim"/>
    <path pointer-events="none" fill="none" stroke="white" stroke-width="1.5" d="M0,-3.0v7 M-2.5,-0.5L0,-3.0L2.5,-0.5"/>
  </g>
  <g id="arrowDown" transform="rotate(180) translate(-30 -48)">
    <use xlink:href="#rim"/>
    <path pointer-events="none" fill="none" stroke="white" stroke-width="1.5" d="M0,-3.0v7 M-2.5,-0.5L0,-3.0L2.5,-0.5"/>
  </g>
  <g id="arrowLeft" transform="rotate(270) translate(-36 17)">
    <use xlink:href="#rim"/>
    <path pointer-events="none" fill="none" stroke="white" stroke-width="1.5" d="M0,-3.0v7 M-2.5,-0.5L0,-3.0L2.5,-0.5"/>
  </g>
  <g id="resetDef">
    <use xlink:href="#rim2" fill="#404040"><set attributeName="fill" to="#808080" begin="reset.mouseover" end="reset.mouseout"/></use>
  </g>
</defs>
<script type="application/ecmascript">
var viewWidth = 988;
var viewHeight = 476;
var sectionId = 'dynsection-0';
</script>
<script type="application/ecmascript" xlink:href="svg.min.js"/>
<svg id="graph" class="graph">
<g id="viewport">
<title>player.cpp</title>
<!-- Node1 -->
<g id="Node000001" class="node">
<title>Node1</title>
<g id="a_Node000001"><a xlink:title=" ">
<polygon fill="#999999" stroke="#666666" points="291.75,-468 230.75,-468 230.75,-448 291.75,-448 291.75,-468"/>
<text xml:space="preserve" text-anchor="middle" x="261.25" y="-454.5" font-family="Helvetica,sans-Serif" font-size="10.00">player.cpp</text>
</a>
</g>
</g>
<!-- Node2 -->
<g id="Node000002" class="node">
<title>Node2</title>
<g id="a_Node000002"><a xlink:href="player_8h.html" target="_top" xlink:title=" ">
<polygon fill="white" stroke="#666666" points="286.5,-412 236,-412 236,-392 286.5,-392 286.5,-412"/>
<text xml:space="preserve" text-anchor="middle" x="261.25" y="-398.5" font-family="Helvetica,sans-Serif" font-size="10.00">player.h</text>
</a>
</g>
</g>
<!-- Node1&#45;&gt;Node2 -->
<g id="edge1_Node000001_Node000002" class="edge">
<title>Node1&#45;&gt;Node2</title>
<g id="a_edge1_Node000001_Node000002"><a xlink:title=" ">
<path fill="none" stroke="#63b8ff" d="M261.25,-447.59C261.25,-441.01 261.25,-431.96 261.25,-423.73"/>
<polygon fill="#63b8ff" stroke="#63b8ff" points="264.75,-423.81 261.25,-413.81 257.75,-423.81 264.75,-423.81"/>
</a>
</g>
</g>
<!-- Node12 -->
<g id="Node000012" class="node">
<title>Node12</title>
<g id="a_Node000012"><a xlink:href="all_8h.html" target="_top" xlink:title=" ">
<polygon fill="white" stroke="#666666" points="599.38,-244 527.12,-244 527.12,-224 599.38,-224 599.38,-244"/>
<text xml:space="preserve" text-anchor="middle" x="563.25" y="-230.5" font-family="Helvetica,sans-Serif" font-size="10.00">../tables/all.h</text>
</a>
</g>
</g>
<!-- Node1&#45;&gt;Node12 -->
<g id="edge46_Node000001_Node000012" class="edge">
<title>Node1&#45;&gt;Node12</title>
<g id="a_edge46_Node000001_Node000012"><a xlink:title=" ">
<path fill="none" stroke="#63b8ff" d="M273.84,-447.74C320.27,-413.61 482.26,-294.53 541.41,-251.05"/>
<polygon fill="#63b8ff" stroke="#63b8ff" points="543.4,-253.94 549.38,-245.19 539.25,-248.3 543.4,-253.94"/>
</a>
</g>
</g>
<!-- Node25 -->
<g id="Node000025" class="node">
<title>Node25</title>
<g id="a_Node000025"><a xlink:href="entity_manager_8h.html" target="_top" xlink:title=" ">
<polygon fill="white" stroke="#666666" points="116.5,-188 0,-188 0,-168 116.5,-168 116.5,-188"/>
<text xml:space="preserve" text-anchor="middle" x="58.25" y="-174.5" font-family="Helvetica,sans-Serif" font-size="10.00">../core/entityManager.h</text>
</a>
</g>
</g>
<!-- Node1&#45;&gt;Node25 -->
<g id="edge41_Node000001_Node000025" class="edge">
<title>Node1&#45;&gt;Node25</title>
<g id="a_edge41_Node000001_Node000025"><a xlink:title=" ">
<path fill="none" stroke="#63b8ff" d="M230.48,-452.43C179.3,-442.9 82.25,-415.76 82.25,-347 82.25,-347 82.25,-347 82.25,-289 82.25,-256.99 72.43,-220.92 65.35,-199.08"/>
<polygon fill="#63b8ff" stroke="#63b8ff" points="68.7,-198.05 62.17,-189.7 62.07,-200.3 68.7,-198.05"/>
</a>
</g>
</g>
<!-- Node3 -->
<g id="Node000003" class="node">
<title>Node3</title>
<g id="a_Node000003"><a xlink:title=" ">
<polygon fill="#e0e0e0" stroke="#999999" points="323.75,-356 280.75,-356 280.75,-336 323.75,-336 323.75,-356"/>
<text xml:space="preserve" text-anchor="middle" x="302.25" y="-342.5" font-family="Helvetica,sans-Serif" font-size="10.00">cmath</text>
</a>
</g>
</g>
<!-- Node2&#45;&gt;Node3 -->
<g id="edge2_Node000002_Node000003" class="edge">
<title>Node2&#45;&gt;Node3</title>
<g id="a_edge2_Node000002_Node000003"><a xlink:title=" ">
<path fill="none" stroke="#63b8ff" d="M268.39,-391.59C273.86,-384.39 281.57,-374.23 288.26,-365.43"/>
<polygon fill="#63b8ff" stroke="#63b8ff" points="291.02,-367.58 294.27,-357.5 285.44,-363.35 291.02,-367.58"/>
</a>
</g>
</g>
<!-- Node4 -->
<g id="Node000004" class="node">
<title>Node4</title>
<g id="a_Node000004"><a xlink:href="def_8h.html" target="_top" xlink:title=" ">
<polygon fill="white" stroke="#666666" points="268.5,-132 200,-132 200,-112 268.5,-112 268.5,-132"/>
<text xml:space="preserve" text-anchor="middle" x="234.25" y="-118.5" font-family="Helvetica,sans-Serif" font-size="10.00">../core/def.h</text>
</a>
</g>
</g>
<!-- Node2&#45;&gt;Node4 -->
<g id="edge3_Node000002_Node000004" class="edge">
<title>Node2&#45;&gt;Node4</title>
<g id="a_edge3_Node000002_Node000004"><a xlink:title=" ">
<path fill="none" stroke="#63b8ff" d="M235.5,-394.36C214.77,-387.79 186.21,-375.79 168.25,-356 147.56,-333.19 144.25,-321.8 144.25,-291 144.25,-291 144.25,-291 144.25,-233 144.25,-191.69 182.75,-157.36 209.39,-138.55"/>
<polygon fill="#63b8ff" stroke="#63b8ff" points="211,-141.69 217.32,-133.19 207.08,-135.89 211,-141.69"/>
</a>
</g>
</g>
<!-- Node8 -->
<g id="Node000008" class="node">
<title>Node8</title>
<g id="a_Node000008"><a xlink:href="collider_8h.html" target="_top" xlink:title=" ">
<polygon fill="white" stroke="#666666" points="263.12,-356 177.38,-356 177.38,-336 263.12,-336 263.12,-356"/>
<text xml:space="preserve" text-anchor="middle" x="220.25" y="-342.5" font-family="Helvetica,sans-Serif" font-size="10.00">../core/collider.h</text>
</a>
</g>
</g>
<!-- Node2&#45;&gt;Node8 -->
<g id="edge7_Node000002_Node000008" class="edge">
<title>Node2&#45;&gt;Node8</title>
<g id="a_edge7_Node000002_Node000008"><a xlink:title=" ">
<path fill="none" stroke="#63b8ff" d="M254.11,-391.59C248.64,-384.39 240.93,-374.23 234.24,-365.43"/>
<polygon fill="#63b8ff" stroke="#63b8ff" points="237.06,-363.35 228.23,-357.5 231.48,-367.58 237.06,-363.35"/>
</a>
</g>
</g>
<!-- Node9 -->
<g id="Node000009" class="node">
<title>Node9</title>
<g id="a_Node000009"><a xlink:href="gfx_8h.html" target="_top" xlink:title=" ">
<polygon fill="white" stroke="#666666" points="409.5,-300 323,-300 323,-280 409.5,-280 409.5,-300"/>
<text xml:space="preserve" text-anchor="middle" x="366.25" y="-286.5" font-family="Helvetica,sans-Serif" font-size="10.00">../graphics/gfx.h</text>
</a>
</g>
</g>
<!-- Node2&#45;&gt;Node9 -->
<g id="edge40_Node000002_Node000009" class="edge">
<title>Node2&#45;&gt;Node9</title>
<g id="a_edge40_Node000002_Node000009"><a xlink:title=" ">
<path fill="none" stroke="#63b8ff" d="M282.63,-391.53C298.22,-383.77 319.02,-371.55 333.25,-356 345.14,-343 353.86,-324.92 359.34,-311.12"/>
<polygon fill="#63b8ff" stroke="#63b8ff" points="362.61,-312.35 362.79,-301.76 356.05,-309.93 362.61,-312.35"/>
</a>
</g>
</g>
<!-- Node5 -->
<g id="Node000005" class="node">
<title>Node5</title>
<g id="a_Node000005"><a xlink:title=" ">
<polygon fill="#e0e0e0" stroke="#999999" points="367.88,-76 322.62,-76 322.62,-56 367.88,-56 367.88,-76"/>
<text xml:space="preserve" text-anchor="middle" x="345.25" y="-62.5" font-family="Helvetica,sans-Serif" font-size="10.00">cstdint</text>
</a>
</g>
</g>
<!-- Node4&#45;&gt;Node5 -->
<g id="edge4_Node000004_Node000005" class="edge">
<title>Node4&#45;&gt;Node5</title>
<g id="a_edge4_Node000004_Node000005"><a xlink:title=" ">
<path fill="none" stroke="#63b8ff" d="M253.58,-111.59C270.67,-103.28 295.85,-91.03 315.5,-81.47"/>
<polygon fill="#63b8ff" stroke="#63b8ff" points="316.94,-84.66 324.4,-77.14 313.88,-78.37 316.94,-84.66"/>
</a>
</g>
</g>
<!-- Node6 -->
<g id="Node000006" class="node">
<title>Node6</title>
<g id="a_Node000006"><a xlink:title=" ">
<polygon fill="#e0e0e0" stroke="#999999" points="304.25,-76 264.25,-76 264.25,-56 304.25,-56 304.25,-76"/>
<text xml:space="preserve" text-anchor="middle" x="284.25" y="-62.5" font-family="Helvetica,sans-Serif" font-size="10.00">string</text>
</a>
</g>
</g>
<!-- Node4&#45;&gt;Node6 -->
<g id="edge5_Node000004_Node000006" class="edge">
<title>Node4&#45;&gt;Node6</title>
<g id="a_edge5_Node000004_Node000006"><a xlink:title=" ">
<path fill="none" stroke="#63b8ff" d="M242.96,-111.59C249.84,-104.16 259.64,-93.58 267.97,-84.58"/>
<polygon fill="#63b8ff" stroke="#63b8ff" points="270.39,-87.12 274.61,-77.41 265.25,-82.37 270.39,-87.12"/>
</a>
</g>
</g>
<!-- Node7 -->
<g id="Node000007" class="node">
<title>Node7</title>
<g id="a_Node000007"><a xlink:href="vec2_8h.html" target="_top" xlink:title=" ">
<polygon fill="white" stroke="#666666" points="245.88,-76 200.62,-76 200.62,-56 245.88,-56 245.88,-76"/>
<text xml:space="preserve" text-anchor="middle" x="223.25" y="-62.5" font-family="Helvetica,sans-Serif" font-size="10.00">vec2.h</text>
</a>
</g>
</g>
<!-- Node4&#45;&gt;Node7 -->
<g id="edge6_Node000004_Node000007" class="edge">
<title>Node4&#45;&gt;Node7</title>
<g id="a_edge6_Node000004_Node000007"><a xlink:title=" ">
<path fill="none" stroke="#63b8ff" d="M232.33,-111.59C230.98,-104.93 229.11,-95.75 227.41,-87.44"/>
<polygon fill="#63b8ff" stroke="#63b8ff" points="230.87,-86.88 225.45,-77.78 224.01,-88.28 230.87,-86.88"/>
</a>
</g>
</g>
<!-- Node8&#45;&gt;Node4 -->
<g id="edge8_Node000008_Node000004" class="edge">
<title>Node8&#45;&gt;Node4</title>
<g id="a_edge8_Node000008_Node000004"><a xlink:title=" ">
<path fill="none" stroke="#63b8ff" d="M216.39,-335.54C212.95,-326.57 208.17,-312.62 206.25,-300 197.59,-243 216.14,-175.77 227.05,-142.99"/>
<polygon fill="#63b8ff" stroke="#63b8ff" points="230.32,-144.23 230.28,-133.64 223.7,-141.94 230.32,-144.23"/>
</a>
</g>
</g>
<!-- Node8&#45;&gt;Node9 -->
<g id="edge9_Node000008_Node000009" class="edge">
<title>Node8&#45;&gt;Node9</title>
<g id="a_edge9_Node000008_Node000009"><a xlink:title=" ">
<path fill="none" stroke="#63b8ff" d="M245.68,-335.59C268.99,-326.97 303.75,-314.12 329.97,-304.42"/>
<polygon fill="#63b8ff" stroke="#63b8ff" points="331.04,-307.76 339.2,-301 328.61,-301.19 331.04,-307.76"/>
</a>
</g>
</g>
<!-- Node11 -->
<g id="Node000011" class="node">
<title>Node11</title>
<g id="a_Node000011"><a xlink:title=" ">
<polygon fill="#e0e0e0" stroke="#999999" points="181.75,-132 138.75,-132 138.75,-112 181.75,-112 181.75,-132"/>
<text xml:space="preserve" text-anchor="middle" x="160.25" y="-118.5" font-family="Helvetica,sans-Serif" font-size="10.00">vector</text>
</a>
</g>
</g>
<!-- Node8&#45;&gt;Node11 -->
<g id="edge39_Node000008_Node000011" class="edge">
<title>Node8&#45;&gt;Node11</title>
<g id="a_edge39_Node000008_Node000011"><a xlink:title=" ">
<path fill="none" stroke="#63b8ff" d="M218.47,-335.69C215.99,-323.03 211.25,-299.69 206.25,-280 193.66,-230.4 176.01,-172.85 166.65,-143.11"/>
<polygon fill="#63b8ff" stroke="#63b8ff" points="170.1,-142.41 163.75,-133.93 163.43,-144.52 170.1,-142.41"/>
</a>
</g>
</g>
<!-- Node9&#45;&gt;Node5 -->
<g id="edge10_Node000009_Node000005" class="edge">
<title>Node9&#45;&gt;Node5</title>
<g id="a_edge10_Node000009_Node000005"><a xlink:title=" ">
<path fill="none" stroke="#63b8ff" d="M386.72,-279.63C408.35,-268.28 437.97,-247.69 427.25,-224 417.25,-201.91 399.71,-208.17 386.25,-188 365.08,-156.28 353.85,-112.58 348.76,-87.31"/>
<polygon fill="#63b8ff" stroke="#63b8ff" points="352.24,-86.89 346.97,-77.71 345.36,-88.18 352.24,-86.89"/>
</a>
</g>
</g>
<!-- Node9&#45;&gt;Node6 -->
<g id="edge11_Node000009_Node000006" class="edge">
<title>Node9&#45;&gt;Node6</title>
<g id="a_edge11_Node000009_Node000006"><a xlink:title=" ">
<path fill="none" stroke="#63b8ff" d="M350.76,-279.55C339.08,-271.56 323.68,-259.04 315.25,-244 286.73,-193.08 283.34,-122.04 283.58,-87.5"/>
<polygon fill="#63b8ff" stroke="#63b8ff" points="287.07,-87.74 283.77,-77.67 280.08,-87.6 287.07,-87.74"/>
</a>
</g>
</g>
<!-- Node10 -->
<g id="Node000010" class="node">
<title>Node10</title>
<g id="a_Node000010"><a xlink:title=" ">
<polygon fill="#e0e0e0" stroke="#999999" points="614.62,-132 531.88,-132 531.88,-112 614.62,-112 614.62,-132"/>
<text xml:space="preserve" text-anchor="middle" x="573.25" y="-118.5" font-family="Helvetica,sans-Serif" font-size="10.00">unordered_map</text>
</a>
</g>
</g>
<!-- Node9&#45;&gt;Node10 -->
<g id="edge12_Node000009_Node000010" class="edge">
<title>Node9&#45;&gt;Node10</title>
<g id="a_edge12_Node000009_Node000010"><a xlink:title=" ">
<path fill="none" stroke="#63b8ff" d="M392.42,-279.55C412.13,-271.72 439.24,-259.41 460.25,-244 501.58,-213.68 540.16,-166.89 559.77,-141.28"/>
<polygon fill="#63b8ff" stroke="#63b8ff" points="562.41,-143.6 565.63,-133.5 556.81,-139.39 562.41,-143.6"/>
</a>
</g>
</g>
<!-- Node9&#45;&gt;Node11 -->
<g id="edge13_Node000009_Node000011" class="edge">
<title>Node9&#45;&gt;Node11</title>
<g id="a_edge13_Node000009_Node000011"><a xlink:title=" ">
<path fill="none" stroke="#63b8ff" d="M340.96,-279.54C323.07,-271.93 299.32,-259.89 282.25,-244 253.01,-216.78 262.74,-196.01 234.25,-168 221.74,-155.7 205.26,-145.26 191.03,-137.55"/>
<polygon fill="#63b8ff" stroke="#63b8ff" points="192.99,-134.62 182.5,-133.12 189.76,-140.83 192.99,-134.62"/>
</a>
</g>
</g>
<!-- Node9&#45;&gt;Node12 -->
<g id="edge14_Node000009_Node000012" class="edge">
<title>Node9&#45;&gt;Node12</title>
<g id="a_edge14_Node000009_Node000012"><a xlink:title=" ">
<path fill="none" stroke="#63b8ff" d="M400.56,-279.59C432.99,-270.71 481.86,-257.31 517.57,-247.52"/>
<polygon fill="#63b8ff" stroke="#63b8ff" points="518.49,-250.9 527.21,-244.88 516.64,-244.15 518.49,-250.9"/>
</a>
</g>
</g>
<!-- Node24 -->
<g id="Node000024" class="node">
<title>Node24</title>
<g id="a_Node000024"><a xlink:href="_s_d_l__def_8h.html" target="_top" xlink:title=" ">
<polygon fill="white" stroke="#666666" points="417.88,-244 324.62,-244 324.62,-224 417.88,-224 417.88,-244"/>
<text xml:space="preserve" text-anchor="middle" x="371.25" y="-230.5" font-family="Helvetica,sans-Serif" font-size="10.00">../core/SDL_def.h</text>
</a>
</g>
</g>
<!-- Node9&#45;&gt;Node24 -->
<g id="edge38_Node000009_Node000024" class="edge">
<title>Node9&#45;&gt;Node24</title>
<g id="a_edge38_Node000009_Node000024"><a xlink:title=" ">
<path fill="none" stroke="#63b8ff" d="M367.12,-279.59C367.73,-273.01 368.57,-263.96 369.33,-255.73"/>
<polygon fill="#63b8ff" stroke="#63b8ff" points="372.81,-256.09 370.25,-245.81 365.84,-255.44 372.81,-256.09"/>
</a>
</g>
</g>
<!-- Node13 -->
<g id="Node000013" class="node">
<title>Node13</title>
<g id="a_Node000013"><a xlink:href="_entity_table_8h.html" target="_top" xlink:title=" ">
<polygon fill="white" stroke="#666666" points="768.75,-188 695.75,-188 695.75,-168 768.75,-168 768.75,-188"/>
<text xml:space="preserve" text-anchor="middle" x="732.25" y="-174.5" font-family="Helvetica,sans-Serif" font-size="10.00">EntityTable.h</text>
</a>
</g>
</g>
<!-- Node12&#45;&gt;Node13 -->
<g id="edge15_Node000012_Node000013" class="edge">
<title>Node12&#45;&gt;Node13</title>
<g id="a_edge15_Node000012_Node000013"><a xlink:title=" ">
<path fill="none" stroke="#63b8ff" d="M592.69,-223.59C620.15,-214.82 661.34,-201.66 691.87,-191.9"/>
<polygon fill="#63b8ff" stroke="#63b8ff" points="692.68,-195.32 701.14,-188.94 690.55,-188.65 692.68,-195.32"/>
</a>
</g>
</g>
<!-- Node22 -->
<g id="Node000022" class="node">
<title>Node22</title>
<g id="a_Node000022"><a xlink:href="_param_table_8h.html" target="_top" xlink:title=" ">
<polygon fill="white" stroke="#666666" points="471.25,-188 395.25,-188 395.25,-168 471.25,-168 471.25,-188"/>
<text xml:space="preserve" text-anchor="middle" x="433.25" y="-174.5" font-family="Helvetica,sans-Serif" font-size="10.00">ParamTable.h</text>
</a>
</g>
</g>
<!-- Node12&#45;&gt;Node22 -->
<g id="edge28_Node000012_Node000022" class="edge">
<title>Node12&#45;&gt;Node22</title>
<g id="a_edge28_Node000012_Node000022"><a xlink:title=" ">
<path fill="none" stroke="#63b8ff" d="M540.61,-223.59C520.13,-215.09 489.73,-202.46 466.5,-192.81"/>
<polygon fill="#63b8ff" stroke="#63b8ff" points="468.05,-189.66 457.47,-189.06 465.36,-196.13 468.05,-189.66"/>
</a>
</g>
</g>
<!-- Node13&#45;&gt;Node4 -->
<g id="edge22_Node000013_Node000004" class="edge">
<title>Node13&#45;&gt;Node4</title>
<g id="a_edge22_Node000013_Node000004"><a xlink:title=" ">
<path fill="none" stroke="#63b8ff" d="M695.63,-173.03C606.49,-163.36 378.33,-138.62 280.22,-127.99"/>
<polygon fill="#63b8ff" stroke="#63b8ff" points="280.75,-124.52 270.43,-126.92 279.99,-131.48 280.75,-124.52"/>
</a>
</g>
</g>
<!-- Node13&#45;&gt;Node5 -->
<g id="edge16_Node000013_Node000005" class="edge">
<title>Node13&#45;&gt;Node5</title>
<g id="a_edge16_Node000013_Node000005"><a xlink:title=" ">
<path fill="none" stroke="#63b8ff" d="M763.58,-167.54C796.43,-156.1 840.56,-135.43 819.25,-112 789.76,-79.57 483.76,-69.99 379.68,-67.66"/>
<polygon fill="#63b8ff" stroke="#63b8ff" points="379.88,-64.16 369.81,-67.44 379.73,-71.16 379.88,-64.16"/>
</a>
</g>
</g>
<!-- Node13&#45;&gt;Node10 -->
<g id="edge19_Node000013_Node000010" class="edge">
<title>Node13&#45;&gt;Node10</title>
<g id="a_edge19_Node000013_Node000010"><a xlink:title=" ">
<path fill="none" stroke="#63b8ff" d="M704.55,-167.59C678.95,-158.9 640.64,-145.89 612,-136.16"/>
<polygon fill="#63b8ff" stroke="#63b8ff" points="613.19,-132.87 602.59,-132.97 610.94,-139.5 613.19,-132.87"/>
</a>
</g>
</g>
<!-- Node14 -->
<g id="Node000014" class="node">
<title>Node14</title>
<g id="a_Node000014"><a xlink:title=" ">
<polygon fill="#e0e0e0" stroke="#999999" points="810.62,-132 751.88,-132 751.88,-112 810.62,-112 810.62,-132"/>
<text xml:space="preserve" text-anchor="middle" x="781.25" y="-118.5" font-family="Helvetica,sans-Serif" font-size="10.00">stdexcept</text>
</a>
</g>
</g>
<!-- Node13&#45;&gt;Node14 -->
<g id="edge17_Node000013_Node000014" class="edge">
<title>Node13&#45;&gt;Node14</title>
<g id="a_edge17_Node000013_Node000014"><a xlink:title=" ">
<path fill="none" stroke="#63b8ff" d="M740.79,-167.59C747.53,-160.16 757.14,-149.58 765.29,-140.58"/>
<polygon fill="#63b8ff" stroke="#63b8ff" points="767.67,-143.18 771.8,-133.42 762.48,-138.47 767.67,-143.18"/>
</a>
</g>
</g>
<!-- Node15 -->
<g id="Node000015" class="node">
<title>Node15</title>
<g id="a_Node000015"><a xlink:title=" ">
<polygon fill="#e0e0e0" stroke="#999999" points="716,-76 650.5,-76 650.5,-56 716,-56 716,-76"/>
<text xml:space="preserve" text-anchor="middle" x="683.25" y="-62.5" font-family="Helvetica,sans-Serif" font-size="10.00">string_view</text>
</a>
</g>
</g>
<!-- Node13&#45;&gt;Node15 -->
<g id="edge18_Node000013_Node000015" class="edge">
<title>Node13&#45;&gt;Node15</title>
<g id="a_edge18_Node000013_Node000015"><a xlink:title=" ">
<path fill="none" stroke="#63b8ff" d="M769.03,-171.33C812.91,-162.97 877.37,-144.69 852.25,-112 837.1,-92.29 772.19,-79.38 727.37,-72.64"/>
<polygon fill="#63b8ff" stroke="#63b8ff" points="728.07,-69.21 717.67,-71.24 727.06,-76.13 728.07,-69.21"/>
</a>
</g>
</g>
<!-- Node16 -->
<g id="Node000016" class="node">
<title>Node16</title>
<g id="a_Node000016"><a xlink:href="rapid_string_8h.html" target="_top" xlink:title=" ">
<polygon fill="white" stroke="#666666" points="734,-132 632.5,-132 632.5,-112 734,-112 734,-132"/>
<text xml:space="preserve" text-anchor="middle" x="683.25" y="-118.5" font-family="Helvetica,sans-Serif" font-size="10.00">../core/rapidString.h</text>
</a>
</g>
</g>
<!-- Node13&#45;&gt;Node16 -->
<g id="edge20_Node000013_Node000016" class="edge">
<title>Node13&#45;&gt;Node16</title>
<g id="a_edge20_Node000013_Node000016"><a xlink:title=" ">
<path fill="none" stroke="#63b8ff" d="M723.71,-167.59C716.97,-160.16 707.36,-149.58 699.21,-140.58"/>
<polygon fill="#63b8ff" stroke="#63b8ff" points="702.02,-138.47 692.7,-133.42 696.83,-143.18 702.02,-138.47"/>
</a>
</g>
</g>
<!-- Node17 -->
<g id="Node000017" class="node">
<title>Node17</title>
<g id="a_Node000017"><a xlink:href="fsutil_8h.html" target="_top" xlink:title=" ">
<polygon fill="white" stroke="#666666" points="980.25,-132 904.25,-132 904.25,-112 980.25,-112 980.25,-132"/>
<text xml:space="preserve" text-anchor="middle" x="942.25" y="-118.5" font-family="Helvetica,sans-Serif" font-size="10.00">../core/fsutil.h</text>
</a>
</g>
</g>
<!-- Node13&#45;&gt;Node17 -->
<g id="edge23_Node000013_Node000017" class="edge">
<title>Node13&#45;&gt;Node17</title>
<g id="a_edge23_Node000013_Node000017"><a xlink:title=" ">
<path fill="none" stroke="#63b8ff" d="M768.83,-167.59C803.7,-158.63 856.39,-145.08 894.54,-135.27"/>
<polygon fill="#63b8ff" stroke="#63b8ff" points="895.11,-138.74 903.92,-132.86 893.36,-131.96 895.11,-138.74"/>
</a>
</g>
</g>
<!-- Node16&#45;&gt;Node15 -->
<g id="edge21_Node000016_Node000015" class="edge">
<title>Node16&#45;&gt;Node15</title>
<g id="a_edge21_Node000016_Node000015"><a xlink:title=" ">
<path fill="none" stroke="#63b8ff" d="M683.25,-111.59C683.25,-105.01 683.25,-95.96 683.25,-87.73"/>
<polygon fill="#63b8ff" stroke="#63b8ff" points="686.75,-87.81 683.25,-77.81 679.75,-87.81 686.75,-87.81"/>
</a>
</g>
</g>
<!-- Node18 -->
<g id="Node000018" class="node">
<title>Node18</title>
<g id="a_Node000018"><a xlink:href="json_8h.html" target="_top" xlink:title=" ">
<polygon fill="white" stroke="#666666" points="838.38,-76 796.12,-76 796.12,-56 838.38,-56 838.38,-76"/>
<text xml:space="preserve" text-anchor="middle" x="817.25" y="-62.5" font-family="Helvetica,sans-Serif" font-size="10.00">json.h</text>
</a>
</g>
</g>
<!-- Node17&#45;&gt;Node18 -->
<g id="edge24_Node000017_Node000018" class="edge">
<title>Node17&#45;&gt;Node18</title>
<g id="a_edge24_Node000017_Node000018"><a xlink:title=" ">
<path fill="none" stroke="#63b8ff" d="M920.48,-111.59C900.76,-103.08 871.47,-90.42 849.12,-80.77"/>
<polygon fill="#63b8ff" stroke="#63b8ff" points="850.73,-77.65 840.16,-76.9 847.96,-84.08 850.73,-77.65"/>
</a>
</g>
</g>
<!-- Node21 -->
<g id="Node000021" class="node">
<title>Node21</title>
<g id="a_Node000021"><a xlink:title=" ">
<polygon fill="#e0e0e0" stroke="#999999" points="966.75,-76 917.75,-76 917.75,-56 966.75,-56 966.75,-76"/>
<text xml:space="preserve" text-anchor="middle" x="942.25" y="-62.5" font-family="Helvetica,sans-Serif" font-size="10.00">fstream</text>
</a>
</g>
</g>
<!-- Node17&#45;&gt;Node21 -->
<g id="edge27_Node000017_Node000021" class="edge">
<title>Node17&#45;&gt;Node21</title>
<g id="a_edge27_Node000017_Node000021"><a xlink:title=" ">
<path fill="none" stroke="#63b8ff" d="M942.25,-111.59C942.25,-105.01 942.25,-95.96 942.25,-87.73"/>
<polygon fill="#63b8ff" stroke="#63b8ff" points="945.75,-87.81 942.25,-77.81 938.75,-87.81 945.75,-87.81"/>
</a>
</g>
</g>
<!-- Node19 -->
<g id="Node000019" class="node">
<title>Node19</title>
<g id="a_Node000019"><a xlink:title=" ">
<polygon fill="#e0e0e0" stroke="#999999" points="801.75,-20 692.75,-20 692.75,0 801.75,0 801.75,-20"/>
<text xml:space="preserve" text-anchor="middle" x="747.25" y="-6.5" font-family="Helvetica,sans-Serif" font-size="10.00">rapidjson/document.h</text>
</a>
</g>
</g>
<!-- Node18&#45;&gt;Node19 -->
<g id="edge25_Node000018_Node000019" class="edge">
<title>Node18&#45;&gt;Node19</title>
<g id="a_edge25_Node000018_Node000019"><a xlink:title=" ">
<path fill="none" stroke="#63b8ff" d="M805.06,-55.59C794.92,-47.77 780.26,-36.46 768.24,-27.19"/>
<polygon fill="#63b8ff" stroke="#63b8ff" points="770.56,-24.56 760.5,-21.22 766.28,-30.1 770.56,-24.56"/>
</a>
</g>
</g>
<!-- Node20 -->
<g id="Node000020" class="node">
<title>Node20</title>
<g id="a_Node000020"><a xlink:title=" ">
<polygon fill="#e0e0e0" stroke="#999999" points="952.75,-20 819.75,-20 819.75,0 952.75,0 952.75,-20"/>
<text xml:space="preserve" text-anchor="middle" x="886.25" y="-6.5" font-family="Helvetica,sans-Serif" font-size="10.00">rapidjson/istreamwrapper.h</text>
</a>
</g>
</g>
<!-- Node18&#45;&gt;Node20 -->
<g id="edge26_Node000018_Node000020" class="edge">
<title>Node18&#45;&gt;Node20</title>
<g id="a_edge26_Node000018_Node000020"><a xlink:title=" ">
<path fill="none" stroke="#63b8ff" d="M829.27,-55.59C839.26,-47.77 853.71,-36.46 865.56,-27.19"/>
<polygon fill="#63b8ff" stroke="#63b8ff" points="867.46,-30.15 873.18,-21.23 863.14,-24.64 867.46,-30.15"/>
</a>
</g>
</g>
<!-- Node22&#45;&gt;Node4 -->
<g id="edge35_Node000022_Node000004" class="edge">
<title>Node22&#45;&gt;Node4</title>
<g id="a_edge35_Node000022_Node000004"><a xlink:title=" ">
<path fill="none" stroke="#63b8ff" d="M398.59,-167.59C365.59,-158.64 315.73,-145.11 279.59,-135.3"/>
<polygon fill="#63b8ff" stroke="#63b8ff" points="280.88,-132.03 270.31,-132.79 279.04,-138.78 280.88,-132.03"/>
</a>
</g>
</g>
<!-- Node22&#45;&gt;Node5 -->
<g id="edge29_Node000022_Node000005" class="edge">
<title>Node22&#45;&gt;Node5</title>
<g id="a_edge29_Node000022_Node000005"><a xlink:title=" ">
<path fill="none" stroke="#63b8ff" d="M425.53,-167.74C418.01,-158.68 406.26,-144.46 396.25,-132 383.65,-116.32 369.55,-98.31 359.37,-85.23"/>
<polygon fill="#63b8ff" stroke="#63b8ff" points="362.27,-83.26 353.38,-77.5 356.74,-87.55 362.27,-83.26"/>
</a>
</g>
</g>
<!-- Node22&#45;&gt;Node10 -->
<g id="edge32_Node000022_Node000010" class="edge">
<title>Node22&#45;&gt;Node10</title>
<g id="a_edge32_Node000022_Node000010"><a xlink:title=" ">
<path fill="none" stroke="#63b8ff" d="M457.64,-167.59C479.88,-159.01 513.02,-146.23 538.12,-136.55"/>
<polygon fill="#63b8ff" stroke="#63b8ff" points="539.19,-139.89 547.26,-133.02 536.67,-133.36 539.19,-139.89"/>
</a>
</g>
</g>
<!-- Node22&#45;&gt;Node11 -->
<g id="edge33_Node000022_Node000011" class="edge">
<title>Node22&#45;&gt;Node11</title>
<g id="a_edge33_Node000022_Node000011"><a xlink:title=" ">
<path fill="none" stroke="#63b8ff" d="M394.86,-171.06C349.08,-163.72 270.06,-150.22 193.04,-132.23"/>
<polygon fill="#63b8ff" stroke="#63b8ff" points="194.2,-128.91 183.67,-130.01 192.59,-135.72 194.2,-128.91"/>
</a>
</g>
</g>
<!-- Node22&#45;&gt;Node14 -->
<g id="edge30_Node000022_Node000014" class="edge">
<title>Node22&#45;&gt;Node14</title>
<g id="a_edge30_Node000022_Node000014"><a xlink:title=" ">
<path fill="none" stroke="#63b8ff" d="M471.61,-172.54C528.29,-165.71 637.96,-151.57 740.28,-132.44"/>
<polygon fill="#63b8ff" stroke="#63b8ff" points="740.77,-135.91 749.95,-130.61 739.47,-129.03 740.77,-135.91"/>
</a>
</g>
</g>
<!-- Node22&#45;&gt;Node15 -->
<g id="edge31_Node000022_Node000015" class="edge">
<title>Node22&#45;&gt;Node15</title>
<g id="a_edge31_Node000022_Node000015"><a xlink:title=" ">
<path fill="none" stroke="#63b8ff" d="M430.12,-167.77C426.06,-153.91 420.96,-127.66 434.25,-112 460.07,-81.57 574.67,-71.67 639.02,-68.48"/>
<polygon fill="#63b8ff" stroke="#63b8ff" points="639.07,-71.98 648.9,-68.03 638.75,-64.99 639.07,-71.98"/>
</a>
</g>
</g>
<!-- Node22&#45;&gt;Node16 -->
<g id="edge37_Node000022_Node000016" class="edge">
<title>Node22&#45;&gt;Node16</title>
<g id="a_edge37_Node000022_Node000016"><a xlink:title=" ">
<path fill="none" stroke="#63b8ff" d="M471.49,-168.74C513.41,-159.69 581,-145.09 628.52,-134.82"/>
<polygon fill="#63b8ff" stroke="#63b8ff" points="629.03,-138.29 638.06,-132.76 627.55,-131.45 629.03,-138.29"/>
</a>
</g>
</g>
<!-- Node22&#45;&gt;Node18 -->
<g id="edge36_Node000022_Node000018" class="edge">
<title>Node22&#45;&gt;Node18</title>
<g id="a_edge36_Node000022_Node000018"><a xlink:title=" ">
<path fill="none" stroke="#63b8ff" d="M435.39,-167.64C439.24,-153.1 448.82,-125.37 468.25,-112 481.23,-103.07 700.04,-79.3 784.43,-70.41"/>
<polygon fill="#63b8ff" stroke="#63b8ff" points="784.77,-73.9 794.36,-69.37 784.04,-66.93 784.77,-73.9"/>
</a>
</g>
</g>
<!-- Node23 -->
<g id="Node000023" class="node">
<title>Node23</title>
<g id="a_Node000023"><a xlink:title=" ">
<polygon fill="#e0e0e0" stroke="#999999" points="513.75,-132 476.75,-132 476.75,-112 513.75,-112 513.75,-132"/>
<text xml:space="preserve" text-anchor="middle" x="495.25" y="-118.5" font-family="Helvetica,sans-Serif" font-size="10.00">span</text>
</a>
</g>
</g>
<!-- Node22&#45;&gt;Node23 -->
<g id="edge34_Node000022_Node000023" class="edge">
<title>Node22&#45;&gt;Node23</title>
<g id="a_edge34_Node000022_Node000023"><a xlink:title=" ">
<path fill="none" stroke="#63b8ff" d="M444.05,-167.59C452.85,-159.93 465.5,-148.91 476.02,-139.75"/>
<polygon fill="#63b8ff" stroke="#63b8ff" points="478.19,-142.5 483.43,-133.29 473.59,-137.22 478.19,-142.5"/>
</a>
</g>
</g>
<!-- Node25&#45;&gt;Node4 -->
<g id="edge45_Node000025_Node000004" class="edge">
<title>Node25&#45;&gt;Node4</title>
<g id="a_edge45_Node000025_Node000004"><a xlink:title=" ">
<path fill="none" stroke="#63b8ff" d="M88.91,-167.59C117.63,-158.78 160.78,-145.54 192.61,-135.78"/>
<polygon fill="#63b8ff" stroke="#63b8ff" points="193.37,-139.2 201.91,-132.92 191.32,-132.51 193.37,-139.2"/>
</a>
</g>
</g>
<!-- Node25&#45;&gt;Node5 -->
<g id="edge43_Node000025_Node000005" class="edge">
<title>Node25&#45;&gt;Node5</title>
<g id="a_edge43_Node000025_Node000005"><a xlink:title=" ">
<path fill="none" stroke="#63b8ff" d="M57.27,-167.92C56.3,-153.75 56.76,-126.53 72.25,-112 109.51,-77.05 243.82,-86.11 310.94,-75.9"/>
<polygon fill="#63b8ff" stroke="#63b8ff" points="311.56,-79.34 320.78,-74.11 310.31,-72.46 311.56,-79.34"/>
</a>
</g>
</g>
<!-- Node25&#45;&gt;Node11 -->
<g id="edge42_Node000025_Node000011" class="edge">
<title>Node25&#45;&gt;Node11</title>
<g id="a_edge42_Node000025_Node000011"><a xlink:title=" ">
<path fill="none" stroke="#63b8ff" d="M76.02,-167.59C91.57,-159.36 114.43,-147.26 132.41,-137.74"/>
<polygon fill="#63b8ff" stroke="#63b8ff" points="133.81,-140.96 141.01,-133.19 130.53,-134.77 133.81,-140.96"/>
</a>
</g>
</g>
<!-- Node26 -->
<g id="Node000026" class="node">
<title>Node26</title>
<g id="a_Node000026"><a xlink:title=" ">
<polygon fill="#e0e0e0" stroke="#999999" points="120.88,-132 81.62,-132 81.62,-112 120.88,-112 120.88,-132"/>
<text xml:space="preserve" text-anchor="middle" x="101.25" y="-118.5" font-family="Helvetica,sans-Serif" font-size="10.00">limits</text>
</a>
</g>
</g>
<!-- Node25&#45;&gt;Node26 -->
<g id="edge44_Node000025_Node000026" class="edge">
<title>Node25&#45;&gt;Node26</title>
<g id="a_edge44_Node000025_Node000026"><a xlink:title=" ">
<path fill="none" stroke="#63b8ff" d="M65.74,-167.59C71.54,-160.32 79.74,-150.02 86.8,-141.15"/>
<polygon fill="#63b8ff" stroke="#63b8ff" points="89.41,-143.49 92.9,-133.48 83.94,-139.12 89.41,-143.49"/>
</a>
</g>
</g>
</g>
</svg>

<g id="navigator" transform="translate(0 0)" fill="#404254">
  <rect fill="#f2f5e9" fill-opacity="0.5" stroke="#606060" stroke-width=".5" x="0" y="0" width="60" height="60"/>
  <use id="zoomplus" xlink:href="#zoomPlus" x="17" y="9" onmousedown="handleZoom(evt,'in')"/>
  <use id="zoomminus" xlink:href="#zoomMin" x="42" y="9" onmousedown="handleZoom(evt,'out')"/>
  <use id="reset" xlink:href="#resetDef" x="30" y="36" onmousedown="handleReset()"/>
   <use id="arrowup" xlink:href="#arrowUp" x="0" y="0" onmousedown="handlePan(0,-1)"/>
  <use id="arrowright" xlink:href="#arrowRight" x="0" y="0" onmousedown="handlePan(1,0)"/>
  <use id="arrowdown" xlink:href="#arrowDown" x="0" y="0" onmousedown="handlePan(0,1)"/>
  <use id="arrowleft" xlink:href="#arrowLeft" x="0" y="0" onmousedown="handlePan(-1,0)"/>
</g>
<svg viewBox="0 0 15 15" width="100%" height="30px" preserveAspectRatio="xMaxYMin meet">
 <g id="arrow_out" transform="scale(0.3 0.3)">
  <a xlink:href="player_8cpp__incl_org.svg" target="_base">
   <rect id="button" ry="5" rx="5" y="6" x="6" height="38" width="38"
        fill="#f2f5e9" fill-opacity="0.5" stroke="#606060" stroke-width="1.0"/>
   <path id="arrow"
     d="M 11.500037,31.436501 C 11.940474,20.09759 22.043105,11.32322 32.158766,21.979434 L 37.068811,17.246167 C 37.068811,17.246167 37.088388,32 37.088388,32 L 22.160133,31.978069 C 22.160133,31.978069 26.997745,27.140456 26.997745,27.140456 C 18.528582,18.264221 13.291696,25.230495 11.500037,31.436501 z"
     style="fill:#404040;"/>
  </a>
 </g>
</svg>

<style type='text/css'>
<![CDATA[
[data-mouse-over-selected='false'] { opacity: 0.7; }
[data-mouse-over-selected='true']  { opacity: 1.0; }
]]>
</style>
<script type="application/ecmascript"><![CDATA[
document.addEventListener('DOMContentLoaded', (event) => {
  highlightEdges();
  highlightAdjacentNodes();
});
]]></script>
</svg>
