<?xml version="1.0" encoding="UTF-8" standalone="no"?>
<!DOCTYPE svg PUBLIC "-//W3C//DTD SVG 1.1//EN"
 "http://www.w3.org/Graphics/SVG/1.1/DTD/svg11.dtd">
<!-- Generated by graphviz version 14.1.1 (0)
 -->
<!-- Title: playerBullet.h Pages: 1 -->
<svg width="1052pt" height="420pt"
 viewBox="0.00 0.00 1052.00 420.00" xmlns="http://www.w3.org/2000/svg" xmlns:xlink="http://www.w3.org/1999/xlink">
<g id="graph0" class="graph" transform="scale(1 1) rotate(0) translate(4 416)">
<title>playerBullet.h</title>
<!-- Node1 -->
<g id="Node000001" class="node">
<title>Node1</title>
<g id="a_Node000001"><a xlink:title=" ">
<polygon fill="#999999" stroke="#666666" points="196.62,-412 121.38,-412 121.38,-392 196.62,-392 196.62,-412"/>
<text xml:space="preserve" text-anchor="middle" x="159" y="-398.5" font-family="Helvetica,sans-Serif" font-size="10.00">playerBullet.h</text>
</a>
</g>
</g>
<!-- Node2 -->
<g id="Node000002" class="node">
<title>Node2</title>
<g id="a_Node000002"><a xlink:href="def_8h.html" target="_top" xlink:title=" ">
<polygon fill="white" stroke="#666666" points="195.25,-132 126.75,-132 126.75,-112 195.25,-112 195.25,-132"/>
<text xml:space="preserve" text-anchor="middle" x="161" y="-118.5" font-family="Helvetica,sans-Serif" font-size="10.00">../core/def.h</text>
</a>
</g>
</g>
<!-- Node1&#45;&gt;Node2 -->
<g id="edge1_Node000001_Node000002" class="edge">
<title>Node1&#45;&gt;Node2</title>
<g id="a_edge1_Node000001_Node000002"><a xlink:title=" ">
<path fill="none" stroke="#63b8ff" d="M120.92,-392.46C73.88,-379.4 0,-349.57 0,-291 0,-291 0,-291 0,-233 0,-176.74 67.84,-147.17 115.45,-133.35"/>
<polygon fill="#63b8ff" stroke="#63b8ff" points="116.29,-136.75 125,-130.72 114.43,-130 116.29,-136.75"/>
</a>
</g>
</g>
<!-- Node6 -->
<g id="Node000006" class="node">
<title>Node6</title>
<g id="a_Node000006"><a xlink:href="collider_8h.html" target="_top" xlink:title=" ">
<polygon fill="white" stroke="#666666" points="237.88,-356 152.12,-356 152.12,-336 237.88,-336 237.88,-356"/>
<text xml:space="preserve" text-anchor="middle" x="195" y="-342.5" font-family="Helvetica,sans-Serif" font-size="10.00">../core/collider.h</text>
</a>
</g>
</g>
<!-- Node1&#45;&gt;Node6 -->
<g id="edge5_Node000001_Node000006" class="edge">
<title>Node1&#45;&gt;Node6</title>
<g id="a_edge5_Node000001_Node000006"><a xlink:title=" ">
<path fill="none" stroke="#63b8ff" d="M165.27,-391.59C170.02,-384.47 176.7,-374.45 182.52,-365.72"/>
<polygon fill="#63b8ff" stroke="#63b8ff" points="185.33,-367.82 187.96,-357.56 179.5,-363.94 185.33,-367.82"/>
</a>
</g>
</g>
<!-- Node23 -->
<g id="Node000023" class="node">
<title>Node23</title>
<g id="a_Node000023"><a xlink:href="entity_manager_8h.html" target="_top" xlink:title=" ">
<polygon fill="white" stroke="#666666" points="182.25,-188 65.75,-188 65.75,-168 182.25,-168 182.25,-188"/>
<text xml:space="preserve" text-anchor="middle" x="124" y="-174.5" font-family="Helvetica,sans-Serif" font-size="10.00">../core/entityManager.h</text>
</a>
</g>
</g>
<!-- Node1&#45;&gt;Node23 -->
<g id="edge38_Node000001_Node000023" class="edge">
<title>Node1&#45;&gt;Node23</title>
<g id="a_edge38_Node000001_Node000023"><a xlink:title=" ">
<path fill="none" stroke="#63b8ff" d="M154.9,-391.54C151.19,-382.56 145.88,-368.61 143,-356 130.32,-300.4 126.05,-233 124.65,-199.69"/>
<polygon fill="#63b8ff" stroke="#63b8ff" points="128.15,-199.72 124.29,-189.85 121.16,-199.97 128.15,-199.72"/>
</a>
</g>
</g>
<!-- Node25 -->
<g id="Node000025" class="node">
<title>Node25</title>
<g id="a_Node000025"><a xlink:title=" ">
<polygon fill="#e0e0e0" stroke="#999999" points="298.12,-356 255.88,-356 255.88,-336 298.12,-336 298.12,-356"/>
<text xml:space="preserve" text-anchor="middle" x="277" y="-342.5" font-family="Helvetica,sans-Serif" font-size="10.00">deque</text>
</a>
</g>
</g>
<!-- Node1&#45;&gt;Node25 -->
<g id="edge43_Node000001_Node000025" class="edge">
<title>Node1&#45;&gt;Node25</title>
<g id="a_edge43_Node000001_Node000025"><a xlink:title=" ">
<path fill="none" stroke="#63b8ff" d="M179.55,-391.59C197.88,-383.21 224.99,-370.8 245.96,-361.21"/>
<polygon fill="#63b8ff" stroke="#63b8ff" points="247.27,-364.45 254.91,-357.11 244.36,-358.09 247.27,-364.45"/>
</a>
</g>
</g>
<!-- Node3 -->
<g id="Node000003" class="node">
<title>Node3</title>
<g id="a_Node000003"><a xlink:title=" ">
<polygon fill="#e0e0e0" stroke="#999999" points="408.62,-76 363.38,-76 363.38,-56 408.62,-56 408.62,-76"/>
<text xml:space="preserve" text-anchor="middle" x="386" y="-62.5" font-family="Helvetica,sans-Serif" font-size="10.00">cstdint</text>
</a>
</g>
</g>
<!-- Node2&#45;&gt;Node3 -->
<g id="edge2_Node000002_Node000003" class="edge">
<title>Node2&#45;&gt;Node3</title>
<g id="a_edge2_Node000002_Node000003"><a xlink:title=" ">
<path fill="none" stroke="#63b8ff" d="M195.66,-112.68C238.14,-102.49 309.66,-85.32 351.89,-75.19"/>
<polygon fill="#63b8ff" stroke="#63b8ff" points="352.59,-78.62 361.5,-72.88 350.96,-71.81 352.59,-78.62"/>
</a>
</g>
</g>
<!-- Node4 -->
<g id="Node000004" class="node">
<title>Node4</title>
<g id="a_Node000004"><a xlink:title=" ">
<polygon fill="#e0e0e0" stroke="#999999" points="292,-76 252,-76 252,-56 292,-56 292,-76"/>
<text xml:space="preserve" text-anchor="middle" x="272" y="-62.5" font-family="Helvetica,sans-Serif" font-size="10.00">string</text>
</a>
</g>
</g>
<!-- Node2&#45;&gt;Node4 -->
<g id="edge3_Node000002_Node000004" class="edge">
<title>Node2&#45;&gt;Node4</title>
<g id="a_edge3_Node000002_Node000004"><a xlink:title=" ">
<path fill="none" stroke="#63b8ff" d="M180.33,-111.59C197.42,-103.28 222.6,-91.03 242.25,-81.47"/>
<polygon fill="#63b8ff" stroke="#63b8ff" points="243.69,-84.66 251.15,-77.14 240.63,-78.37 243.69,-84.66"/>
</a>
</g>
</g>
<!-- Node5 -->
<g id="Node000005" class="node">
<title>Node5</title>
<g id="a_Node000005"><a xlink:href="vec2_8h.html" target="_top" xlink:title=" ">
<polygon fill="white" stroke="#666666" points="183.62,-76 138.38,-76 138.38,-56 183.62,-56 183.62,-76"/>
<text xml:space="preserve" text-anchor="middle" x="161" y="-62.5" font-family="Helvetica,sans-Serif" font-size="10.00">vec2.h</text>
</a>
</g>
</g>
<!-- Node2&#45;&gt;Node5 -->
<g id="edge4_Node000002_Node000005" class="edge">
<title>Node2&#45;&gt;Node5</title>
<g id="a_edge4_Node000002_Node000005"><a xlink:title=" ">
<path fill="none" stroke="#63b8ff" d="M161,-111.59C161,-105.01 161,-95.96 161,-87.73"/>
<polygon fill="#63b8ff" stroke="#63b8ff" points="164.5,-87.81 161,-77.81 157.5,-87.81 164.5,-87.81"/>
</a>
</g>
</g>
<!-- Node6&#45;&gt;Node2 -->
<g id="edge6_Node000006_Node000002" class="edge">
<title>Node6&#45;&gt;Node2</title>
<g id="a_edge6_Node000006_Node000002"><a xlink:title=" ">
<path fill="none" stroke="#63b8ff" d="M182.19,-335.82C153.13,-314.11 82.73,-256.25 57,-188 53.86,-179.68 52.12,-175.43 57,-168 64.35,-156.81 93.26,-144.81 118.75,-136.01"/>
<polygon fill="#63b8ff" stroke="#63b8ff" points="119.58,-139.42 127.95,-132.93 117.35,-132.79 119.58,-139.42"/>
</a>
</g>
</g>
<!-- Node7 -->
<g id="Node000007" class="node">
<title>Node7</title>
<g id="a_Node000007"><a xlink:href="gfx_8h.html" target="_top" xlink:title=" ">
<polygon fill="white" stroke="#666666" points="433.25,-300 346.75,-300 346.75,-280 433.25,-280 433.25,-300"/>
<text xml:space="preserve" text-anchor="middle" x="390" y="-286.5" font-family="Helvetica,sans-Serif" font-size="10.00">../graphics/gfx.h</text>
</a>
</g>
</g>
<!-- Node6&#45;&gt;Node7 -->
<g id="edge7_Node000006_Node000007" class="edge">
<title>Node6&#45;&gt;Node7</title>
<g id="a_edge7_Node000006_Node000007"><a xlink:title=" ">
<path fill="none" stroke="#63b8ff" d="M228.97,-335.59C261.07,-326.71 309.44,-313.31 344.79,-303.52"/>
<polygon fill="#63b8ff" stroke="#63b8ff" points="345.61,-306.93 354.31,-300.88 343.74,-300.18 345.61,-306.93"/>
</a>
</g>
</g>
<!-- Node9 -->
<g id="Node000009" class="node">
<title>Node9</title>
<g id="a_Node000009"><a xlink:title=" ">
<polygon fill="#e0e0e0" stroke="#999999" points="294.5,-132 251.5,-132 251.5,-112 294.5,-112 294.5,-132"/>
<text xml:space="preserve" text-anchor="middle" x="273" y="-118.5" font-family="Helvetica,sans-Serif" font-size="10.00">vector</text>
</a>
</g>
</g>
<!-- Node6&#45;&gt;Node9 -->
<g id="edge37_Node000006_Node000009" class="edge">
<title>Node6&#45;&gt;Node9</title>
<g id="a_edge37_Node000006_Node000009"><a xlink:title=" ">
<path fill="none" stroke="#63b8ff" d="M196.75,-335.87C202.05,-309.24 219.2,-229.58 246,-168 249.9,-159.04 255.27,-149.69 260.2,-141.85"/>
<polygon fill="#63b8ff" stroke="#63b8ff" points="263.09,-143.82 265.63,-133.54 257.23,-139.99 263.09,-143.82"/>
</a>
</g>
</g>
<!-- Node7&#45;&gt;Node3 -->
<g id="edge8_Node000007_Node000003" class="edge">
<title>Node7&#45;&gt;Node3</title>
<g id="a_edge8_Node000007_Node000003"><a xlink:title=" ">
<path fill="none" stroke="#63b8ff" d="M393.86,-279.54C397.3,-270.57 402.08,-256.62 404,-244 412.6,-187.41 399.32,-119.99 391.32,-87.08"/>
<polygon fill="#63b8ff" stroke="#63b8ff" points="394.8,-86.55 388.95,-77.72 388.02,-88.27 394.8,-86.55"/>
</a>
</g>
</g>
<!-- Node7&#45;&gt;Node4 -->
<g id="edge9_Node000007_Node000004" class="edge">
<title>Node7&#45;&gt;Node4</title>
<g id="a_edge9_Node000007_Node000004"><a xlink:title=" ">
<path fill="none" stroke="#63b8ff" d="M388.12,-279.92C385.29,-267.11 379.38,-243.18 371,-224 347.57,-170.35 307.53,-113.77 286.26,-85.44"/>
<polygon fill="#63b8ff" stroke="#63b8ff" points="289.09,-83.39 280.25,-77.55 283.52,-87.63 289.09,-83.39"/>
</a>
</g>
</g>
<!-- Node8 -->
<g id="Node000008" class="node">
<title>Node8</title>
<g id="a_Node000008"><a xlink:title=" ">
<polygon fill="#e0e0e0" stroke="#999999" points="666.38,-132 583.62,-132 583.62,-112 666.38,-112 666.38,-132"/>
<text xml:space="preserve" text-anchor="middle" x="625" y="-118.5" font-family="Helvetica,sans-Serif" font-size="10.00">unordered_map</text>
</a>
</g>
</g>
<!-- Node7&#45;&gt;Node8 -->
<g id="edge10_Node000007_Node000008" class="edge">
<title>Node7&#45;&gt;Node8</title>
<g id="a_edge10_Node000007_Node000008"><a xlink:title=" ">
<path fill="none" stroke="#63b8ff" d="M408.24,-279.54C439.68,-262.89 505.55,-226.44 556,-188 575.11,-173.44 594.87,-154.34 608.32,-140.62"/>
<polygon fill="#63b8ff" stroke="#63b8ff" points="610.7,-143.2 615.13,-133.57 605.66,-138.33 610.7,-143.2"/>
</a>
</g>
</g>
<!-- Node7&#45;&gt;Node9 -->
<g id="edge11_Node000007_Node000009" class="edge">
<title>Node7&#45;&gt;Node9</title>
<g id="a_edge11_Node000007_Node000009"><a xlink:title=" ">
<path fill="none" stroke="#63b8ff" d="M346.37,-286.62C316.44,-282.45 278.7,-271.6 259,-244 237.48,-213.85 251.96,-168.31 263.26,-142.55"/>
<polygon fill="#63b8ff" stroke="#63b8ff" points="266.37,-144.15 267.44,-133.61 260.03,-141.19 266.37,-144.15"/>
</a>
</g>
</g>
<!-- Node10 -->
<g id="Node000010" class="node">
<title>Node10</title>
<g id="a_Node000010"><a xlink:href="all_8h.html" target="_top" xlink:title=" ">
<polygon fill="white" stroke="#666666" points="675.12,-244 602.88,-244 602.88,-224 675.12,-224 675.12,-244"/>
<text xml:space="preserve" text-anchor="middle" x="639" y="-230.5" font-family="Helvetica,sans-Serif" font-size="10.00">../tables/all.h</text>
</a>
</g>
</g>
<!-- Node7&#45;&gt;Node10 -->
<g id="edge12_Node000007_Node000010" class="edge">
<title>Node7&#45;&gt;Node10</title>
<g id="a_edge12_Node000007_Node000010"><a xlink:title=" ">
<path fill="none" stroke="#63b8ff" d="M433.66,-279.53C477.89,-269.94 546.1,-255.15 591.63,-245.27"/>
<polygon fill="#63b8ff" stroke="#63b8ff" points="592.17,-248.74 601.2,-243.2 590.69,-241.9 592.17,-248.74"/>
</a>
</g>
</g>
<!-- Node22 -->
<g id="Node000022" class="node">
<title>Node22</title>
<g id="a_Node000022"><a xlink:href="_s_d_l__def_8h.html" target="_top" xlink:title=" ">
<polygon fill="white" stroke="#666666" points="361.62,-244 268.38,-244 268.38,-224 361.62,-224 361.62,-244"/>
<text xml:space="preserve" text-anchor="middle" x="315" y="-230.5" font-family="Helvetica,sans-Serif" font-size="10.00">../core/SDL_def.h</text>
</a>
</g>
</g>
<!-- Node7&#45;&gt;Node22 -->
<g id="edge36_Node000007_Node000022" class="edge">
<title>Node7&#45;&gt;Node22</title>
<g id="a_edge36_Node000007_Node000022"><a xlink:title=" ">
<path fill="none" stroke="#63b8ff" d="M376.94,-279.59C366.03,-271.74 350.25,-260.38 337.34,-251.09"/>
<polygon fill="#63b8ff" stroke="#63b8ff" points="339.55,-248.37 329.39,-245.36 335.46,-254.05 339.55,-248.37"/>
</a>
</g>
</g>
<!-- Node11 -->
<g id="Node000011" class="node">
<title>Node11</title>
<g id="a_Node000011"><a xlink:href="_entity_table_8h.html" target="_top" xlink:title=" ">
<polygon fill="white" stroke="#666666" points="799.5,-188 726.5,-188 726.5,-168 799.5,-168 799.5,-188"/>
<text xml:space="preserve" text-anchor="middle" x="763" y="-174.5" font-family="Helvetica,sans-Serif" font-size="10.00">EntityTable.h</text>
</a>
</g>
</g>
<!-- Node10&#45;&gt;Node11 -->
<g id="edge13_Node000010_Node000011" class="edge">
<title>Node10&#45;&gt;Node11</title>
<g id="a_edge13_Node000010_Node000011"><a xlink:title=" ">
<path fill="none" stroke="#63b8ff" d="M660.6,-223.59C679.95,-215.17 708.6,-202.69 730.68,-193.07"/>
<polygon fill="#63b8ff" stroke="#63b8ff" points="732.07,-196.29 739.84,-189.08 729.28,-189.87 732.07,-196.29"/>
</a>
</g>
</g>
<!-- Node20 -->
<g id="Node000020" class="node">
<title>Node20</title>
<g id="a_Node000020"><a xlink:href="_param_table_8h.html" target="_top" xlink:title=" ">
<polygon fill="white" stroke="#666666" points="547,-188 471,-188 471,-168 547,-168 547,-188"/>
<text xml:space="preserve" text-anchor="middle" x="509" y="-174.5" font-family="Helvetica,sans-Serif" font-size="10.00">ParamTable.h</text>
</a>
</g>
</g>
<!-- Node10&#45;&gt;Node20 -->
<g id="edge26_Node000010_Node000020" class="edge">
<title>Node10&#45;&gt;Node20</title>
<g id="a_edge26_Node000010_Node000020"><a xlink:title=" ">
<path fill="none" stroke="#63b8ff" d="M616.36,-223.59C595.88,-215.09 565.48,-202.46 542.25,-192.81"/>
<polygon fill="#63b8ff" stroke="#63b8ff" points="543.8,-189.66 533.22,-189.06 541.11,-196.13 543.8,-189.66"/>
</a>
</g>
</g>
<!-- Node11&#45;&gt;Node2 -->
<g id="edge20_Node000011_Node000002" class="edge">
<title>Node11&#45;&gt;Node2</title>
<g id="a_edge20_Node000011_Node000002"><a xlink:title=" ">
<path fill="none" stroke="#63b8ff" d="M726.09,-174.1C640.91,-167.34 424.04,-149.77 243,-132 231.35,-130.86 218.78,-129.53 207.06,-128.24"/>
<polygon fill="#63b8ff" stroke="#63b8ff" points="207.52,-124.77 197.2,-127.15 206.75,-131.73 207.52,-124.77"/>
</a>
</g>
</g>
<!-- Node11&#45;&gt;Node3 -->
<g id="edge14_Node000011_Node000003" class="edge">
<title>Node11&#45;&gt;Node3</title>
<g id="a_edge14_Node000011_Node000003"><a xlink:title=" ">
<path fill="none" stroke="#63b8ff" d="M799.82,-169.38C840.56,-159.38 897.31,-139.76 872,-112 841.63,-78.69 525.94,-69.66 420.26,-67.57"/>
<polygon fill="#63b8ff" stroke="#63b8ff" points="420.58,-64.07 410.51,-67.38 420.45,-71.07 420.58,-64.07"/>
</a>
</g>
</g>
<!-- Node11&#45;&gt;Node8 -->
<g id="edge17_Node000011_Node000008" class="edge">
<title>Node11&#45;&gt;Node8</title>
<g id="a_edge17_Node000011_Node000008"><a xlink:title=" ">
<path fill="none" stroke="#63b8ff" d="M738.96,-167.59C717.03,-159.01 684.37,-146.23 659.63,-136.55"/>
<polygon fill="#63b8ff" stroke="#63b8ff" points="661.22,-133.42 650.63,-133.03 658.67,-139.93 661.22,-133.42"/>
</a>
</g>
</g>
<!-- Node12 -->
<g id="Node000012" class="node">
<title>Node12</title>
<g id="a_Node000012"><a xlink:title=" ">
<polygon fill="#e0e0e0" stroke="#999999" points="743.38,-132 684.62,-132 684.62,-112 743.38,-112 743.38,-132"/>
<text xml:space="preserve" text-anchor="middle" x="714" y="-118.5" font-family="Helvetica,sans-Serif" font-size="10.00">stdexcept</text>
</a>
</g>
</g>
<!-- Node11&#45;&gt;Node12 -->
<g id="edge15_Node000011_Node000012" class="edge">
<title>Node11&#45;&gt;Node12</title>
<g id="a_edge15_Node000011_Node000012"><a xlink:title=" ">
<path fill="none" stroke="#63b8ff" d="M754.46,-167.59C747.72,-160.16 738.11,-149.58 729.96,-140.58"/>
<polygon fill="#63b8ff" stroke="#63b8ff" points="732.77,-138.47 723.45,-133.42 727.58,-143.18 732.77,-138.47"/>
</a>
</g>
</g>
<!-- Node13 -->
<g id="Node000013" class="node">
<title>Node13</title>
<g id="a_Node000013"><a xlink:title=" ">
<polygon fill="#e0e0e0" stroke="#999999" points="844.75,-76 779.25,-76 779.25,-56 844.75,-56 844.75,-76"/>
<text xml:space="preserve" text-anchor="middle" x="812" y="-62.5" font-family="Helvetica,sans-Serif" font-size="10.00">string_view</text>
</a>
</g>
</g>
<!-- Node11&#45;&gt;Node13 -->
<g id="edge16_Node000011_Node000013" class="edge">
<title>Node11&#45;&gt;Node13</title>
<g id="a_edge16_Node000011_Node000013"><a xlink:title=" ">
<path fill="none" stroke="#63b8ff" d="M799.84,-176.69C833.35,-174.2 881.09,-164.66 905,-132 922.46,-108.15 887.51,-89.93 855.58,-78.93"/>
<polygon fill="#63b8ff" stroke="#63b8ff" points="856.98,-75.71 846.39,-75.95 854.82,-82.37 856.98,-75.71"/>
</a>
</g>
</g>
<!-- Node14 -->
<g id="Node000014" class="node">
<title>Node14</title>
<g id="a_Node000014"><a xlink:href="rapid_string_8h.html" target="_top" xlink:title=" ">
<polygon fill="white" stroke="#666666" points="862.75,-132 761.25,-132 761.25,-112 862.75,-112 862.75,-132"/>
<text xml:space="preserve" text-anchor="middle" x="812" y="-118.5" font-family="Helvetica,sans-Serif" font-size="10.00">../core/rapidString.h</text>
</a>
</g>
</g>
<!-- Node11&#45;&gt;Node14 -->
<g id="edge18_Node000011_Node000014" class="edge">
<title>Node11&#45;&gt;Node14</title>
<g id="a_edge18_Node000011_Node000014"><a xlink:title=" ">
<path fill="none" stroke="#63b8ff" d="M771.54,-167.59C778.28,-160.16 787.89,-149.58 796.04,-140.58"/>
<polygon fill="#63b8ff" stroke="#63b8ff" points="798.42,-143.18 802.55,-133.42 793.23,-138.47 798.42,-143.18"/>
</a>
</g>
</g>
<!-- Node15 -->
<g id="Node000015" class="node">
<title>Node15</title>
<g id="a_Node000015"><a xlink:href="fsutil_8h.html" target="_top" xlink:title=" ">
<polygon fill="white" stroke="#666666" points="1033,-132 957,-132 957,-112 1033,-112 1033,-132"/>
<text xml:space="preserve" text-anchor="middle" x="995" y="-118.5" font-family="Helvetica,sans-Serif" font-size="10.00">../core/fsutil.h</text>
</a>
</g>
</g>
<!-- Node11&#45;&gt;Node15 -->
<g id="edge21_Node000011_Node000015" class="edge">
<title>Node11&#45;&gt;Node15</title>
<g id="a_edge21_Node000011_Node000015"><a xlink:title=" ">
<path fill="none" stroke="#63b8ff" d="M799.76,-168.44C839.25,-159.25 902.22,-144.6 945.92,-134.42"/>
<polygon fill="#63b8ff" stroke="#63b8ff" points="946.45,-137.89 955.39,-132.22 944.86,-131.08 946.45,-137.89"/>
</a>
</g>
</g>
<!-- Node14&#45;&gt;Node13 -->
<g id="edge19_Node000014_Node000013" class="edge">
<title>Node14&#45;&gt;Node13</title>
<g id="a_edge19_Node000014_Node000013"><a xlink:title=" ">
<path fill="none" stroke="#63b8ff" d="M812,-111.59C812,-105.01 812,-95.96 812,-87.73"/>
<polygon fill="#63b8ff" stroke="#63b8ff" points="815.5,-87.81 812,-77.81 808.5,-87.81 815.5,-87.81"/>
</a>
</g>
</g>
<!-- Node16 -->
<g id="Node000016" class="node">
<title>Node16</title>
<g id="a_Node000016"><a xlink:href="json_8h.html" target="_top" xlink:title=" ">
<polygon fill="white" stroke="#666666" points="929.12,-76 886.88,-76 886.88,-56 929.12,-56 929.12,-76"/>
<text xml:space="preserve" text-anchor="middle" x="908" y="-62.5" font-family="Helvetica,sans-Serif" font-size="10.00">json.h</text>
</a>
</g>
</g>
<!-- Node15&#45;&gt;Node16 -->
<g id="edge22_Node000015_Node000016" class="edge">
<title>Node15&#45;&gt;Node16</title>
<g id="a_edge22_Node000015_Node000016"><a xlink:title=" ">
<path fill="none" stroke="#63b8ff" d="M979.85,-111.59C966.95,-103.59 948.17,-91.93 933.04,-82.54"/>
<polygon fill="#63b8ff" stroke="#63b8ff" points="934.9,-79.58 924.56,-77.28 931.21,-85.53 934.9,-79.58"/>
</a>
</g>
</g>
<!-- Node19 -->
<g id="Node000019" class="node">
<title>Node19</title>
<g id="a_Node000019"><a xlink:title=" ">
<polygon fill="#e0e0e0" stroke="#999999" points="1019.5,-76 970.5,-76 970.5,-56 1019.5,-56 1019.5,-76"/>
<text xml:space="preserve" text-anchor="middle" x="995" y="-62.5" font-family="Helvetica,sans-Serif" font-size="10.00">fstream</text>
</a>
</g>
</g>
<!-- Node15&#45;&gt;Node19 -->
<g id="edge25_Node000015_Node000019" class="edge">
<title>Node15&#45;&gt;Node19</title>
<g id="a_edge25_Node000015_Node000019"><a xlink:title=" ">
<path fill="none" stroke="#63b8ff" d="M995,-111.59C995,-105.01 995,-95.96 995,-87.73"/>
<polygon fill="#63b8ff" stroke="#63b8ff" points="998.5,-87.81 995,-77.81 991.5,-87.81 998.5,-87.81"/>
</a>
</g>
</g>
<!-- Node17 -->
<g id="Node000017" class="node">
<title>Node17</title>
<g id="a_Node000017"><a xlink:title=" ">
<polygon fill="#e0e0e0" stroke="#999999" points="892.5,-20 783.5,-20 783.5,0 892.5,0 892.5,-20"/>
<text xml:space="preserve" text-anchor="middle" x="838" y="-6.5" font-family="Helvetica,sans-Serif" font-size="10.00">rapidjson/document.h</text>
</a>
</g>
</g>
<!-- Node16&#45;&gt;Node17 -->
<g id="edge23_Node000016_Node000017" class="edge">
<title>Node16&#45;&gt;Node17</title>
<g id="a_edge23_Node000016_Node000017"><a xlink:title=" ">
<path fill="none" stroke="#63b8ff" d="M895.81,-55.59C885.67,-47.77 871.01,-36.46 858.99,-27.19"/>
<polygon fill="#63b8ff" stroke="#63b8ff" points="861.31,-24.56 851.25,-21.22 857.03,-30.1 861.31,-24.56"/>
</a>
</g>
</g>
<!-- Node18 -->
<g id="Node000018" class="node">
<title>Node18</title>
<g id="a_Node000018"><a xlink:title=" ">
<polygon fill="#e0e0e0" stroke="#999999" points="1043.5,-20 910.5,-20 910.5,0 1043.5,0 1043.5,-20"/>
<text xml:space="preserve" text-anchor="middle" x="977" y="-6.5" font-family="Helvetica,sans-Serif" font-size="10.00">rapidjson/istreamwrapper.h</text>
</a>
</g>
</g>
<!-- Node16&#45;&gt;Node18 -->
<g id="edge24_Node000016_Node000018" class="edge">
<title>Node16&#45;&gt;Node18</title>
<g id="a_edge24_Node000016_Node000018"><a xlink:title=" ">
<path fill="none" stroke="#63b8ff" d="M920.02,-55.59C930.01,-47.77 944.46,-36.46 956.31,-27.19"/>
<polygon fill="#63b8ff" stroke="#63b8ff" points="958.21,-30.15 963.93,-21.23 953.89,-24.64 958.21,-30.15"/>
</a>
</g>
</g>
<!-- Node20&#45;&gt;Node2 -->
<g id="edge33_Node000020_Node000002" class="edge">
<title>Node20&#45;&gt;Node2</title>
<g id="a_edge33_Node000020_Node000002"><a xlink:title=" ">
<path fill="none" stroke="#63b8ff" d="M470.76,-171.07C406.2,-161.05 275.87,-140.82 206.64,-130.08"/>
<polygon fill="#63b8ff" stroke="#63b8ff" points="207.58,-126.69 197.16,-128.61 206.5,-133.6 207.58,-126.69"/>
</a>
</g>
</g>
<!-- Node20&#45;&gt;Node3 -->
<g id="edge27_Node000020_Node000003" class="edge">
<title>Node20&#45;&gt;Node3</title>
<g id="a_edge27_Node000020_Node000003"><a xlink:title=" ">
<path fill="none" stroke="#63b8ff" d="M494.91,-167.64C482.19,-158.96 463.21,-145.4 448,-132 431.08,-117.09 413.49,-98.28 401.39,-84.74"/>
<polygon fill="#63b8ff" stroke="#63b8ff" points="404.2,-82.64 394.96,-77.45 398.95,-87.27 404.2,-82.64"/>
</a>
</g>
</g>
<!-- Node20&#45;&gt;Node8 -->
<g id="edge30_Node000020_Node000008" class="edge">
<title>Node20&#45;&gt;Node8</title>
<g id="a_edge30_Node000020_Node000008"><a xlink:title=" ">
<path fill="none" stroke="#63b8ff" d="M529.21,-167.59C547.23,-159.21 573.87,-146.8 594.48,-137.21"/>
<polygon fill="#63b8ff" stroke="#63b8ff" points="595.68,-140.51 603.26,-133.12 592.72,-134.17 595.68,-140.51"/>
</a>
</g>
</g>
<!-- Node20&#45;&gt;Node9 -->
<g id="edge31_Node000020_Node000009" class="edge">
<title>Node20&#45;&gt;Node9</title>
<g id="a_edge31_Node000020_Node000009"><a xlink:title=" ">
<path fill="none" stroke="#63b8ff" d="M470.56,-168.2C424.73,-157.72 348.95,-140.38 305.78,-130.5"/>
<polygon fill="#63b8ff" stroke="#63b8ff" points="306.78,-127.14 296.25,-128.32 305.22,-133.96 306.78,-127.14"/>
</a>
</g>
</g>
<!-- Node20&#45;&gt;Node12 -->
<g id="edge28_Node000020_Node000012" class="edge">
<title>Node20&#45;&gt;Node12</title>
<g id="a_edge28_Node000020_Node000012"><a xlink:title=" ">
<path fill="none" stroke="#63b8ff" d="M544.71,-167.59C580.57,-158.15 635.77,-143.61 673.31,-133.72"/>
<polygon fill="#63b8ff" stroke="#63b8ff" points="674.11,-137.13 682.89,-131.2 672.32,-130.36 674.11,-137.13"/>
</a>
</g>
</g>
<!-- Node20&#45;&gt;Node13 -->
<g id="edge29_Node000020_Node000013" class="edge">
<title>Node20&#45;&gt;Node13</title>
<g id="a_edge29_Node000020_Node000013"><a xlink:title=" ">
<path fill="none" stroke="#63b8ff" d="M499.45,-167.6C486.76,-153.97 467.54,-128.57 482,-112 518.56,-70.12 686.39,-65.76 767.65,-66.19"/>
<polygon fill="#63b8ff" stroke="#63b8ff" points="767.45,-69.69 777.48,-66.27 767.51,-62.69 767.45,-69.69"/>
</a>
</g>
</g>
<!-- Node20&#45;&gt;Node14 -->
<g id="edge35_Node000020_Node000014" class="edge">
<title>Node20&#45;&gt;Node14</title>
<g id="a_edge35_Node000020_Node000014"><a xlink:title=" ">
<path fill="none" stroke="#63b8ff" d="M547.38,-170.16C598.35,-161.08 689.01,-144.92 749.81,-134.08"/>
<polygon fill="#63b8ff" stroke="#63b8ff" points="750.08,-137.59 759.31,-132.39 748.85,-130.7 750.08,-137.59"/>
</a>
</g>
</g>
<!-- Node20&#45;&gt;Node16 -->
<g id="edge34_Node000020_Node000016" class="edge">
<title>Node20&#45;&gt;Node16</title>
<g id="a_edge34_Node000020_Node000016"><a xlink:title=" ">
<path fill="none" stroke="#63b8ff" d="M515.41,-167.54C525.94,-152.86 548.39,-124.95 575,-112 687.42,-57.27 730.32,-94.28 854,-76 860.87,-74.99 868.21,-73.82 875.2,-72.67"/>
<polygon fill="#63b8ff" stroke="#63b8ff" points="875.71,-76.13 884.99,-71.02 874.55,-69.23 875.71,-76.13"/>
</a>
</g>
</g>
<!-- Node21 -->
<g id="Node000021" class="node">
<title>Node21</title>
<g id="a_Node000021"><a xlink:title=" ">
<polygon fill="#e0e0e0" stroke="#999999" points="527.5,-132 490.5,-132 490.5,-112 527.5,-112 527.5,-132"/>
<text xml:space="preserve" text-anchor="middle" x="509" y="-118.5" font-family="Helvetica,sans-Serif" font-size="10.00">span</text>
</a>
</g>
</g>
<!-- Node20&#45;&gt;Node21 -->
<g id="edge32_Node000020_Node000021" class="edge">
<title>Node20&#45;&gt;Node21</title>
<g id="a_edge32_Node000020_Node000021"><a xlink:title=" ">
<path fill="none" stroke="#63b8ff" d="M509,-167.59C509,-161.01 509,-151.96 509,-143.73"/>
<polygon fill="#63b8ff" stroke="#63b8ff" points="512.5,-143.81 509,-133.81 505.5,-143.81 512.5,-143.81"/>
</a>
</g>
</g>
<!-- Node23&#45;&gt;Node2 -->
<g id="edge42_Node000023_Node000002" class="edge">
<title>Node23&#45;&gt;Node2</title>
<g id="a_edge42_Node000023_Node000002"><a xlink:title=" ">
<path fill="none" stroke="#63b8ff" d="M130.44,-167.59C135.33,-160.47 142.19,-150.45 148.18,-141.72"/>
<polygon fill="#63b8ff" stroke="#63b8ff" points="151.01,-143.77 153.77,-133.55 145.23,-139.82 151.01,-143.77"/>
</a>
</g>
</g>
<!-- Node23&#45;&gt;Node3 -->
<g id="edge40_Node000023_Node000003" class="edge">
<title>Node23&#45;&gt;Node3</title>
<g id="a_edge40_Node000023_Node000003"><a xlink:title=" ">
<path fill="none" stroke="#63b8ff" d="M140.64,-167.67C170.86,-150.78 232.6,-116.43 243,-112 279.26,-96.57 322.65,-83.65 352.05,-75.67"/>
<polygon fill="#63b8ff" stroke="#63b8ff" points="352.75,-79.11 361.51,-73.15 350.94,-72.34 352.75,-79.11"/>
</a>
</g>
</g>
<!-- Node23&#45;&gt;Node9 -->
<g id="edge39_Node000023_Node000009" class="edge">
<title>Node23&#45;&gt;Node9</title>
<g id="a_edge39_Node000023_Node000009"><a xlink:title=" ">
<path fill="none" stroke="#63b8ff" d="M149.95,-167.59C175.16,-158.46 213.51,-144.56 240.68,-134.71"/>
<polygon fill="#63b8ff" stroke="#63b8ff" points="241.58,-138.11 249.79,-131.41 239.2,-131.53 241.58,-138.11"/>
</a>
</g>
</g>
<!-- Node24 -->
<g id="Node000024" class="node">
<title>Node24</title>
<g id="a_Node000024"><a xlink:title=" ">
<polygon fill="#e0e0e0" stroke="#999999" points="108.62,-132 69.38,-132 69.38,-112 108.62,-112 108.62,-132"/>
<text xml:space="preserve" text-anchor="middle" x="89" y="-118.5" font-family="Helvetica,sans-Serif" font-size="10.00">limits</text>
</a>
</g>
</g>
<!-- Node23&#45;&gt;Node24 -->
<g id="edge41_Node000023_Node000024" class="edge">
<title>Node23&#45;&gt;Node24</title>
<g id="a_edge41_Node000023_Node000024"><a xlink:title=" ">
<path fill="none" stroke="#63b8ff" d="M117.9,-167.59C113.29,-160.47 106.79,-150.45 101.13,-141.72"/>
<polygon fill="#63b8ff" stroke="#63b8ff" points="104.23,-140.06 95.85,-133.57 98.35,-143.86 104.23,-140.06"/>
</a>
</g>
</g>
</g>
</svg>
