<?xml version="1.0" encoding="UTF-8" standalone="no"?>
<!DOCTYPE svg PUBLIC "-//W3C//DTD SVG 1.1//EN"
 "http://www.w3.org/Graphics/SVG/1.1/DTD/svg11.dtd">
<!-- Generated by graphviz version 14.1.1 (0)
 -->
<!-- Title: rapidString.h Pages: 1 -->
<!--zoomable 420 -->

<svg id="main" version="1.1" xmlns="http://www.w3.org/2000/svg" xmlns:xlink="http://www.w3.org/1999/xlink" xml:space="preserve" onload="init(evt)">

<style type="text/css"><![CDATA[
.node, .edge {opacity: 0.7;}
.node.selected, .edge.selected {opacity: 1;}
.edge:hover path { stroke: red; }
.edge:hover polygon { stroke: red; fill: red; }
]]></style>

<defs>
  <circle id="rim" cx="0" cy="0" r="7"/>
  <circle id="rim2" cx="0" cy="0" r="3.5"/>
  <g id="zoomPlus">
    <use xlink:href="#rim" fill="#404040"><set attributeName="fill" to="#808080" begin="zoomplus.mouseover" end="zoomplus.mouseout"/></use>
    <path d="M-4,0h8M0,-4v8" fill="none" stroke="white" stroke-width="1.5" pointer-events="none"/>
  </g>
  <g id="zoomMin">
    <use xlink:href="#rim" fill="#404040"><set attributeName="fill" to="#808080" begin="zoomminus.mouseover" end="zoomminus.mouseout"/></use>
    <path d="M-4,0h8" fill="none" stroke="white" stroke-width="1.5" pointer-events="none"/>
  </g>
  <g id="arrowUp" transform="translate(30 24)">
    <use xlink:href="#rim"/>
    <path pointer-events="none" fill="none" stroke="white" stroke-width="1.5" d="M0,-3.0v7 M-2.5,-0.5L0,-3.0L2.5,-0.5"/>
  </g>
  <g id="arrowRight" transform="rotate(90) translate(36 -43)">
    <use xlink:href="#rim"/>
    <path pointer-events="none" fill="none" stroke="white" stroke-width="1.5" d="M0,-3.0v7 M-2.5,-0.5L0,-3.0L2.5,-0.5"/>
  </g>
  <g id="arrowDown" transform="rotate(180) translate(-30 -48)">
    <use xlink:href="#rim"/>
    <path pointer-events="none" fill="none" stroke="white" stroke-width="1.5" d="M0,-3.0v7 M-2.5,-0.5L0,-3.0L2.5,-0.5"/>
  </g>
  <g id="arrowLeft" transform="rotate(270) translate(-36 17)">
    <use xlink:href="#rim"/>
    <path pointer-events="none" fill="none" stroke="white" stroke-width="1.5" d="M0,-3.0v7 M-2.5,-0.5L0,-3.0L2.5,-0.5"/>
  </g>
  <g id="resetDef">
    <use xlink:href="#rim2" fill="#404040"><set attributeName="fill" to="#808080" begin="reset.mouseover" end="reset.mouseout"/></use>
  </g>
</defs>
<script type="application/ecmascript">
var viewWidth = 622;
var viewHeight = 420;
var sectionId = 'dynsection-1';
</script>
<script type="application/ecmascript" xlink:href="svg.min.js"/>
<svg id="graph" class="graph">
<g id="viewport">
<title>rapidString.h</title>
<!-- Node1 -->
<g id="Node000001" class="node">
<title>Node1</title>
<g id="a_Node000001"><a xlink:title=" ">
<polygon fill="#999999" stroke="#666666" points="197.25,-412 126.5,-412 126.5,-392 197.25,-392 197.25,-412"/>
<text xml:space="preserve" text-anchor="middle" x="161.88" y="-398.5" font-family="Helvetica,sans-Serif" font-size="10.00">rapidString.h</text>
</a>
</g>
</g>
<!-- Node2 -->
<g id="Node000002" class="node">
<title>Node2</title>
<g id="a_Node000002"><a xlink:href="_entity_table_8h.html" target="_top" xlink:title=" ">
<polygon fill="white" stroke="#666666" points="152.38,-356 79.38,-356 79.38,-336 152.38,-336 152.38,-356"/>
<text xml:space="preserve" text-anchor="middle" x="115.88" y="-342.5" font-family="Helvetica,sans-Serif" font-size="10.00">EntityTable.h</text>
</a>
</g>
</g>
<!-- Node1&#45;&gt;Node2 -->
<g id="edge1_Node000001_Node000002" class="edge">
<title>Node1&#45;&gt;Node2</title>
<g id="a_edge1_Node000001_Node000002"><a xlink:title=" ">
<path fill="none" stroke="#63b8ff" d="M146.54,-383C138.92,-374.06 130.04,-363.62 123.8,-356.3"/>
<polygon fill="#63b8ff" stroke="#63b8ff" points="143.73,-385.1 152.88,-390.44 149.06,-380.56 143.73,-385.1"/>
</a>
</g>
</g>
<!-- Node18 -->
<g id="Node000018" class="node">
<title>Node18</title>
<g id="a_Node000018"><a xlink:href="_param_table_8h.html" target="_top" xlink:title=" ">
<polygon fill="white" stroke="#666666" points="246.88,-356 170.88,-356 170.88,-336 246.88,-336 246.88,-356"/>
<text xml:space="preserve" text-anchor="middle" x="208.88" y="-342.5" font-family="Helvetica,sans-Serif" font-size="10.00">ParamTable.h</text>
</a>
</g>
</g>
<!-- Node1&#45;&gt;Node18 -->
<g id="edge27_Node000001_Node000018" class="edge">
<title>Node1&#45;&gt;Node18</title>
<g id="a_edge27_Node000001_Node000018"><a xlink:title=" ">
<path fill="none" stroke="#63b8ff" d="M177.54,-383C185.32,-374.06 194.41,-363.62 200.78,-356.3"/>
<polygon fill="#63b8ff" stroke="#63b8ff" points="174.98,-380.61 171.06,-390.45 180.26,-385.21 174.98,-380.61"/>
</a>
</g>
</g>
<!-- Node3 -->
<g id="Node000003" class="node">
<title>Node3</title>
<g id="a_Node000003"><a xlink:href="all_8cpp.html" target="_top" xlink:title=" ">
<polygon fill="white" stroke="#666666" points="195.12,-300 150.62,-300 150.62,-280 195.12,-280 195.12,-300"/>
<text xml:space="preserve" text-anchor="middle" x="172.88" y="-286.5" font-family="Helvetica,sans-Serif" font-size="10.00">all.cpp</text>
</a>
</g>
</g>
<!-- Node2&#45;&gt;Node3 -->
<g id="edge2_Node000002_Node000003" class="edge">
<title>Node2&#45;&gt;Node3</title>
<g id="a_edge2_Node000002_Node000003"><a xlink:title=" ">
<path fill="none" stroke="#63b8ff" d="M133.98,-327.85C143.61,-318.72 155.08,-307.86 163.06,-300.3"/>
<polygon fill="#63b8ff" stroke="#63b8ff" points="131.75,-325.13 126.9,-334.55 136.57,-330.22 131.75,-325.13"/>
</a>
</g>
</g>
<!-- Node4 -->
<g id="Node000004" class="node">
<title>Node4</title>
<g id="a_Node000004"><a xlink:href="all_8h.html" target="_top" xlink:title=" ">
<polygon fill="white" stroke="#666666" points="132.88,-300 98.88,-300 98.88,-280 132.88,-280 132.88,-300"/>
<text xml:space="preserve" text-anchor="middle" x="115.88" y="-286.5" font-family="Helvetica,sans-Serif" font-size="10.00">all.h</text>
</a>
</g>
</g>
<!-- Node2&#45;&gt;Node4 -->
<g id="edge3_Node000002_Node000004" class="edge">
<title>Node2&#45;&gt;Node4</title>
<g id="a_edge3_Node000002_Node000004"><a xlink:title=" ">
<path fill="none" stroke="#63b8ff" d="M115.88,-324.13C115.88,-315.9 115.88,-306.85 115.88,-300.3"/>
<polygon fill="#63b8ff" stroke="#63b8ff" points="112.38,-324.08 115.88,-334.08 119.38,-324.08 112.38,-324.08"/>
</a>
</g>
</g>
<!-- Node5 -->
<g id="Node000005" class="node">
<title>Node5</title>
<g id="a_Node000005"><a xlink:href="_v_m_8cpp.html" target="_top" xlink:title=" ">
<polygon fill="white" stroke="#666666" points="49.75,-244 0,-244 0,-224 49.75,-224 49.75,-244"/>
<text xml:space="preserve" text-anchor="middle" x="24.88" y="-230.5" font-family="Helvetica,sans-Serif" font-size="10.00">VM.cpp</text>
</a>
</g>
</g>
<!-- Node4&#45;&gt;Node5 -->
<g id="edge4_Node000004_Node000005" class="edge">
<title>Node4&#45;&gt;Node5</title>
<g id="a_edge4_Node000004_Node000005"><a xlink:title=" ">
<path fill="none" stroke="#63b8ff" d="M90.28,-273.81C74.41,-264.39 54.51,-252.58 40.85,-244.48"/>
<polygon fill="#63b8ff" stroke="#63b8ff" points="88.34,-276.73 98.72,-278.82 91.91,-270.71 88.34,-276.73"/>
</a>
</g>
</g>
<!-- Node6 -->
<g id="Node000006" class="node">
<title>Node6</title>
<g id="a_Node000006"><a xlink:href="enemy_bezier_8h.html" target="_top" xlink:title=" ">
<polygon fill="white" stroke="#666666" points="125.5,-132 44.25,-132 44.25,-112 125.5,-112 125.5,-132"/>
<text xml:space="preserve" text-anchor="middle" x="84.88" y="-118.5" font-family="Helvetica,sans-Serif" font-size="10.00">enemyBezier.h</text>
</a>
</g>
</g>
<!-- Node4&#45;&gt;Node6 -->
<g id="edge5_Node000004_Node000006" class="edge">
<title>Node4&#45;&gt;Node6</title>
<g id="a_edge5_Node000004_Node000006"><a xlink:title=" ">
<path fill="none" stroke="#63b8ff" d="M112.05,-268.5C105.28,-232.27 91.47,-158.31 86.61,-132.3"/>
<polygon fill="#63b8ff" stroke="#63b8ff" points="108.57,-268.92 113.84,-278.11 115.45,-267.64 108.57,-268.92"/>
</a>
</g>
</g>
<!-- Node10 -->
<g id="Node000010" class="node">
<title>Node10</title>
<g id="a_Node000010"><a xlink:href="gfx_8h.html" target="_top" xlink:title=" ">
<polygon fill="white" stroke="#666666" points="198.75,-244 161,-244 161,-224 198.75,-224 198.75,-244"/>
<text xml:space="preserve" text-anchor="middle" x="179.88" y="-230.5" font-family="Helvetica,sans-Serif" font-size="10.00">gfx.h</text>
</a>
</g>
</g>
<!-- Node4&#45;&gt;Node10 -->
<g id="edge9_Node000004_Node000010" class="edge">
<title>Node4&#45;&gt;Node10</title>
<g id="a_edge9_Node000004_Node000010"><a xlink:title=" ">
<path fill="none" stroke="#63b8ff" d="M135.55,-272.4C146.49,-263.17 159.72,-252.01 168.85,-244.3"/>
<polygon fill="#63b8ff" stroke="#63b8ff" points="133.57,-269.49 128.18,-278.62 138.08,-274.84 133.57,-269.49"/>
</a>
</g>
</g>
<!-- Node14 -->
<g id="Node000014" class="node">
<title>Node14</title>
<g id="a_Node000014"><a xlink:href="player_8cpp.html" target="_top" xlink:title=" ">
<polygon fill="white" stroke="#666666" points="614.38,-76 553.38,-76 553.38,-56 614.38,-56 614.38,-76"/>
<text xml:space="preserve" text-anchor="middle" x="583.88" y="-62.5" font-family="Helvetica,sans-Serif" font-size="10.00">player.cpp</text>
</a>
</g>
</g>
<!-- Node4&#45;&gt;Node14 -->
<g id="edge26_Node000004_Node000014" class="edge">
<title>Node4&#45;&gt;Node14</title>
<g id="a_edge26_Node000004_Node000014"><a xlink:title=" ">
<path fill="none" stroke="#63b8ff" d="M144.05,-279.44C344.85,-216.77 469.75,-299.56 588.88,-132 600.68,-115.4 593.41,-90.01 588.06,-76.39"/>
<polygon fill="#63b8ff" stroke="#63b8ff" points="143.08,-276.07 134.64,-282.48 145.23,-282.73 143.08,-276.07"/>
</a>
</g>
</g>
<!-- Node7 -->
<g id="Node000007" class="node">
<title>Node7</title>
<g id="a_Node000007"><a xlink:href="_game_8h.html" target="_top" xlink:title=" ">
<polygon fill="white" stroke="#666666" points="422.12,-76 371.62,-76 371.62,-56 422.12,-56 422.12,-76"/>
<text xml:space="preserve" text-anchor="middle" x="396.88" y="-62.5" font-family="Helvetica,sans-Serif" font-size="10.00">Game.h</text>
</a>
</g>
</g>
<!-- Node6&#45;&gt;Node7 -->
<g id="edge6_Node000006_Node000007" class="edge">
<title>Node6&#45;&gt;Node7</title>
<g id="a_edge6_Node000006_Node000007"><a xlink:title=" ">
<path fill="none" stroke="#63b8ff" d="M137.23,-111.94C204.88,-100.23 320.04,-80.3 371.14,-71.45"/>
<polygon fill="#63b8ff" stroke="#63b8ff" points="136.73,-108.47 127.48,-113.63 137.93,-115.37 136.73,-108.47"/>
</a>
</g>
</g>
<!-- Node8 -->
<g id="Node000008" class="node">
<title>Node8</title>
<g id="a_Node000008"><a xlink:href="_game_8cpp.html" target="_top" xlink:title=" ">
<polygon fill="white" stroke="#666666" points="518.38,-20 457.38,-20 457.38,0 518.38,0 518.38,-20"/>
<text xml:space="preserve" text-anchor="middle" x="487.88" y="-6.5" font-family="Helvetica,sans-Serif" font-size="10.00">Game.cpp</text>
</a>
</g>
</g>
<!-- Node7&#45;&gt;Node8 -->
<g id="edge7_Node000007_Node000008" class="edge">
<title>Node7&#45;&gt;Node8</title>
<g id="a_edge7_Node000007_Node000008"><a xlink:title=" ">
<path fill="none" stroke="#63b8ff" d="M422.47,-49.81C438.34,-40.39 458.24,-28.58 471.9,-20.48"/>
<polygon fill="#63b8ff" stroke="#63b8ff" points="420.84,-46.71 414.03,-54.82 424.41,-52.73 420.84,-46.71"/>
</a>
</g>
</g>
<!-- Node9 -->
<g id="Node000009" class="node">
<title>Node9</title>
<g id="a_Node000009"><a xlink:href="main_8cpp.html" target="_top" xlink:title=" ">
<polygon fill="white" stroke="#666666" points="424.75,-20 369,-20 369,0 424.75,0 424.75,-20"/>
<text xml:space="preserve" text-anchor="middle" x="396.88" y="-6.5" font-family="Helvetica,sans-Serif" font-size="10.00">main.cpp</text>
</a>
</g>
</g>
<!-- Node7&#45;&gt;Node9 -->
<g id="edge8_Node000007_Node000009" class="edge">
<title>Node7&#45;&gt;Node9</title>
<g id="a_edge8_Node000007_Node000009"><a xlink:title=" ">
<path fill="none" stroke="#63b8ff" d="M396.88,-44.13C396.88,-35.9 396.88,-26.85 396.88,-20.3"/>
<polygon fill="#63b8ff" stroke="#63b8ff" points="393.38,-44.08 396.88,-54.08 400.38,-44.08 393.38,-44.08"/>
</a>
</g>
</g>
<!-- Node10&#45;&gt;Node6 -->
<g id="edge23_Node000010_Node000006" class="edge">
<title>Node10&#45;&gt;Node6</title>
<g id="a_edge23_Node000010_Node000006"><a xlink:title=" ">
<path fill="none" stroke="#63b8ff" d="M163.97,-215.3C156.59,-207.05 147.74,-197.07 139.88,-188 122.83,-168.35 103.22,-144.99 92.64,-132.32"/>
<polygon fill="#63b8ff" stroke="#63b8ff" points="161.24,-217.51 170.52,-222.62 166.46,-212.84 161.24,-217.51"/>
</a>
</g>
</g>
<!-- Node10&#45;&gt;Node7 -->
<g id="edge10_Node000010_Node000007" class="edge">
<title>Node10&#45;&gt;Node7</title>
<g id="a_edge10_Node000010_Node000007"><a xlink:title=" ">
<path fill="none" stroke="#63b8ff" d="M171.24,-212.96C161.4,-186.66 149.52,-140.52 172.88,-112 197.76,-81.62 318.15,-71.32 371.42,-68.2"/>
<polygon fill="#63b8ff" stroke="#63b8ff" points="167.94,-214.13 174.91,-222.1 174.43,-211.52 167.94,-214.13"/>
</a>
</g>
</g>
<!-- Node11 -->
<g id="Node000011" class="node">
<title>Node11</title>
<g id="a_Node000011"><a xlink:href="collider_8h.html" target="_top" xlink:title=" ">
<polygon fill="white" stroke="#666666" points="377.38,-188 322.38,-188 322.38,-168 377.38,-168 377.38,-188"/>
<text xml:space="preserve" text-anchor="middle" x="349.88" y="-174.5" font-family="Helvetica,sans-Serif" font-size="10.00">collider.h</text>
</a>
</g>
</g>
<!-- Node10&#45;&gt;Node11 -->
<g id="edge11_Node000010_Node000011" class="edge">
<title>Node10&#45;&gt;Node11</title>
<g id="a_edge11_Node000010_Node000011"><a xlink:title=" ">
<path fill="none" stroke="#63b8ff" d="M209.85,-223.48C241.56,-213.4 291.2,-197.64 322.07,-187.83"/>
<polygon fill="#63b8ff" stroke="#63b8ff" points="208.96,-220.09 200.49,-226.45 211.08,-226.76 208.96,-220.09"/>
</a>
</g>
</g>
<!-- Node13 -->
<g id="Node000013" class="node">
<title>Node13</title>
<g id="a_Node000013"><a xlink:href="player_8h.html" target="_top" xlink:title=" ">
<polygon fill="white" stroke="#666666" points="580.12,-132 529.62,-132 529.62,-112 580.12,-112 580.12,-132"/>
<text xml:space="preserve" text-anchor="middle" x="554.88" y="-118.5" font-family="Helvetica,sans-Serif" font-size="10.00">player.h</text>
</a>
</g>
</g>
<!-- Node10&#45;&gt;Node13 -->
<g id="edge25_Node000010_Node000013" class="edge">
<title>Node10&#45;&gt;Node13</title>
<g id="a_edge25_Node000010_Node000013"><a xlink:title=" ">
<path fill="none" stroke="#63b8ff" d="M210.38,-227.84C250.92,-220.64 324.57,-206.37 385.88,-188 440.08,-171.76 501.61,-146.22 533.37,-132.49"/>
<polygon fill="#63b8ff" stroke="#63b8ff" points="209.89,-224.37 200.64,-229.54 211.1,-231.27 209.89,-224.37"/>
</a>
</g>
</g>
<!-- Node17 -->
<g id="Node000017" class="node">
<title>Node17</title>
<g id="a_Node000017"><a xlink:href="gfx_8cpp.html" target="_top" xlink:title=" ">
<polygon fill="white" stroke="#666666" points="230,-188 181.75,-188 181.75,-168 230,-168 230,-188"/>
<text xml:space="preserve" text-anchor="middle" x="205.88" y="-174.5" font-family="Helvetica,sans-Serif" font-size="10.00">gfx.cpp</text>
</a>
</g>
</g>
<!-- Node10&#45;&gt;Node17 -->
<g id="edge24_Node000010_Node000017" class="edge">
<title>Node10&#45;&gt;Node17</title>
<g id="a_edge24_Node000010_Node000017"><a xlink:title=" ">
<path fill="none" stroke="#63b8ff" d="M189.36,-213.29C193.48,-204.75 198.09,-195.16 201.4,-188.3"/>
<polygon fill="#63b8ff" stroke="#63b8ff" points="186.25,-211.7 185.06,-222.23 192.55,-214.74 186.25,-211.7"/>
</a>
</g>
</g>
<!-- Node11&#45;&gt;Node6 -->
<g id="edge15_Node000011_Node000006" class="edge">
<title>Node11&#45;&gt;Node6</title>
<g id="a_edge15_Node000011_Node000006"><a xlink:title=" ">
<path fill="none" stroke="#63b8ff" d="M310.81,-169.04C261.24,-158.94 176.12,-141.59 125.71,-131.32"/>
<polygon fill="#63b8ff" stroke="#63b8ff" points="310.04,-172.45 320.53,-171.02 311.43,-165.59 310.04,-172.45"/>
</a>
</g>
</g>
<!-- Node11&#45;&gt;Node7 -->
<g id="edge13_Node000011_Node000007" class="edge">
<title>Node11&#45;&gt;Node7</title>
<g id="a_edge13_Node000011_Node000007"><a xlink:title=" ">
<path fill="none" stroke="#63b8ff" d="M388.7,-169.09C409.17,-162.74 432.52,-151.52 444.88,-132 457.93,-111.37 431.06,-88.76 412.51,-76.39"/>
<polygon fill="#63b8ff" stroke="#63b8ff" points="387.88,-165.69 379.18,-171.74 389.75,-172.43 387.88,-165.69"/>
</a>
</g>
</g>
<!-- Node11&#45;&gt;Node8 -->
<g id="edge12_Node000011_Node000008" class="edge">
<title>Node11&#45;&gt;Node8</title>
<g id="a_edge12_Node000011_Node000008"><a xlink:title=" ">
<path fill="none" stroke="#63b8ff" d="M388.51,-165.57C416.5,-156.53 451.09,-143.56 460.88,-132 488.97,-98.82 489.54,-42.66 488.53,-20.45"/>
<polygon fill="#63b8ff" stroke="#63b8ff" points="387.71,-162.15 379.22,-168.49 389.81,-168.83 387.71,-162.15"/>
</a>
</g>
</g>
<!-- Node12 -->
<g id="Node000012" class="node">
<title>Node12</title>
<g id="a_Node000012"><a xlink:href="collider_8cpp.html" target="_top" xlink:title=" ">
<polygon fill="white" stroke="#666666" points="247.62,-132 182.12,-132 182.12,-112 247.62,-112 247.62,-132"/>
<text xml:space="preserve" text-anchor="middle" x="214.88" y="-118.5" font-family="Helvetica,sans-Serif" font-size="10.00">collider.cpp</text>
</a>
</g>
</g>
<!-- Node11&#45;&gt;Node12 -->
<g id="edge14_Node000011_Node000012" class="edge">
<title>Node11&#45;&gt;Node12</title>
<g id="a_edge14_Node000011_Node000012"><a xlink:title=" ">
<path fill="none" stroke="#63b8ff" d="M315.88,-163.4C291.76,-153.75 259.99,-141.05 238.57,-132.48"/>
<polygon fill="#63b8ff" stroke="#63b8ff" points="314.37,-166.57 324.95,-167.03 316.97,-160.07 314.37,-166.57"/>
</a>
</g>
</g>
<!-- Node11&#45;&gt;Node13 -->
<g id="edge16_Node000011_Node000013" class="edge">
<title>Node11&#45;&gt;Node13</title>
<g id="a_edge16_Node000011_Node000013"><a xlink:title=" ">
<path fill="none" stroke="#63b8ff" d="M388.5,-166.83C429.73,-155.96 493.89,-139.06 529.28,-129.74"/>
<polygon fill="#63b8ff" stroke="#63b8ff" points="387.76,-163.4 378.99,-169.33 389.55,-170.17 387.76,-163.4"/>
</a>
</g>
</g>
<!-- Node15 -->
<g id="Node000015" class="node">
<title>Node15</title>
<g id="a_Node000015"><a xlink:href="player_bullet_8h.html" target="_top" xlink:title=" ">
<polygon fill="white" stroke="#666666" points="340.5,-132 265.25,-132 265.25,-112 340.5,-112 340.5,-132"/>
<text xml:space="preserve" text-anchor="middle" x="302.88" y="-118.5" font-family="Helvetica,sans-Serif" font-size="10.00">playerBullet.h</text>
</a>
</g>
</g>
<!-- Node11&#45;&gt;Node15 -->
<g id="edge19_Node000011_Node000015" class="edge">
<title>Node11&#45;&gt;Node15</title>
<g id="a_edge19_Node000011_Node000015"><a xlink:title=" ">
<path fill="none" stroke="#63b8ff" d="M334.21,-159C326.43,-150.06 317.34,-139.62 310.97,-132.3"/>
<polygon fill="#63b8ff" stroke="#63b8ff" points="331.49,-161.21 340.69,-166.45 336.77,-156.61 331.49,-161.21"/>
</a>
</g>
</g>
<!-- Node16 -->
<g id="Node000016" class="node">
<title>Node16</title>
<g id="a_Node000016"><a xlink:href="simple_bullet_8h.html" target="_top" xlink:title=" ">
<polygon fill="white" stroke="#666666" points="435.62,-132 358.12,-132 358.12,-112 435.62,-112 435.62,-132"/>
<text xml:space="preserve" text-anchor="middle" x="396.88" y="-118.5" font-family="Helvetica,sans-Serif" font-size="10.00">simpleBullet.h</text>
</a>
</g>
</g>
<!-- Node11&#45;&gt;Node16 -->
<g id="edge21_Node000011_Node000016" class="edge">
<title>Node11&#45;&gt;Node16</title>
<g id="a_edge21_Node000011_Node000016"><a xlink:title=" ">
<path fill="none" stroke="#63b8ff" d="M365.54,-159C373.32,-150.06 382.41,-139.62 388.78,-132.3"/>
<polygon fill="#63b8ff" stroke="#63b8ff" points="362.98,-156.61 359.06,-166.45 368.26,-161.21 362.98,-156.61"/>
</a>
</g>
</g>
<!-- Node13&#45;&gt;Node7 -->
<g id="edge17_Node000013_Node000007" class="edge">
<title>Node13&#45;&gt;Node7</title>
<g id="a_edge17_Node000013_Node000007"><a xlink:title=" ">
<path fill="none" stroke="#63b8ff" d="M518.5,-108.57C489.17,-98.54 448.65,-84.7 422.6,-75.79"/>
<polygon fill="#63b8ff" stroke="#63b8ff" points="517.11,-111.79 527.71,-111.71 519.38,-105.17 517.11,-111.79"/>
</a>
</g>
</g>
<!-- Node13&#45;&gt;Node14 -->
<g id="edge18_Node000013_Node000014" class="edge">
<title>Node13&#45;&gt;Node14</title>
<g id="a_edge18_Node000013_Node000014"><a xlink:title=" ">
<path fill="none" stroke="#63b8ff" d="M565.3,-101.58C569.93,-92.97 575.15,-83.24 578.88,-76.3"/>
<polygon fill="#63b8ff" stroke="#63b8ff" points="562.29,-99.79 560.64,-110.26 568.46,-103.11 562.29,-99.79"/>
</a>
</g>
</g>
<!-- Node15&#45;&gt;Node7 -->
<g id="edge20_Node000015_Node000007" class="edge">
<title>Node15&#45;&gt;Node7</title>
<g id="a_edge20_Node000015_Node000007"><a xlink:title=" ">
<path fill="none" stroke="#63b8ff" d="M328.85,-106.08C345.32,-96.62 366.13,-84.66 380.37,-76.48"/>
<polygon fill="#63b8ff" stroke="#63b8ff" points="327.49,-102.82 320.56,-110.84 330.98,-108.89 327.49,-102.82"/>
</a>
</g>
</g>
<!-- Node16&#45;&gt;Node7 -->
<g id="edge22_Node000016_Node000007" class="edge">
<title>Node16&#45;&gt;Node7</title>
<g id="a_edge22_Node000016_Node000007"><a xlink:title=" ">
<path fill="none" stroke="#63b8ff" d="M396.88,-100.13C396.88,-91.9 396.88,-82.85 396.88,-76.3"/>
<polygon fill="#63b8ff" stroke="#63b8ff" points="393.38,-100.08 396.88,-110.08 400.38,-100.08 393.38,-100.08"/>
</a>
</g>
</g>
<!-- Node18&#45;&gt;Node3 -->
<g id="edge29_Node000018_Node000003" class="edge">
<title>Node18&#45;&gt;Node3</title>
<g id="a_edge29_Node000018_Node000003"><a xlink:title=" ">
<path fill="none" stroke="#63b8ff" d="M196.31,-326.15C190.48,-317.4 183.8,-307.39 179.07,-300.3"/>
<polygon fill="#63b8ff" stroke="#63b8ff" points="193.31,-327.96 201.76,-334.33 199.13,-324.07 193.31,-327.96"/>
</a>
</g>
</g>
<!-- Node18&#45;&gt;Node4 -->
<g id="edge30_Node000018_Node000004" class="edge">
<title>Node18&#45;&gt;Node4</title>
<g id="a_edge30_Node000018_Node000004"><a xlink:title=" ">
<path fill="none" stroke="#63b8ff" d="M183.18,-330.08C166.88,-320.62 146.29,-308.66 132.2,-300.48"/>
<polygon fill="#63b8ff" stroke="#63b8ff" points="180.96,-332.84 191.37,-334.83 184.48,-326.79 180.96,-332.84"/>
</a>
</g>
</g>
<!-- Node19 -->
<g id="Node000019" class="node">
<title>Node19</title>
<g id="a_Node000019"><a xlink:href="_param_table_8cpp.html" target="_top" xlink:title=" ">
<polygon fill="white" stroke="#666666" points="300.12,-300 213.62,-300 213.62,-280 300.12,-280 300.12,-300"/>
<text xml:space="preserve" text-anchor="middle" x="256.88" y="-286.5" font-family="Helvetica,sans-Serif" font-size="10.00">ParamTable.cpp</text>
</a>
</g>
</g>
<!-- Node18&#45;&gt;Node19 -->
<g id="edge28_Node000018_Node000019" class="edge">
<title>Node18&#45;&gt;Node19</title>
<g id="a_edge28_Node000018_Node000019"><a xlink:title=" ">
<path fill="none" stroke="#63b8ff" d="M224.87,-327C232.82,-318.06 242.1,-307.62 248.61,-300.3"/>
<polygon fill="#63b8ff" stroke="#63b8ff" points="222.27,-324.66 218.24,-334.46 227.5,-329.31 222.27,-324.66"/>
</a>
</g>
</g>
</g>
</svg>

<g id="navigator" transform="translate(0 0)" fill="#404254">
  <rect fill="#f2f5e9" fill-opacity="0.5" stroke="#606060" stroke-width=".5" x="0" y="0" width="60" height="60"/>
  <use id="zoomplus" xlink:href="#zoomPlus" x="17" y="9" onmousedown="handleZoom(evt,'in')"/>
  <use id="zoomminus" xlink:href="#zoomMin" x="42" y="9" onmousedown="handleZoom(evt,'out')"/>
  <use id="reset" xlink:href="#resetDef" x="30" y="36" onmousedown="handleReset()"/>
   <use id="arrowup" xlink:href="#arrowUp" x="0" y="0" onmousedown="handlePan(0,-1)"/>
  <use id="arrowright" xlink:href="#arrowRight" x="0" y="0" onmousedown="handlePan(1,0)"/>
  <use id="arrowdown" xlink:href="#arrowDown" x="0" y="0" onmousedown="handlePan(0,1)"/>
  <use id="arrowleft" xlink:href="#arrowLeft" x="0" y="0" onmousedown="handlePan(-1,0)"/>
</g>
<svg viewBox="0 0 15 15" width="100%" height="30px" preserveAspectRatio="xMaxYMin meet">
 <g id="arrow_out" transform="scale(0.3 0.3)">
  <a xlink:href="rapid_string_8h__dep__incl_org.svg" target="_base">
   <rect id="button" ry="5" rx="5" y="6" x="6" height="38" width="38"
        fill="#f2f5e9" fill-opacity="0.5" stroke="#606060" stroke-width="1.0"/>
   <path id="arrow"
     d="M 11.500037,31.436501 C 11.940474,20.09759 22.043105,11.32322 32.158766,21.979434 L 37.068811,17.246167 C 37.068811,17.246167 37.088388,32 37.088388,32 L 22.160133,31.978069 C 22.160133,31.978069 26.997745,27.140456 26.997745,27.140456 C 18.528582,18.264221 13.291696,25.230495 11.500037,31.436501 z"
     style="fill:#404040;"/>
  </a>
 </g>
</svg>

<style type='text/css'>
<![CDATA[
[data-mouse-over-selected='false'] { opacity: 0.7; }
[data-mouse-over-selected='true']  { opacity: 1.0; }
]]>
</style>
<script type="application/ecmascript"><![CDATA[
document.addEventListener('DOMContentLoaded', (event) => {
  highlightEdges();
  highlightAdjacentNodes();
});
]]></script>
</svg>
