<?xml version="1.0" encoding="UTF-8" standalone="no"?>
<!DOCTYPE svg PUBLIC "-//W3C//DTD SVG 1.1//EN"
 "http://www.w3.org/Graphics/SVG/1.1/DTD/svg11.dtd">
<!-- Generated by graphviz version 14.1.1 (0)
 -->
<!-- Title: simpleBullet.h Pages: 1 -->
<!--zoomable 420 -->

<svg id="main" version="1.1" xmlns="http://www.w3.org/2000/svg" xmlns:xlink="http://www.w3.org/1999/xlink" xml:space="preserve" onload="init(evt)">

<style type="text/css"><![CDATA[
.node, .edge {opacity: 0.7;}
.node.selected, .edge.selected {opacity: 1;}
.edge:hover path { stroke: red; }
.edge:hover polygon { stroke: red; fill: red; }
]]></style>

<defs>
  <circle id="rim" cx="0" cy="0" r="7"/>
  <circle id="rim2" cx="0" cy="0" r="3.5"/>
  <g id="zoomPlus">
    <use xlink:href="#rim" fill="#404040"><set attributeName="fill" to="#808080" begin="zoomplus.mouseover" end="zoomplus.mouseout"/></use>
    <path d="M-4,0h8M0,-4v8" fill="none" stroke="white" stroke-width="1.5" pointer-events="none"/>
  </g>
  <g id="zoomMin">
    <use xlink:href="#rim" fill="#404040"><set attributeName="fill" to="#808080" begin="zoomminus.mouseover" end="zoomminus.mouseout"/></use>
    <path d="M-4,0h8" fill="none" stroke="white" stroke-width="1.5" pointer-events="none"/>
  </g>
  <g id="arrowUp" transform="translate(30 24)">
    <use xlink:href="#rim"/>
    <path pointer-events="none" fill="none" stroke="white" stroke-width="1.5" d="M0,-3.0v7 M-2.5,-0.5L0,-3.0L2.5,-0.5"/>
  </g>
  <g id="arrowRight" transform="rotate(90) translate(36 -43)">
    <use xlink:href="#rim"/>
    <path pointer-events="none" fill="none" stroke="white" stroke-width="1.5" d="M0,-3.0v7 M-2.5,-0.5L0,-3.0L2.5,-0.5"/>
  </g>
  <g id="arrowDown" transform="rotate(180) translate(-30 -48)">
    <use xlink:href="#rim"/>
    <path pointer-events="none" fill="none" stroke="white" stroke-width="1.5" d="M0,-3.0v7 M-2.5,-0.5L0,-3.0L2.5,-0.5"/>
  </g>
  <g id="arrowLeft" transform="rotate(270) translate(-36 17)">
    <use xlink:href="#rim"/>
    <path pointer-events="none" fill="none" stroke="white" stroke-width="1.5" d="M0,-3.0v7 M-2.5,-0.5L0,-3.0L2.5,-0.5"/>
  </g>
  <g id="resetDef">
    <use xlink:href="#rim2" fill="#404040"><set attributeName="fill" to="#808080" begin="reset.mouseover" end="reset.mouseout"/></use>
  </g>
</defs>
<script type="application/ecmascript">
var viewWidth = 1092;
var viewHeight = 420;
var sectionId = 'dynsection-0';
</script>
<script type="application/ecmascript" xlink:href="svg.min.js"/>
<svg id="graph" class="graph">
<g id="viewport">
<title>simpleBullet.h</title>
<!-- Node1 -->
<g id="Node000001" class="node">
<title>Node1</title>
<g id="a_Node000001"><a xlink:title=" ">
<polygon fill="#999999" stroke="#666666" points="205.38,-412 127.88,-412 127.88,-392 205.38,-392 205.38,-412"/>
<text xml:space="preserve" text-anchor="middle" x="166.62" y="-398.5" font-family="Helvetica,sans-Serif" font-size="10.00">simpleBullet.h</text>
</a>
</g>
</g>
<!-- Node2 -->
<g id="Node000002" class="node">
<title>Node2</title>
<g id="a_Node000002"><a xlink:href="cache_8h.html" target="_top" xlink:title=" ">
<polygon fill="white" stroke="#666666" points="81.25,-300 0,-300 0,-280 81.25,-280 81.25,-300"/>
<text xml:space="preserve" text-anchor="middle" x="40.62" y="-286.5" font-family="Helvetica,sans-Serif" font-size="10.00">../core/cache.h</text>
</a>
</g>
</g>
<!-- Node1&#45;&gt;Node2 -->
<g id="edge1_Node000001_Node000002" class="edge">
<title>Node1&#45;&gt;Node2</title>
<g id="a_edge1_Node000001_Node000002"><a xlink:title=" ">
<path fill="none" stroke="#63b8ff" d="M148.68,-391.64C133.67,-383.36 112.13,-370.38 95.62,-356 79.48,-341.93 64,-322.98 53.6,-309.17"/>
<polygon fill="#63b8ff" stroke="#63b8ff" points="56.62,-307.37 47.88,-301.38 50.98,-311.51 56.62,-307.37"/>
</a>
</g>
</g>
<!-- Node4 -->
<g id="Node000004" class="node">
<title>Node4</title>
<g id="a_Node000004"><a xlink:href="entity_manager_8h.html" target="_top" xlink:title=" ">
<polygon fill="white" stroke="#666666" points="331.62,-188 213.62,-188 213.62,-168 331.62,-168 331.62,-188"/>
<text xml:space="preserve" text-anchor="middle" x="272.62" y="-174.5" font-family="Helvetica,sans-Serif" font-size="10.00">../core/EntityManager.h</text>
</a>
</g>
</g>
<!-- Node1&#45;&gt;Node4 -->
<g id="edge3_Node000001_Node000004" class="edge">
<title>Node1&#45;&gt;Node4</title>
<g id="a_edge3_Node000001_Node000004"><a xlink:title=" ">
<path fill="none" stroke="#63b8ff" d="M168.7,-391.52C171.67,-378.66 177.66,-355.1 185.62,-336 207.42,-283.72 242.13,-226.52 260.42,-197.75"/>
<polygon fill="#63b8ff" stroke="#63b8ff" points="263.29,-199.77 265.75,-189.46 257.4,-195.98 263.29,-199.77"/>
</a>
</g>
</g>
<!-- Node8 -->
<g id="Node000008" class="node">
<title>Node8</title>
<g id="a_Node000008"><a xlink:href="def_8h.html" target="_top" xlink:title=" ">
<polygon fill="white" stroke="#666666" points="309.5,-132 271.75,-132 271.75,-112 309.5,-112 309.5,-132"/>
<text xml:space="preserve" text-anchor="middle" x="290.62" y="-118.5" font-family="Helvetica,sans-Serif" font-size="10.00">def.h</text>
</a>
</g>
</g>
<!-- Node1&#45;&gt;Node8 -->
<g id="edge44_Node000001_Node000008" class="edge">
<title>Node1&#45;&gt;Node8</title>
<g id="a_edge44_Node000001_Node000008"><a xlink:title=" ">
<path fill="none" stroke="#63b8ff" d="M157.72,-391.56C141.69,-373.52 109.62,-332.3 109.62,-291 109.62,-291 109.62,-291 109.62,-233 109.62,-198.06 209.38,-154.37 260.78,-134.18"/>
<polygon fill="#63b8ff" stroke="#63b8ff" points="261.78,-137.55 269.84,-130.68 259.25,-131.02 261.78,-137.55"/>
</a>
</g>
</g>
<!-- Node10 -->
<g id="Node000010" class="node">
<title>Node10</title>
<g id="a_Node000010"><a xlink:href="collider_8h.html" target="_top" xlink:title=" ">
<polygon fill="white" stroke="#666666" points="280.5,-356 194.75,-356 194.75,-336 280.5,-336 280.5,-356"/>
<text xml:space="preserve" text-anchor="middle" x="237.62" y="-342.5" font-family="Helvetica,sans-Serif" font-size="10.00">../core/collider.h</text>
</a>
</g>
</g>
<!-- Node1&#45;&gt;Node10 -->
<g id="edge11_Node000001_Node000010" class="edge">
<title>Node1&#45;&gt;Node10</title>
<g id="a_edge11_Node000001_Node000010"><a xlink:title=" ">
<path fill="none" stroke="#63b8ff" d="M178.99,-391.59C189.27,-383.77 204.14,-372.46 216.34,-363.19"/>
<polygon fill="#63b8ff" stroke="#63b8ff" points="218.35,-366.05 224.19,-357.21 214.12,-360.48 218.35,-366.05"/>
</a>
</g>
</g>
<!-- Node26 -->
<g id="Node000026" class="node">
<title>Node26</title>
<g id="a_Node000026"><a xlink:title=" ">
<polygon fill="#e0e0e0" stroke="#999999" points="340.75,-356 298.5,-356 298.5,-336 340.75,-336 340.75,-356"/>
<text xml:space="preserve" text-anchor="middle" x="319.62" y="-342.5" font-family="Helvetica,sans-Serif" font-size="10.00">deque</text>
</a>
</g>
</g>
<!-- Node1&#45;&gt;Node26 -->
<g id="edge45_Node000001_Node000026" class="edge">
<title>Node1&#45;&gt;Node26</title>
<g id="a_edge45_Node000001_Node000026"><a xlink:title=" ">
<path fill="none" stroke="#63b8ff" d="M193.28,-391.59C219.46,-382.35 259.45,-368.24 287.41,-358.37"/>
<polygon fill="#63b8ff" stroke="#63b8ff" points="288.52,-361.69 296.78,-355.06 286.19,-355.09 288.52,-361.69"/>
</a>
</g>
</g>
<!-- Node3 -->
<g id="Node000003" class="node">
<title>Node3</title>
<g id="a_Node000003"><a xlink:href="vec2_8h.html" target="_top" xlink:title=" ">
<polygon fill="white" stroke="#666666" points="134.62,-76 58.62,-76 58.62,-56 134.62,-56 134.62,-76"/>
<text xml:space="preserve" text-anchor="middle" x="96.62" y="-62.5" font-family="Helvetica,sans-Serif" font-size="10.00">../core/vec2.h</text>
</a>
</g>
</g>
<!-- Node2&#45;&gt;Node3 -->
<g id="edge2_Node000002_Node000003" class="edge">
<title>Node2&#45;&gt;Node3</title>
<g id="a_edge2_Node000002_Node000003"><a xlink:title=" ">
<path fill="none" stroke="#63b8ff" d="M42.96,-279.74C51.3,-246.67 79.77,-133.83 91.5,-87.31"/>
<polygon fill="#63b8ff" stroke="#63b8ff" points="94.86,-88.32 93.91,-77.76 88.07,-86.6 94.86,-88.32"/>
</a>
</g>
</g>
<!-- Node5 -->
<g id="Node000005" class="node">
<title>Node5</title>
<g id="a_Node000005"><a xlink:title=" ">
<polygon fill="#e0e0e0" stroke="#999999" points="409.12,-132 366.12,-132 366.12,-112 409.12,-112 409.12,-132"/>
<text xml:space="preserve" text-anchor="middle" x="387.62" y="-118.5" font-family="Helvetica,sans-Serif" font-size="10.00">vector</text>
</a>
</g>
</g>
<!-- Node4&#45;&gt;Node5 -->
<g id="edge4_Node000004_Node000005" class="edge">
<title>Node4&#45;&gt;Node5</title>
<g id="a_edge4_Node000004_Node000005"><a xlink:title=" ">
<path fill="none" stroke="#63b8ff" d="M292.66,-167.59C310.44,-159.24 336.69,-146.92 357.09,-137.34"/>
<polygon fill="#63b8ff" stroke="#63b8ff" points="358.5,-140.54 366.07,-133.12 355.53,-134.21 358.5,-140.54"/>
</a>
</g>
</g>
<!-- Node6 -->
<g id="Node000006" class="node">
<title>Node6</title>
<g id="a_Node000006"><a xlink:title=" ">
<polygon fill="#e0e0e0" stroke="#999999" points="460.25,-76 415,-76 415,-56 460.25,-56 460.25,-76"/>
<text xml:space="preserve" text-anchor="middle" x="437.62" y="-62.5" font-family="Helvetica,sans-Serif" font-size="10.00">cstdint</text>
</a>
</g>
</g>
<!-- Node4&#45;&gt;Node6 -->
<g id="edge5_Node000004_Node000006" class="edge">
<title>Node4&#45;&gt;Node6</title>
<g id="a_edge5_Node000004_Node000006"><a xlink:title=" ">
<path fill="none" stroke="#63b8ff" d="M283.8,-167.64C299.7,-154.51 330.01,-130.19 357.62,-112 374.17,-101.1 393.51,-90.18 409.03,-81.82"/>
<polygon fill="#63b8ff" stroke="#63b8ff" points="410.56,-84.97 417.75,-77.19 407.27,-78.79 410.56,-84.97"/>
</a>
</g>
</g>
<!-- Node7 -->
<g id="Node000007" class="node">
<title>Node7</title>
<g id="a_Node000007"><a xlink:title=" ">
<polygon fill="#e0e0e0" stroke="#999999" points="253.25,-132 214,-132 214,-112 253.25,-112 253.25,-132"/>
<text xml:space="preserve" text-anchor="middle" x="233.62" y="-118.5" font-family="Helvetica,sans-Serif" font-size="10.00">limits</text>
</a>
</g>
</g>
<!-- Node4&#45;&gt;Node7 -->
<g id="edge6_Node000004_Node000007" class="edge">
<title>Node4&#45;&gt;Node7</title>
<g id="a_edge6_Node000004_Node000007"><a xlink:title=" ">
<path fill="none" stroke="#63b8ff" d="M265.83,-167.59C260.63,-160.39 253.29,-150.23 246.94,-141.43"/>
<polygon fill="#63b8ff" stroke="#63b8ff" points="249.92,-139.58 241.23,-133.53 244.24,-143.68 249.92,-139.58"/>
</a>
</g>
</g>
<!-- Node4&#45;&gt;Node8 -->
<g id="edge7_Node000004_Node000008" class="edge">
<title>Node4&#45;&gt;Node8</title>
<g id="a_edge7_Node000004_Node000008"><a xlink:title=" ">
<path fill="none" stroke="#63b8ff" d="M275.76,-167.59C278.01,-160.86 281.11,-151.53 283.91,-143.15"/>
<polygon fill="#63b8ff" stroke="#63b8ff" points="287.2,-144.33 287.05,-133.73 280.56,-142.11 287.2,-144.33"/>
</a>
</g>
</g>
<!-- Node8&#45;&gt;Node3 -->
<g id="edge10_Node000008_Node000003" class="edge">
<title>Node8&#45;&gt;Node3</title>
<g id="a_edge10_Node000008_Node000003"><a xlink:title=" ">
<path fill="none" stroke="#63b8ff" d="M271.38,-114.69C268.45,-113.76 265.46,-112.84 262.62,-112 222.88,-100.23 177.43,-88 144.15,-79.26"/>
<polygon fill="#63b8ff" stroke="#63b8ff" points="145.38,-75.96 134.82,-76.82 143.61,-82.74 145.38,-75.96"/>
</a>
</g>
</g>
<!-- Node8&#45;&gt;Node6 -->
<g id="edge8_Node000008_Node000006" class="edge">
<title>Node8&#45;&gt;Node6</title>
<g id="a_edge8_Node000008_Node000006"><a xlink:title=" ">
<path fill="none" stroke="#63b8ff" d="M309.84,-113.94C333.72,-105.17 374.86,-90.05 404.01,-79.35"/>
<polygon fill="#63b8ff" stroke="#63b8ff" points="404.93,-82.74 413.11,-76.01 402.52,-76.17 404.93,-82.74"/>
</a>
</g>
</g>
<!-- Node9 -->
<g id="Node000009" class="node">
<title>Node9</title>
<g id="a_Node000009"><a xlink:title=" ">
<polygon fill="#e0e0e0" stroke="#999999" points="271.62,-76 231.62,-76 231.62,-56 271.62,-56 271.62,-76"/>
<text xml:space="preserve" text-anchor="middle" x="251.62" y="-62.5" font-family="Helvetica,sans-Serif" font-size="10.00">string</text>
</a>
</g>
</g>
<!-- Node8&#45;&gt;Node9 -->
<g id="edge9_Node000008_Node000009" class="edge">
<title>Node8&#45;&gt;Node9</title>
<g id="a_edge9_Node000008_Node000009"><a xlink:title=" ">
<path fill="none" stroke="#63b8ff" d="M283.83,-111.59C278.63,-104.39 271.29,-94.23 264.94,-85.43"/>
<polygon fill="#63b8ff" stroke="#63b8ff" points="267.92,-83.58 259.23,-77.53 262.24,-87.68 267.92,-83.58"/>
</a>
</g>
</g>
<!-- Node10&#45;&gt;Node5 -->
<g id="edge43_Node000010_Node000005" class="edge">
<title>Node10&#45;&gt;Node5</title>
<g id="a_edge43_Node000010_Node000005"><a xlink:title=" ">
<path fill="none" stroke="#63b8ff" d="M238.75,-335.77C241.82,-314.04 252.1,-258.85 280.62,-224 300.32,-199.93 317.71,-209.03 340.62,-188 355.34,-174.49 368.32,-155.72 376.89,-141.82"/>
<polygon fill="#63b8ff" stroke="#63b8ff" points="379.67,-143.99 381.77,-133.6 373.65,-140.42 379.67,-143.99"/>
</a>
</g>
</g>
<!-- Node10&#45;&gt;Node8 -->
<g id="edge12_Node000010_Node000008" class="edge">
<title>Node10&#45;&gt;Node8</title>
<g id="a_edge12_Node000010_Node000008"><a xlink:title=" ">
<path fill="none" stroke="#63b8ff" d="M231.76,-335.75C215.03,-308.08 170.47,-224.42 204.62,-168 211.07,-157.35 238.75,-143.99 260.98,-134.61"/>
<polygon fill="#63b8ff" stroke="#63b8ff" points="262.03,-137.96 269.95,-130.93 259.37,-131.49 262.03,-137.96"/>
</a>
</g>
</g>
<!-- Node11 -->
<g id="Node000011" class="node">
<title>Node11</title>
<g id="a_Node000011"><a xlink:href="gfx_8h.html" target="_top" xlink:title=" ">
<polygon fill="white" stroke="#666666" points="454.88,-300 368.38,-300 368.38,-280 454.88,-280 454.88,-300"/>
<text xml:space="preserve" text-anchor="middle" x="411.62" y="-286.5" font-family="Helvetica,sans-Serif" font-size="10.00">../graphics/gfx.h</text>
</a>
</g>
</g>
<!-- Node10&#45;&gt;Node11 -->
<g id="edge13_Node000010_Node000011" class="edge">
<title>Node10&#45;&gt;Node11</title>
<g id="a_edge13_Node000010_Node000011"><a xlink:title=" ">
<path fill="none" stroke="#63b8ff" d="M267.93,-335.59C296.33,-326.78 338.99,-313.54 370.46,-303.78"/>
<polygon fill="#63b8ff" stroke="#63b8ff" points="371.12,-307.23 379.63,-300.93 369.05,-300.55 371.12,-307.23"/>
</a>
</g>
</g>
<!-- Node11&#45;&gt;Node5 -->
<g id="edge17_Node000011_Node000005" class="edge">
<title>Node11&#45;&gt;Node5</title>
<g id="a_edge17_Node000011_Node000005"><a xlink:title=" ">
<path fill="none" stroke="#63b8ff" d="M410.27,-279.6C406.49,-253.46 395.79,-179.48 390.57,-143.36"/>
<polygon fill="#63b8ff" stroke="#63b8ff" points="394.08,-143.19 389.19,-133.8 387.15,-144.19 394.08,-143.19"/>
</a>
</g>
</g>
<!-- Node11&#45;&gt;Node6 -->
<g id="edge14_Node000011_Node000006" class="edge">
<title>Node11&#45;&gt;Node6</title>
<g id="a_edge14_Node000011_Node000006"><a xlink:title=" ">
<path fill="none" stroke="#63b8ff" d="M412.92,-279.7C414.17,-270.6 416.1,-256.36 417.62,-244 424.6,-187.37 431.91,-120.43 435.45,-87.45"/>
<polygon fill="#63b8ff" stroke="#63b8ff" points="438.91,-88.04 436.49,-77.73 431.95,-87.3 438.91,-88.04"/>
</a>
</g>
</g>
<!-- Node11&#45;&gt;Node9 -->
<g id="edge15_Node000011_Node000009" class="edge">
<title>Node11&#45;&gt;Node9</title>
<g id="a_edge15_Node000011_Node000009"><a xlink:title=" ">
<path fill="none" stroke="#63b8ff" d="M368.07,-283.09C316.98,-273.45 235.37,-248.85 204.62,-188 189.39,-157.85 191.36,-143.06 204.62,-112 209.43,-100.74 218.59,-90.95 227.56,-83.4"/>
<polygon fill="#63b8ff" stroke="#63b8ff" points="229.67,-86.19 235.44,-77.31 225.39,-80.66 229.67,-86.19"/>
</a>
</g>
</g>
<!-- Node12 -->
<g id="Node000012" class="node">
<title>Node12</title>
<g id="a_Node000012"><a xlink:title=" ">
<polygon fill="#e0e0e0" stroke="#999999" points="952,-132 869.25,-132 869.25,-112 952,-112 952,-132"/>
<text xml:space="preserve" text-anchor="middle" x="910.62" y="-118.5" font-family="Helvetica,sans-Serif" font-size="10.00">unordered_map</text>
</a>
</g>
</g>
<!-- Node11&#45;&gt;Node12 -->
<g id="edge16_Node000011_Node000012" class="edge">
<title>Node11&#45;&gt;Node12</title>
<g id="a_edge16_Node000011_Node000012"><a xlink:title=" ">
<path fill="none" stroke="#63b8ff" d="M455.15,-286.85C536.74,-281.17 716.11,-260.72 845.62,-188 866.63,-176.21 885.46,-155.72 897.38,-140.9"/>
<polygon fill="#63b8ff" stroke="#63b8ff" points="899.89,-143.37 903.24,-133.32 894.36,-139.09 899.89,-143.37"/>
</a>
</g>
</g>
<!-- Node13 -->
<g id="Node000013" class="node">
<title>Node13</title>
<g id="a_Node000013"><a xlink:href="all_8h.html" target="_top" xlink:title=" ">
<polygon fill="white" stroke="#666666" points="605.75,-244 533.5,-244 533.5,-224 605.75,-224 605.75,-244"/>
<text xml:space="preserve" text-anchor="middle" x="569.62" y="-230.5" font-family="Helvetica,sans-Serif" font-size="10.00">../tables/all.h</text>
</a>
</g>
</g>
<!-- Node11&#45;&gt;Node13 -->
<g id="edge18_Node000011_Node000013" class="edge">
<title>Node11&#45;&gt;Node13</title>
<g id="a_edge18_Node000011_Node000013"><a xlink:title=" ">
<path fill="none" stroke="#63b8ff" d="M439.15,-279.59C464.59,-270.9 502.66,-257.89 531.12,-248.16"/>
<polygon fill="#63b8ff" stroke="#63b8ff" points="532.13,-251.52 540.46,-244.97 529.86,-244.89 532.13,-251.52"/>
</a>
</g>
</g>
<!-- Node25 -->
<g id="Node000025" class="node">
<title>Node25</title>
<g id="a_Node000025"><a xlink:href="_s_d_l__def_8h.html" target="_top" xlink:title=" ">
<polygon fill="white" stroke="#666666" points="383.25,-244 290,-244 290,-224 383.25,-224 383.25,-244"/>
<text xml:space="preserve" text-anchor="middle" x="336.62" y="-230.5" font-family="Helvetica,sans-Serif" font-size="10.00">../core/SDL_def.h</text>
</a>
</g>
</g>
<!-- Node11&#45;&gt;Node25 -->
<g id="edge42_Node000011_Node000025" class="edge">
<title>Node11&#45;&gt;Node25</title>
<g id="a_edge42_Node000011_Node000025"><a xlink:title=" ">
<path fill="none" stroke="#63b8ff" d="M398.56,-279.59C387.66,-271.74 371.87,-260.38 358.97,-251.09"/>
<polygon fill="#63b8ff" stroke="#63b8ff" points="361.18,-248.37 351.02,-245.36 357.09,-254.05 361.18,-248.37"/>
</a>
</g>
</g>
<!-- Node14 -->
<g id="Node000014" class="node">
<title>Node14</title>
<g id="a_Node000014"><a xlink:href="_entity_table_8h.html" target="_top" xlink:title=" ">
<polygon fill="white" stroke="#666666" points="836.12,-188 763.12,-188 763.12,-168 836.12,-168 836.12,-188"/>
<text xml:space="preserve" text-anchor="middle" x="799.62" y="-174.5" font-family="Helvetica,sans-Serif" font-size="10.00">EntityTable.h</text>
</a>
</g>
</g>
<!-- Node13&#45;&gt;Node14 -->
<g id="edge19_Node000013_Node000014" class="edge">
<title>Node13&#45;&gt;Node14</title>
<g id="a_edge19_Node000013_Node000014"><a xlink:title=" ">
<path fill="none" stroke="#63b8ff" d="M606.07,-224.44C645.49,-215.19 708.49,-200.4 751.85,-190.22"/>
<polygon fill="#63b8ff" stroke="#63b8ff" points="752.56,-193.64 761.5,-187.95 750.96,-186.83 752.56,-193.64"/>
</a>
</g>
</g>
<!-- Node23 -->
<g id="Node000023" class="node">
<title>Node23</title>
<g id="a_Node000023"><a xlink:href="_param_table_8h.html" target="_top" xlink:title=" ">
<polygon fill="white" stroke="#666666" points="607.62,-188 531.62,-188 531.62,-168 607.62,-168 607.62,-188"/>
<text xml:space="preserve" text-anchor="middle" x="569.62" y="-174.5" font-family="Helvetica,sans-Serif" font-size="10.00">ParamTable.h</text>
</a>
</g>
</g>
<!-- Node13&#45;&gt;Node23 -->
<g id="edge32_Node000013_Node000023" class="edge">
<title>Node13&#45;&gt;Node23</title>
<g id="a_edge32_Node000013_Node000023"><a xlink:title=" ">
<path fill="none" stroke="#63b8ff" d="M569.62,-223.59C569.62,-217.01 569.62,-207.96 569.62,-199.73"/>
<polygon fill="#63b8ff" stroke="#63b8ff" points="573.13,-199.81 569.63,-189.81 566.13,-199.81 573.13,-199.81"/>
</a>
</g>
</g>
<!-- Node14&#45;&gt;Node6 -->
<g id="edge20_Node000014_Node000006" class="edge">
<title>Node14&#45;&gt;Node6</title>
<g id="a_edge20_Node000014_Node000006"><a xlink:title=" ">
<path fill="none" stroke="#63b8ff" d="M807.91,-167.93C819.37,-154.26 837.11,-128.27 822.62,-112 799.47,-85.99 562.07,-72.62 472.01,-68.46"/>
<polygon fill="#63b8ff" stroke="#63b8ff" points="472.22,-64.96 462.08,-68.01 471.91,-71.96 472.22,-64.96"/>
</a>
</g>
</g>
<!-- Node14&#45;&gt;Node8 -->
<g id="edge26_Node000014_Node000008" class="edge">
<title>Node14&#45;&gt;Node8</title>
<g id="a_edge26_Node000014_Node000008"><a xlink:title=" ">
<path fill="none" stroke="#63b8ff" d="M762.91,-173.66C687.09,-166.69 507.76,-149.72 357.62,-132 345.69,-130.59 332.58,-128.87 321.14,-127.31"/>
<polygon fill="#63b8ff" stroke="#63b8ff" points="321.84,-123.87 311.45,-125.97 320.88,-130.81 321.84,-123.87"/>
</a>
</g>
</g>
<!-- Node14&#45;&gt;Node12 -->
<g id="edge23_Node000014_Node000012" class="edge">
<title>Node14&#45;&gt;Node12</title>
<g id="a_edge23_Node000014_Node000012"><a xlink:title=" ">
<path fill="none" stroke="#63b8ff" d="M818.96,-167.59C836.04,-159.28 861.23,-147.03 880.88,-137.47"/>
<polygon fill="#63b8ff" stroke="#63b8ff" points="882.32,-140.66 889.78,-133.14 879.25,-134.37 882.32,-140.66"/>
</a>
</g>
</g>
<!-- Node15 -->
<g id="Node000015" class="node">
<title>Node15</title>
<g id="a_Node000015"><a xlink:title=" ">
<polygon fill="#e0e0e0" stroke="#999999" points="814,-132 755.25,-132 755.25,-112 814,-112 814,-132"/>
<text xml:space="preserve" text-anchor="middle" x="784.62" y="-118.5" font-family="Helvetica,sans-Serif" font-size="10.00">stdexcept</text>
</a>
</g>
</g>
<!-- Node14&#45;&gt;Node15 -->
<g id="edge21_Node000014_Node000015" class="edge">
<title>Node14&#45;&gt;Node15</title>
<g id="a_edge21_Node000014_Node000015"><a xlink:title=" ">
<path fill="none" stroke="#63b8ff" d="M797.01,-167.59C795.14,-160.86 792.55,-151.53 790.22,-143.15"/>
<polygon fill="#63b8ff" stroke="#63b8ff" points="793.66,-142.46 787.61,-133.76 786.92,-144.33 793.66,-142.46"/>
</a>
</g>
</g>
<!-- Node16 -->
<g id="Node000016" class="node">
<title>Node16</title>
<g id="a_Node000016"><a xlink:title=" ">
<polygon fill="#e0e0e0" stroke="#999999" points="681.38,-76 615.88,-76 615.88,-56 681.38,-56 681.38,-76"/>
<text xml:space="preserve" text-anchor="middle" x="648.62" y="-62.5" font-family="Helvetica,sans-Serif" font-size="10.00">string_view</text>
</a>
</g>
</g>
<!-- Node14&#45;&gt;Node16 -->
<g id="edge22_Node000014_Node000016" class="edge">
<title>Node14&#45;&gt;Node16</title>
<g id="a_edge22_Node000014_Node000016"><a xlink:title=" ">
<path fill="none" stroke="#63b8ff" d="M836.45,-174.67C894.61,-169.65 997.53,-154.61 960.62,-112 943.36,-92.06 775.19,-76.64 693.16,-70.23"/>
<polygon fill="#63b8ff" stroke="#63b8ff" points="693.46,-66.74 683.22,-69.47 692.93,-73.72 693.46,-66.74"/>
</a>
</g>
</g>
<!-- Node17 -->
<g id="Node000017" class="node">
<title>Node17</title>
<g id="a_Node000017"><a xlink:href="rapid_string_8h.html" target="_top" xlink:title=" ">
<polygon fill="white" stroke="#666666" points="699.38,-132 597.88,-132 597.88,-112 699.38,-112 699.38,-132"/>
<text xml:space="preserve" text-anchor="middle" x="648.62" y="-118.5" font-family="Helvetica,sans-Serif" font-size="10.00">../core/rapidString.h</text>
</a>
</g>
</g>
<!-- Node14&#45;&gt;Node17 -->
<g id="edge24_Node000014_Node000017" class="edge">
<title>Node14&#45;&gt;Node17</title>
<g id="a_edge24_Node000014_Node000017"><a xlink:title=" ">
<path fill="none" stroke="#63b8ff" d="M773.32,-167.59C749.11,-158.94 712.95,-146 685.79,-136.29"/>
<polygon fill="#63b8ff" stroke="#63b8ff" points="687.15,-133.06 676.56,-132.99 684.8,-139.65 687.15,-133.06"/>
</a>
</g>
</g>
<!-- Node18 -->
<g id="Node000018" class="node">
<title>Node18</title>
<g id="a_Node000018"><a xlink:href="fsutil_8h.html" target="_top" xlink:title=" ">
<polygon fill="white" stroke="#666666" points="1083.62,-132 1007.62,-132 1007.62,-112 1083.62,-112 1083.62,-132"/>
<text xml:space="preserve" text-anchor="middle" x="1045.62" y="-118.5" font-family="Helvetica,sans-Serif" font-size="10.00">../core/fsutil.h</text>
</a>
</g>
</g>
<!-- Node14&#45;&gt;Node18 -->
<g id="edge27_Node000014_Node000018" class="edge">
<title>Node14&#45;&gt;Node18</title>
<g id="a_edge27_Node000014_Node000018"><a xlink:title=" ">
<path fill="none" stroke="#63b8ff" d="M836.45,-168.92C878.93,-159.59 948.94,-144.22 996.15,-133.86"/>
<polygon fill="#63b8ff" stroke="#63b8ff" points="996.83,-137.29 1005.85,-131.73 995.33,-130.46 996.83,-137.29"/>
</a>
</g>
</g>
<!-- Node17&#45;&gt;Node16 -->
<g id="edge25_Node000017_Node000016" class="edge">
<title>Node17&#45;&gt;Node16</title>
<g id="a_edge25_Node000017_Node000016"><a xlink:title=" ">
<path fill="none" stroke="#63b8ff" d="M648.62,-111.59C648.62,-105.01 648.62,-95.96 648.62,-87.73"/>
<polygon fill="#63b8ff" stroke="#63b8ff" points="652.13,-87.81 648.63,-77.81 645.13,-87.81 652.13,-87.81"/>
</a>
</g>
</g>
<!-- Node19 -->
<g id="Node000019" class="node">
<title>Node19</title>
<g id="a_Node000019"><a xlink:href="json_8h.html" target="_top" xlink:title=" ">
<polygon fill="white" stroke="#666666" points="875.75,-76 833.5,-76 833.5,-56 875.75,-56 875.75,-76"/>
<text xml:space="preserve" text-anchor="middle" x="854.62" y="-62.5" font-family="Helvetica,sans-Serif" font-size="10.00">json.h</text>
</a>
</g>
</g>
<!-- Node18&#45;&gt;Node19 -->
<g id="edge28_Node000018_Node000019" class="edge">
<title>Node18&#45;&gt;Node19</title>
<g id="a_edge28_Node000018_Node000019"><a xlink:title=" ">
<path fill="none" stroke="#63b8ff" d="M1012.36,-111.59C977.21,-101.66 922.15,-86.09 887.25,-76.22"/>
<polygon fill="#63b8ff" stroke="#63b8ff" points="888.28,-72.88 877.7,-73.52 886.37,-79.61 888.28,-72.88"/>
</a>
</g>
</g>
<!-- Node22 -->
<g id="Node000022" class="node">
<title>Node22</title>
<g id="a_Node000022"><a xlink:title=" ">
<polygon fill="#e0e0e0" stroke="#999999" points="1070.12,-76 1021.12,-76 1021.12,-56 1070.12,-56 1070.12,-76"/>
<text xml:space="preserve" text-anchor="middle" x="1045.62" y="-62.5" font-family="Helvetica,sans-Serif" font-size="10.00">fstream</text>
</a>
</g>
</g>
<!-- Node18&#45;&gt;Node22 -->
<g id="edge31_Node000018_Node000022" class="edge">
<title>Node18&#45;&gt;Node22</title>
<g id="a_edge31_Node000018_Node000022"><a xlink:title=" ">
<path fill="none" stroke="#63b8ff" d="M1045.62,-111.59C1045.62,-105.01 1045.62,-95.96 1045.62,-87.73"/>
<polygon fill="#63b8ff" stroke="#63b8ff" points="1049.13,-87.81 1045.63,-77.81 1042.13,-87.81 1049.13,-87.81"/>
</a>
</g>
</g>
<!-- Node20 -->
<g id="Node000020" class="node">
<title>Node20</title>
<g id="a_Node000020"><a xlink:title=" ">
<polygon fill="#e0e0e0" stroke="#999999" points="839.12,-20 730.12,-20 730.12,0 839.12,0 839.12,-20"/>
<text xml:space="preserve" text-anchor="middle" x="784.62" y="-6.5" font-family="Helvetica,sans-Serif" font-size="10.00">rapidjson/document.h</text>
</a>
</g>
</g>
<!-- Node19&#45;&gt;Node20 -->
<g id="edge29_Node000019_Node000020" class="edge">
<title>Node19&#45;&gt;Node20</title>
<g id="a_edge29_Node000019_Node000020"><a xlink:title=" ">
<path fill="none" stroke="#63b8ff" d="M842.43,-55.59C832.29,-47.77 817.63,-36.46 805.61,-27.19"/>
<polygon fill="#63b8ff" stroke="#63b8ff" points="807.93,-24.56 797.88,-21.22 803.66,-30.1 807.93,-24.56"/>
</a>
</g>
</g>
<!-- Node21 -->
<g id="Node000021" class="node">
<title>Node21</title>
<g id="a_Node000021"><a xlink:title=" ">
<polygon fill="#e0e0e0" stroke="#999999" points="990.12,-20 857.12,-20 857.12,0 990.12,0 990.12,-20"/>
<text xml:space="preserve" text-anchor="middle" x="923.62" y="-6.5" font-family="Helvetica,sans-Serif" font-size="10.00">rapidjson/istreamwrapper.h</text>
</a>
</g>
</g>
<!-- Node19&#45;&gt;Node21 -->
<g id="edge30_Node000019_Node000021" class="edge">
<title>Node19&#45;&gt;Node21</title>
<g id="a_edge30_Node000019_Node000021"><a xlink:title=" ">
<path fill="none" stroke="#63b8ff" d="M866.64,-55.59C876.64,-47.77 891.09,-36.46 902.93,-27.19"/>
<polygon fill="#63b8ff" stroke="#63b8ff" points="904.83,-30.15 910.55,-21.23 900.52,-24.64 904.83,-30.15"/>
</a>
</g>
</g>
<!-- Node23&#45;&gt;Node5 -->
<g id="edge37_Node000023_Node000005" class="edge">
<title>Node23&#45;&gt;Node5</title>
<g id="a_edge37_Node000023_Node000005"><a xlink:title=" ">
<path fill="none" stroke="#63b8ff" d="M537.92,-167.59C505.03,-157.84 453.84,-142.65 420.52,-132.76"/>
<polygon fill="#63b8ff" stroke="#63b8ff" points="421.57,-129.42 410.99,-129.93 419.58,-136.13 421.57,-129.42"/>
</a>
</g>
</g>
<!-- Node23&#45;&gt;Node6 -->
<g id="edge33_Node000023_Node000006" class="edge">
<title>Node23&#45;&gt;Node6</title>
<g id="a_edge33_Node000023_Node000006"><a xlink:title=" ">
<path fill="none" stroke="#63b8ff" d="M550.67,-167.5C535.09,-159.23 512.84,-146.34 495.62,-132 478.79,-117.98 462.44,-99.02 451.41,-85.19"/>
<polygon fill="#63b8ff" stroke="#63b8ff" points="454.23,-83.11 445.32,-77.37 448.7,-87.41 454.23,-83.11"/>
</a>
</g>
</g>
<!-- Node23&#45;&gt;Node8 -->
<g id="edge39_Node000023_Node000008" class="edge">
<title>Node23&#45;&gt;Node8</title>
<g id="a_edge39_Node000023_Node000008"><a xlink:title=" ">
<path fill="none" stroke="#63b8ff" d="M531.42,-169.6C475.46,-158.77 372.33,-138.81 321.12,-128.9"/>
<polygon fill="#63b8ff" stroke="#63b8ff" points="321.83,-125.47 311.35,-127.01 320.5,-132.35 321.83,-125.47"/>
</a>
</g>
</g>
<!-- Node23&#45;&gt;Node12 -->
<g id="edge36_Node000023_Node000012" class="edge">
<title>Node23&#45;&gt;Node12</title>
<g id="a_edge36_Node000023_Node000012"><a xlink:title=" ">
<path fill="none" stroke="#63b8ff" d="M608.08,-170.91C669.21,-161.23 788.69,-142.31 857.8,-131.36"/>
<polygon fill="#63b8ff" stroke="#63b8ff" points="858.04,-134.87 867.37,-129.85 856.94,-127.96 858.04,-134.87"/>
</a>
</g>
</g>
<!-- Node23&#45;&gt;Node15 -->
<g id="edge34_Node000023_Node000015" class="edge">
<title>Node23&#45;&gt;Node15</title>
<g id="a_edge34_Node000023_Node000015"><a xlink:title=" ">
<path fill="none" stroke="#63b8ff" d="M607.08,-167.59C645.29,-158 704.43,-143.14 743.82,-133.25"/>
<polygon fill="#63b8ff" stroke="#63b8ff" points="744.55,-136.67 753.4,-130.84 742.84,-129.88 744.55,-136.67"/>
</a>
</g>
</g>
<!-- Node23&#45;&gt;Node16 -->
<g id="edge35_Node000023_Node000016" class="edge">
<title>Node23&#45;&gt;Node16</title>
<g id="a_edge35_Node000023_Node000016"><a xlink:title=" ">
<path fill="none" stroke="#63b8ff" d="M570.47,-167.81C572.08,-154.46 576.57,-129.4 588.62,-112 596.88,-100.08 609.31,-90.01 620.72,-82.44"/>
<polygon fill="#63b8ff" stroke="#63b8ff" points="622.42,-85.51 629.07,-77.25 618.73,-79.56 622.42,-85.51"/>
</a>
</g>
</g>
<!-- Node23&#45;&gt;Node17 -->
<g id="edge41_Node000023_Node000017" class="edge">
<title>Node23&#45;&gt;Node17</title>
<g id="a_edge41_Node000023_Node000017"><a xlink:title=" ">
<path fill="none" stroke="#63b8ff" d="M583.39,-167.59C594.98,-159.67 611.82,-148.16 625.49,-138.82"/>
<polygon fill="#63b8ff" stroke="#63b8ff" points="627.23,-141.87 633.51,-133.33 623.28,-136.09 627.23,-141.87"/>
</a>
</g>
</g>
<!-- Node23&#45;&gt;Node19 -->
<g id="edge40_Node000023_Node000019" class="edge">
<title>Node23&#45;&gt;Node19</title>
<g id="a_edge40_Node000023_Node000019"><a xlink:title=" ">
<path fill="none" stroke="#63b8ff" d="M604.5,-167.51C632.98,-159.34 674.03,-146.58 708.62,-132 726.21,-124.59 729.35,-120.12 746.62,-112 771.83,-100.15 801.01,-88.08 822.68,-79.43"/>
<polygon fill="#63b8ff" stroke="#63b8ff" points="823.85,-82.73 831.86,-75.8 821.28,-76.23 823.85,-82.73"/>
</a>
</g>
</g>
<!-- Node24 -->
<g id="Node000024" class="node">
<title>Node24</title>
<g id="a_Node000024"><a xlink:title=" ">
<polygon fill="#e0e0e0" stroke="#999999" points="541.12,-132 504.12,-132 504.12,-112 541.12,-112 541.12,-132"/>
<text xml:space="preserve" text-anchor="middle" x="522.62" y="-118.5" font-family="Helvetica,sans-Serif" font-size="10.00">span</text>
</a>
</g>
</g>
<!-- Node23&#45;&gt;Node24 -->
<g id="edge38_Node000023_Node000024" class="edge">
<title>Node23&#45;&gt;Node24</title>
<g id="a_edge38_Node000023_Node000024"><a xlink:title=" ">
<path fill="none" stroke="#63b8ff" d="M561.44,-167.59C555.04,-160.24 545.95,-149.8 538.17,-140.87"/>
<polygon fill="#63b8ff" stroke="#63b8ff" points="540.92,-138.69 531.71,-133.44 535.64,-143.28 540.92,-138.69"/>
</a>
</g>
</g>
</g>
</svg>

<g id="navigator" transform="translate(0 0)" fill="#404254">
  <rect fill="#f2f5e9" fill-opacity="0.5" stroke="#606060" stroke-width=".5" x="0" y="0" width="60" height="60"/>
  <use id="zoomplus" xlink:href="#zoomPlus" x="17" y="9" onmousedown="handleZoom(evt,'in')"/>
  <use id="zoomminus" xlink:href="#zoomMin" x="42" y="9" onmousedown="handleZoom(evt,'out')"/>
  <use id="reset" xlink:href="#resetDef" x="30" y="36" onmousedown="handleReset()"/>
   <use id="arrowup" xlink:href="#arrowUp" x="0" y="0" onmousedown="handlePan(0,-1)"/>
  <use id="arrowright" xlink:href="#arrowRight" x="0" y="0" onmousedown="handlePan(1,0)"/>
  <use id="arrowdown" xlink:href="#arrowDown" x="0" y="0" onmousedown="handlePan(0,1)"/>
  <use id="arrowleft" xlink:href="#arrowLeft" x="0" y="0" onmousedown="handlePan(-1,0)"/>
</g>
<svg viewBox="0 0 15 15" width="100%" height="30px" preserveAspectRatio="xMaxYMin meet">
 <g id="arrow_out" transform="scale(0.3 0.3)">
  <a xlink:href="simple_bullet_8h__incl_org.svg" target="_base">
   <rect id="button" ry="5" rx="5" y="6" x="6" height="38" width="38"
        fill="#f2f5e9" fill-opacity="0.5" stroke="#606060" stroke-width="1.0"/>
   <path id="arrow"
     d="M 11.500037,31.436501 C 11.940474,20.09759 22.043105,11.32322 32.158766,21.979434 L 37.068811,17.246167 C 37.068811,17.246167 37.088388,32 37.088388,32 L 22.160133,31.978069 C 22.160133,31.978069 26.997745,27.140456 26.997745,27.140456 C 18.528582,18.264221 13.291696,25.230495 11.500037,31.436501 z"
     style="fill:#404040;"/>
  </a>
 </g>
</svg>

<style type='text/css'>
<![CDATA[
[data-mouse-over-selected='false'] { opacity: 0.7; }
[data-mouse-over-selected='true']  { opacity: 1.0; }
]]>
</style>
<script type="application/ecmascript"><![CDATA[
document.addEventListener('DOMContentLoaded', (event) => {
  highlightEdges();
  highlightAdjacentNodes();
});
]]></script>
</svg>
