<?xml version="1.0" encoding="UTF-8" standalone="no"?>
<!DOCTYPE svg PUBLIC "-//W3C//DTD SVG 1.1//EN"
 "http://www.w3.org/Graphics/SVG/1.1/DTD/svg11.dtd">
<!-- Generated by graphviz version 14.1.1 (0)
 -->
<!-- Title: Vec2::Vec2 Pages: 1 -->
<svg width="231pt" height="142pt"
 viewBox="0.00 0.00 231.00 142.00" xmlns="http://www.w3.org/2000/svg" xmlns:xlink="http://www.w3.org/1999/xlink">
<g id="graph0" class="graph" transform="scale(1 1) rotate(0) translate(4 138)">
<title>Vec2::Vec2</title>
<!-- Node1 -->
<g id="Node000001" class="node">
<title>Node1</title>
<g id="a_Node000001"><a xlink:title=" ">
<polygon fill="#999999" stroke="#666666" points="223.25,-77 157.75,-77 157.75,-57 223.25,-57 223.25,-77"/>
<text xml:space="preserve" text-anchor="middle" x="190.5" y="-63.5" font-family="Helvetica,sans-Serif" font-size="10.00">Vec2::Vec2</text>
</a>
</g>
</g>
<!-- Node2 -->
<g id="Node000002" class="node">
<title>Node2</title>
<g id="a_Node000002"><a xlink:href="struct_vec2.html#a3753df889264e3ac3823ae56109fadf2" target="_top" xlink:title=" ">
<polygon fill="white" stroke="#666666" points="120.62,-134 1.12,-134 1.12,-114 120.62,-114 120.62,-134"/>
<text xml:space="preserve" text-anchor="middle" x="60.88" y="-120.5" font-family="Helvetica,sans-Serif" font-size="10.00">Vec2&lt; float &gt;::operator*</text>
</a>
</g>
</g>
<!-- Node1&#45;&gt;Node2 -->
<g id="edge1_Node000001_Node000002" class="edge">
<title>Node1&#45;&gt;Node2</title>
<g id="a_edge1_Node000001_Node000002"><a xlink:title=" ">
<path fill="none" stroke="#63b8ff" d="M163.63,-83.15C151.26,-90.44 136.06,-98.8 121.75,-105 114.55,-108.12 106.66,-110.99 99.04,-113.51"/>
<polygon fill="#63b8ff" stroke="#63b8ff" points="165.22,-86.28 171.98,-78.12 161.61,-80.28 165.22,-86.28"/>
</a>
</g>
</g>
<!-- Node3 -->
<g id="Node000003" class="node">
<title>Node3</title>
<g id="a_Node000003"><a xlink:href="struct_vec2.html#a8076412c720b6eb4813abcf8d6968409" target="_top" xlink:title=" ">
<polygon fill="white" stroke="#666666" points="121.75,-96 0,-96 0,-76 121.75,-76 121.75,-96"/>
<text xml:space="preserve" text-anchor="middle" x="60.88" y="-82.5" font-family="Helvetica,sans-Serif" font-size="10.00">Vec2&lt; float &gt;::operator+</text>
</a>
</g>
</g>
<!-- Node1&#45;&gt;Node3 -->
<g id="edge2_Node000001_Node000003" class="edge">
<title>Node1&#45;&gt;Node3</title>
<g id="a_edge2_Node000001_Node000003"><a xlink:title=" ">
<path fill="none" stroke="#63b8ff" d="M146.03,-73.47C138.35,-74.62 130.22,-75.83 122.17,-77.02"/>
<polygon fill="#63b8ff" stroke="#63b8ff" points="146.42,-76.95 155.8,-72.02 145.39,-70.03 146.42,-76.95"/>
</a>
</g>
</g>
<!-- Node4 -->
<g id="Node000004" class="node">
<title>Node4</title>
<g id="a_Node000004"><a xlink:href="struct_vec2.html#a58c905b54f34eb1ee193607393581b95" target="_top" xlink:title=" ">
<polygon fill="white" stroke="#666666" points="120.25,-58 1.5,-58 1.5,-38 120.25,-38 120.25,-58"/>
<text xml:space="preserve" text-anchor="middle" x="60.88" y="-44.5" font-family="Helvetica,sans-Serif" font-size="10.00">Vec2&lt; float &gt;::operator&#45;</text>
</a>
</g>
</g>
<!-- Node1&#45;&gt;Node4 -->
<g id="edge3_Node000001_Node000004" class="edge">
<title>Node1&#45;&gt;Node4</title>
<g id="a_edge3_Node000001_Node000004"><a xlink:title=" ">
<path fill="none" stroke="#63b8ff" d="M146.12,-60.54C137.92,-59.32 129.23,-58.03 120.66,-56.75"/>
<polygon fill="#63b8ff" stroke="#63b8ff" points="145.39,-63.97 155.8,-61.98 146.42,-57.05 145.39,-63.97"/>
</a>
</g>
</g>
<!-- Node5 -->
<g id="Node000005" class="node">
<title>Node5</title>
<g id="a_Node000005"><a xlink:href="struct_vec2.html#a5a10535bf3a56c3d1265dc7b959ae31f" target="_top" xlink:title=" ">
<polygon fill="white" stroke="#666666" points="120.25,-20 1.5,-20 1.5,0 120.25,0 120.25,-20"/>
<text xml:space="preserve" text-anchor="middle" x="60.88" y="-6.5" font-family="Helvetica,sans-Serif" font-size="10.00">Vec2&lt; float &gt;::operator/</text>
</a>
</g>
</g>
<!-- Node1&#45;&gt;Node5 -->
<g id="edge4_Node000001_Node000005" class="edge">
<title>Node1&#45;&gt;Node5</title>
<g id="a_edge4_Node000001_Node000005"><a xlink:title=" ">
<path fill="none" stroke="#63b8ff" d="M163.63,-50.85C151.26,-43.56 136.06,-35.2 121.75,-29 114.55,-25.88 106.66,-23.01 99.04,-20.49"/>
<polygon fill="#63b8ff" stroke="#63b8ff" points="161.61,-53.72 171.98,-55.88 165.22,-47.72 161.61,-53.72"/>
</a>
</g>
</g>
</g>
</svg>
