<?xml version="1.0" encoding="UTF-8" standalone="no"?>
<!DOCTYPE svg PUBLIC "-//W3C//DTD SVG 1.1//EN"
 "http://www.w3.org/Graphics/SVG/1.1/DTD/svg11.dtd">
<!-- Generated by graphviz version 14.1.1 (0)
 -->
<!-- Title: HitEvent Pages: 1 -->
<svg width="168pt" height="118pt"
 viewBox="0.00 0.00 168.00 118.00" xmlns="http://www.w3.org/2000/svg" xmlns:xlink="http://www.w3.org/1999/xlink">
<g id="graph0" class="graph" transform="scale(1 1) rotate(0) translate(4 114)">
<title>HitEvent</title>
<!-- Node1 -->
<g id="Node000001" class="node">
<title>Node1</title>
<g id="a_Node000001"><a xlink:title=" ">
<polygon fill="#999999" stroke="#666666" points="107.25,-20 53,-20 53,0 107.25,0 107.25,-20"/>
<text xml:space="preserve" text-anchor="middle" x="80.12" y="-6.5" font-family="Helvetica,sans-Serif" font-size="10.00">HitEvent</text>
</a>
</g>
</g>
<!-- Node2 -->
<g id="Node000002" class="node">
<title>Node2</title>
<g id="a_Node000002"><a xlink:href="struct_entity_handle.html" target="_top" xlink:title=" ">
<polygon fill="white" stroke="#666666" points="72.25,-110 0,-110 0,-90 72.25,-90 72.25,-110"/>
<text xml:space="preserve" text-anchor="middle" x="36.12" y="-96.5" font-family="Helvetica,sans-Serif" font-size="10.00">EntityHandle</text>
</a>
</g>
</g>
<!-- Node2&#45;&gt;Node1 -->
<g id="edge1_Node000001_Node000002" class="edge">
<title>Node2&#45;&gt;Node1</title>
<g id="a_edge1_Node000001_Node000002"><a xlink:title=" ">
<path fill="none" stroke="#9a32cd" stroke-dasharray="5,2" d="M41.46,-79.03C45.19,-66.75 50.81,-50.93 58.12,-38 61.7,-31.68 66.76,-25.36 71.12,-20.42"/>
<polygon fill="#9a32cd" stroke="#9a32cd" points="38.15,-77.87 38.78,-88.45 44.88,-79.79 38.15,-77.87"/>
</a>
</g>
<text xml:space="preserve" text-anchor="start" x="61.12" y="-59.5" font-family="Helvetica,sans-Serif" font-size="10.00" fill="grey">a_handle</text>
<text xml:space="preserve" text-anchor="start" x="61.12" y="-43.5" font-family="Helvetica,sans-Serif" font-size="10.00" fill="grey">b_handle</text>
</g>
<!-- Node3 -->
<g id="Node000003" class="node">
<title>Node3</title>
<g id="a_Node000003"><a xlink:href="struct_collision_info.html" target="_top" xlink:title=" ">
<polygon fill="white" stroke="#666666" points="160.12,-110 90.12,-110 90.12,-90 160.12,-90 160.12,-110"/>
<text xml:space="preserve" text-anchor="middle" x="125.12" y="-96.5" font-family="Helvetica,sans-Serif" font-size="10.00">CollisionInfo</text>
</a>
</g>
</g>
<!-- Node3&#45;&gt;Node1 -->
<g id="edge2_Node000001_Node000003" class="edge">
<title>Node3&#45;&gt;Node1</title>
<g id="a_edge2_Node000001_Node000003"><a xlink:title=" ">
<path fill="none" stroke="#9a32cd" stroke-dasharray="5,2" d="M119.89,-78.98C116.2,-66.67 110.58,-50.85 103.12,-38 99.42,-31.61 94.13,-25.28 89.56,-20.35"/>
<polygon fill="#9a32cd" stroke="#9a32cd" points="116.47,-79.73 122.53,-88.42 123.21,-77.84 116.47,-79.73"/>
</a>
</g>
<text xml:space="preserve" text-anchor="start" x="120.64" y="-59.5" font-family="Helvetica,sans-Serif" font-size="10.00" fill="grey">a_info</text>
<text xml:space="preserve" text-anchor="start" x="120.64" y="-43.5" font-family="Helvetica,sans-Serif" font-size="10.00" fill="grey">b_info</text>
</g>
</g>
</svg>
