<?xml version="1.0" encoding="UTF-8" standalone="no"?>
<!DOCTYPE svg PUBLIC "-//W3C//DTD SVG 1.1//EN"
 "http://www.w3.org/Graphics/SVG/1.1/DTD/svg11.dtd">
<!-- Generated by graphviz version 14.1.1 (0)
 -->
<!-- Title: ICollidable Pages: 1 -->
<svg width="320pt" height="84pt"
 viewBox="0.00 0.00 320.00 84.00" xmlns="http://www.w3.org/2000/svg" xmlns:xlink="http://www.w3.org/1999/xlink">

<svg id="main" version="1.1" xmlns="http://www.w3.org/2000/svg" xmlns:xlink="http://www.w3.org/1999/xlink" xml:space="preserve">

<style type="text/css"><![CDATA[
.node, .edge {opacity: 0.7;}
.node.selected, .edge.selected {opacity: 1;}
.edge:hover path { stroke: red; }
.edge:hover polygon { stroke: red; fill: red; }
]]></style>
<script type="application/ecmascript" xlink:href="svg.min.js"/>
<svg id="graph" class="graph">
<g id="graph0" class="graph" transform="scale(1 1) rotate(0) translate(4 80)">
<title>ICollidable</title>
<!-- Node1 -->
<g id="Node000001" class="node">
<title>Node1</title>
<g id="a_Node000001"><a xlink:title=" ">
<polygon fill="#999999" stroke="#666666" points="182.12,-76 120.38,-76 120.38,-56 182.12,-56 182.12,-76"/>
<text xml:space="preserve" text-anchor="middle" x="151.25" y="-62.5" font-family="Helvetica,sans-Serif" font-size="10.00">ICollidable</text>
</a>
</g>
</g>
<!-- Node2 -->
<g id="Node000002" class="node">
<title>Node2</title>
<g id="a_Node000002"><a xlink:href="struct_enemy_bezier.html" target="_top" xlink:title=" ">
<polygon fill="white" stroke="#666666" points="74.5,-20 0,-20 0,0 74.5,0 74.5,-20"/>
<text xml:space="preserve" text-anchor="middle" x="37.25" y="-6.5" font-family="Helvetica,sans-Serif" font-size="10.00">EnemyBezier</text>
</a>
</g>
</g>
<!-- Node1&#45;&gt;Node2 -->
<g id="edge1_Node000001_Node000002" class="edge">
<title>Node1&#45;&gt;Node2</title>
<g id="a_edge1_Node000001_Node000002"><a xlink:title=" ">
<path fill="none" stroke="#63b8ff" d="M121.16,-50.75C100.97,-41.18 74.94,-28.85 57.26,-20.48"/>
<polygon fill="#63b8ff" stroke="#63b8ff" points="119.49,-53.83 130.02,-54.95 122.49,-47.5 119.49,-53.83"/>
</a>
</g>
</g>
<!-- Node3 -->
<g id="Node000003" class="node">
<title>Node3</title>
<g id="a_Node000003"><a xlink:href="class_player.html" target="_top" xlink:title=" ">
<polygon fill="white" stroke="#666666" points="136.12,-20 92.38,-20 92.38,0 136.12,0 136.12,-20"/>
<text xml:space="preserve" text-anchor="middle" x="114.25" y="-6.5" font-family="Helvetica,sans-Serif" font-size="10.00">Player</text>
</a>
</g>
</g>
<!-- Node1&#45;&gt;Node3 -->
<g id="edge2_Node000001_Node000003" class="edge">
<title>Node1&#45;&gt;Node3</title>
<g id="a_edge2_Node000001_Node000003"><a xlink:title=" ">
<path fill="none" stroke="#63b8ff" d="M138.34,-46.15C132.34,-37.4 125.48,-27.39 120.62,-20.3"/>
<polygon fill="#63b8ff" stroke="#63b8ff" points="135.41,-48.07 143.95,-54.35 141.18,-44.12 135.41,-48.07"/>
</a>
</g>
</g>
<!-- Node4 -->
<g id="Node000004" class="node">
<title>Node4</title>
<g id="a_Node000004"><a xlink:href="class_player_bullet.html" target="_top" xlink:title=" ">
<polygon fill="white" stroke="#666666" points="222.5,-20 154,-20 154,0 222.5,0 222.5,-20"/>
<text xml:space="preserve" text-anchor="middle" x="188.25" y="-6.5" font-family="Helvetica,sans-Serif" font-size="10.00">PlayerBullet</text>
</a>
</g>
</g>
<!-- Node1&#45;&gt;Node4 -->
<g id="edge3_Node000001_Node000004" class="edge">
<title>Node1&#45;&gt;Node4</title>
<g id="a_edge3_Node000001_Node000004"><a xlink:title=" ">
<path fill="none" stroke="#63b8ff" d="M164.16,-46.15C170.16,-37.4 177.02,-27.39 181.88,-20.3"/>
<polygon fill="#63b8ff" stroke="#63b8ff" points="161.32,-44.12 158.55,-54.35 167.09,-48.07 161.32,-44.12"/>
</a>
</g>
</g>
<!-- Node5 -->
<g id="Node000005" class="node">
<title>Node5</title>
<g id="a_Node000005"><a xlink:href="struct_simple_bullet.html" target="_top" xlink:title=" ">
<polygon fill="white" stroke="#666666" points="311.62,-20 240.88,-20 240.88,0 311.62,0 311.62,-20"/>
<text xml:space="preserve" text-anchor="middle" x="276.25" y="-6.5" font-family="Helvetica,sans-Serif" font-size="10.00">SimpleBullet</text>
</a>
</g>
</g>
<!-- Node1&#45;&gt;Node5 -->
<g id="edge4_Node000001_Node000005" class="edge">
<title>Node1&#45;&gt;Node5</title>
<g id="a_edge4_Node000001_Node000005"><a xlink:title=" ">
<path fill="none" stroke="#63b8ff" d="M183.33,-51.14C205.59,-41.52 234.66,-28.97 254.31,-20.48"/>
<polygon fill="#63b8ff" stroke="#63b8ff" points="182.2,-47.81 174.41,-54.99 184.98,-54.24 182.2,-47.81"/>
</a>
</g>
</g>
</g>
</svg>
</svg>

<style type='text/css'>
<![CDATA[
[data-mouse-over-selected='false'] { opacity: 0.7; }
[data-mouse-over-selected='true']  { opacity: 1.0; }
]]>
</style>
<script type="application/ecmascript"><![CDATA[
document.addEventListener('DOMContentLoaded', (event) => {
  highlightEdges();
  highlightAdjacentNodes();
});
]]></script>
</svg>
