<?xml version="1.0" encoding="UTF-8" standalone="no"?>
<!DOCTYPE svg PUBLIC "-//W3C//DTD SVG 1.1//EN"
 "http://www.w3.org/Graphics/SVG/1.1/DTD/svg11.dtd">
<!-- Generated by graphviz version 14.1.1 (0)
 -->
<!-- Title: EnemyBezier Pages: 1 -->
<svg width="431pt" height="206pt"
 viewBox="0.00 0.00 431.00 206.00" xmlns="http://www.w3.org/2000/svg" xmlns:xlink="http://www.w3.org/1999/xlink">
<g id="graph0" class="graph" transform="scale(1 1) rotate(0) translate(4 202)">
<title>EnemyBezier</title>
<!-- Node1 -->
<g id="Node000001" class="node">
<title>Node1</title>
<g id="a_Node000001"><a xlink:title=" ">
<polygon fill="#999999" stroke="#666666" points="236.12,-20 161.62,-20 161.62,0 236.12,0 236.12,-20"/>
<text xml:space="preserve" text-anchor="middle" x="198.88" y="-6.5" font-family="Helvetica,sans-Serif" font-size="10.00">EnemyBezier</text>
</a>
</g>
</g>
<!-- Node2 -->
<g id="Node000002" class="node">
<title>Node2</title>
<g id="a_Node000002"><a xlink:href="struct_i_collidable.html" target="_top" xlink:title=" ">
<polygon fill="white" stroke="#666666" points="61.75,-109 0,-109 0,-89 61.75,-89 61.75,-109"/>
<text xml:space="preserve" text-anchor="middle" x="30.88" y="-95.5" font-family="Helvetica,sans-Serif" font-size="10.00">ICollidable</text>
</a>
</g>
</g>
<!-- Node2&#45;&gt;Node1 -->
<g id="edge1_Node000001_Node000002" class="edge">
<title>Node2&#45;&gt;Node1</title>
<g id="a_edge1_Node000001_Node000002"><a xlink:title=" ">
<path fill="none" stroke="#63b8ff" d="M42.68,-79.34C52.19,-65.83 66.76,-48.23 83.88,-38 107.37,-23.95 137.64,-17.21 161.22,-13.98"/>
<polygon fill="#63b8ff" stroke="#63b8ff" points="39.93,-77.15 37.28,-87.41 45.75,-81.05 39.93,-77.15"/>
</a>
</g>
</g>
<!-- Node3 -->
<g id="Node000003" class="node">
<title>Node3</title>
<g id="a_Node000003"><a xlink:href="struct_vec2.html" target="_top" xlink:title=" ">
<polygon fill="white" stroke="#666666" points="151.12,-198 76.62,-198 76.62,-178 151.12,-178 151.12,-198"/>
<text xml:space="preserve" text-anchor="middle" x="113.88" y="-184.5" font-family="Helvetica,sans-Serif" font-size="10.00">Vec2&lt; float &gt;</text>
</a>
</g>
</g>
<!-- Node3&#45;&gt;Node1 -->
<g id="edge2_Node000001_Node000003" class="edge">
<title>Node3&#45;&gt;Node1</title>
<g id="a_edge2_Node000001_Node000003"><a xlink:title=" ">
<path fill="none" stroke="#9a32cd" stroke-dasharray="5,2" d="M106.58,-166.73C99.36,-143.03 91.42,-103.32 106.88,-74 120.78,-47.63 151.25,-30.19 173.32,-20.47"/>
<polygon fill="#9a32cd" stroke="#9a32cd" points="103.22,-167.7 109.69,-176.09 109.86,-165.5 103.22,-167.7"/>
</a>
</g>
<text xml:space="preserve" text-anchor="start" x="109.88" y="-111.5" font-family="Helvetica,sans-Serif" font-size="10.00" fill="grey">origin</text>
<text xml:space="preserve" text-anchor="start" x="109.88" y="-95.5" font-family="Helvetica,sans-Serif" font-size="10.00" fill="grey">pos</text>
<text xml:space="preserve" text-anchor="start" x="109.88" y="-79.5" font-family="Helvetica,sans-Serif" font-size="10.00" fill="grey">spriteHalf</text>
</g>
<!-- Node4 -->
<g id="Node000004" class="node">
<title>Node4</title>
<g id="a_Node000004"><a xlink:href="class_bezier_mover.html" target="_top" xlink:title=" ">
<polygon fill="white" stroke="#666666" points="234.25,-109 163.5,-109 163.5,-89 234.25,-89 234.25,-109"/>
<text xml:space="preserve" text-anchor="middle" x="198.88" y="-95.5" font-family="Helvetica,sans-Serif" font-size="10.00">BezierMover</text>
</a>
</g>
</g>
<!-- Node3&#45;&gt;Node4 -->
<g id="edge4_Node000004_Node000003" class="edge">
<title>Node3&#45;&gt;Node4</title>
<g id="a_edge4_Node000004_Node000003"><a xlink:title=" ">
<path fill="none" stroke="#9a32cd" stroke-dasharray="5,2" d="M130.83,-169.64C148.6,-151.46 175.83,-123.59 189.84,-109.24"/>
<polygon fill="#9a32cd" stroke="#9a32cd" points="128.51,-167.01 124.03,-176.61 133.52,-171.9 128.51,-167.01"/>
</a>
</g>
<text xml:space="preserve" text-anchor="start" x="159.38" y="-147.5" font-family="Helvetica,sans-Serif" font-size="10.00" fill="grey">pos</text>
</g>
<!-- Node4&#45;&gt;Node1 -->
<g id="edge3_Node000001_Node000004" class="edge">
<title>Node4&#45;&gt;Node1</title>
<g id="a_edge3_Node000001_Node000004"><a xlink:title=" ">
<path fill="none" stroke="#9a32cd" stroke-dasharray="5,2" d="M198.88,-77.32C198.88,-59.21 198.88,-33.74 198.88,-20.24"/>
<polygon fill="#9a32cd" stroke="#9a32cd" points="195.38,-77.18 198.88,-87.18 202.38,-77.18 195.38,-77.18"/>
</a>
</g>
<text xml:space="preserve" text-anchor="start" x="201.88" y="-43.5" font-family="Helvetica,sans-Serif" font-size="10.00" fill="grey">bm</text>
</g>
<!-- Node5 -->
<g id="Node000005" class="node">
<title>Node5</title>
<g id="a_Node000005"><a xlink:href="struct_entity_handle.html" target="_top" xlink:title=" ">
<polygon fill="white" stroke="#666666" points="325,-109 252.75,-109 252.75,-89 325,-89 325,-109"/>
<text xml:space="preserve" text-anchor="middle" x="288.88" y="-95.5" font-family="Helvetica,sans-Serif" font-size="10.00">EntityHandle</text>
</a>
</g>
</g>
<!-- Node5&#45;&gt;Node1 -->
<g id="edge5_Node000001_Node000005" class="edge">
<title>Node5&#45;&gt;Node1</title>
<g id="a_edge5_Node000001_Node000005"><a xlink:title=" ">
<path fill="none" stroke="#9a32cd" stroke-dasharray="5,2" d="M271.18,-80.89C252.37,-62.72 223.35,-34.66 208.44,-20.24"/>
<polygon fill="#9a32cd" stroke="#9a32cd" points="268.53,-83.2 278.16,-87.64 273.4,-78.17 268.53,-83.2"/>
</a>
</g>
<text xml:space="preserve" text-anchor="start" x="246.88" y="-43.5" font-family="Helvetica,sans-Serif" font-size="10.00" fill="grey">ent</text>
</g>
<!-- Node6 -->
<g id="Node000006" class="node">
<title>Node6</title>
<g id="a_Node000006"><a xlink:href="struct_collider_handle.html" target="_top" xlink:title=" ">
<polygon fill="white" stroke="#666666" points="422.75,-109 343,-109 343,-89 422.75,-89 422.75,-109"/>
<text xml:space="preserve" text-anchor="middle" x="382.88" y="-95.5" font-family="Helvetica,sans-Serif" font-size="10.00">ColliderHandle</text>
</a>
</g>
</g>
<!-- Node6&#45;&gt;Node1 -->
<g id="edge6_Node000001_Node000006" class="edge">
<title>Node6&#45;&gt;Node1</title>
<g id="a_edge6_Node000001_Node000006"><a xlink:title=" ">
<path fill="none" stroke="#9a32cd" stroke-dasharray="5,2" d="M356.36,-83.12C333.31,-70.44 298.84,-52.09 267.88,-38 253.94,-31.66 238.05,-25.38 225.04,-20.48"/>
<polygon fill="#9a32cd" stroke="#9a32cd" points="354.63,-86.16 365.07,-87.95 358.02,-80.04 354.63,-86.16"/>
</a>
</g>
<text xml:space="preserve" text-anchor="start" x="306.19" y="-43.5" font-family="Helvetica,sans-Serif" font-size="10.00" fill="grey">col_h</text>
</g>
</g>
</svg>
