<?xml version="1.0" encoding="UTF-8" standalone="no"?>
<!DOCTYPE svg PUBLIC "-//W3C//DTD SVG 1.1//EN"
 "http://www.w3.org/Graphics/SVG/1.1/DTD/svg11.dtd">
<!-- Generated by graphviz version 14.1.1 (0)
 -->
<!-- Title: SimpleBullet Pages: 1 -->
<svg width="350pt" height="134pt"
 viewBox="0.00 0.00 350.00 134.00" xmlns="http://www.w3.org/2000/svg" xmlns:xlink="http://www.w3.org/1999/xlink">
<g id="graph0" class="graph" transform="scale(1 1) rotate(0) translate(4 130)">
<title>SimpleBullet</title>
<!-- Node1 -->
<g id="Node000001" class="node">
<title>Node1</title>
<g id="a_Node000001"><a xlink:title=" ">
<polygon fill="#999999" stroke="#666666" points="197.25,-20 126.5,-20 126.5,0 197.25,0 197.25,-20"/>
<text xml:space="preserve" text-anchor="middle" x="161.88" y="-6.5" font-family="Helvetica,sans-Serif" font-size="10.00">SimpleBullet</text>
</a>
</g>
</g>
<!-- Node2 -->
<g id="Node000002" class="node">
<title>Node2</title>
<g id="a_Node000002"><a xlink:href="struct_i_collidable.html" target="_top" xlink:title=" ">
<polygon fill="white" stroke="#666666" points="61.75,-126 0,-126 0,-106 61.75,-106 61.75,-126"/>
<text xml:space="preserve" text-anchor="middle" x="30.88" y="-112.5" font-family="Helvetica,sans-Serif" font-size="10.00">ICollidable</text>
</a>
</g>
</g>
<!-- Node2&#45;&gt;Node1 -->
<g id="edge1_Node000001_Node000002" class="edge">
<title>Node2&#45;&gt;Node1</title>
<g id="a_edge1_Node000001_Node000002"><a xlink:title=" ">
<path fill="none" stroke="#63b8ff" d="M47.98,-98.25C64.99,-81.98 92.2,-57.01 117.88,-38 126.52,-31.6 136.73,-25.27 145.13,-20.34"/>
<polygon fill="#63b8ff" stroke="#63b8ff" points="45.92,-95.37 41.16,-104.83 50.78,-100.4 45.92,-95.37"/>
</a>
</g>
</g>
<!-- Node3 -->
<g id="Node000003" class="node">
<title>Node3</title>
<g id="a_Node000003"><a xlink:href="struct_vec2.html" target="_top" xlink:title=" ">
<polygon fill="white" stroke="#666666" points="154.12,-126 79.62,-126 79.62,-106 154.12,-106 154.12,-126"/>
<text xml:space="preserve" text-anchor="middle" x="116.88" y="-112.5" font-family="Helvetica,sans-Serif" font-size="10.00">Vec2&lt; float &gt;</text>
</a>
</g>
</g>
<!-- Node3&#45;&gt;Node1 -->
<g id="edge2_Node000001_Node000003" class="edge">
<title>Node3&#45;&gt;Node1</title>
<g id="a_edge2_Node000001_Node000003"><a xlink:title=" ">
<path fill="none" stroke="#9a32cd" stroke-dasharray="5,2" d="M119.79,-94.67C122.71,-78.57 128.19,-55.88 137.88,-38 141.46,-31.38 146.96,-25.04 151.79,-20.16"/>
<polygon fill="#9a32cd" stroke="#9a32cd" points="116.35,-94.04 118.21,-104.47 123.26,-95.15 116.35,-94.04"/>
</a>
</g>
<text xml:space="preserve" text-anchor="start" x="140.88" y="-75.5" font-family="Helvetica,sans-Serif" font-size="10.00" fill="grey">pos</text>
<text xml:space="preserve" text-anchor="start" x="140.88" y="-59.5" font-family="Helvetica,sans-Serif" font-size="10.00" fill="grey">spriteHalf</text>
<text xml:space="preserve" text-anchor="start" x="140.88" y="-43.5" font-family="Helvetica,sans-Serif" font-size="10.00" fill="grey">vel</text>
</g>
<!-- Node4 -->
<g id="Node000004" class="node">
<title>Node4</title>
<g id="a_Node000004"><a xlink:href="struct_entity_handle.html" target="_top" xlink:title=" ">
<polygon fill="white" stroke="#666666" points="244,-126 171.75,-126 171.75,-106 244,-106 244,-126"/>
<text xml:space="preserve" text-anchor="middle" x="207.88" y="-112.5" font-family="Helvetica,sans-Serif" font-size="10.00">EntityHandle</text>
</a>
</g>
</g>
<!-- Node4&#45;&gt;Node1 -->
<g id="edge3_Node000001_Node000004" class="edge">
<title>Node4&#45;&gt;Node1</title>
<g id="a_edge3_Node000001_Node000004"><a xlink:title=" ">
<path fill="none" stroke="#9a32cd" stroke-dasharray="5,2" d="M204.64,-94.67C201.49,-78.57 195.7,-55.88 185.88,-38 182.25,-31.4 176.75,-25.06 171.93,-20.18"/>
<polygon fill="#9a32cd" stroke="#9a32cd" points="201.19,-95.23 206.37,-104.47 208.08,-94.01 201.19,-95.23"/>
</a>
</g>
<text xml:space="preserve" text-anchor="start" x="205.89" y="-59.5" font-family="Helvetica,sans-Serif" font-size="10.00" fill="grey">eh</text>
</g>
<!-- Node5 -->
<g id="Node000005" class="node">
<title>Node5</title>
<g id="a_Node000005"><a xlink:href="struct_collider_handle.html" target="_top" xlink:title=" ">
<polygon fill="white" stroke="#666666" points="341.75,-126 262,-126 262,-106 341.75,-106 341.75,-126"/>
<text xml:space="preserve" text-anchor="middle" x="301.88" y="-112.5" font-family="Helvetica,sans-Serif" font-size="10.00">ColliderHandle</text>
</a>
</g>
</g>
<!-- Node5&#45;&gt;Node1 -->
<g id="edge4_Node000001_Node000005" class="edge">
<title>Node5&#45;&gt;Node1</title>
<g id="a_edge4_Node000001_Node000005"><a xlink:title=" ">
<path fill="none" stroke="#9a32cd" stroke-dasharray="5,2" d="M287.22,-97.12C272.59,-80.16 248.74,-54.82 223.88,-38 213.28,-30.83 200.46,-24.87 189.24,-20.39"/>
<polygon fill="#9a32cd" stroke="#9a32cd" points="284.25,-99.03 293.38,-104.42 289.61,-94.52 284.25,-99.03"/>
</a>
</g>
<text xml:space="preserve" text-anchor="start" x="281" y="-59.5" font-family="Helvetica,sans-Serif" font-size="10.00" fill="grey">ch</text>
</g>
</g>
</svg>
