<?xml version="1.0" encoding="UTF-8" standalone="no"?>
<!DOCTYPE svg PUBLIC "-//W3C//DTD SVG 1.1//EN"
 "http://www.w3.org/Graphics/SVG/1.1/DTD/svg11.dtd">
<!-- Generated by graphviz version 14.1.1 (0)
 -->
<!-- Title: time.cpp Pages: 1 -->
<svg width="62pt" height="140pt"
 viewBox="0.00 0.00 62.00 140.00" xmlns="http://www.w3.org/2000/svg" xmlns:xlink="http://www.w3.org/1999/xlink">
<g id="graph0" class="graph" transform="scale(1 1) rotate(0) translate(4 136)">
<title>time.cpp</title>
<!-- Node1 -->
<g id="Node000001" class="node">
<title>Node1</title>
<g id="a_Node000001"><a xlink:title=" ">
<polygon fill="#999999" stroke="#666666" points="53.5,-132 0,-132 0,-112 53.5,-112 53.5,-132"/>
<text xml:space="preserve" text-anchor="middle" x="26.75" y="-118.5" font-family="Helvetica,sans-Serif" font-size="10.00">time.cpp</text>
</a>
</g>
</g>
<!-- Node2 -->
<g id="Node000002" class="node">
<title>Node2</title>
<g id="a_Node000002"><a xlink:href="time_8h.html" target="_top" xlink:title=" ">
<polygon fill="white" stroke="#666666" points="48.25,-76 5.25,-76 5.25,-56 48.25,-56 48.25,-76"/>
<text xml:space="preserve" text-anchor="middle" x="26.75" y="-62.5" font-family="Helvetica,sans-Serif" font-size="10.00">time.h</text>
</a>
</g>
</g>
<!-- Node1&#45;&gt;Node2 -->
<g id="edge1_Node000001_Node000002" class="edge">
<title>Node1&#45;&gt;Node2</title>
<g id="a_edge1_Node000001_Node000002"><a xlink:title=" ">
<path fill="none" stroke="#63b8ff" d="M26.75,-111.59C26.75,-105.01 26.75,-95.96 26.75,-87.73"/>
<polygon fill="#63b8ff" stroke="#63b8ff" points="30.25,-87.81 26.75,-77.81 23.25,-87.81 30.25,-87.81"/>
</a>
</g>
</g>
<!-- Node3 -->
<g id="Node000003" class="node">
<title>Node3</title>
<g id="a_Node000003"><a xlink:title=" ">
<polygon fill="#e0e0e0" stroke="#999999" points="49.38,-20 4.13,-20 4.13,0 49.38,0 49.38,-20"/>
<text xml:space="preserve" text-anchor="middle" x="26.75" y="-6.5" font-family="Helvetica,sans-Serif" font-size="10.00">chrono</text>
</a>
</g>
</g>
<!-- Node2&#45;&gt;Node3 -->
<g id="edge2_Node000002_Node000003" class="edge">
<title>Node2&#45;&gt;Node3</title>
<g id="a_edge2_Node000002_Node000003"><a xlink:title=" ">
<path fill="none" stroke="#63b8ff" d="M26.75,-55.59C26.75,-49.01 26.75,-39.96 26.75,-31.73"/>
<polygon fill="#63b8ff" stroke="#63b8ff" points="30.25,-31.81 26.75,-21.81 23.25,-31.81 30.25,-31.81"/>
</a>
</g>
</g>
</g>
</svg>
