<?xml version="1.0" encoding="UTF-8" standalone="no"?>
<!DOCTYPE svg PUBLIC "-//W3C//DTD SVG 1.1//EN"
 "http://www.w3.org/Graphics/SVG/1.1/DTD/svg11.dtd">
<!-- Generated by graphviz version 14.1.1 (0)
 -->
<!-- Title: vec2.h Pages: 1 -->
<svg width="975pt" height="476pt"
 viewBox="0.00 0.00 975.00 476.00" xmlns="http://www.w3.org/2000/svg" xmlns:xlink="http://www.w3.org/1999/xlink">
<g id="graph0" class="graph" transform="scale(1 1) rotate(0) translate(4 472)">
<title>vec2.h</title>
<!-- Node1 -->
<g id="Node000001" class="node">
<title>Node1</title>
<g id="a_Node000001"><a xlink:title=" ">
<polygon fill="#999999" stroke="#666666" points="416.12,-468 370.88,-468 370.88,-448 416.12,-448 416.12,-468"/>
<text xml:space="preserve" text-anchor="middle" x="393.5" y="-454.5" font-family="Helvetica,sans-Serif" font-size="10.00">vec2.h</text>
</a>
</g>
</g>
<!-- Node2 -->
<g id="Node000002" class="node">
<title>Node2</title>
<g id="a_Node000002"><a xlink:href="cache_8h.html" target="_top" xlink:title=" ">
<polygon fill="white" stroke="#666666" points="114.75,-412 64.25,-412 64.25,-392 114.75,-392 114.75,-412"/>
<text xml:space="preserve" text-anchor="middle" x="89.5" y="-398.5" font-family="Helvetica,sans-Serif" font-size="10.00">cache.h</text>
</a>
</g>
</g>
<!-- Node1&#45;&gt;Node2 -->
<g id="edge1_Node000001_Node000002" class="edge">
<title>Node1&#45;&gt;Node2</title>
<g id="a_edge1_Node000001_Node000002"><a xlink:title=" ">
<path fill="none" stroke="#63b8ff" d="M359.38,-450.94C297.88,-440.02 169.78,-417.26 115.11,-407.55"/>
<polygon fill="#63b8ff" stroke="#63b8ff" points="358.45,-454.33 368.91,-452.63 359.68,-447.44 358.45,-454.33"/>
</a>
</g>
</g>
<!-- Node8 -->
<g id="Node000008" class="node">
<title>Node8</title>
<g id="a_Node000008"><a xlink:href="commands_8h.html" target="_top" xlink:title=" ">
<polygon fill="white" stroke="#666666" points="195.62,-356 123.38,-356 123.38,-336 195.62,-336 195.62,-356"/>
<text xml:space="preserve" text-anchor="middle" x="159.5" y="-342.5" font-family="Helvetica,sans-Serif" font-size="10.00">commands.h</text>
</a>
</g>
</g>
<!-- Node1&#45;&gt;Node8 -->
<g id="edge7_Node000001_Node000008" class="edge">
<title>Node1&#45;&gt;Node8</title>
<g id="a_edge7_Node000001_Node000008"><a xlink:title=" ">
<path fill="none" stroke="#63b8ff" d="M363.35,-442.83C314.77,-419.99 220.46,-375.66 179.4,-356.35"/>
<polygon fill="#63b8ff" stroke="#63b8ff" points="361.64,-445.89 372.18,-446.98 364.62,-439.56 361.64,-445.89"/>
</a>
</g>
</g>
<!-- Node11 -->
<g id="Node000011" class="node">
<title>Node11</title>
<g id="a_Node000011"><a xlink:href="def_8h.html" target="_top" xlink:title=" ">
<polygon fill="white" stroke="#666666" points="537.38,-412 499.62,-412 499.62,-392 537.38,-392 537.38,-412"/>
<text xml:space="preserve" text-anchor="middle" x="518.5" y="-398.5" font-family="Helvetica,sans-Serif" font-size="10.00">def.h</text>
</a>
</g>
</g>
<!-- Node1&#45;&gt;Node11 -->
<g id="edge12_Node000001_Node000011" class="edge">
<title>Node1&#45;&gt;Node11</title>
<g id="a_edge12_Node000001_Node000011"><a xlink:title=" ">
<path fill="none" stroke="#63b8ff" d="M425.74,-443.07C449.09,-432.99 479.87,-419.69 499.43,-411.24"/>
<polygon fill="#63b8ff" stroke="#63b8ff" points="424.45,-439.81 416.66,-446.99 427.23,-446.24 424.45,-439.81"/>
</a>
</g>
</g>
<!-- Node29 -->
<g id="Node000029" class="node">
<title>Node29</title>
<g id="a_Node000029"><a xlink:href="math_util_8h.html" target="_top" xlink:title=" ">
<polygon fill="white" stroke="#666666" points="911,-244 850,-244 850,-224 911,-224 911,-244"/>
<text xml:space="preserve" text-anchor="middle" x="880.5" y="-230.5" font-family="Helvetica,sans-Serif" font-size="10.00">mathUtil.h</text>
</a>
</g>
</g>
<!-- Node1&#45;&gt;Node29 -->
<g id="edge55_Node000001_Node000029" class="edge">
<title>Node1&#45;&gt;Node29</title>
<g id="a_edge55_Node000001_Node000029"><a xlink:title=" ">
<path fill="none" stroke="#63b8ff" d="M427.29,-455.79C499.68,-451.72 672.61,-433.9 789.5,-356 834.12,-326.26 865.41,-267.08 876.28,-244.27"/>
<polygon fill="#63b8ff" stroke="#63b8ff" points="427.49,-452.28 417.68,-456.28 427.84,-459.27 427.49,-452.28"/>
</a>
</g>
</g>
<!-- Node3 -->
<g id="Node000003" class="node">
<title>Node3</title>
<g id="a_Node000003"><a xlink:href="cache_8cpp.html" target="_top" xlink:title=" ">
<polygon fill="white" stroke="#666666" points="61,-356 0,-356 0,-336 61,-336 61,-356"/>
<text xml:space="preserve" text-anchor="middle" x="30.5" y="-342.5" font-family="Helvetica,sans-Serif" font-size="10.00">cache.cpp</text>
</a>
</g>
</g>
<!-- Node2&#45;&gt;Node3 -->
<g id="edge2_Node000002_Node000003" class="edge">
<title>Node2&#45;&gt;Node3</title>
<g id="a_edge2_Node000002_Node000003"><a xlink:title=" ">
<path fill="none" stroke="#63b8ff" d="M70.76,-383.85C60.79,-374.72 48.92,-363.86 40.66,-356.3"/>
<polygon fill="#63b8ff" stroke="#63b8ff" points="68.37,-386.4 78.11,-390.57 73.09,-381.24 68.37,-386.4"/>
</a>
</g>
</g>
<!-- Node4 -->
<g id="Node000004" class="node">
<title>Node4</title>
<g id="a_Node000004"><a xlink:href="simple_bullet_8h.html" target="_top" xlink:title=" ">
<polygon fill="white" stroke="#666666" points="317.25,-132 239.75,-132 239.75,-112 317.25,-112 317.25,-132"/>
<text xml:space="preserve" text-anchor="middle" x="278.5" y="-118.5" font-family="Helvetica,sans-Serif" font-size="10.00">simpleBullet.h</text>
</a>
</g>
</g>
<!-- Node2&#45;&gt;Node4 -->
<g id="edge3_Node000002_Node000004" class="edge">
<title>Node2&#45;&gt;Node4</title>
<g id="a_edge3_Node000002_Node000004"><a xlink:title=" ">
<path fill="none" stroke="#63b8ff" d="M89.5,-380.32C89.5,-358.22 89.5,-322.13 89.5,-291 89.5,-291 89.5,-291 89.5,-233 89.5,-164.28 183.98,-137.75 239.34,-128.1"/>
<polygon fill="#63b8ff" stroke="#63b8ff" points="86,-380.07 89.5,-390.07 93,-380.07 86,-380.07"/>
</a>
</g>
</g>
<!-- Node5 -->
<g id="Node000005" class="node">
<title>Node5</title>
<g id="a_Node000005"><a xlink:href="_game_8h.html" target="_top" xlink:title=" ">
<polygon fill="white" stroke="#666666" points="469.75,-76 419.25,-76 419.25,-56 469.75,-56 469.75,-76"/>
<text xml:space="preserve" text-anchor="middle" x="444.5" y="-62.5" font-family="Helvetica,sans-Serif" font-size="10.00">Game.h</text>
</a>
</g>
</g>
<!-- Node4&#45;&gt;Node5 -->
<g id="edge4_Node000004_Node000005" class="edge">
<title>Node4&#45;&gt;Node5</title>
<g id="a_edge4_Node000004_Node000005"><a xlink:title=" ">
<path fill="none" stroke="#63b8ff" d="M318.36,-108.03C349.58,-97.88 392.09,-84.05 418.91,-75.32"/>
<polygon fill="#63b8ff" stroke="#63b8ff" points="317.28,-104.7 308.85,-111.13 319.45,-111.36 317.28,-104.7"/>
</a>
</g>
</g>
<!-- Node6 -->
<g id="Node000006" class="node">
<title>Node6</title>
<g id="a_Node000006"><a xlink:href="_game_8cpp.html" target="_top" xlink:title=" ">
<polygon fill="white" stroke="#666666" points="437,-20 376,-20 376,0 437,0 437,-20"/>
<text xml:space="preserve" text-anchor="middle" x="406.5" y="-6.5" font-family="Helvetica,sans-Serif" font-size="10.00">Game.cpp</text>
</a>
</g>
</g>
<!-- Node5&#45;&gt;Node6 -->
<g id="edge5_Node000005_Node000006" class="edge">
<title>Node5&#45;&gt;Node6</title>
<g id="a_edge5_Node000005_Node000006"><a xlink:title=" ">
<path fill="none" stroke="#63b8ff" d="M431.44,-46.44C425.23,-37.62 418.09,-27.47 413.04,-20.3"/>
<polygon fill="#63b8ff" stroke="#63b8ff" points="428.39,-48.19 437.01,-54.36 434.12,-44.16 428.39,-48.19"/>
</a>
</g>
</g>
<!-- Node7 -->
<g id="Node000007" class="node">
<title>Node7</title>
<g id="a_Node000007"><a xlink:href="main_8cpp.html" target="_top" xlink:title=" ">
<polygon fill="white" stroke="#666666" points="510.38,-20 454.62,-20 454.62,0 510.38,0 510.38,-20"/>
<text xml:space="preserve" text-anchor="middle" x="482.5" y="-6.5" font-family="Helvetica,sans-Serif" font-size="10.00">main.cpp</text>
</a>
</g>
</g>
<!-- Node5&#45;&gt;Node7 -->
<g id="edge6_Node000005_Node000007" class="edge">
<title>Node5&#45;&gt;Node7</title>
<g id="a_edge6_Node000005_Node000007"><a xlink:title=" ">
<path fill="none" stroke="#63b8ff" d="M457.56,-46.44C463.77,-37.62 470.91,-27.47 475.96,-20.3"/>
<polygon fill="#63b8ff" stroke="#63b8ff" points="454.88,-44.16 451.99,-54.36 460.61,-48.19 454.88,-44.16"/>
</a>
</g>
</g>
<!-- Node8&#45;&gt;Node6 -->
<g id="edge8_Node000008_Node000006" class="edge">
<title>Node8&#45;&gt;Node6</title>
<g id="a_edge8_Node000008_Node000006"><a xlink:title=" ">
<path fill="none" stroke="#63b8ff" d="M150.02,-325.11C140.58,-303.45 127.5,-267.56 127.5,-235 127.5,-235 127.5,-235 127.5,-121 127.5,-68.15 302.94,-29.95 375.58,-16.4"/>
<polygon fill="#63b8ff" stroke="#63b8ff" points="146.82,-326.53 154.15,-334.18 153.19,-323.63 146.82,-326.53"/>
</a>
</g>
</g>
<!-- Node9 -->
<g id="Node000009" class="node">
<title>Node9</title>
<g id="a_Node000009"><a xlink:href="_v_m_8h.html" target="_top" xlink:title=" ">
<polygon fill="white" stroke="#666666" points="195.12,-300 155.88,-300 155.88,-280 195.12,-280 195.12,-300"/>
<text xml:space="preserve" text-anchor="middle" x="175.5" y="-286.5" font-family="Helvetica,sans-Serif" font-size="10.00">VM.h</text>
</a>
</g>
</g>
<!-- Node8&#45;&gt;Node9 -->
<g id="edge9_Node000008_Node000009" class="edge">
<title>Node8&#45;&gt;Node9</title>
<g id="a_edge9_Node000008_Node000009"><a xlink:title=" ">
<path fill="none" stroke="#63b8ff" d="M165.51,-324.71C168,-316.32 170.76,-307.01 172.74,-300.3"/>
<polygon fill="#63b8ff" stroke="#63b8ff" points="162.2,-323.56 162.72,-334.14 168.91,-325.55 162.2,-323.56"/>
</a>
</g>
</g>
<!-- Node9&#45;&gt;Node5 -->
<g id="edge10_Node000009_Node000005" class="edge">
<title>Node9&#45;&gt;Node5</title>
<g id="a_edge10_Node000009_Node000005"><a xlink:title=" ">
<path fill="none" stroke="#63b8ff" d="M175.2,-268.42C175.86,-230.85 183.16,-151.41 230.5,-112 259.02,-88.26 368.79,-74.53 419.07,-69.37"/>
<polygon fill="#63b8ff" stroke="#63b8ff" points="171.7,-268.31 175.18,-278.31 178.7,-268.32 171.7,-268.31"/>
</a>
</g>
</g>
<!-- Node10 -->
<g id="Node000010" class="node">
<title>Node10</title>
<g id="a_Node000010"><a xlink:href="_v_m_8cpp.html" target="_top" xlink:title=" ">
<polygon fill="white" stroke="#666666" points="243.38,-244 193.62,-244 193.62,-224 243.38,-224 243.38,-244"/>
<text xml:space="preserve" text-anchor="middle" x="218.5" y="-230.5" font-family="Helvetica,sans-Serif" font-size="10.00">VM.cpp</text>
</a>
</g>
</g>
<!-- Node9&#45;&gt;Node10 -->
<g id="edge11_Node000009_Node000010" class="edge">
<title>Node9&#45;&gt;Node10</title>
<g id="a_edge11_Node000009_Node000010"><a xlink:title=" ">
<path fill="none" stroke="#63b8ff" d="M190.06,-270.72C197.13,-261.84 205.32,-251.55 211.1,-244.3"/>
<polygon fill="#63b8ff" stroke="#63b8ff" points="187.42,-268.41 183.93,-278.41 192.9,-272.77 187.42,-268.41"/>
</a>
</g>
</g>
<!-- Node11&#45;&gt;Node4 -->
<g id="edge54_Node000011_Node000004" class="edge">
<title>Node11&#45;&gt;Node4</title>
<g id="a_edge54_Node000011_Node000004"><a xlink:title=" ">
<path fill="none" stroke="#63b8ff" d="M487.96,-401.05C442.23,-399.84 354.6,-392.45 291.5,-356 262.86,-339.46 254.13,-330.96 242.5,-300 239.37,-291.68 241.3,-288.81 242.5,-280 244.74,-263.55 248.53,-260.12 252.5,-244 262.67,-202.69 272.66,-152.9 276.67,-132.46"/>
<polygon fill="#63b8ff" stroke="#63b8ff" points="487.86,-404.55 497.92,-401.22 487.98,-397.55 487.86,-404.55"/>
</a>
</g>
</g>
<!-- Node12 -->
<g id="Node000012" class="node">
<title>Node12</title>
<g id="a_Node000012"><a xlink:href="_bezier_mover_8h.html" target="_top" xlink:title=" ">
<polygon fill="white" stroke="#666666" points="379,-356 300,-356 300,-336 379,-336 379,-356"/>
<text xml:space="preserve" text-anchor="middle" x="339.5" y="-342.5" font-family="Helvetica,sans-Serif" font-size="10.00">BezierMover.h</text>
</a>
</g>
</g>
<!-- Node11&#45;&gt;Node12 -->
<g id="edge13_Node000011_Node000012" class="edge">
<title>Node11&#45;&gt;Node12</title>
<g id="a_edge13_Node000011_Node000012"><a xlink:title=" ">
<path fill="none" stroke="#63b8ff" d="M488.68,-392C456.05,-382.16 403.98,-366.45 370.79,-356.44"/>
<polygon fill="#63b8ff" stroke="#63b8ff" points="487.31,-395.25 497.89,-394.78 489.33,-388.54 487.31,-395.25"/>
</a>
</g>
</g>
<!-- Node14 -->
<g id="Node000014" class="node">
<title>Node14</title>
<g id="a_Node000014"><a xlink:href="enemy_bezier_8h.html" target="_top" xlink:title=" ">
<polygon fill="white" stroke="#666666" points="416.12,-132 334.88,-132 334.88,-112 416.12,-112 416.12,-132"/>
<text xml:space="preserve" text-anchor="middle" x="375.5" y="-118.5" font-family="Helvetica,sans-Serif" font-size="10.00">enemyBezier.h</text>
</a>
</g>
</g>
<!-- Node11&#45;&gt;Node14 -->
<g id="edge44_Node000011_Node000014" class="edge">
<title>Node11&#45;&gt;Node14</title>
<g id="a_edge44_Node000011_Node000014"><a xlink:title=" ">
<path fill="none" stroke="#63b8ff" d="M488.51,-393.53C468.31,-386.95 442.67,-375.33 427.5,-356 371.71,-284.93 373.23,-165.94 374.91,-132.18"/>
<polygon fill="#63b8ff" stroke="#63b8ff" points="487.33,-396.83 497.91,-396.33 489.33,-390.12 487.33,-396.83"/>
</a>
</g>
</g>
<!-- Node15 -->
<g id="Node000015" class="node">
<title>Node15</title>
<g id="a_Node000015"><a xlink:href="_entity_table_8h.html" target="_top" xlink:title=" ">
<polygon fill="white" stroke="#666666" points="509,-356 436,-356 436,-336 509,-336 509,-356"/>
<text xml:space="preserve" text-anchor="middle" x="472.5" y="-342.5" font-family="Helvetica,sans-Serif" font-size="10.00">EntityTable.h</text>
</a>
</g>
</g>
<!-- Node11&#45;&gt;Node15 -->
<g id="edge17_Node000011_Node000015" class="edge">
<title>Node11&#45;&gt;Node15</title>
<g id="a_edge17_Node000011_Node000015"><a xlink:title=" ">
<path fill="none" stroke="#63b8ff" d="M503.17,-383C495.55,-374.06 486.66,-363.62 480.42,-356.3"/>
<polygon fill="#63b8ff" stroke="#63b8ff" points="500.36,-385.1 509.51,-390.44 505.69,-380.56 500.36,-385.1"/>
</a>
</g>
</g>
<!-- Node19 -->
<g id="Node000019" class="node">
<title>Node19</title>
<g id="a_Node000019"><a xlink:href="collider_8h.html" target="_top" xlink:title=" ">
<polygon fill="white" stroke="#666666" points="545,-188 490,-188 490,-168 545,-168 545,-188"/>
<text xml:space="preserve" text-anchor="middle" x="517.5" y="-174.5" font-family="Helvetica,sans-Serif" font-size="10.00">collider.h</text>
</a>
</g>
</g>
<!-- Node11&#45;&gt;Node19 -->
<g id="edge43_Node000011_Node000019" class="edge">
<title>Node11&#45;&gt;Node19</title>
<g id="a_edge43_Node000011_Node000019"><a xlink:title=" ">
<path fill="none" stroke="#63b8ff" d="M548.02,-390.22C593.4,-371.79 672.56,-331.21 647.5,-280 625.01,-234.05 570.41,-202.98 539.6,-188.44"/>
<polygon fill="#63b8ff" stroke="#63b8ff" points="547,-386.86 538.97,-393.77 549.56,-393.38 547,-386.86"/>
</a>
</g>
</g>
<!-- Node21 -->
<g id="Node000021" class="node">
<title>Node21</title>
<g id="a_Node000021"><a xlink:href="player_8h.html" target="_top" xlink:title=" ">
<polygon fill="white" stroke="#666666" points="598.75,-132 548.25,-132 548.25,-112 598.75,-112 598.75,-132"/>
<text xml:space="preserve" text-anchor="middle" x="573.5" y="-118.5" font-family="Helvetica,sans-Serif" font-size="10.00">player.h</text>
</a>
</g>
</g>
<!-- Node11&#45;&gt;Node21 -->
<g id="edge52_Node000011_Node000021" class="edge">
<title>Node11&#45;&gt;Node21</title>
<g id="a_edge52_Node000011_Node000021"><a xlink:title=" ">
<path fill="none" stroke="#63b8ff" d="M548.95,-397.96C604.24,-390.58 715.5,-366.36 715.5,-291 715.5,-291 715.5,-291 715.5,-233 715.5,-174.84 640.14,-143.04 599.22,-130.06"/>
<polygon fill="#63b8ff" stroke="#63b8ff" points="548.75,-394.46 539.25,-399.14 549.6,-401.41 548.75,-394.46"/>
</a>
</g>
</g>
<!-- Node23 -->
<g id="Node000023" class="node">
<title>Node23</title>
<g id="a_Node000023"><a xlink:href="player_bullet_8h.html" target="_top" xlink:title=" ">
<polygon fill="white" stroke="#666666" points="692.12,-132 616.88,-132 616.88,-112 692.12,-112 692.12,-132"/>
<text xml:space="preserve" text-anchor="middle" x="654.5" y="-118.5" font-family="Helvetica,sans-Serif" font-size="10.00">playerBullet.h</text>
</a>
</g>
</g>
<!-- Node11&#45;&gt;Node23 -->
<g id="edge53_Node000011_Node000023" class="edge">
<title>Node11&#45;&gt;Node23</title>
<g id="a_edge53_Node000011_Node000023"><a xlink:title=" ">
<path fill="none" stroke="#63b8ff" d="M549.01,-400.37C612.6,-397.26 753.5,-380.29 753.5,-291 753.5,-291 753.5,-291 753.5,-233 753.5,-185.21 701.24,-148.8 672.66,-132.46"/>
<polygon fill="#63b8ff" stroke="#63b8ff" points="549.1,-396.86 539.24,-400.75 549.37,-403.85 549.1,-396.86"/>
</a>
</g>
</g>
<!-- Node25 -->
<g id="Node000025" class="node">
<title>Node25</title>
<g id="a_Node000025"><a xlink:href="_param_table_8h.html" target="_top" xlink:title=" ">
<polygon fill="white" stroke="#666666" points="603.5,-356 527.5,-356 527.5,-336 603.5,-336 603.5,-356"/>
<text xml:space="preserve" text-anchor="middle" x="565.5" y="-342.5" font-family="Helvetica,sans-Serif" font-size="10.00">ParamTable.h</text>
</a>
</g>
</g>
<!-- Node11&#45;&gt;Node25 -->
<g id="edge39_Node000011_Node000025" class="edge">
<title>Node11&#45;&gt;Node25</title>
<g id="a_edge39_Node000011_Node000025"><a xlink:title=" ">
<path fill="none" stroke="#63b8ff" d="M534.16,-383C541.95,-374.06 551.03,-363.62 557.41,-356.3"/>
<polygon fill="#63b8ff" stroke="#63b8ff" points="531.61,-380.61 527.68,-390.45 536.89,-385.21 531.61,-380.61"/>
</a>
</g>
</g>
<!-- Node27 -->
<g id="Node000027" class="node">
<title>Node27</title>
<g id="a_Node000027"><a xlink:href="entity_manager_8h.html" target="_top" xlink:title=" ">
<polygon fill="white" stroke="#666666" points="867.38,-188 781.62,-188 781.62,-168 867.38,-168 867.38,-188"/>
<text xml:space="preserve" text-anchor="middle" x="824.5" y="-174.5" font-family="Helvetica,sans-Serif" font-size="10.00">entityManager.h</text>
</a>
</g>
</g>
<!-- Node11&#45;&gt;Node27 -->
<g id="edge45_Node000011_Node000027" class="edge">
<title>Node11&#45;&gt;Node27</title>
<g id="a_edge45_Node000011_Node000027"><a xlink:title=" ">
<path fill="none" stroke="#63b8ff" d="M549.06,-399.33C608.2,-395.51 735.34,-384.15 767.5,-356 819.24,-310.71 824.34,-218.25 824.6,-188.47"/>
<polygon fill="#63b8ff" stroke="#63b8ff" points="549.13,-395.82 539.36,-399.93 549.56,-402.81 549.13,-395.82"/>
</a>
</g>
</g>
<!-- Node13 -->
<g id="Node000013" class="node">
<title>Node13</title>
<g id="a_Node000013"><a xlink:href="_bezier_mover_8cpp.html" target="_top" xlink:title=" ">
<polygon fill="white" stroke="#666666" points="341.25,-300 251.75,-300 251.75,-280 341.25,-280 341.25,-300"/>
<text xml:space="preserve" text-anchor="middle" x="296.5" y="-286.5" font-family="Helvetica,sans-Serif" font-size="10.00">BezierMover.cpp</text>
</a>
</g>
</g>
<!-- Node12&#45;&gt;Node13 -->
<g id="edge14_Node000012_Node000013" class="edge">
<title>Node12&#45;&gt;Node13</title>
<g id="a_edge14_Node000012_Node000013"><a xlink:title=" ">
<path fill="none" stroke="#63b8ff" d="M324.94,-326.72C317.87,-317.84 309.68,-307.55 303.9,-300.3"/>
<polygon fill="#63b8ff" stroke="#63b8ff" points="322.1,-328.77 331.07,-334.41 327.58,-324.41 322.1,-328.77"/>
</a>
</g>
</g>
<!-- Node12&#45;&gt;Node14 -->
<g id="edge15_Node000012_Node000014" class="edge">
<title>Node12&#45;&gt;Node14</title>
<g id="a_edge15_Node000012_Node000014"><a xlink:title=" ">
<path fill="none" stroke="#63b8ff" d="M345.49,-324.96C347.51,-317.23 349.5,-308.28 350.5,-300 351.56,-291.17 352.44,-288.67 350.5,-280 346.63,-262.73 337.37,-261.27 333.5,-244 326.11,-211.04 321.11,-199.42 333.5,-168 339.3,-153.29 352.43,-140.54 362.48,-132.41"/>
<polygon fill="#63b8ff" stroke="#63b8ff" points="342.18,-323.78 342.84,-334.35 348.92,-325.68 342.18,-323.78"/>
</a>
</g>
</g>
<!-- Node14&#45;&gt;Node5 -->
<g id="edge16_Node000014_Node000005" class="edge">
<title>Node14&#45;&gt;Node5</title>
<g id="a_edge16_Node000014_Node000005"><a xlink:title=" ">
<path fill="none" stroke="#63b8ff" d="M396.35,-104.68C408.23,-95.39 422.67,-84.09 432.62,-76.3"/>
<polygon fill="#63b8ff" stroke="#63b8ff" points="394.43,-101.74 388.71,-110.66 398.74,-107.25 394.43,-101.74"/>
</a>
</g>
</g>
<!-- Node16 -->
<g id="Node000016" class="node">
<title>Node16</title>
<g id="a_Node000016"><a xlink:href="all_8cpp.html" target="_top" xlink:title=" ">
<polygon fill="white" stroke="#666666" points="482.75,-300 438.25,-300 438.25,-280 482.75,-280 482.75,-300"/>
<text xml:space="preserve" text-anchor="middle" x="460.5" y="-286.5" font-family="Helvetica,sans-Serif" font-size="10.00">all.cpp</text>
</a>
</g>
</g>
<!-- Node15&#45;&gt;Node16 -->
<g id="edge18_Node000015_Node000016" class="edge">
<title>Node15&#45;&gt;Node16</title>
<g id="a_edge18_Node000015_Node000016"><a xlink:title=" ">
<path fill="none" stroke="#63b8ff" d="M467.93,-324.43C466.08,-316.11 464.04,-306.93 462.57,-300.3"/>
<polygon fill="#63b8ff" stroke="#63b8ff" points="464.5,-325.11 470.08,-334.12 471.33,-323.6 464.5,-325.11"/>
</a>
</g>
</g>
<!-- Node17 -->
<g id="Node000017" class="node">
<title>Node17</title>
<g id="a_Node000017"><a xlink:href="all_8h.html" target="_top" xlink:title=" ">
<polygon fill="white" stroke="#666666" points="534.5,-300 500.5,-300 500.5,-280 534.5,-280 534.5,-300"/>
<text xml:space="preserve" text-anchor="middle" x="517.5" y="-286.5" font-family="Helvetica,sans-Serif" font-size="10.00">all.h</text>
</a>
</g>
</g>
<!-- Node15&#45;&gt;Node17 -->
<g id="edge19_Node000015_Node000017" class="edge">
<title>Node15&#45;&gt;Node17</title>
<g id="a_edge19_Node000015_Node000017"><a xlink:title=" ">
<path fill="none" stroke="#63b8ff" d="M487.5,-327C494.95,-318.06 503.65,-307.62 509.75,-300.3"/>
<polygon fill="#63b8ff" stroke="#63b8ff" points="485.02,-324.51 481.31,-334.43 490.4,-328.99 485.02,-324.51"/>
</a>
</g>
</g>
<!-- Node17&#45;&gt;Node10 -->
<g id="edge20_Node000017_Node000010" class="edge">
<title>Node17&#45;&gt;Node10</title>
<g id="a_edge20_Node000017_Node000010"><a xlink:title=" ">
<path fill="none" stroke="#63b8ff" d="M489.01,-279.72C393.59,-256.19 290.3,-243 243.64,-237.69"/>
<polygon fill="#63b8ff" stroke="#63b8ff" points="487.98,-283.07 498.53,-282.12 489.69,-276.29 487.98,-283.07"/>
</a>
</g>
</g>
<!-- Node17&#45;&gt;Node14 -->
<g id="edge21_Node000017_Node000014" class="edge">
<title>Node17&#45;&gt;Node14</title>
<g id="a_edge21_Node000017_Node000014"><a xlink:title=" ">
<path fill="none" stroke="#63b8ff" d="M499.3,-271.78C479.1,-252.29 445.99,-219.18 420.5,-188 405.04,-169.09 389.32,-145.05 381.18,-132.16"/>
<polygon fill="#63b8ff" stroke="#63b8ff" points="496.86,-274.29 506.51,-278.68 501.7,-269.24 496.86,-274.29"/>
</a>
</g>
</g>
<!-- Node18 -->
<g id="Node000018" class="node">
<title>Node18</title>
<g id="a_Node000018"><a xlink:href="gfx_8h.html" target="_top" xlink:title=" ">
<polygon fill="white" stroke="#666666" points="536.38,-244 498.62,-244 498.62,-224 536.38,-224 536.38,-244"/>
<text xml:space="preserve" text-anchor="middle" x="517.5" y="-230.5" font-family="Helvetica,sans-Serif" font-size="10.00">gfx.h</text>
</a>
</g>
</g>
<!-- Node17&#45;&gt;Node18 -->
<g id="edge22_Node000017_Node000018" class="edge">
<title>Node17&#45;&gt;Node18</title>
<g id="a_edge22_Node000017_Node000018"><a xlink:title=" ">
<path fill="none" stroke="#63b8ff" d="M517.5,-268.13C517.5,-259.9 517.5,-250.85 517.5,-244.3"/>
<polygon fill="#63b8ff" stroke="#63b8ff" points="514,-268.08 517.5,-278.08 521,-268.08 514,-268.08"/>
</a>
</g>
</g>
<!-- Node22 -->
<g id="Node000022" class="node">
<title>Node22</title>
<g id="a_Node000022"><a xlink:href="player_8cpp.html" target="_top" xlink:title=" ">
<polygon fill="white" stroke="#666666" points="751,-76 690,-76 690,-56 751,-56 751,-76"/>
<text xml:space="preserve" text-anchor="middle" x="720.5" y="-62.5" font-family="Helvetica,sans-Serif" font-size="10.00">player.cpp</text>
</a>
</g>
</g>
<!-- Node17&#45;&gt;Node22 -->
<g id="edge38_Node000017_Node000022" class="edge">
<title>Node17&#45;&gt;Node22</title>
<g id="a_edge38_Node000017_Node000022"><a xlink:title=" ">
<path fill="none" stroke="#63b8ff" d="M545.01,-274.9C587.19,-251.6 666.62,-200.72 701.5,-132 710.97,-113.34 716.46,-89.2 718.92,-76.23"/>
<polygon fill="#63b8ff" stroke="#63b8ff" points="543.37,-271.81 536.22,-279.63 546.69,-277.97 543.37,-271.81"/>
</a>
</g>
</g>
<!-- Node18&#45;&gt;Node5 -->
<g id="edge23_Node000018_Node000005" class="edge">
<title>Node18&#45;&gt;Node5</title>
<g id="a_edge23_Node000018_Node000005"><a xlink:title=" ">
<path fill="none" stroke="#63b8ff" d="M500.87,-215.43C494.1,-207.53 486.67,-197.79 481.5,-188 460.99,-149.15 449.94,-97.15 446.09,-76.26"/>
<polygon fill="#63b8ff" stroke="#63b8ff" points="498.04,-217.52 507.32,-222.62 503.25,-212.84 498.04,-217.52"/>
</a>
</g>
</g>
<!-- Node18&#45;&gt;Node14 -->
<g id="edge35_Node000018_Node000014" class="edge">
<title>Node18&#45;&gt;Node14</title>
<g id="a_edge35_Node000018_Node000014"><a xlink:title=" ">
<path fill="none" stroke="#63b8ff" d="M491.52,-217.7C478.03,-209.41 461.49,-198.7 447.5,-188 423.69,-169.79 398.18,-145.48 384.85,-132.35"/>
<polygon fill="#63b8ff" stroke="#63b8ff" points="489.49,-220.56 499.86,-222.75 493.11,-214.57 489.49,-220.56"/>
</a>
</g>
</g>
<!-- Node18&#45;&gt;Node19 -->
<g id="edge24_Node000018_Node000019" class="edge">
<title>Node18&#45;&gt;Node19</title>
<g id="a_edge24_Node000018_Node000019"><a xlink:title=" ">
<path fill="none" stroke="#63b8ff" d="M517.5,-212.13C517.5,-203.9 517.5,-194.85 517.5,-188.3"/>
<polygon fill="#63b8ff" stroke="#63b8ff" points="514,-212.08 517.5,-222.08 521,-212.08 514,-212.08"/>
</a>
</g>
</g>
<!-- Node18&#45;&gt;Node21 -->
<g id="edge37_Node000018_Node000021" class="edge">
<title>Node18&#45;&gt;Node21</title>
<g id="a_edge37_Node000018_Node000021"><a xlink:title=" ">
<path fill="none" stroke="#63b8ff" d="M534.67,-215.53C541.64,-207.65 549.27,-197.9 554.5,-188 564.28,-169.5 569.65,-145.3 572.01,-132.27"/>
<polygon fill="#63b8ff" stroke="#63b8ff" points="532.25,-213 528,-222.71 537.37,-217.77 532.25,-213"/>
</a>
</g>
</g>
<!-- Node24 -->
<g id="Node000024" class="node">
<title>Node24</title>
<g id="a_Node000024"><a xlink:href="gfx_8cpp.html" target="_top" xlink:title=" ">
<polygon fill="white" stroke="#666666" points="649.62,-188 601.38,-188 601.38,-168 649.62,-168 649.62,-188"/>
<text xml:space="preserve" text-anchor="middle" x="625.5" y="-174.5" font-family="Helvetica,sans-Serif" font-size="10.00">gfx.cpp</text>
</a>
</g>
</g>
<!-- Node18&#45;&gt;Node24 -->
<g id="edge36_Node000018_Node000024" class="edge">
<title>Node18&#45;&gt;Node24</title>
<g id="a_edge36_Node000018_Node000024"><a xlink:title=" ">
<path fill="none" stroke="#63b8ff" d="M546.54,-218.48C565.59,-208.96 589.95,-196.78 606.54,-188.48"/>
<polygon fill="#63b8ff" stroke="#63b8ff" points="545.04,-215.31 537.67,-222.92 548.18,-221.58 545.04,-215.31"/>
</a>
</g>
</g>
<!-- Node19&#45;&gt;Node4 -->
<g id="edge34_Node000019_Node000004" class="edge">
<title>Node19&#45;&gt;Node4</title>
<g id="a_edge34_Node000019_Node000004"><a xlink:title=" ">
<path fill="none" stroke="#63b8ff" d="M478.42,-168.17C434.05,-158.15 362.08,-141.88 317.67,-131.85"/>
<polygon fill="#63b8ff" stroke="#63b8ff" points="477.61,-171.58 488.14,-170.37 479.16,-164.75 477.61,-171.58"/>
</a>
</g>
</g>
<!-- Node19&#45;&gt;Node5 -->
<g id="edge26_Node000019_Node000005" class="edge">
<title>Node19&#45;&gt;Node5</title>
<g id="a_edge26_Node000019_Node000005"><a xlink:title=" ">
<path fill="none" stroke="#63b8ff" d="M505.07,-158.27C489.3,-134.5 462.71,-94.44 450.71,-76.35"/>
<polygon fill="#63b8ff" stroke="#63b8ff" points="501.99,-159.96 510.44,-166.36 507.83,-156.09 501.99,-159.96"/>
</a>
</g>
</g>
<!-- Node19&#45;&gt;Node6 -->
<g id="edge25_Node000019_Node000006" class="edge">
<title>Node19&#45;&gt;Node6</title>
<g id="a_edge25_Node000019_Node000006"><a xlink:title=" ">
<path fill="none" stroke="#63b8ff" d="M515.25,-156.5C511.51,-130.69 501.94,-86.08 478.5,-56 465.91,-39.84 445.76,-27.96 429.98,-20.48"/>
<polygon fill="#63b8ff" stroke="#63b8ff" points="511.76,-156.83 516.49,-166.31 518.71,-155.95 511.76,-156.83"/>
</a>
</g>
</g>
<!-- Node19&#45;&gt;Node14 -->
<g id="edge28_Node000019_Node000014" class="edge">
<title>Node19&#45;&gt;Node14</title>
<g id="a_edge28_Node000019_Node000014"><a xlink:title=" ">
<path fill="none" stroke="#63b8ff" d="M482.08,-163.53C456.67,-153.87 423.06,-141.08 400.43,-132.48"/>
<polygon fill="#63b8ff" stroke="#63b8ff" points="480.76,-166.77 491.35,-167.06 483.25,-160.23 480.76,-166.77"/>
</a>
</g>
</g>
<!-- Node20 -->
<g id="Node000020" class="node">
<title>Node20</title>
<g id="a_Node000020"><a xlink:href="collider_8cpp.html" target="_top" xlink:title=" ">
<polygon fill="white" stroke="#666666" points="814.25,-132 748.75,-132 748.75,-112 814.25,-112 814.25,-132"/>
<text xml:space="preserve" text-anchor="middle" x="781.5" y="-118.5" font-family="Helvetica,sans-Serif" font-size="10.00">collider.cpp</text>
</a>
</g>
</g>
<!-- Node19&#45;&gt;Node20 -->
<g id="edge27_Node000019_Node000020" class="edge">
<title>Node19&#45;&gt;Node20</title>
<g id="a_edge27_Node000019_Node000020"><a xlink:title=" ">
<path fill="none" stroke="#63b8ff" d="M556.33,-169.06C608.28,-158.43 699.5,-139.77 748.37,-129.78"/>
<polygon fill="#63b8ff" stroke="#63b8ff" points="555.83,-165.59 546.74,-171.02 557.24,-172.44 555.83,-165.59"/>
</a>
</g>
</g>
<!-- Node19&#45;&gt;Node21 -->
<g id="edge29_Node000019_Node000021" class="edge">
<title>Node19&#45;&gt;Node21</title>
<g id="a_edge29_Node000019_Node000021"><a xlink:title=" ">
<path fill="none" stroke="#63b8ff" d="M535.29,-159.85C544.75,-150.72 556.02,-139.86 563.86,-132.3"/>
<polygon fill="#63b8ff" stroke="#63b8ff" points="533.11,-157.08 528.34,-166.54 537.97,-162.12 533.11,-157.08"/>
</a>
</g>
</g>
<!-- Node19&#45;&gt;Node23 -->
<g id="edge32_Node000019_Node000023" class="edge">
<title>Node19&#45;&gt;Node23</title>
<g id="a_edge32_Node000019_Node000023"><a xlink:title=" ">
<path fill="none" stroke="#63b8ff" d="M552,-163.4C576.48,-153.75 608.72,-141.05 630.45,-132.48"/>
<polygon fill="#63b8ff" stroke="#63b8ff" points="550.79,-160.12 542.77,-167.04 553.36,-166.63 550.79,-160.12"/>
</a>
</g>
</g>
<!-- Node21&#45;&gt;Node5 -->
<g id="edge30_Node000021_Node000005" class="edge">
<title>Node21&#45;&gt;Node5</title>
<g id="a_edge30_Node000021_Node000005"><a xlink:title=" ">
<path fill="none" stroke="#63b8ff" d="M540.7,-107.27C517.69,-97.64 487.52,-85.01 467.15,-76.48"/>
<polygon fill="#63b8ff" stroke="#63b8ff" points="539.06,-110.38 549.63,-111.01 541.76,-103.92 539.06,-110.38"/>
</a>
</g>
</g>
<!-- Node21&#45;&gt;Node22 -->
<g id="edge31_Node000021_Node000022" class="edge">
<title>Node21&#45;&gt;Node22</title>
<g id="a_edge31_Node000021_Node000022"><a xlink:title=" ">
<path fill="none" stroke="#63b8ff" d="M609.81,-107.66C636.16,-97.98 671.17,-85.12 694.69,-76.48"/>
<polygon fill="#63b8ff" stroke="#63b8ff" points="608.71,-104.34 600.53,-111.07 611.12,-110.91 608.71,-104.34"/>
</a>
</g>
</g>
<!-- Node23&#45;&gt;Node5 -->
<g id="edge33_Node000023_Node000005" class="edge">
<title>Node23&#45;&gt;Node5</title>
<g id="a_edge33_Node000023_Node000005"><a xlink:title=" ">
<path fill="none" stroke="#63b8ff" d="M607.01,-108.79C564.58,-97.88 504.03,-82.31 470.09,-73.58"/>
<polygon fill="#63b8ff" stroke="#63b8ff" points="605.9,-112.12 616.45,-111.22 607.64,-105.34 605.9,-112.12"/>
</a>
</g>
</g>
<!-- Node25&#45;&gt;Node16 -->
<g id="edge41_Node000025_Node000016" class="edge">
<title>Node25&#45;&gt;Node16</title>
<g id="a_edge41_Node000025_Node000016"><a xlink:title=" ">
<path fill="none" stroke="#63b8ff" d="M537.01,-330.35C518.53,-320.84 494.99,-308.74 478.93,-300.48"/>
<polygon fill="#63b8ff" stroke="#63b8ff" points="535.37,-333.44 545.86,-334.9 538.57,-327.22 535.37,-333.44"/>
</a>
</g>
</g>
<!-- Node25&#45;&gt;Node17 -->
<g id="edge42_Node000025_Node000017" class="edge">
<title>Node25&#45;&gt;Node17</title>
<g id="a_edge42_Node000025_Node000017"><a xlink:title=" ">
<path fill="none" stroke="#63b8ff" d="M549.5,-327C541.55,-318.06 532.28,-307.62 525.77,-300.3"/>
<polygon fill="#63b8ff" stroke="#63b8ff" points="546.87,-329.31 556.13,-334.46 552.11,-324.66 546.87,-329.31"/>
</a>
</g>
</g>
<!-- Node26 -->
<g id="Node000026" class="node">
<title>Node26</title>
<g id="a_Node000026"><a xlink:href="_param_table_8cpp.html" target="_top" xlink:title=" ">
<polygon fill="white" stroke="#666666" points="638.75,-300 552.25,-300 552.25,-280 638.75,-280 638.75,-300"/>
<text xml:space="preserve" text-anchor="middle" x="595.5" y="-286.5" font-family="Helvetica,sans-Serif" font-size="10.00">ParamTable.cpp</text>
</a>
</g>
</g>
<!-- Node25&#45;&gt;Node26 -->
<g id="edge40_Node000025_Node000026" class="edge">
<title>Node25&#45;&gt;Node26</title>
<g id="a_edge40_Node000025_Node000026"><a xlink:title=" ">
<path fill="none" stroke="#63b8ff" d="M576.29,-325.58C581.07,-316.97 586.48,-307.24 590.33,-300.3"/>
<polygon fill="#63b8ff" stroke="#63b8ff" points="573.26,-323.83 571.46,-334.27 579.38,-327.23 573.26,-323.83"/>
</a>
</g>
</g>
<!-- Node27&#45;&gt;Node4 -->
<g id="edge51_Node000027_Node000004" class="edge">
<title>Node27&#45;&gt;Node4</title>
<g id="a_edge51_Node000027_Node000004"><a xlink:title=" ">
<path fill="none" stroke="#63b8ff" d="M770.04,-173.86C678.1,-168.17 486.37,-154.6 325.5,-132 322.95,-131.64 320.33,-131.24 317.69,-130.81"/>
<polygon fill="#63b8ff" stroke="#63b8ff" points="769.58,-177.34 779.77,-174.46 770,-170.36 769.58,-177.34"/>
</a>
</g>
</g>
<!-- Node27&#45;&gt;Node14 -->
<g id="edge47_Node000027_Node000014" class="edge">
<title>Node27&#45;&gt;Node14</title>
<g id="a_edge47_Node000027_Node000014"><a xlink:title=" ">
<path fill="none" stroke="#63b8ff" d="M770.28,-170.48C679.26,-159.53 497.72,-137.7 416.47,-127.93"/>
<polygon fill="#63b8ff" stroke="#63b8ff" points="769.6,-173.92 779.95,-171.64 770.43,-166.97 769.6,-173.92"/>
</a>
</g>
</g>
<!-- Node27&#45;&gt;Node20 -->
<g id="edge46_Node000027_Node000020" class="edge">
<title>Node27&#45;&gt;Node20</title>
<g id="a_edge46_Node000027_Node000020"><a xlink:title=" ">
<path fill="none" stroke="#63b8ff" d="M809.94,-158.72C802.87,-149.84 794.68,-139.55 788.9,-132.3"/>
<polygon fill="#63b8ff" stroke="#63b8ff" points="807.1,-160.77 816.07,-166.41 812.58,-156.41 807.1,-160.77"/>
</a>
</g>
</g>
<!-- Node27&#45;&gt;Node22 -->
<g id="edge49_Node000027_Node000022" class="edge">
<title>Node27&#45;&gt;Node22</title>
<g id="a_edge49_Node000027_Node000022"><a xlink:title=" ">
<path fill="none" stroke="#63b8ff" d="M829.57,-156.51C831.75,-142.79 832.12,-124.95 823.5,-112 807.5,-87.96 775.57,-76.67 751.49,-71.43"/>
<polygon fill="#63b8ff" stroke="#63b8ff" points="826.16,-155.7 827.57,-166.2 833.02,-157.12 826.16,-155.7"/>
</a>
</g>
</g>
<!-- Node27&#45;&gt;Node23 -->
<g id="edge50_Node000027_Node000023" class="edge">
<title>Node27&#45;&gt;Node23</title>
<g id="a_edge50_Node000027_Node000023"><a xlink:title=" ">
<path fill="none" stroke="#63b8ff" d="M784.13,-164.18C753.49,-154.44 712.04,-141.28 684.34,-132.48"/>
<polygon fill="#63b8ff" stroke="#63b8ff" points="782.86,-167.44 793.45,-167.14 784.97,-160.77 782.86,-167.44"/>
</a>
</g>
</g>
<!-- Node28 -->
<g id="Node000028" class="node">
<title>Node28</title>
<g id="a_Node000028"><a xlink:href="entity_manager_8cpp.html" target="_top" xlink:title=" ">
<polygon fill="white" stroke="#666666" points="966.62,-132 870.38,-132 870.38,-112 966.62,-112 966.62,-132"/>
<text xml:space="preserve" text-anchor="middle" x="918.5" y="-118.5" font-family="Helvetica,sans-Serif" font-size="10.00">entityManager.cpp</text>
</a>
</g>
</g>
<!-- Node27&#45;&gt;Node28 -->
<g id="edge48_Node000027_Node000028" class="edge">
<title>Node27&#45;&gt;Node28</title>
<g id="a_edge48_Node000027_Node000028"><a xlink:title=" ">
<path fill="none" stroke="#63b8ff" d="M850.47,-162.08C866.94,-152.62 887.76,-140.66 902,-132.48"/>
<polygon fill="#63b8ff" stroke="#63b8ff" points="849.11,-158.82 842.19,-166.84 852.6,-164.89 849.11,-158.82"/>
</a>
</g>
</g>
<!-- Node29&#45;&gt;Node20 -->
<g id="edge56_Node000029_Node000020" class="edge">
<title>Node29&#45;&gt;Node20</title>
<g id="a_edge56_Node000029_Node000020"><a xlink:title=" ">
<path fill="none" stroke="#63b8ff" d="M884.31,-212.48C885.72,-198.75 885.23,-180.9 876.5,-168 862.38,-147.14 835.88,-135.7 814.45,-129.57"/>
<polygon fill="#63b8ff" stroke="#63b8ff" points="880.88,-211.77 882.89,-222.17 887.81,-212.79 880.88,-211.77"/>
</a>
</g>
</g>
</g>
</svg>
